<svg width="120" height="254" viewBox="0 0 120 254" fill="none" xmlns="http://www.w3.org/2000/svg">
<path d="M79.2966 173.668L84.981 194.264C86.5047 199.797 83.6388 205.594 78.3171 207.742C72.5305 210.071 65.9514 207.27 63.619 201.485C63.4136 200.973 63.2454 200.447 63.1158 199.911L58.1112 179.143C56.8424 173.868 59.6299 168.459 64.6627 166.431C67.3542 165.346 70.3665 165.375 73.0366 166.511C75.7068 167.648 77.8161 169.798 78.9005 172.49C79.0557 172.874 79.1879 173.268 79.2966 173.668Z" fill="white"/>
<path fill-rule="evenodd" clip-rule="evenodd" d="M83.3075 204.283C81.1175 207.159 77.7095 208.847 74.0947 208.845H74.0786C68.7367 208.834 64.0942 205.173 62.8383 199.981L57.8336 179.213C56.6008 173.335 60.2067 167.526 66.0215 166.023C71.8364 164.52 77.8055 167.854 79.5757 173.593L85.2547 194.189C86.2178 197.674 85.4974 201.408 83.3075 204.283ZM84.7191 194.339L79.024 173.747L79.0347 173.726C77.5566 168.028 71.7393 164.607 66.0414 166.085C60.3434 167.563 56.9225 173.381 58.4006 179.079L63.4052 199.846C63.432 199.959 63.4641 200.077 63.4962 200.189C65.1117 206.05 71.1723 209.491 77.0328 207.875C82.8933 206.26 86.3346 200.199 84.7191 194.339Z" fill="#0C121B"/>
<path d="M86.1751 194.28L89.0708 207.357C88.988 208.18 88.2928 208.806 87.465 208.802H42.8141C41.9272 208.802 41.2083 208.083 41.2083 207.196C41.2031 207.134 41.2031 207.071 41.2083 207.009C42.1262 199.102 48.8194 193.136 56.7789 193.13L61.3392 193.022C68.2173 196.432 78.2105 196.71 85.2277 193.601C85.3899 193.525 85.5757 193.518 85.743 193.582C85.9103 193.645 86.0449 193.774 86.1162 193.938C86.1675 194.044 86.1879 194.163 86.1751 194.28Z" fill="#585BB5"/>
<path d="M40.7309 119.264C41.6349 114.936 44.0836 111.085 47.6197 108.431L50.8312 106.691L69.0299 96.762C68.6437 95.6893 68.3185 94.5956 68.0557 93.4863L80.5593 90.4835L105.855 76.6953C107.36 78.7949 108.533 81.1127 109.335 83.568L114.687 82.278C118.231 97.0457 110.667 111.524 97.7838 114.618C96.8766 114.837 95.9556 114.994 95.0272 115.089L73.7401 128.133L92.0512 186.653L57.3185 187.498L41.5606 127.261L40.6507 123.744C40.4589 122.255 40.486 120.746 40.7309 119.264Z" fill="white"/>
<path fill-rule="evenodd" clip-rule="evenodd" d="M92.4532 186.926L57.1263 187.793L41.2935 127.357L40.3836 123.825V123.755C40.1854 122.247 40.207 120.718 40.4478 119.216C41.3629 114.801 43.8652 110.874 47.481 108.179L68.6878 96.6284C68.3329 95.6189 68.031 94.5916 67.7833 93.5507L67.7137 93.2723L80.4634 90.2107L105.947 76.3262L106.097 76.5296C107.565 78.5808 108.723 80.837 109.533 83.2256L114.918 81.9356L114.982 82.214C116.741 89.1819 115.92 96.5509 112.67 102.96C109.437 109.143 104.186 113.382 97.8699 114.897C96.9711 115.112 96.0593 115.27 95.1401 115.368L74.0993 128.257L92.4532 186.926ZM57.5603 187.209L91.6881 186.374L73.4948 128.219L73.4306 128.005L94.9639 114.811H95.0281C95.9435 114.717 96.8518 114.563 97.7472 114.35C103.924 112.868 109.046 108.736 112.199 102.698C115.346 96.4996 116.172 89.3801 114.527 82.6259L109.175 83.9105L109.095 83.659C108.328 81.3131 107.217 79.0943 105.797 77.0753L80.7208 90.7404L68.4099 93.7004C68.6615 94.7066 68.9612 95.7022 69.3091 96.671L69.3948 96.9012L50.9606 106.948L47.7865 108.671C43.0767 112.155 40.4935 117.819 40.9513 123.659L41.8506 127.165L57.5603 187.209Z" fill="#585BB5"/>
<path d="M112.804 218.051L115.673 239.22C116.448 244.909 112.83 250.274 107.264 251.686C104.36 252.422 101.283 251.975 98.7092 250.442C96.1354 248.909 94.276 246.417 93.5402 243.513C93.407 242.985 93.3104 242.448 93.2512 241.907L91.0727 220.657C90.5186 215.258 94.0064 210.269 99.2674 208.935C102.08 208.22 105.061 208.652 107.555 210.135C110.048 211.619 111.85 214.033 112.563 216.846C112.664 217.243 112.745 217.645 112.804 218.051Z" fill="white"/>
<path fill-rule="evenodd" clip-rule="evenodd" d="M113.207 248.351C111.007 250.869 107.825 252.312 104.481 252.307L104.486 252.329C98.5477 252.329 93.5717 247.837 92.9676 241.929L90.7891 220.679C90.337 214.681 94.6864 209.391 100.658 208.674C106.63 207.957 112.108 212.068 113.088 218.003L115.957 239.172C116.41 242.485 115.408 245.832 113.207 248.351ZM115.385 239.22L112.51 218.051C111.788 212.23 106.498 208.086 100.674 208.78C94.8493 209.474 90.6805 214.744 91.3463 220.572L93.5248 241.821C93.5301 241.864 93.5373 241.907 93.5444 241.95C93.5587 242.036 93.573 242.121 93.573 242.207C94.5141 248.12 100.008 252.197 105.94 251.385C111.872 250.572 116.068 245.169 115.385 239.22Z" fill="#0C121B"/>
<path d="M116.396 238.439L118.275 251.526C118.197 252.354 117.5 252.986 116.669 252.982L73.158 253.378C72.2712 253.378 71.5522 252.659 71.5522 251.772C71.5522 251.708 71.5522 251.649 71.5522 251.585C72.3919 243.667 79.0328 237.637 86.9944 237.561L93.5031 237.497C100.417 240.84 108.459 240.934 115.449 237.754C115.787 237.599 116.187 237.747 116.342 238.086C116.39 238.197 116.409 238.319 116.396 238.439Z" fill="#585BB5"/>
<path d="M76.9469 159.639C78.811 167.203 86.16 172.078 93.854 170.854C101.548 169.629 107.021 162.714 106.445 154.945C106.371 153.873 106.181 152.812 105.877 151.781C103.791 144.589 96.7157 140.041 89.3064 141.129C81.8971 142.217 76.4281 148.607 76.4972 156.096C76.506 157.29 76.657 158.48 76.9469 159.639Z" fill="white"/>
<path fill-rule="evenodd" clip-rule="evenodd" d="M102.318 166.772C99.4569 169.649 95.5696 171.271 91.512 171.281L91.5227 171.254C84.5146 171.248 78.4044 166.487 76.6854 159.693C76.3907 158.527 76.2361 157.33 76.2251 156.128V156.074C76.2742 147.901 82.7466 141.213 90.9143 140.896C99.0821 140.579 106.053 146.746 106.735 154.891V154.94C106.767 155.271 106.767 155.609 106.767 155.94C106.78 159.998 105.179 163.894 102.318 166.772ZM93.7862 170.52C101.307 169.332 106.678 162.601 106.167 155.004L106.162 154.993C105.597 147.09 98.8729 141.054 90.9548 141.343C83.0367 141.631 76.77 148.14 76.7816 156.063V156.112C76.7925 157.278 76.9417 158.438 77.2258 159.569L76.9475 159.639L77.2258 159.575C79.0809 166.959 86.2652 171.708 93.7862 170.52Z" fill="#585BB5"/>
<path d="M69.8132 90.4462L91.7587 84.8688C92.9875 84.5646 94.232 85.3074 94.5474 86.5335L94.5795 86.6887V86.8064L103.625 84.6333C105.852 93.9093 103.695 103.073 98.5939 109.373L106.13 151.679L106.478 153.628L106.708 154.902L119.281 225.009L86.0315 233.45L76.6591 159.708L76.2042 156.111L70.8837 114.683L68.1272 93.1867L68.1004 92.9779C67.9476 91.822 68.6834 90.7344 69.8132 90.4462Z" fill="white"/>
<path fill-rule="evenodd" clip-rule="evenodd" d="M119.608 225.223L85.791 233.787L75.9155 156.197V156.165V156.133L67.8385 93.2347V93.026C67.6709 91.732 68.4957 90.5166 69.7601 90.1945L91.7056 84.6171C93.0872 84.2691 94.49 85.1045 94.8422 86.4852L103.877 84.3174L103.941 84.5904C106.104 93.5773 104.231 102.869 98.9369 109.474L106.43 151.636L119.608 225.223ZM86.2989 233.075L118.976 224.779L106.451 154.982L98.3208 109.292L98.4064 109.191C103.598 102.784 105.472 93.7538 103.448 84.9756L94.3813 87.1541L94.3117 86.742L94.2796 86.6028C94.1495 86.0858 93.8191 85.6417 93.3612 85.3685C92.9033 85.0954 92.3556 85.0157 91.8388 85.1469L69.8934 90.7189C68.9087 90.9702 68.2658 91.9161 68.3946 92.9242L76.4984 156.084V156.116L76.948 159.66V159.708L86.2989 233.075Z" fill="#585BB5"/>
<path d="M84.861 60.2305C80.4203 60.2305 76.417 62.9058 74.7181 67.0087C73.0192 71.1115 73.9594 75.8338 77.1003 78.9731C80.2411 82.1124 84.9638 83.0503 89.0659 81.3494C93.1679 79.6486 95.8413 75.6439 95.8391 71.2032C95.8362 65.1423 90.922 60.2305 84.861 60.2305Z" fill="white"/>
<path fill-rule="evenodd" clip-rule="evenodd" d="M95.1225 75.8948C93.2878 79.9054 89.2772 82.4726 84.8668 82.4592C79.6864 82.4435 75.1877 78.8894 73.9735 73.8533C72.7594 68.8172 75.1444 63.6035 79.7485 61.229C84.3526 58.8544 89.9834 59.934 93.3827 63.8431C96.2768 67.1711 96.9571 71.8841 95.1225 75.8948ZM94.4249 76.0267C96.3678 72.1542 95.7849 67.4925 92.9484 64.2176C89.0852 59.7573 82.3412 59.2641 77.8703 63.115C74.5876 65.9424 73.3327 70.4697 74.6915 74.5836C76.0503 78.6975 79.7548 81.5868 84.0758 81.9028C88.3967 82.2187 92.4821 79.8991 94.4249 76.0267Z" fill="#0C121B"/>
<path d="M93.4355 64.3412L72.3519 39.9282L55.7589 54.2731L76.8426 78.686" fill="white"/>
<path d="M76.6023 78.8842L77.0358 78.5095L56.1609 54.316L72.3416 40.3459L93.2166 64.5394L93.6501 64.1647L72.3845 39.543L55.3366 54.2625L76.6023 78.8842Z" fill="#0C121B"/>
<path d="M101.036 32.3169C94.9733 32.3169 90.0582 37.2319 90.0582 43.295C90.0582 49.358 94.9733 54.2731 101.036 54.2731C107.099 54.2731 112.014 49.358 112.014 43.295C112.014 37.2319 107.099 32.3169 101.036 32.3169Z" fill="#81FEC6"/>
<path fill-rule="evenodd" clip-rule="evenodd" d="M112.067 45.2614C111.117 50.6217 106.463 54.531 101.019 54.5407C96.9873 54.5479 93.2607 52.3954 91.2524 48.8997C89.2441 45.404 89.2617 41.1004 91.2986 37.6213C94.049 32.9234 99.7706 30.8717 104.88 32.7512C109.989 34.6307 113.017 39.9012 112.067 45.2614ZM111.389 40.5479C110.143 35.8634 105.904 32.601 101.057 32.5951C97.2409 32.5905 93.7109 34.6175 91.7915 37.9155C89.3533 42.1051 90.0345 47.4102 93.4522 50.8478C96.8699 54.2854 102.171 54.9975 106.375 52.5836C110.578 50.1697 112.635 45.2324 111.389 40.5479Z" fill="#81FEC6"/>
<path d="M110.735 48.4335L91.7499 37.4126L75.553 65.3047L94.5385 76.331L110.735 48.4335Z" fill="#81FEC6"/>
<path fill-rule="evenodd" clip-rule="evenodd" d="M111.126 48.3744L94.6401 76.7429L75.1622 65.433L91.648 37.0645L111.126 48.3744ZM94.4312 75.9562L110.344 48.5565L91.8567 37.8514L75.9435 65.2511L94.4312 75.9562Z" fill="#81FEC6"/>
<path d="M43.9572 39.1041C44.4214 38.5606 45.0838 38.2253 45.7966 38.173C46.5095 38.1207 47.2137 38.3558 47.7522 38.8258L53.5544 43.8358C53.72 43.3035 53.9257 42.7846 54.1699 42.2835L48.8923 36.3047C48.4171 35.7717 48.1747 35.0709 48.2189 34.3582C48.2632 33.6455 48.5904 32.98 49.1278 32.5098C49.6604 32.0323 50.362 31.7879 51.076 31.8312C51.79 31.8744 52.457 32.2017 52.9281 32.7399L57.6919 38.1353C58.1536 37.8085 58.6405 37.5185 59.1478 37.2682L55.1869 30.7006C54.6897 29.8764 54.67 28.8496 55.1351 28.0069C55.6003 27.1642 56.4797 26.6337 57.4421 26.6152C58.4045 26.5968 59.3036 27.0931 59.8008 27.9173L64.7626 36.1442C70.282 36.5144 74.6627 40.9352 74.9826 46.4577C75.3026 51.9802 71.4617 56.8773 66.022 57.8824C60.5823 58.8875 55.245 55.6862 53.5704 50.4141C53.0623 50.3381 52.5857 50.1211 52.1948 49.7878L44.2249 42.8991C43.6813 42.4349 43.346 41.7726 43.2937 41.0597C43.2415 40.3468 43.4765 39.6426 43.9465 39.1041H43.9572Z" fill="white"/>
<path fill-rule="evenodd" clip-rule="evenodd" d="M65.1696 58.3038C64.7896 58.3626 64.4042 58.3626 64.0188 58.3626H64.0135C59.1747 58.3582 54.8819 55.2577 53.3565 50.6657C52.861 50.5659 52.3999 50.339 52.0184 50.0073L44.0431 43.1239C42.8303 42.0398 42.7104 40.1837 43.7736 38.9526C44.8368 37.7214 46.6906 37.5698 47.9397 38.6117L53.4208 43.3434C53.5392 43.0005 53.6768 42.6646 53.8329 42.3371L48.6784 36.5028C47.6328 35.2642 47.7683 33.4171 48.9836 32.3444C50.1989 31.2718 52.0486 31.3666 53.1478 32.558L57.7456 37.7607C58.0702 37.5415 58.4061 37.3396 58.7519 37.1558L54.9516 30.8505C54.1838 29.4489 54.6578 27.6911 56.0262 26.8655C57.3945 26.0399 59.1705 26.4401 60.0526 27.7728L64.9394 35.8766C70.8398 36.2191 75.4671 41.0727 75.5277 46.9827C75.5884 52.8927 71.0617 57.8402 65.1696 58.3038ZM59.5649 28.0675C59.1274 27.3444 58.3441 26.902 57.4989 26.9007L57.4935 26.9382C57.0578 26.9427 56.6312 27.0627 56.2571 27.2861C55.7096 27.6159 55.3157 28.1499 55.1621 28.7703C55.0085 29.3907 55.1078 30.0468 55.4381 30.5939L59.5596 37.4291L59.2813 37.563C58.787 37.8092 58.3127 38.0938 57.8628 38.414L57.6541 38.5585L52.719 32.9758C51.8322 31.9781 50.3045 31.8883 49.3068 32.7751C48.3091 33.6619 48.2192 35.1897 49.1061 36.1874L54.5121 42.3107L54.4318 42.482C54.1921 42.9683 53.9916 43.4731 53.8324 43.9914L53.6986 44.4089L47.5699 39.1098C46.5625 38.2417 45.0427 38.3518 44.171 39.3561C43.3029 40.3634 43.413 41.8832 44.4172 42.7549L52.3925 49.6383C52.7419 49.9296 53.1671 50.1153 53.6183 50.1736H53.7949L53.8484 50.3448C55.4799 55.4925 60.6899 58.6191 65.9999 57.6371C71.3098 56.6552 75.0571 51.8722 74.7398 46.4815C74.4226 41.0909 70.1401 36.7805 64.7516 36.4282H64.6017L59.5649 28.0675Z" fill="#0C121B"/>
<path d="M62.4705 29.2771C61.8528 29.6392 61.406 30.2338 61.23 30.9279C61.0539 31.6219 61.1634 32.3576 61.5338 32.9704L66.9292 42.0215C67.2922 42.6383 67.8872 43.084 68.5812 43.259C69.2752 43.434 70.0103 43.3237 70.6224 42.9529C71.2392 42.5898 71.6849 41.9948 71.8599 41.3009C72.0349 40.6069 71.9247 39.8717 71.5538 39.2596L66.1638 30.2138C65.8016 29.5961 65.207 29.1493 64.513 28.9733C63.8189 28.7972 63.0833 28.9067 62.4705 29.2771Z" fill="white"/>
<path fill-rule="evenodd" clip-rule="evenodd" d="M70.7613 43.2047C70.3012 43.4778 69.7762 43.622 69.2412 43.6222C68.1912 43.622 67.2182 43.0715 66.6773 42.1717L61.2873 33.1205C60.6879 32.2044 60.6388 31.0334 61.1595 30.0703C61.6802 29.1072 62.6869 28.507 63.7817 28.5068C64.8765 28.5067 65.8834 29.1066 66.4043 30.0696L71.7997 39.1207C72.6366 40.5358 72.1725 42.3612 70.7613 43.2047ZM67.1704 41.8773C67.8516 43.0166 69.3262 43.3901 70.4676 42.7123C71.0168 42.387 71.414 41.8566 71.5717 41.238C71.7293 40.6195 71.6344 39.9636 71.3079 39.4151L65.9179 30.364C65.9075 30.3473 65.8979 30.3307 65.8885 30.3144C65.8737 30.2887 65.8593 30.2638 65.843 30.2409C65.1124 29.1606 63.6548 28.8579 62.5546 29.5581C61.4544 30.2582 61.1112 31.7068 61.7804 32.8261L67.1704 41.8773Z" fill="#0C121B"/>
<path d="M68.0842 93.4706L114.732 82.2677C111.183 67.5 97.8605 58.0367 84.9822 61.1304C72.104 64.2242 64.5355 78.7082 68.0842 93.4706Z" fill="#81FEC6"/>
<path fill-rule="evenodd" clip-rule="evenodd" d="M115.074 82.4763L67.8701 93.8184L67.8059 93.54C66.0464 86.5722 66.8677 79.203 70.1182 72.7936C73.3511 66.6114 78.6073 62.3721 84.918 60.8574C97.93 57.7315 111.429 67.3018 115.005 82.198L115.074 82.4763ZM68.2993 93.1173L114.385 82.0428C110.777 67.607 97.6741 58.3632 85.0528 61.3981C78.9027 62.8754 73.7803 67.0075 70.6277 73.0452C67.4809 79.2436 66.6551 86.3631 68.2993 93.1173Z" fill="#81FEC6"/>
<path d="M68.4269 81.9466L109.187 72.1515L107.581 43.0496C107.388 40.755 106.6 38.5503 105.295 36.6533C103.154 33.581 99.8998 31.9056 96.8168 32.6496L61.4257 41.1495C58.3427 41.8935 56.2177 44.8481 55.6878 48.5735C55.3885 50.8552 55.6873 53.1755 56.5549 55.307L68.4269 81.9466Z" fill="#81FEC6"/>
<path fill-rule="evenodd" clip-rule="evenodd" d="M109.475 72.376L68.2605 82.2782L56.2868 55.4138C55.4033 53.2359 55.099 50.8662 55.4036 48.5358C55.971 44.5588 58.2512 41.6256 61.3557 40.8763L96.7467 32.3764C99.8512 31.6271 103.218 33.2061 105.53 36.4925C106.864 38.4349 107.67 40.6908 107.869 43.0387L109.475 72.376ZM68.5872 81.6144L108.886 71.9317L107.297 43.0814C107.109 40.8355 106.34 38.6772 105.065 36.819C102.886 33.7305 99.7497 32.2372 96.8807 32.9277L61.4897 41.4329C58.6154 42.118 56.5011 44.8692 55.9658 48.616C55.6758 50.845 55.9671 53.1111 56.8115 55.1943L68.5872 81.6144Z" fill="#81FEC6"/>
<path d="M99.0603 32.1197L59.2427 41.7062C53.664 43.0511 50.2307 48.6624 51.5725 54.2418L51.9043 55.6174C53.2493 61.1961 58.8606 64.6295 64.44 63.2876L104.258 53.728C109.836 52.3855 113.269 46.7758 111.928 41.1977L111.596 39.8167C110.251 34.238 104.64 30.8047 99.0603 32.1465V32.1197Z" fill="#81FEC6"/>
<path fill-rule="evenodd" clip-rule="evenodd" d="M64.4761 63.5552C63.6524 63.7543 62.8079 63.8549 61.9604 63.8549V63.8335C57.0312 63.8163 52.7509 60.4353 51.5925 55.6441L51.266 54.2631C49.9171 48.5378 53.4402 42.7965 59.1557 41.4063L98.9894 31.836C104.722 30.4735 110.478 33.9997 111.868 39.7256L112.199 41.1066C113.562 46.8391 110.036 52.5948 104.31 53.9848L64.4761 63.5552ZM111.312 39.8595C110.216 35.3197 106.155 32.1196 101.485 32.1143L101.458 32.0876C100.663 32.0887 99.8712 32.1821 99.0978 32.3659L59.2641 41.9363C53.8374 43.2444 50.4959 48.701 51.7973 54.1294L52.1291 55.505C52.749 58.1164 54.3822 60.3741 56.6686 61.7798C58.9551 63.1856 61.7068 63.6241 64.3169 62.9985L104.151 53.4282C106.762 52.8084 109.02 51.1751 110.425 48.8887C111.831 46.6023 112.27 43.8505 111.644 41.2404L111.312 39.8595Z" fill="#81FEC6"/>
<path d="M83.6488 26.7031L73.8804 29.7273L76.2249 37.2851C76.6253 38.5869 77.5287 39.675 78.7345 40.3081C79.9404 40.9411 81.349 41.0668 82.6479 40.6572C83.9495 40.2569 85.0373 39.3533 85.6695 38.1471C86.3017 36.941 86.426 35.5323 86.0147 34.2342L83.6488 26.7031Z" fill="white"/>
<path fill-rule="evenodd" clip-rule="evenodd" d="M82.7286 40.9299C82.2087 41.0914 81.6672 41.1726 81.1228 41.1708C78.7654 41.1656 76.6826 39.6349 75.9737 37.3865L73.549 29.5558L83.8634 26.3442L86.2881 34.175C87.1663 37.0229 85.5742 40.0443 82.7286 40.9299ZM78.8701 40.0502C80.0041 40.6469 81.3292 40.7671 82.5522 40.3843C83.7757 40.0071 84.7987 39.1583 85.3952 38.0255C85.9918 36.8926 86.1128 35.5689 85.7316 34.3466L83.4782 27.0618L74.2557 29.9201L76.5092 37.2049C76.8864 38.4296 77.736 39.4536 78.8701 40.0502Z" fill="#0C121B"/>
<path d="M78.693 3.64941C72.6134 3.64941 67.6833 8.57472 67.6774 14.6543V21.27C67.676 24.1924 68.8359 26.9957 70.9019 29.0626C72.9679 31.1296 75.7705 32.2909 78.693 32.2909C84.7796 32.2909 89.7139 27.3567 89.7139 21.27V14.6543C89.705 8.57385 84.7734 3.64941 78.693 3.64941V3.64941Z" fill="white"/>
<path fill-rule="evenodd" clip-rule="evenodd" d="M89.9973 21.286C89.9914 27.5269 84.9336 32.5847 78.6927 32.5906C72.4456 32.5847 67.3852 27.5171 67.3881 21.2699V14.6542C67.3881 8.41084 72.4494 3.34961 78.6927 3.34961C84.9361 3.34961 89.9973 8.41084 89.9973 14.6542V21.286ZM89.4242 14.6435C89.4036 8.72935 84.6065 3.94425 78.6923 3.93839L78.6656 3.9491C72.7618 3.96965 67.981 8.75047 67.9605 14.6542V21.2592C67.9605 27.1863 72.7653 31.9911 78.6923 31.9911C84.6194 31.9911 89.4242 27.1863 89.4242 21.2592V14.6435Z" fill="#0C121B"/>
<path d="M67.7365 11.0091C67.7351 7.2935 69.6087 3.8281 72.7183 1.79455C75.828 -0.238991 79.7539 -0.566067 83.1572 0.924858C83.2817 0.949722 83.4023 0.991125 83.5158 1.04797L96.4958 7.6209C100.501 9.62781 103.141 13.6093 103.431 18.0801C103.721 22.551 101.617 26.8399 97.9035 29.3469C91.3329 33.7829 82.4107 32.0555 77.9706 25.4877C77.7279 25.1309 77.5031 24.7615 77.2962 24.3797L75.8189 21.7035V21.6232C71.0428 20.3076 67.7345 15.963 67.7365 11.0091Z" fill="#0C121B"/>
<path d="M72.6446 16.4581V19.4716C72.6374 20.044 72.8598 20.5955 73.2621 21.0028C73.6644 21.4102 74.2131 21.6394 74.7856 21.6394C75.358 21.6465 75.9095 21.4241 76.3168 21.0218C76.7242 20.6195 76.9534 20.0708 76.9534 19.4983V16.4635C76.9534 15.891 76.7242 15.3423 76.3168 14.94C75.9095 14.5377 75.358 14.3153 74.7856 14.3224C73.6052 14.3224 72.6475 15.2777 72.6446 16.4581Z" fill="white"/>
<path fill-rule="evenodd" clip-rule="evenodd" d="M77.2642 19.4928C77.2642 20.8476 76.1675 21.9467 74.8127 21.9496C74.1583 21.9468 73.5318 21.6841 73.071 21.2193C72.6103 20.7546 72.353 20.1258 72.3559 19.4714V16.4579C72.4171 15.147 73.4977 14.1157 74.81 14.1157C76.1223 14.1157 77.2029 15.147 77.2642 16.4579V19.4928ZM76.691 16.4579C76.691 15.4203 75.8499 14.5792 74.8123 14.5792C73.7801 14.588 72.9471 15.4257 72.9442 16.4579V19.4982C73.0467 20.4556 73.8547 21.1817 74.8176 21.1817C75.7805 21.1817 76.5885 20.4556 76.691 19.4982V16.4579Z" fill="#0C121B"/>
<path d="M4.71463 48.1127C5.17896 47.5675 5.8424 47.2312 6.55659 47.1788C7.27078 47.1265 7.97615 47.3626 8.51495 47.8343L14.3171 52.8497C14.4809 52.3168 14.6867 51.7977 14.9327 51.2974L9.65504 45.3186C8.67065 44.2042 8.77609 42.5027 9.89055 41.5183C11.005 40.5339 12.7065 40.6394 13.6909 41.7538L18.4546 47.1492C18.919 46.8249 19.4055 46.5334 19.9105 46.2767L15.9496 39.7092C15.181 38.4336 15.592 36.7765 16.8676 36.0079C18.1432 35.2393 19.8003 35.6503 20.5689 36.9258L25.5254 45.1581C28.4566 45.3491 31.1879 46.7109 33.1046 48.937L54.2097 73.3499C57.8707 77.9574 57.2452 84.6326 52.7919 88.4797C48.3386 92.3267 41.6434 91.9757 37.6168 87.6841L16.7418 63.4959L16.6026 63.3353L16.5491 63.2711C15.5812 62.1452 14.8527 60.8339 14.4081 59.4173C13.9013 59.3423 13.4262 59.1251 13.0378 58.791L5.06791 51.9023C4.52197 51.4387 4.1846 50.7757 4.13129 50.0614C4.07798 49.3472 4.31316 48.6414 4.78422 48.102L4.71463 48.1127Z" fill="white"/>
<path fill-rule="evenodd" clip-rule="evenodd" d="M55.6985 85.2175C53.8 89.0507 49.8963 91.4799 45.6188 91.49C42.5678 91.5031 39.6432 90.2718 37.5204 88.0804L16.4527 63.6835L16.3617 63.5764L16.0566 63.2178C15.1882 62.1625 14.5222 60.9557 14.0923 59.6584C13.5962 59.5554 13.1341 59.3289 12.7488 59L4.77346 52.1113C3.97126 51.4123 3.60287 50.3385 3.80707 49.2943C4.01127 48.2501 4.75703 47.3942 5.76343 47.0489C6.76983 46.7037 7.88398 46.9216 8.68618 47.6205L14.1672 52.3521C14.2865 52.0079 14.4241 51.6702 14.5793 51.3405L9.42483 45.5062C8.33549 44.2735 8.45172 42.3911 9.68443 41.3018C10.9171 40.2125 12.7995 40.3287 13.8889 41.5614L18.4921 46.7694C18.8154 46.5483 19.1514 46.3464 19.4983 46.1646L15.698 39.8539C15.6879 39.8405 15.679 39.8261 15.6713 39.8111C14.8376 38.3937 15.3109 36.5688 16.7284 35.7352C18.1459 34.9015 19.9707 35.3748 20.8043 36.7923L25.6912 44.896C28.5464 45.1222 31.2076 46.4299 33.1313 48.5518L54.397 73.1736L54.5789 73.3984C57.1634 76.807 57.5969 81.3843 55.6985 85.2175ZM53.9643 73.5321L53.8787 73.4251L33.0733 49.3386L32.8913 49.1245C32.4835 48.6551 32.0377 48.2201 31.5585 47.8238C29.8413 46.4165 27.7258 45.5834 25.5101 45.4419H25.3603L20.3235 37.0813L20.2593 36.9796C19.5439 35.8577 18.0545 35.5282 16.9327 36.2436C15.8108 36.959 15.4813 38.4483 16.1967 39.5702L20.3182 46.4054L20.0398 46.5446C19.5446 46.787 19.0701 47.0698 18.6214 47.3903L18.4127 47.5401L13.4776 41.9521C12.5908 40.9559 11.0643 40.8672 10.068 41.754C9.07182 42.6409 8.98315 44.1674 9.86999 45.1636L15.2761 51.2816L15.1904 51.4528C14.9516 51.9415 14.7512 52.4479 14.5909 52.9676L14.4571 53.3851L8.32846 48.0861C7.8452 47.6678 7.2155 47.4587 6.578 47.5049C5.94051 47.551 5.34751 47.8487 4.92959 48.3323C4.06279 49.3411 4.17529 50.861 5.18116 51.7312L13.1511 58.6146C13.5002 58.9064 13.9255 59.0921 14.3768 59.1498L14.5535 59.1766L14.607 59.3479C15.0456 60.7282 15.7634 62.0035 16.7159 63.0946L16.914 63.3302L37.6123 87.2935L37.7996 87.4916C41.7623 91.4799 48.1352 91.7232 52.3904 88.0485C56.6456 84.3738 57.3331 78.0334 53.9643 73.5321Z" fill="#0C121B"/>
<path d="M4.66291 43.5577C5.46756 45.3272 6.69777 46.87 8.24376 48.0485C8.70491 48.4118 9.18947 48.7444 9.6943 49.044C11.5389 50.1293 13.5471 50.9084 15.641 51.351C15.9889 51.4313 16.3475 51.5009 16.7115 51.5704C18.38 51.8673 20.0698 52.0284 21.7643 52.0522C22.0855 52.0522 22.4066 52.0522 22.7278 52.0522C24.2865 52.0397 25.8432 51.9361 27.3898 51.7417C27.6896 51.7096 27.9893 51.6668 28.2944 51.624C29.7342 51.4206 31.2008 51.1369 32.6942 50.7836L33.5506 50.5695C34.9369 50.2109 36.3393 49.788 37.747 49.301L38.566 49.0119C39.8292 48.5552 41.0924 48.0431 42.3556 47.4757L42.5804 47.374C42.848 47.2563 43.1156 47.1385 43.3618 47.0101C44.6893 46.3892 45.9685 45.7272 47.1996 45.0243C47.4512 44.8851 47.7028 44.7352 47.949 44.5907C48.1952 44.4462 48.4842 44.2749 48.7412 44.1143C49.7314 43.5041 50.6895 42.8779 51.6048 42.2302L52.3167 41.695C53.4567 40.86 54.538 39.9982 55.5282 39.1044L55.7423 38.9117C55.9671 38.7136 56.1865 38.5102 56.406 38.3068C57.5426 37.2684 58.615 36.162 59.6175 34.9936C59.8209 34.7527 60.0243 34.5065 60.2224 34.2603L60.292 34.18C60.7041 33.6448 61.0948 33.1416 61.4588 32.6171C62.0203 31.8239 62.5402 31.0021 63.0164 30.1549C63.193 29.8391 63.3643 29.5286 63.5195 29.2128C64.0864 28.0896 64.5522 26.9181 64.9112 25.7123C65.0397 25.2627 65.1521 24.8184 65.2377 24.3795C65.3233 23.9406 65.3715 23.6462 65.4197 23.309C65.4962 22.7376 65.5355 22.1619 65.5375 21.5855C65.5548 19.9269 65.2153 18.284 64.5419 16.7682L61.1644 9.89014L60.0404 10.3933L59.2536 10.7519L55.282 12.5129L54.4951 12.8662L50.5557 14.6486L49.7635 15.0018L45.824 16.7789L45.0372 17.1375L41.0924 18.9145L40.3055 19.2678L36.3607 21.0449L35.5739 21.4035L31.6291 23.1805L30.8422 23.5338L26.9028 25.3108L26.1106 25.6695L22.1711 27.4465L21.3843 27.7998L17.4394 29.5768L16.6526 29.9354L12.7078 31.7125L11.921 32.0658L7.98148 33.8428L7.18931 34.2014L3.24983 35.9785L2.46301 36.3317L1.32826 36.867L4.36316 42.9154L4.66291 43.5577Z" fill="#585BB5"/>
<path d="M59.264 10.7249L65.4516 23.2819C65.5254 22.7103 65.5647 22.1348 65.5693 21.5584L60.0723 10.3716L59.264 10.7249Z" fill="white"/>
<path d="M54.5316 12.8553L63.0208 30.1761C63.2028 29.8603 63.3687 29.5499 63.5239 29.2341L55.3185 12.5127L54.5316 12.8553Z" fill="white"/>
<path d="M49.7998 14.9909L59.6217 34.9934C59.8305 34.7526 60.0285 34.5063 60.2266 34.2601L50.592 14.6323L49.7998 14.9909Z" fill="white"/>
<path d="M45.0741 17.1209L55.7792 38.9112L56.4482 38.3063L45.8609 16.7944L45.0741 17.1209Z" fill="white"/>
<path d="M40.3417 19.257L51.5821 42.2087L52.2939 41.6735L41.1018 18.8823L40.3417 19.257Z" fill="white"/>
<path d="M35.6106 21.3923L47.1989 45.0024C47.4505 44.8632 47.7074 44.7187 47.9482 44.5688L36.3974 21.0176L35.6106 21.3923Z" fill="white"/>
<path d="M30.8787 23.5227L42.5794 47.3523L43.3662 46.9936L31.6655 23.1694L30.8787 23.5227Z" fill="white"/>
<path d="M26.1473 25.6531L37.7516 49.2792L38.5706 48.9902L26.9127 25.2998L26.1473 25.6531Z" fill="white"/>
<path d="M21.4207 27.7888L32.6985 50.762L33.5549 50.5479L22.2075 27.4355L21.4207 27.7888Z" fill="white"/>
<path d="M16.6887 29.9245L27.3938 51.7255L28.2983 51.6024L17.4755 29.5659L16.6887 29.9245Z" fill="white"/>
<path d="M11.958 32.0549L21.7638 52.0252C22.085 52.0252 22.4061 52.0252 22.7273 52.0252L12.7448 31.6855L11.958 32.0549Z" fill="white"/>
<path d="M7.22622 34.1906L15.6404 51.3188C15.9937 51.3991 16.347 51.4687 16.7109 51.5382L8.0184 33.8267L7.22622 34.1906Z" fill="white"/>
<path d="M2.49394 36.3206L8.24257 48.0266C8.7051 48.3864 9.18955 48.7171 9.69312 49.0168L3.27005 35.9673L2.49394 36.3206Z" fill="white"/>
<path d="M1.28883 36.653C5.57087 46.218 22.4368 47.979 38.9761 40.5765C41.1772 39.596 43.312 38.4731 45.3671 37.2151C47.7739 35.7482 50.0516 34.0793 52.1755 32.2265C53.8964 30.726 55.4832 29.0783 56.9179 27.3021C57.3318 26.7883 57.7226 26.2691 58.0901 25.7445C59.6115 23.6465 60.7762 21.3117 61.5371 18.8344C61.6656 18.3901 61.778 17.9459 61.869 17.5016C62.4484 14.9459 62.2049 12.2724 61.1732 9.86352C61.0768 9.64942 60.9698 9.43532 60.8574 9.23192C56.1311 0.223583 39.6452 -1.29119 23.4805 5.94011C19.6825 7.62063 16.0905 9.73273 12.7754 12.2347C12.1759 12.6897 11.5925 13.1553 11.0305 13.6317C8.70759 15.5556 6.61671 17.7434 4.80011 20.1511C4.44327 20.6436 4.09536 21.1413 3.75636 21.6445C2.65174 23.3094 1.76324 25.108 1.1122 26.997C0.517658 28.7173 0.23489 30.5299 0.277203 32.3496C0.318718 33.5975 0.562767 34.8304 0.999802 36C1.1015 36.2195 1.18713 36.4389 1.28883 36.653Z" fill="white"/>
<path fill-rule="evenodd" clip-rule="evenodd" d="M39.0946 40.8388C32.1898 43.9273 25.21 45.4206 19.0974 45.4206C10.4691 45.4206 3.56433 42.4446 1.01117 36.7709C0.904114 36.5354 0.813118 36.3159 0.738182 36.1018C0.291569 34.9011 0.0438766 33.6355 0.00488281 32.355C-0.041954 30.4993 0.244484 28.6501 0.850586 26.8954C1.50949 24.9854 2.40881 23.167 3.52686 21.484C3.86942 20.9862 4.22269 20.4777 4.59737 19.9746C6.42817 17.5508 8.53323 15.347 10.8706 13.407C11.4272 12.9413 12.0214 12.4703 12.6262 12.0047C15.953 9.49138 19.5575 7.36856 23.3688 5.67794C39.7047 -1.61223 56.2976 -0.124224 61.1149 9.09287C61.2273 9.29626 61.3344 9.51572 61.4361 9.74588C62.4969 12.2073 62.7463 14.9426 62.148 17.5552C62.0623 17.9942 61.9499 18.4545 61.8161 18.9094C61.0478 21.4193 59.8665 23.7836 58.3209 25.9052C57.9569 26.4084 57.5608 26.9436 57.1434 27.4789C55.6976 29.2688 54.0982 30.9291 52.3635 32.4407C50.2285 34.3059 47.9382 35.9855 45.5176 37.4614C43.4507 38.7227 41.3053 39.8509 39.0946 40.8388ZM46.4383 1.77574C45.4374 1.6901 44.4151 1.64193 43.3767 1.64193C37.1516 1.64193 30.2469 3.22093 23.599 6.19695C19.8274 7.86702 16.262 9.96853 12.9742 12.4594C12.3693 12.9144 11.7699 13.3854 11.2346 13.8457C8.93165 15.7577 6.85718 17.9291 5.05241 20.317C4.68843 20.8094 4.34052 21.3072 4.01936 21.7996C2.92701 23.4402 2.0492 25.2138 1.40732 27.0772C0.823093 28.7665 0.545746 30.5466 0.588383 32.3335C0.630589 33.5532 0.867298 34.7585 1.28956 35.9036C1.3645 36.1016 1.44479 36.3104 1.54649 36.5352C5.75359 45.9396 22.4964 47.6364 38.8645 40.3141C41.0525 39.3378 43.1748 38.2203 45.2179 36.9688C47.6104 35.5126 49.8739 33.8544 51.9836 32.0123C53.6951 30.5239 55.2713 28.8868 56.6938 27.1201C57.106 26.6062 57.4967 26.1138 57.8553 25.5785C59.363 23.5088 60.5152 21.2024 61.2649 18.754C61.3933 18.3044 61.5004 17.8655 61.586 17.4427C62.1617 14.9472 61.9254 12.333 60.9116 9.9812C60.8153 9.76175 60.7136 9.55835 60.6065 9.3603C58.3638 5.08897 53.3324 2.39664 46.4383 1.77574Z" fill="#585BB5"/>
<path d="M7.29668 33.9661C7.39302 34.1802 7.50008 34.3836 7.60713 34.5924C11.4663 41.6738 24.5961 42.8407 37.4262 37.1027C50.2562 31.3648 58.1298 20.7935 55.4268 13.1982C55.3465 12.9841 55.2609 12.7647 55.1645 12.5506C51.7496 4.91784 38.2344 3.51012 25.0404 9.41398C11.8463 15.3178 3.89781 26.3334 7.29668 33.9661Z" fill="#0C121B"/>
<path d="M7.60709 34.5872C11.4663 41.6686 24.5961 42.8408 37.4261 37.1029L38.2772 36.7068C40.9893 35.4369 43.5602 33.885 45.9474 32.0768C48.0769 30.4733 50.0069 28.6206 51.696 26.5583C52.0868 26.0713 52.4561 25.5735 52.804 25.081C54.2707 23.06 55.2857 20.7471 55.78 18.2994C55.8726 17.7776 55.9281 17.25 55.946 16.7204C55.9969 15.5228 55.8151 14.3267 55.4107 13.1984C51.5515 6.11696 38.4217 4.94475 25.5917 10.6827C24.0064 11.391 22.464 12.1917 20.9724 13.0806C20.2284 13.5195 19.5112 13.9799 18.8314 14.4509C16.1739 16.2306 13.7717 18.3645 11.6911 20.7936C11.2843 21.2807 10.8989 21.7732 10.5403 22.271C9.22821 24.0229 8.22699 25.9874 7.58033 28.0785C7.03507 29.8266 6.93752 31.6836 7.29664 33.4792C7.37493 33.8551 7.47865 34.2253 7.60709 34.5872Z" fill="#585BB5"/>
<path d="M31.4361 14.6489L30.403 12.3473L25.3556 14.606L26.3351 16.8006C22.8131 18.5295 19.5855 20.6437 17.771 22.3672L22.0852 24.717C24.3719 22.6553 26.9625 20.9583 29.7661 19.6856C32.1694 18.6151 33.1596 18.5188 33.379 19.0165C34.198 20.8418 19.6765 25.5681 22.0959 30.9795C23.1664 33.3186 26.9613 33.9769 33.0472 31.8198L34.0588 34.0786L39.1063 31.8198L38.116 29.6039C40.5361 28.4037 42.7979 26.9078 44.8495 25.1506L40.7227 22.7419C38.7672 24.4465 36.5771 25.8615 34.2194 26.9437C31.7465 28.0516 30.7723 27.9874 30.5529 27.4789C29.7714 25.734 44.2822 20.9863 41.8949 15.6391C40.9047 13.4231 37.2382 12.7219 31.4361 14.6489Z" fill="#0C121B"/>
<path d="M31.6553 15.4682L30.6276 13.1666L25.5748 15.4307L26.5597 17.6253C23.0324 19.3488 19.8101 21.4631 17.9956 23.1919L22.3151 25.5364C24.6018 23.4747 27.1925 21.7777 29.996 20.505C32.394 19.4345 33.3842 19.3381 33.609 19.8359C34.4226 21.6611 19.9011 26.3928 22.3205 31.7988C23.391 34.1379 27.1859 34.7963 33.2771 32.6445L34.2834 34.9033L39.3362 32.6392L38.346 30.4232C40.7672 29.225 43.0292 27.729 45.0795 25.9699L40.9527 23.5666C38.9944 25.2676 36.8048 26.6822 34.4493 27.7684C31.9765 28.871 31.0023 28.8389 30.7775 28.3036C30.0014 26.564 44.5121 21.811 42.1196 16.4638C41.0972 14.2532 37.4307 13.5574 31.6553 15.4682Z" fill="white"/>
<rect width="15.9292" height="5.39002" rx="2.69501" transform="matrix(-0.756767 -0.653685 -0.653685 0.756767 25.4316 56.0508)" fill="white"/>
<path fill-rule="evenodd" clip-rule="evenodd" d="M23.9649 58.1004C23.3998 58.756 22.5771 59.1332 21.7115 59.1334C20.9964 59.134 20.3049 58.8775 19.7632 58.4108L11.7932 51.5221C10.5804 50.438 10.4605 48.5818 11.5237 47.3507C12.5869 46.1195 14.4407 45.9679 15.6899 47.0099L23.6598 53.8986C24.9031 54.9753 25.0396 56.8554 23.9649 58.1004ZM20.1387 57.9775C21.1457 58.8437 22.6639 58.7311 23.5322 57.7259C23.9503 57.2435 24.1592 56.6147 24.113 55.9781C24.0668 55.3414 23.7693 54.7494 23.286 54.3324L15.3161 47.4436C15.2954 47.4212 15.272 47.4014 15.2465 47.3848C14.2208 46.5752 12.7367 46.7311 11.9016 47.7361C11.0665 48.7411 11.185 50.2287 12.1688 51.0887L20.1387 57.9775Z" fill="#0C121B"/>
<path d="M52.3007 46.7691L52.4987 46.4266C55.6473 41.4294 62.1864 39.8211 67.2937 42.7877C72.4009 45.7544 74.2436 52.2314 71.4628 57.4421L55.266 85.3343L38.7587 70.0956L52.3007 46.7691Z" fill="#81FEC6"/>
<path fill-rule="evenodd" clip-rule="evenodd" d="M71.8741 57.3405L55.3668 85.7894L38.4474 70.1706L52.075 46.6622L52.3213 46.8067L52.0857 46.6408L52.439 46.0574C55.6355 40.8703 62.3826 39.1743 67.6518 42.2334C72.9211 45.2925 74.7937 51.9928 71.8741 57.3405ZM55.2284 84.8846L71.1041 57.5438L71.2539 57.2815C73.6892 52.239 71.8269 46.1717 66.9819 43.3639C62.137 40.556 55.9467 41.9565 52.7823 46.5764L52.702 46.6888L39.1707 70.042L55.2284 84.8846Z" fill="#0C121B"/>
</svg>
