<svg width="130" height="292" viewBox="0 0 130 292" fill="none" xmlns="http://www.w3.org/2000/svg">
<path d="M44.0549 44.454L32.9082 42.833L31.6762 51.4686C31.4589 52.9456 31.8384 54.4483 32.7309 55.645C33.6234 56.8416 34.9556 57.6338 36.4332 57.8466C37.9108 58.064 39.4142 57.6847 40.6118 56.7923C41.8094 55.8999 42.6028 54.5678 42.8171 53.0897L44.0549 44.454Z" fill="white"/>
<path fill-rule="evenodd" clip-rule="evenodd" d="M43.1531 53.1193C42.7281 56.0465 40.2164 58.2166 37.2585 58.2123C36.9686 58.2137 36.679 58.194 36.392 58.1533C33.1449 57.6737 30.8968 54.6588 31.3639 51.4099L32.6607 42.4795L44.45 44.1889L43.1531 53.1193ZM42.5634 53.031L43.7423 44.7196L33.2498 43.187L32.0414 51.4984C31.8342 52.8942 32.1916 54.315 33.0345 55.4467C33.8774 56.5783 35.1365 57.3275 36.5331 57.5286C37.9298 57.7358 39.3515 57.3776 40.4833 56.5334C41.6151 55.6893 42.3637 54.4288 42.5634 53.031Z" fill="#222222"/>
<path d="M33.4448 17.7282C26.8404 18.8095 22.3576 25.0327 23.4239 31.6395L24.6028 38.831C25.6812 45.4372 31.9066 49.9215 38.5142 48.8518C45.1185 47.7705 49.6013 41.5473 48.535 34.9405L47.3561 27.7432C46.2749 21.1394 40.0504 16.6583 33.4448 17.7282Z" fill="white"/>
<path fill-rule="evenodd" clip-rule="evenodd" d="M45.9937 44.976C43.6269 47.7546 40.16 49.3547 36.51 49.3528C30.4041 49.3423 25.2043 44.911 24.2256 38.884L23.0467 31.6866C22.2914 27.2741 23.9634 22.7959 27.4256 19.958C30.8878 17.1202 35.6071 16.3596 39.7856 17.9662C43.964 19.5728 46.9581 23.2991 47.6273 27.7254L48.8062 34.9169C49.3886 38.5201 48.3605 42.1974 45.9937 44.976ZM47.0202 27.8255C46.0991 22.1066 41.1708 17.897 35.3783 17.8812C34.7505 17.8773 34.1234 17.9266 33.5038 18.0286C30.4029 18.5224 27.6254 20.2288 25.7834 22.7718C23.9414 25.3148 23.1859 28.4858 23.6834 31.5862L24.8623 38.7836C25.5352 42.9523 28.3809 46.4454 32.3275 47.9471C36.2742 49.4487 40.7222 48.7308 43.996 46.0637C47.2698 43.3967 48.872 39.1856 48.1992 35.0169L47.0202 27.8255Z" fill="#222222"/>
<path d="M27.78 15.647C28.0983 15.647 28.4167 15.647 28.735 15.6883C29.2086 14.8668 29.7551 14.0895 30.3678 13.3658C34.942 7.98399 42.2101 6.6459 46.6016 10.3772C50.9931 14.1085 50.8457 21.4945 46.2774 26.8822C44.7874 28.6639 42.905 30.0762 40.7777 31.0084C40.5537 38.9838 34.8241 45.3677 27.8095 45.3677C20.624 45.3677 14.8001 38.7245 14.8001 30.5251C14.8001 22.3256 20.5886 15.647 27.78 15.647Z" fill="#222222"/>
<path d="M36.3922 31.5328L36.9227 34.8338C37.0165 35.4617 37.3596 36.0253 37.8744 36.397C38.3892 36.7687 39.0322 36.917 39.6578 36.8085C40.2832 36.7085 40.8433 36.3642 41.2147 35.8512C41.5862 35.3383 41.7386 34.6987 41.6384 34.0734L41.102 30.7724C40.891 29.4724 39.6672 28.5888 38.3669 28.7977C37.7389 28.8915 37.1753 29.2346 36.8036 29.7494C36.4319 30.2642 36.2836 30.9072 36.3922 31.5328Z" fill="white"/>
<path fill-rule="evenodd" clip-rule="evenodd" d="M39.7285 37.1211C39.5862 37.1446 39.4423 37.1565 39.2981 37.1565C37.9699 37.154 36.8381 36.1917 36.622 34.8812L36.0915 31.5802C36.0942 31.5686 36.0942 31.5564 36.0915 31.5448C35.9451 30.5908 36.3188 29.6312 37.0718 29.0275C37.8248 28.4237 38.8427 28.2675 39.7421 28.6178C40.6414 28.968 41.2856 29.7715 41.432 30.7255L41.9625 34.0265C42.078 34.7333 41.9073 35.457 41.4881 36.0377C41.0689 36.6184 40.4357 37.0083 39.7285 37.1211ZM40.8071 30.8494C40.6608 29.8353 39.7923 29.0823 38.7676 29.0811V29.1518C38.6578 29.1428 38.5474 29.1428 38.4375 29.1518C37.3144 29.333 36.5466 30.3847 36.7163 31.5096L37.2468 34.8106C37.4808 35.8881 38.5166 36.5943 39.605 36.4187C40.6935 36.243 41.4545 35.2468 41.3377 34.1504L40.8071 30.8494Z" fill="#222222"/>
<path d="M9.02309 255.087L9.86602 278.6C10.0957 284.918 15.0281 290.059 21.3311 290.549C24.9331 290.822 28.4763 289.518 31.0425 286.975C33.6087 284.433 34.9453 280.902 34.706 277.298L33.085 253.825C32.6795 247.86 27.9633 243.094 22.0031 242.625C18.813 242.372 15.6531 243.397 13.2202 245.476C10.7874 247.555 9.28156 250.517 9.03487 253.707C9.00403 254.166 9.00009 254.627 9.02309 255.087Z" fill="white"/>
<path fill-rule="evenodd" clip-rule="evenodd" d="M31.3135 287.166C28.9231 289.559 25.6798 290.903 22.2978 290.903C21.9677 290.903 21.6553 290.891 21.3016 290.862C14.8397 290.362 9.78323 285.09 9.5536 278.613L8.70478 255.099C8.69101 248.504 13.8508 243.056 20.4372 242.711C27.0236 242.367 32.7233 247.247 33.3974 253.808L35.0125 277.275C35.042 277.558 35.042 277.858 35.042 278.147C35.0451 281.529 33.7038 284.774 31.3135 287.166ZM21.974 242.957C21.6557 242.922 21.3668 242.922 21.0662 242.922L20.683 242.928C14.2065 243.161 9.14509 248.6 9.37715 255.077L10.2201 278.59V278.962C10.9625 285.393 16.6264 290.107 23.0856 289.669C29.5449 289.231 34.5206 283.796 34.3881 277.323L32.7729 253.85C32.3505 248.054 27.7666 243.43 21.974 242.957Z" fill="#222222"/>
<path d="M9.27636 275.193L9.54752 289.594C9.64149 290.498 10.4064 291.184 11.3159 291.179H57.0229C57.9995 291.179 58.7913 290.388 58.7913 289.411C58.7971 289.342 58.7971 289.273 58.7913 289.205C57.7825 280.495 50.4058 273.924 41.6379 273.926H34.47C26.8926 277.686 18.0338 277.877 10.302 274.445C9.92756 274.278 9.48879 274.443 9.31763 274.816C9.2709 274.936 9.25666 275.066 9.27636 275.193Z" fill="#96ADFF"/>
<path d="M40.3527 185.937C39.4239 194.473 32.1053 200.871 23.5217 200.651C14.9381 200.431 7.95689 193.666 7.46656 185.094C7.3899 183.913 7.44328 182.727 7.62572 181.557C8.85537 173.396 15.9236 167.398 24.1755 167.513C32.4274 167.627 39.3264 173.819 40.3291 182.011C40.4937 183.314 40.5016 184.632 40.3527 185.937Z" fill="#222222"/>
<path d="M3.59988 263.41L7.13666 185.117L7.30171 181.51C7.36655 181.062 7.46087 180.614 7.56697 180.172L11.2924 109.607C11.4096 107.451 13.2185 105.778 15.3774 105.829L37.1109 106.347C39.2812 106.402 41.0111 108.179 41.0072 110.35L40.8422 182.158V186.167C40.8009 186.491 40.7478 186.809 40.6889 187.128L41.1074 267.801L3.59988 263.41Z" fill="#222222"/>
<path d="M32.4016 255.087L33.2445 278.601C33.4742 284.918 38.4066 290.059 44.7096 290.549C48.3142 290.834 51.8642 289.534 54.4324 286.989C57.0005 284.443 58.3318 280.905 58.0786 277.298L56.4635 253.825C56.0576 247.858 51.3382 243.091 45.3757 242.626C38.7363 242.104 32.9306 247.062 32.4075 253.702C32.3785 254.163 32.3766 254.625 32.4016 255.087Z" fill="white"/>
<path fill-rule="evenodd" clip-rule="evenodd" d="M54.6942 287.165C52.3029 289.558 49.059 290.902 45.6764 290.902C45.3463 290.902 45.0162 290.89 44.6802 290.86C38.2183 290.361 33.1619 285.089 32.9322 278.611L32.0834 255.098C32.0696 248.502 37.2294 243.054 43.8158 242.71C50.4022 242.366 56.102 247.246 56.776 253.807L58.3911 277.273C58.4265 277.556 58.4265 277.857 58.4265 278.146C58.4281 281.528 57.0855 284.773 54.6942 287.165ZM45.3524 242.956C45.0341 242.92 44.7452 242.92 44.4446 242.92L44.0614 242.926C37.5849 243.16 32.5235 248.599 32.7555 255.075L33.5985 278.589V278.96C33.7413 283.39 36.2912 287.389 40.2475 289.387C44.2038 291.386 48.9355 291.065 52.5858 288.551C56.2362 286.037 58.2229 281.73 57.7665 277.322L56.1513 253.849C55.7289 248.053 51.145 243.429 45.3524 242.956Z" fill="#222222"/>
<path d="M32.6374 275.194L32.9144 289.594C33.0084 290.499 33.7733 291.185 34.6828 291.18H80.3957C81.3723 291.18 82.1641 290.388 82.1641 289.411C82.1699 289.343 82.1699 289.274 82.1641 289.205C81.1553 280.495 73.7786 273.925 65.0107 273.926H57.8428C50.265 277.685 41.407 277.875 33.6748 274.445C33.302 274.279 32.8651 274.445 32.6963 274.816C32.6466 274.936 32.6264 275.065 32.6374 275.194Z" fill="#96ADFF"/>
<path fill-rule="evenodd" clip-rule="evenodd" d="M80.3955 291.474H34.6768C33.6129 291.467 32.7283 290.654 32.6314 289.594L32.3543 275.211C32.3424 275.034 32.3727 274.856 32.4427 274.692C32.6764 274.168 33.2904 273.931 33.8162 274.162C41.4613 277.566 50.2268 277.378 57.7189 273.649L57.7778 273.62H65.0224C73.9422 273.612 81.4487 280.297 82.4705 289.158V289.4C82.4672 290.544 81.5401 291.471 80.3955 291.474ZM81.8634 289.228C80.8827 280.662 73.6268 274.198 65.0047 274.209L57.9017 274.197C50.2646 277.976 41.3413 278.157 33.5569 274.692C33.4838 274.663 33.4053 274.651 33.327 274.657C33.2094 274.669 33.1016 274.727 33.0274 274.819C32.9532 274.911 32.9188 275.029 32.932 275.146L33.2032 289.547C33.2818 290.301 33.9183 290.874 34.6768 290.873H80.3897H80.5665C80.9574 290.829 81.3144 290.63 81.558 290.321C81.8015 290.012 81.9115 289.619 81.8634 289.228Z" fill="white"/>
<path d="M63.7307 185.937C62.8019 194.473 55.4833 200.871 46.8997 200.651C38.3161 200.431 31.3349 193.667 30.8446 185.094C30.7679 183.913 30.8213 182.727 31.0037 181.557C32.2429 173.407 39.3066 167.42 47.5503 167.535C55.794 167.649 62.6888 173.829 63.7013 182.011C63.8677 183.314 63.8776 184.632 63.7307 185.937Z" fill="white"/>
<path fill-rule="evenodd" clip-rule="evenodd" d="M64.0434 185.978C63.0602 194.469 55.8791 200.88 47.3321 200.898L47.3557 200.892C38.472 200.882 31.1215 193.977 30.556 185.112C29.9626 176.023 36.7097 168.113 45.7779 167.265C54.8462 166.418 62.9422 172.941 64.0434 181.982V182.023C64.1965 183.337 64.1965 184.664 64.0434 185.978ZM46.9244 200.236C55.303 200.445 62.4568 194.227 63.4184 185.901L63.3889 185.913C63.5422 184.639 63.5422 183.35 63.3889 182.076V182.029C62.3093 173.332 54.5072 167.073 45.7835 167.904C37.0598 168.735 30.5805 176.356 31.1629 185.1C31.7097 193.463 38.5458 200.028 46.9244 200.236Z" fill="#96ADFF"/>
<path d="M11.1272 107.804L35.5014 107.391C36.2745 106.377 37.4863 105.794 38.7612 105.823L60.4947 106.348C61.1953 106.367 61.8785 106.57 62.4753 106.937H63.9489C63.9489 107.468 63.9489 107.998 63.9489 108.523C64.2461 109.095 64.3999 109.73 64.3969 110.374L64.2378 182.182V186.191C64.1965 186.515 64.1435 186.833 64.0845 187.152L64.5266 267.843L27.0073 263.446L30.5441 185.147L30.7091 181.54C30.7799 181.092 30.8742 180.644 30.9803 180.208L33.2497 137.248C20.8946 134.819 11.3747 122.641 11.1272 107.804Z" fill="#222222"/>
<path fill-rule="evenodd" clip-rule="evenodd" d="M64.3736 187.151L64.8157 268.167L26.6244 263.658L30.3439 181.463V181.422C30.4028 181.015 30.4912 180.591 30.6091 180.09L32.8609 137.43C20.2994 134.842 11.0272 122.422 10.7796 107.774V107.456L35.3189 107.037C36.1639 106.023 37.4235 105.446 38.7437 105.469L60.4772 105.994C61.2018 106.013 61.9097 106.216 62.5345 106.584H64.2321V106.896V108.417C64.5265 109.017 64.6798 109.676 64.6801 110.344L64.5209 182.153V186.202C64.4856 186.491 64.4384 186.804 64.3736 187.151ZM63.6368 108.499V107.244L62.4461 107.261L62.3695 107.214C61.8183 106.877 61.1882 106.69 60.5421 106.672L38.8145 106.153C37.6384 106.123 36.5195 106.66 35.8082 107.597L35.7139 107.709L11.5047 108.122C11.8525 122.446 20.995 134.559 33.3148 136.917L33.586 136.964L31.2989 180.202V180.261C31.181 180.762 31.0984 181.174 31.0395 181.54L27.3495 263.151L64.2204 267.472L63.7842 187.14V187.081C63.849 186.733 63.8962 186.426 63.9315 186.179V182.17L64.0966 110.362C64.0972 109.767 63.9536 109.18 63.6781 108.653L63.6368 108.582V108.499Z" fill="white"/>
<path d="M30.2321 108.617C23.5551 108.617 18.1422 103.204 18.1422 96.5269C18.1422 89.8498 23.5551 84.437 30.2321 84.437C36.9092 84.437 42.322 89.8498 42.322 96.5269C42.322 103.204 36.9092 108.617 30.2321 108.617Z" fill="white"/>
<path fill-rule="evenodd" clip-rule="evenodd" d="M42.3975 98.7311C41.3394 104.628 36.2109 108.92 30.2203 108.924C27.2492 108.925 24.3765 107.858 22.127 105.917C17.5912 102.004 16.5086 95.4042 19.5565 90.2468C22.6044 85.0895 28.9079 82.8548 34.5237 84.9408C40.1394 87.0267 43.4555 92.8347 42.3975 98.7311ZM41.759 94.0443C40.5832 88.6274 35.7928 84.7612 30.2498 84.7556C30.1061 84.7556 29.961 84.7644 29.8151 84.7732C29.6677 84.7821 29.5196 84.791 29.3715 84.791C26.2551 85.0093 23.3556 86.4654 21.3194 88.8347C17.6943 93.0279 17.4799 99.1802 20.8044 103.616C24.1289 108.051 30.0942 109.571 35.1361 107.268C40.178 104.965 42.9347 99.4612 41.759 94.0443Z" fill="#222222"/>
<path d="M20.7889 88.9704L44.0079 62.0791L62.2812 77.8767L39.0623 104.762" fill="white"/>
<path d="M39.3391 104.974L62.7644 77.8592L43.99 61.6489L20.5706 88.7642L21.0481 89.1769L44.0372 62.5331L61.8566 77.924L38.8676 104.574L39.3391 104.974Z" fill="#222222"/>
<path d="M12.4126 77.8595C5.73549 77.8595 0.322664 72.4466 0.322664 65.7696C0.322664 59.0925 5.73549 53.6797 12.4126 53.6797C19.0896 53.6797 24.5024 59.0925 24.5024 65.7696C24.5024 72.4466 19.0896 77.8595 12.4126 77.8595Z" fill="#FF8BCE"/>
<path fill-rule="evenodd" clip-rule="evenodd" d="M24.8394 66.5524C24.4144 73.0905 18.988 78.1765 12.436 78.1777C11.3555 78.1778 10.2795 78.0371 9.23526 77.7592C2.90391 76.0734 -1.03237 69.7632 0.237925 63.3356C1.50821 56.908 7.54899 52.5696 14.0456 53.4191C20.5422 54.2685 25.2644 60.0143 24.8394 66.5524ZM23.4906 61.9436C21.8739 57.1948 17.4112 54.0038 12.3947 54.0097V53.992C7.10589 54.0287 2.48878 57.5831 1.10057 62.6866C-0.19776 67.5322 1.73553 72.6664 5.90744 75.4522C10.0793 78.238 15.5625 78.056 19.5405 74.9998C23.5186 71.9436 25.1073 66.6925 23.4906 61.9436Z" fill="#FF8BCE"/>
<rect width="35.3359" height="24.0478" transform="matrix(-0.50262 -0.864507 -0.864507 0.50262 49.7271 100.231)" fill="#FF8BCE"/>
<path fill-rule="evenodd" clip-rule="evenodd" d="M40.9131 90.1439L19.4625 102.599L1.30706 71.3577L22.7576 58.9023L40.9131 90.1439ZM19.6865 101.745L40.0524 89.9203L22.5277 59.7221L2.16763 71.5703L19.6865 101.745Z" fill="#FF8BCE"/>
<path d="M75.2965 61.1776C74.7851 60.5772 74.0545 60.2068 73.268 60.1492C72.4814 60.0916 71.7046 60.3516 71.1113 60.8711L64.7215 66.3943C64.5412 65.8075 64.3145 65.2358 64.0436 64.6849L69.8557 58.1006C70.3808 57.5133 70.649 56.7401 70.6002 55.9538C70.5515 55.1675 70.19 54.4334 69.5964 53.9154C69.009 53.3903 68.2359 53.1222 67.4496 53.1709C66.6633 53.2196 65.9292 53.5811 65.4112 54.1748L60.1649 60.1165C59.6548 59.7591 59.1189 59.44 58.5616 59.1616L62.9236 51.9289C63.7701 50.5241 63.3175 48.6992 61.9127 47.8528C60.5079 47.0063 58.683 47.4589 57.8366 48.8637L52.3781 57.9237C46.2956 58.3216 41.4617 63.1873 41.1037 69.2723C40.7457 75.3572 44.9758 80.7562 50.9696 81.8645C56.9635 82.9729 62.8445 79.4436 64.6861 73.6329C65.2442 73.554 65.7679 73.3167 66.1952 72.9492L74.9782 65.3628C75.5768 64.8516 75.946 64.1222 76.0036 63.3371C76.0612 62.552 75.8023 61.7765 75.2847 61.1835L75.2965 61.1776Z" fill="white"/>
<path fill-rule="evenodd" clip-rule="evenodd" d="M64.922 73.9097C63.2422 78.9668 58.5145 82.3813 53.1858 82.3862C52.7614 82.3862 52.3075 82.3626 51.9125 82.339C45.4236 81.8272 40.4396 76.3774 40.5079 69.8687C40.5763 63.3599 45.6737 58.016 52.1719 57.6405L57.5478 48.7161C58.511 47.2307 60.4784 46.7764 61.9953 47.6891C63.5122 48.6018 64.0324 50.5528 63.1713 52.0996L58.9861 59.0494C59.3674 59.2509 59.7374 59.4732 60.0943 59.7155L65.1578 53.98C66.3683 52.6679 68.4052 52.5635 69.7436 53.7448C71.082 54.9261 71.2313 56.9602 70.0798 58.3243L64.4033 64.7554C64.5683 65.1149 64.7216 65.4863 64.8571 65.8636L70.8932 60.6527C72.2643 59.4692 74.3348 59.6196 75.5205 60.9887C76.7025 62.3613 76.5496 64.432 75.1786 65.616L66.4015 73.1847C65.9793 73.5502 65.4696 73.8 64.922 73.9097ZM74.7717 65.1265C75.8777 64.1664 75.9989 62.4928 75.0429 61.3834V61.3185C74.5837 60.7863 73.9316 60.4586 73.2305 60.4078C72.5294 60.3569 71.8369 60.587 71.3057 61.0474L64.5504 66.8831L64.409 66.4233C64.2289 65.8514 64.0062 65.2937 63.7429 64.7551L63.6544 64.5665L69.608 57.8289L69.6729 57.7523C70.2867 57.0299 70.4686 56.035 70.15 55.1422C69.8314 54.2493 69.0607 53.5943 68.1281 53.4239C67.1956 53.2534 66.243 53.5934 65.6291 54.3157L60.1943 60.4697L59.9644 60.3047C59.4675 59.956 58.9453 59.6447 58.4023 59.3733L58.0958 59.2259L62.6347 51.6985C63.3916 50.4435 62.9878 48.8125 61.7328 48.0556C60.4778 47.2987 58.8468 47.7025 58.0899 48.9575L52.5431 58.159H52.3839C46.4487 58.544 41.7297 63.2897 41.3783 69.227C41.0269 75.1643 45.1531 80.4336 51.0015 81.5159C56.8499 82.5983 62.5886 79.1549 64.3854 73.4851L64.4443 73.2964H64.6388C65.1361 73.2339 65.6048 73.0292 65.9887 72.707L74.7717 65.1265Z" fill="#222222"/>
<path d="M45.9174 65.4215C46.5922 65.8294 47.4023 65.9499 48.1667 65.7561C48.931 65.5622 49.5858 65.0702 49.9847 64.3899L55.9206 54.428C56.329 53.7539 56.4504 52.9443 56.2577 52.18C56.065 51.4157 55.5741 50.7605 54.8949 50.3607C54.2208 49.9523 53.4112 49.8308 52.6469 50.0236C51.8826 50.2163 51.2274 50.7071 50.8276 51.3864L44.8858 61.3542C44.4779 62.029 44.3573 62.8392 44.5512 63.6035C44.7451 64.3679 45.2371 65.0226 45.9174 65.4215Z" fill="white"/>
<path fill-rule="evenodd" clip-rule="evenodd" d="M50.2562 64.549C49.6628 65.5431 48.5904 66.1521 47.4326 66.1523C46.8426 66.1529 46.2636 65.9919 45.7586 65.6867C44.2017 64.7598 43.6899 62.747 44.615 61.1891L50.5509 51.2212C51.4912 49.6919 53.4855 49.2015 55.0279 50.1201C56.5703 51.0388 57.0889 53.026 56.1921 54.5812L50.2562 64.549ZM55.6762 51.5799C55.2058 50.7511 54.327 50.2384 53.374 50.2368C52.4387 50.2387 51.5729 50.7309 51.0928 51.5336L45.1569 61.5014C44.4658 62.7546 44.8933 64.3301 46.1232 65.0619C47.353 65.7938 48.9416 65.4181 49.7134 64.2129L55.6493 54.2451C56.1364 53.426 56.1467 52.4086 55.6762 51.5799Z" fill="#222222"/>
<path d="M0.493896 65.0265C0.484505 62.0634 1.65337 59.2182 3.74303 57.1175C5.83268 55.0168 8.67171 53.8329 11.6348 53.8267H63.7433C69.9069 53.8267 74.9045 58.8216 74.9077 64.9852V66.8715C74.9075 68.6812 74.4665 70.4637 73.6227 72.0646L64.3917 111.559H11.004L1.02441 70.3316C0.839859 69.7722 0.701843 69.1985 0.611794 68.6163L0.476219 68.0268H0.535164C0.492836 67.6353 0.471191 67.2417 0.470322 66.8479L0.493896 65.0265Z" fill="white"/>
<path fill-rule="evenodd" clip-rule="evenodd" d="M64.6867 111.93H10.7272L0.70636 70.5084C0.521408 69.9306 0.381477 69.3394 0.287842 68.74L0.0402679 67.732H0.169945C0.14048 67.4551 0.14048 67.1781 0.14048 66.907V66.9068V65.0264C0.143707 58.6757 5.28429 53.5245 11.635 53.5083H63.7553C70.1153 53.5116 75.2702 58.6665 75.2734 65.0264V66.9009C75.2698 68.748 74.823 70.5673 73.9707 72.2061L64.6867 111.93ZM11.2812 111.216H64.1148L73.275 72.0289L73.3045 71.9405C74.1224 70.3907 74.5494 68.6647 74.5483 66.9124V65.0261C74.5418 59.0614 69.7081 54.2277 63.7434 54.2212H11.6526C5.68923 54.2309 0.85743 59.0627 0.847694 65.0261V66.8829C0.846748 67.2648 0.866425 67.6466 0.906647 68.0264L0.947906 68.4214L0.983276 68.5746C1.07616 69.1485 1.21412 69.7142 1.3959 70.2664L11.2812 111.216Z" fill="#96ADFF"/>
<path d="M126.374 61.2654C125.863 60.665 125.132 60.2946 124.346 60.237C123.559 60.1794 122.782 60.4394 122.189 60.9589L115.799 66.4822C115.616 65.8962 115.39 65.3248 115.121 64.7727L120.934 58.1884C122.018 56.9611 121.902 55.0873 120.674 54.0032C119.447 52.9191 117.573 53.0353 116.489 54.2626L111.243 60.2044C110.734 59.8438 110.198 59.5226 109.639 59.2436L114.001 52.0108C114.848 50.6077 114.397 48.7841 112.993 47.9377C111.59 47.0912 109.767 47.5425 108.92 48.9456L103.456 58.0116C100.228 58.222 97.2199 59.7217 95.1092 62.1732L71.8902 89.0586C67.8584 94.1327 68.5472 101.484 73.4515 105.721C78.3558 109.957 85.7292 109.571 90.1636 104.844L113.153 78.2066L113.306 78.0297L113.365 77.959C114.434 76.7192 115.237 75.2725 115.723 73.709C116.283 73.6311 116.809 73.3937 117.238 73.0252L126.015 65.4388C126.614 64.9266 126.984 64.1956 127.04 63.4091C127.097 62.6226 126.836 61.8462 126.315 61.2536L126.374 61.2654Z" fill="white"/>
<path fill-rule="evenodd" clip-rule="evenodd" d="M90.169 105.286C87.849 107.679 84.6598 109.031 81.3271 109.035L81.3035 109.024C76.5926 109.01 72.2947 106.333 70.2044 102.111C68.1141 97.8895 68.591 92.8487 71.4359 89.0938L94.8552 61.9785L95.0674 61.7427C95.4828 61.2891 95.93 60.8655 96.4055 60.4754C98.3555 58.8784 100.748 57.9177 103.261 57.7226L108.637 48.7981C109.6 47.3127 111.567 46.8585 113.084 47.7712C114.601 48.6839 115.122 50.6349 114.26 52.1816L110.075 59.1314C110.443 59.3314 110.802 59.5498 111.148 59.7857L116.211 54.0502C117.431 52.7834 119.433 52.7027 120.751 53.8673C122.069 55.0319 122.235 57.0281 121.128 58.3946L115.451 64.8197C115.62 65.1695 115.773 65.5408 115.911 65.9338L121.947 60.7229C123.318 59.5395 125.389 59.6898 126.574 61.0589C127.756 62.4316 127.603 64.5022 126.232 65.6862L117.455 73.2667C117.033 73.6328 116.523 73.8844 115.976 73.9976C115.498 75.4337 114.759 76.7688 113.795 77.9353L113.47 78.3066L113.376 78.4186L90.3871 105.056L90.169 105.286ZM89.9275 104.632L90.0336 104.52L112.958 77.9587L113.158 77.7229C114.207 76.5213 114.998 75.1168 115.481 73.5967L115.54 73.4081H115.734C116.233 73.344 116.703 73.1396 117.09 72.8186L125.867 65.2381C126.4 64.7779 126.727 64.1248 126.778 63.4228C126.829 62.7207 126.599 62.0272 126.138 61.495C125.18 60.3898 123.508 60.2685 122.401 61.2239L115.646 67.0596L115.504 66.5998C115.326 66.0273 115.103 65.4696 114.838 64.9316L114.75 64.743L120.703 58.0054C121.68 56.9067 121.581 55.2242 120.482 54.2476C119.384 53.2709 117.701 53.3699 116.725 54.4686L111.29 60.6226L111.06 60.4635C110.564 60.1108 110.042 59.7974 109.498 59.5262L109.191 59.3789L113.73 51.8514C113.754 51.816 113.795 51.7512 113.795 51.7512C114.267 50.9288 114.264 49.9173 113.787 49.0975C113.311 48.2778 112.434 47.7745 111.486 47.7771C110.538 47.7798 109.663 48.288 109.191 49.1104L103.621 58.3237H103.462C100.317 58.5276 97.387 59.9894 95.3329 62.3792L95.1266 62.6091L72.3144 89.0171L72.1257 89.2528C68.3966 94.2091 69.1455 101.207 73.8391 105.262C78.5327 109.317 85.5655 109.041 89.9275 104.632Z" fill="#222222"/>
<path d="M64.6337 14.6332C56.0346 25.9742 54.9005 41.3088 61.7375 53.7914C68.5746 66.2741 82.107 73.5754 96.2938 72.436C97.1603 72.3711 98.0209 72.2709 98.8815 72.1353C102.665 71.5618 106.334 70.3919 109.751 68.6693C110.423 68.3274 111.083 67.9678 111.732 67.5847C115.82 65.1889 119.394 62.0075 122.248 58.224C122.519 57.8703 122.778 57.5049 123.038 57.1335C129.781 47.48 131.4 35.1472 127.377 24.0803C123.354 13.0134 114.193 4.59922 102.825 1.52945C101.984 1.30545 101.135 1.10897 100.279 0.939987C96.5722 0.228326 92.7773 0.101034 89.0316 0.562731C88.2122 0.668834 87.3988 0.792622 86.5853 0.951777C78.2801 2.54414 70.8019 7.0127 65.4648 13.5722C65.176 13.92 64.899 14.2736 64.6337 14.6332Z" fill="white"/>
<path fill-rule="evenodd" clip-rule="evenodd" d="M96.3229 72.7482C95.3503 72.8249 94.3836 72.8661 93.4109 72.8661V72.8897C85.4817 72.8908 77.77 70.2967 71.4534 65.5037C63.746 59.6725 58.6708 51.0183 57.3442 41.445C56.0177 31.8717 58.5485 22.1635 64.3799 14.4562C64.6746 14.0672 64.9458 13.7194 65.2169 13.3952C70.6036 6.77954 78.1478 2.27183 86.526 0.662791C87.3336 0.50953 88.1647 0.379848 88.9959 0.273745C92.7729 -0.190784 96.5993 -0.0635033 100.337 0.651001C101.186 0.816051 102.052 1.01057 102.907 1.24046C114.375 4.3359 123.616 12.823 127.675 23.9865C131.733 35.15 130.099 47.5905 123.297 57.3279C123.049 57.6816 122.784 58.0529 122.501 58.4243C119.622 62.2381 116.016 65.4436 111.891 67.8557C111.254 68.2329 110.576 68.5984 109.892 68.9462C106.446 70.6858 102.745 71.8677 98.9283 72.4476C98.0913 72.5773 97.1953 72.6775 96.3229 72.7482ZM100.219 1.25203C97.9968 0.826127 95.7389 0.611001 93.4759 0.609512L93.4877 0.615407C92.0177 0.614134 90.549 0.704695 89.0903 0.88656C88.2709 0.986769 87.4575 1.11645 86.6617 1.26971C78.4273 2.84808 71.0122 7.27672 65.7181 13.7781C65.4528 14.1023 65.1817 14.4383 64.8928 14.8215C56.3851 26.0683 55.2703 41.2611 62.0454 53.6292C68.8205 65.9974 82.2236 73.2376 96.2817 72.1232C97.1424 72.0583 98.003 71.9581 98.8459 71.8284C102.597 71.2612 106.234 70.1012 109.621 68.3919C110.299 68.05 110.959 67.6904 111.584 67.319C115.639 64.9439 119.184 61.7884 122.012 58.035C122.291 57.6695 122.55 57.31 122.79 56.9563C129.485 47.3896 131.096 35.1595 127.105 24.1857C123.115 13.212 114.025 4.87298 102.748 1.84149C101.899 1.6057 101.056 1.40922 100.219 1.25203Z" fill="#96ADFF"/>
<path d="M70.4165 19.0064C70.1453 19.3601 69.8859 19.7197 69.6384 20.0793C61.1158 32.8009 64.0022 49.9627 76.2174 59.1964C88.4326 68.4302 105.731 66.5266 115.646 54.8576C115.923 54.5157 116.2 54.1679 116.465 53.8142C125.639 41.1213 123.027 23.4294 110.575 13.9303C98.1231 4.43128 80.3696 6.58622 70.552 18.7883C70.5049 18.8827 70.4577 18.9416 70.4165 19.0064Z" fill="#222222"/>
<path d="M69.638 20.0799C60.9081 32.8005 63.7164 50.1362 76.016 59.4501C76.293 59.6623 76.5701 59.8627 76.853 60.0396C82.3146 63.8834 88.9453 65.7032 95.6038 65.1856C96.4232 65.1266 97.2367 65.0323 98.0501 64.8967C101.783 64.2961 105.362 62.9683 108.584 60.9886C109.37 60.5092 110.128 59.9924 110.859 59.4383C118.014 53.1371 121.532 43.6682 120.227 34.2242C118.923 24.7801 112.97 16.6194 104.375 12.4935C103.514 12.1005 102.632 11.7291 101.728 11.3794C98.1093 10.0714 94.2657 9.49828 90.4225 9.69353C89.6031 9.74069 88.7838 9.81732 87.9644 9.92931C81.5497 10.7915 75.6127 13.7901 71.1116 18.4412C70.5811 18.9776 70.1037 19.5199 69.638 20.0799Z" fill="#96ADFF"/>
<path d="M80.3545 47.0654L77.4602 50.891L82.3233 54.5693L85.082 50.9146C88.6895 53.3137 92.745 54.9171 95.7689 55.2059L97.6316 47.2953C94.1501 46.8556 90.8365 45.5415 87.9998 43.4756C85.695 41.7072 85.2293 40.6226 85.8601 39.7914C88.1531 36.7616 99.6358 49.2995 106.444 40.3043C109.391 36.4079 109.038 30.9967 103.986 25.9273L106.827 22.1724L101.97 18.4941L99.1819 22.1842C96.599 20.517 93.7023 19.3957 90.6701 18.8891L88.66 26.6346C91.5743 27.0764 94.342 28.2037 96.7357 29.9238C99.0935 31.6922 99.3529 32.989 98.7222 33.8143C96.5352 36.7086 85.023 24.206 78.2914 33.101C75.4796 36.8205 75.7154 42.0962 80.3545 47.0654Z" fill="#222222"/>
<path d="M81.457 45.8979L78.5627 49.7236L83.4258 53.4018L86.1845 49.7471C89.792 52.1462 93.8475 53.7496 96.8714 54.0384L98.7341 46.1278C95.2537 45.6907 91.9414 44.3763 89.1082 42.3081C86.7975 40.5397 86.3377 39.4551 86.9626 38.6299C89.2556 35.5941 100.738 48.132 107.547 39.1368C110.494 35.2404 110.146 29.8292 105.089 24.7598L107.936 21.0049L103.073 17.3267L100.284 21.0167C97.702 19.3485 94.8051 18.2271 91.7726 17.7216L89.7625 25.4671C92.6764 25.9105 95.4438 27.0376 97.8382 28.7563C100.196 30.5601 100.455 31.8216 99.8305 32.6468C97.6377 35.547 86.1255 23.0386 79.3997 31.9336C76.5821 35.6531 76.8179 40.9288 81.457 45.8979Z" fill="white"/>
<rect width="5.93589" height="17.5424" rx="2.96795" transform="matrix(-0.653685 -0.756767 -0.756767 0.653685 120.741 62.6489)" fill="white"/>
<path fill-rule="evenodd" clip-rule="evenodd" d="M109.804 72.6065C109.209 73.1192 108.45 73.4015 107.664 73.4023H107.417C106.096 73.2989 104.967 72.4133 104.551 71.1556C104.135 69.8979 104.514 68.5134 105.513 67.6432L114.29 60.0627L114.361 59.9979C115.753 58.8855 117.779 59.0872 118.925 60.4523C120.071 61.8174 119.918 63.8474 118.581 65.026L109.804 72.6065ZM118.916 61.6103C118.529 60.5728 117.537 59.8852 116.43 59.8857C115.804 59.8911 115.2 60.1189 114.726 60.5282L105.949 68.1146C105.915 68.1389 105.884 68.1665 105.855 68.1971C105.062 68.8036 104.677 69.8037 104.858 70.7852C105.039 71.7667 105.756 72.5635 106.713 72.8471C107.67 73.1307 108.705 72.8532 109.392 72.1288L118.169 64.5424C119.006 63.8169 119.304 62.6479 118.916 61.6103Z" fill="#222222"/>
<path d="M73.9708 59.8035L73.7527 59.4262C70.2767 53.9464 63.0932 52.1904 57.4812 55.4487C51.8692 58.7069 49.8326 65.8159 52.868 71.5515L70.7052 102.268L88.8547 85.4746L73.9708 59.8035Z" fill="#96ADFF"/>
<path fill-rule="evenodd" clip-rule="evenodd" d="M89.2378 85.5337L70.5813 102.752L52.585 71.6754L52.4376 71.3984C49.1798 65.5047 51.231 58.088 57.0541 54.7057C62.8772 51.3234 70.3358 53.2166 73.841 58.9666L89.2378 85.5337ZM70.7582 101.756L88.4421 85.4099L73.7114 59.9805L73.4756 59.5915C69.9906 54.5037 63.1735 52.9613 57.8378 56.0535C52.5022 59.1458 50.4513 65.8275 53.1332 71.3807L53.1981 71.5163L70.7582 101.756Z" fill="#222222"/>
</svg>
