<svg width="46" height="47" viewBox="0 0 46 47" version="1.1" xmlns="http://www.w3.org/2000/svg" xmlns:xlink="http://www.w3.org/1999/xlink">
<title>Vector</title>
<desc>Created using Figma</desc>
<g id="Canvas" transform="translate(1869 -1299)">
<g id="Vector">
<use xlink:href="#path0_fill" transform="translate(-1869 1299)" fill="#61BDFC"/>
</g>
</g>
<defs>
<path id="path0_fill" d="M 34.111 5.24666C 34.111 5.24666 34.5729 5.50885 35.3646 5.90213C 36.1564 6.4265 37.278 7.08197 38.5976 8.26181C 39.9172 9.37611 41.3687 10.9492 42.6223 12.9812C 43.8759 15.0131 45.0635 17.5695 45.5913 20.5191C 45.8553 21.9611 46.0532 23.5342 45.9872 25.1729C 45.9872 25.5662 45.9872 25.9595 45.9212 26.3527C 45.9212 26.746 45.7893 27.2049 45.7893 27.5981C 45.7233 27.9914 45.7233 28.4502 45.5913 28.8435C 45.5254 29.2368 45.3934 29.6956 45.3274 30.0889C 45.1955 30.941 44.7996 31.7276 44.5357 32.5797C 44.4037 33.0385 44.2058 33.3663 44.0078 33.8251C 43.8099 34.2184 43.678 34.6772 43.414 35.0705C 42.9522 35.857 42.5563 36.7091 41.9625 37.4302C 41.6986 37.8234 41.4347 38.2167 41.1048 38.5445C 40.7749 38.8722 40.511 39.2655 40.1811 39.5932C 40.0491 39.7899 39.8512 39.9865 39.7192 40.1176L 39.1914 40.642C 38.8615 40.9697 38.4656 41.2974 38.1357 41.6252C 37.344 42.2151 36.6182 42.8706 35.7605 43.3294C 34.111 44.4437 32.2636 45.2302 30.3502 45.8857C 29.3606 46.1479 28.3709 46.4756 27.3812 46.6067C 26.8534 46.6723 26.3915 46.8034 25.8637 46.8689L 24.3462 47L 23.9503 47L 23.8843 47C 23.9503 47 23.7524 47 23.7524 47L 23.6864 47L 23.4884 47L 22.7627 47C 22.2348 47 21.773 47 21.2452 46.9345C 20.1895 46.8034 19.1338 46.6723 18.0782 46.4101C 13.9875 45.4924 10.2267 43.3949 7.19169 40.5764C 4.22264 37.6924 2.04534 34.0873 0.989682 30.22C 0.857724 29.7612 0.725766 29.2368 0.593809 28.778C 0.52783 28.3192 0.395873 27.7948 0.329894 27.3359L 0.197936 26.6149L 0.131957 25.8939C 0.0659787 25.4351 0.0659788 24.9107 0 24.4519L 0 24.2552L 0 24.1897C 0 24.1897 0 23.9931 0 24.0586L 0 23.9931L 0 23.6653L 0 23.0099C 0 22.551 2.45869e-07 22.1577 0.065979 21.6989C 0.131958 21.2401 0.197936 20.7157 0.263915 20.2569L 0.329894 19.5359C 0.395873 19.2737 0.461851 19.077 0.461851 18.8804C 1.2536 15.2753 2.83709 12.0635 4.75047 9.5072C 6.72984 6.95088 9.03909 4.98447 11.2824 3.60799C 13.5257 2.2315 15.7689 1.31385 17.6163 0.85502C 18.0782 0.723926 18.54 0.592832 18.9359 0.527285C 19.3318 0.461738 19.7277 0.396192 20.1235 0.330645C 20.5194 0.265098 20.8493 0.199551 21.1792 0.134004C 21.5091 0.134004 21.773 0.0684575 22.0369 0.0684575C 23.2245 0.0684575 23.7524 0.00291038 23.7524 0.00291038C 25.2039 -0.0626365 26.4575 0.986114 26.5894 2.42814C 26.6554 3.87018 25.5998 5.11557 24.1482 5.24666L 24.0823 5.24666L 23.7524 5.24666C 23.7524 5.24666 23.2905 5.24666 22.4988 5.31221C 22.3008 5.31221 22.0369 5.31221 21.839 5.31221C 21.5751 5.31221 21.3111 5.37775 21.0472 5.4433C 20.7833 5.50885 20.4534 5.50885 20.1235 5.57439C 19.7936 5.63994 19.4637 5.70549 19.0679 5.77103C 17.5504 6.03322 15.8349 6.68869 13.9215 7.73744C 12.0741 8.78619 10.0948 10.2282 8.44528 12.3257C 6.72984 14.3577 5.34428 16.914 4.55254 19.8636C 4.48656 20.0602 4.42058 20.2569 4.42058 20.388L 4.3546 20.9124C 4.28862 21.3056 4.22264 21.6334 4.15666 22.0267C 4.09068 22.4199 4.09068 22.8788 4.02471 23.272L 3.95873 23.9275L 3.95873 24.2552L 3.95873 24.3208C 3.95873 24.4519 3.95873 24.2552 3.95873 24.2552L 3.95873 24.3208L 3.95873 24.4519C 3.95873 24.8452 3.95873 25.2384 4.02471 25.6973L 4.02471 26.2872L 4.09068 26.8771C 4.15666 27.2704 4.22264 27.7292 4.22264 28.1225C 4.28862 28.5158 4.42058 28.9091 4.48656 29.3679C 5.21232 32.6452 6.99375 35.7915 9.43497 38.4134C 11.9422 40.9697 15.1751 43.0016 18.738 43.9193C 19.6617 44.1815 20.5194 44.3126 21.3771 44.5092C 21.839 44.5748 22.3668 44.5748 22.8287 44.6403L 23.5544 44.7059L 23.7524 44.7059L 23.8183 44.7059C 23.8183 44.7059 23.7524 44.7059 23.8183 44.7059L 23.8843 44.7059L 24.2142 44.7059L 25.5998 44.6403C 26.0616 44.6403 26.5235 44.5092 26.9853 44.5092C 27.909 44.4437 28.7667 44.1815 29.6905 43.9848C 31.4719 43.4605 33.1873 42.805 34.7048 41.8218C 35.4966 41.4285 36.2224 40.8386 36.9481 40.3142C 37.278 40.052 37.6079 39.7243 37.9378 39.4621L 38.4656 39.0033C 38.5976 38.8722 38.7955 38.6756 38.9275 38.5445C 39.2574 38.2167 39.5213 37.889 39.8512 37.5613C 40.1151 37.2335 40.379 36.9058 40.6429 36.5125C 41.2367 35.857 41.6326 35.0705 42.0945 34.3495C 42.3584 34.0217 42.4903 33.6284 42.6883 33.2352C 42.8862 32.8419 43.0841 32.5141 43.2161 32.1209C 43.48 31.3343 43.8759 30.6133 44.0738 29.7612C 44.2058 29.3679 44.2718 28.9746 44.4037 28.5813C 44.5357 28.1881 44.5357 27.7948 44.6017 27.4015C 44.6676 27.0082 44.7336 26.6149 44.7996 26.2217C 44.7996 25.8284 44.8656 25.4351 44.8656 25.0418C 44.9975 23.5342 44.9315 22.0267 44.6676 20.5846C 44.2718 17.7006 43.2161 15.2098 42.0945 13.1778C 40.9068 11.1459 39.5213 9.57275 38.3337 8.39291C 37.0801 7.21306 35.9584 6.4265 35.2327 5.90213C 34.5729 5.50885 34.111 5.24666 34.111 5.24666Z"/>
</defs>
</svg>
