<svg width="178" height="44" viewBox="0 0 178 44" fill="none" xmlns="http://www.w3.org/2000/svg">
<path d="M2.37644 44C0.885337 44 -5.68809e-06 43.0668 -5.68809e-06 41.4337C-5.68809e-06 39.5207 1.11832 37.8876 3.07539 37.8876C4.4267 37.8876 5.31205 38.6808 5.31205 39.9406V40.0806H4.14713C4.10053 39.334 3.77434 38.9607 3.02879 38.9607C1.81727 38.9607 1.25812 40.3605 1.25812 41.4337C1.25812 42.4136 1.72409 42.9735 2.51624 42.9735C3.21519 42.9735 3.68115 42.5535 3.86754 41.7603H5.07906C4.84608 43.1601 3.77434 44 2.37644 44Z" fill="#1C2227"/>
<path d="M10.3446 39.0541H8.62047L7.64195 43.86H6.43043L7.40896 39.0541H5.68488L5.91786 37.9809H10.6241L10.3446 39.0541Z" fill="#1C2227"/>
<path d="M13.2335 38.0276C13.6529 38.0276 13.9791 38.0742 14.212 38.1209C14.8178 38.3075 15.2372 38.9141 15.2372 39.6606C15.2372 40.3605 14.911 41.0604 14.3518 41.387C13.8859 41.667 13.2801 41.7137 12.721 41.7137H11.5094L11.0901 43.8133H9.87854L11.0901 37.9809H13.2335V38.0276ZM11.7424 40.7338H13.0005C13.6063 40.7338 14.0257 40.4539 14.0257 39.8006C14.0257 39.1007 13.5131 39.0541 12.9539 39.0541H12.022L11.7424 40.7338Z" fill="#1C2227"/>
<path d="M21.0152 40.3605C21.0152 42.3202 19.8969 44 17.8932 44C16.3555 44 15.4702 43.0201 15.4702 41.387C15.4702 39.3807 16.7749 37.8876 18.4989 37.8876C20.0832 37.8876 21.0152 38.8208 21.0152 40.3605ZM16.6817 41.4337C16.6817 42.4136 17.1942 42.9735 17.9864 42.9735C19.2445 42.9735 19.8037 41.527 19.8037 40.4072C19.8037 39.474 19.3377 38.9141 18.4989 38.9141C17.2408 38.9141 16.6817 40.3139 16.6817 41.4337Z" fill="#1C2227"/>
<path d="M25.9079 43.86H24.6963L25.5351 39.8007L22.6927 43.86H21.2482L22.4131 38.0276H23.6246L22.7859 42.087L25.6283 38.0276H27.0728L25.9079 43.86Z" fill="#1C2227"/>
<path d="M32.1053 39.0541H30.3812L29.4026 43.86H28.1911L29.1697 39.0541H27.399L27.632 37.9809H32.3383L32.1053 39.0541Z" fill="#1C2227"/>
<path d="M36.9513 39.0541H33.9225L33.643 40.3606H36.4854L36.299 41.3404H33.4566L33.177 42.7869H36.299L36.066 43.86H31.7325L32.944 38.0276H37.2309L36.9513 39.0541Z" fill="#1C2227"/>
<path d="M41.4712 43.86H40.2597L41.2383 39.0541H39.7938L39.188 41.5737C38.7686 43.4401 38.1163 43.9533 37.0911 43.9533C36.8582 43.9533 36.5786 43.86 36.4388 43.86L36.6252 42.8802C36.7184 42.8802 36.9048 42.9268 36.9979 42.9268C37.3241 42.9268 37.6503 42.7402 37.9299 41.527L38.7686 37.9809H42.6828L41.4712 43.86Z" fill="#1C2227"/>
<path d="M46.5037 43.5334C46.0377 43.8134 45.432 43.86 44.8728 43.86H42.4498L43.6613 38.0276H44.8728L44.4534 40.1273H45.3854C45.8047 40.1273 46.1309 40.1739 46.3639 40.2206C46.9697 40.4072 47.389 41.0138 47.389 41.7604C47.389 42.5069 47.0629 43.1601 46.5037 43.5334ZM45.1524 41.1071H44.267L43.8943 42.8335H45.1524C45.7582 42.8335 46.2241 42.5536 46.2241 41.9003C46.2241 41.2004 45.7116 41.1071 45.1524 41.1071Z" fill="#1C2227"/>
<path d="M52.3749 43.86H51.1634L51.6759 41.3404H49.3927L48.8801 43.86H47.622L48.7869 38.0276H49.9985L49.5325 40.2672H51.8157L52.2817 38.0276H53.4932L52.3749 43.86Z" fill="#1C2227"/>
<path d="M57.1744 43.5334C56.7084 43.8134 56.1026 43.86 55.5435 43.86H53.4L54.5649 38.0276H55.7765L55.3571 40.1273H56.056C56.4754 40.1273 56.8016 40.1739 57.0346 40.2206C57.6403 40.4072 58.0131 41.0138 58.0131 41.7604C58.0597 42.5069 57.7335 43.1601 57.1744 43.5334ZM55.8231 41.1071H55.1707L54.8445 42.7869H55.8231C56.4288 42.7869 56.8482 42.5069 56.8482 41.8537C56.8948 41.2004 56.3822 41.1071 55.8231 41.1071ZM60.6691 38.0276L59.5042 43.86H58.2927L59.5042 38.0276H60.6691Z" fill="#1C2227"/>
<path d="M65.2356 43.86H64.0241L64.8629 39.8007L62.0205 43.86H60.5294L61.7409 38.0276H62.9524L62.1137 42.087L64.9561 38.0276H66.4006L65.2356 43.86ZM65.4686 36.4412C65.3754 37.281 64.8163 37.6076 64.0707 37.6076C63.3718 37.6076 62.8592 37.3277 62.8592 36.6745C62.8592 36.5811 62.8592 36.5345 62.8592 36.4412H63.2786C63.2786 36.8144 63.6047 37.0011 64.0707 37.0011C64.5367 37.0011 64.9095 36.8611 65.0027 36.4412H65.4686Z" fill="#1C2227"/>
<path d="M73.2969 39.0541H70.5943L69.6158 43.86H68.4042L69.6158 38.0276H73.5299L73.2969 39.0541Z" fill="#1C2227"/>
<path d="M77.5838 43.86H76.3723L77.211 39.8007L74.3686 43.86H72.8775L74.089 38.0276H75.3005L74.4618 42.087L77.3042 38.0276H78.7487L77.5838 43.86Z" fill="#1C2227"/>
<path d="M83.3618 43.86H82.1503L83.1288 39.0541H80.8456L79.867 43.86H78.6555L79.867 38.0276H84.6199L83.3618 43.86Z" fill="#1C2227"/>
<path d="M89.6524 39.0541H86.6236L86.344 40.3606H89.1864L89 41.3404H86.1576L85.878 42.7869H89L88.767 43.86H84.4335L85.645 38.0276H89.9319L89.6524 39.0541Z" fill="#1C2227"/>
<path d="M92.8675 38.0276C93.2869 38.0276 93.6131 38.0742 93.8461 38.1209C94.4518 38.3075 94.8712 38.9141 94.8712 39.6606C94.8712 40.3605 94.545 41.0604 93.9859 41.387C93.5199 41.667 92.9141 41.7137 92.355 41.7137H91.1435L90.7241 43.8133H89.5126L90.7241 37.9809H92.8675V38.0276ZM91.3298 40.7338H92.588C93.1937 40.7338 93.6131 40.4539 93.6131 39.8006C93.6131 39.1007 93.1005 39.0541 92.5414 39.0541H91.6094L91.3298 40.7338Z" fill="#1C2227"/>
<path d="M95.943 38.0276H97.6671L98.0864 42.2736L100.276 38.0276H102.047L100.836 43.86H99.6707L100.696 39.1941L98.3194 43.86H97.3875L96.8283 39.1941L95.9896 43.86H94.8246L95.943 38.0276Z" fill="#1C2227"/>
<path d="M106.753 43.86H105.542L105.356 42.5536H103.259L102.56 43.86H101.208L104.517 38.0276H105.775L106.753 43.86ZM105.262 41.6204L104.936 39.4274L103.725 41.6204H105.262Z" fill="#1C2227"/>
<path d="M110.435 38.0276C110.854 38.0276 111.18 38.0742 111.413 38.1209C112.019 38.3075 112.438 38.9141 112.438 39.6606C112.438 40.3605 112.112 41.0604 111.553 41.387C111.087 41.667 110.481 41.7137 109.922 41.7137H108.71L108.291 43.8133H107.08L108.291 37.9809H110.435V38.0276ZM108.897 40.7338H110.155C110.761 40.7338 111.18 40.4539 111.18 39.8006C111.18 39.1007 110.668 39.0541 110.108 39.0541H109.223L108.897 40.7338Z" fill="#1C2227"/>
<path d="M115.747 40.4072L117.471 43.86H116.073L114.768 41.2471L113.883 42.0403L113.51 43.9067H112.298L113.463 38.0742H114.675L114.209 40.4539L116.772 38.0742H118.403L115.747 40.4072Z" fill="#1C2227"/>
<path d="M123.202 39.0541H120.173L119.894 40.3606H122.736L122.55 41.3404H119.707L119.428 42.7869H122.55L122.317 43.86H117.983L119.195 38.0276H123.482L123.202 39.0541Z" fill="#1C2227"/>
<path d="M30.9869 15.7242C31.0335 15.5842 31.0335 15.4443 31.0335 15.351C31.0335 13.9512 30.1481 13.2979 28.3309 13.2979C26.7932 13.2979 25.8146 14.0445 25.8146 15.1177C25.8146 16.6108 27.6319 16.7507 28.7036 16.9374C33.2235 17.6839 37.8366 18.4305 37.8366 24.1696C37.8366 30.7486 31.3597 32.8016 25.768 32.8016C20.8288 32.8016 14.678 31.4019 14.678 25.1961C14.678 24.9628 14.7246 24.8229 14.7246 24.4029H22.9256V24.6829C22.9256 26.4559 23.9042 27.2025 26.1408 27.2025C28.0047 27.2025 29.0764 26.5026 29.0764 25.3361C29.0764 23.6097 26.7466 23.4697 23.112 22.7698C18.9183 21.9766 16.8214 19.9236 16.8214 16.4241C16.8214 9.9851 22.9256 8.21204 28.4706 8.21204C35.5534 8.21204 39.0947 10.4517 39.0947 14.9777V15.6776H30.9869V15.7242Z" fill="#1C2227"/>
<path d="M51.4895 32.8484C44.8262 32.8484 39.8403 29.7688 39.8403 22.3966C39.8403 14.0912 45.2922 8.30542 53.866 8.30542C60.4361 8.30542 65.5152 11.5716 65.5152 18.6639C65.5152 26.9693 60.0634 32.8484 51.4895 32.8484ZM48.6471 22.7699C48.6471 25.2895 49.7189 26.596 51.8157 26.596C55.5435 26.596 56.6618 21.0435 56.6618 18.2439C56.6618 16.1909 55.8231 14.4178 53.4932 14.4178C49.8121 14.4645 48.6471 20.017 48.6471 22.7699Z" fill="#1C2227"/>
<path d="M178 8.77197H137.414L130.005 43.86H170.545L178 8.77197Z" fill="#FFE600"/>
<path d="M128.468 38.0276H123.761L123.575 39.0541H125.299L124.32 43.86H125.579L126.557 39.0541H128.235L128.468 38.0276Z" fill="#1C2227"/>
<path d="M102.746 32.1485H94.079L94.778 28.9756C92.9141 31.5885 90.5376 32.8017 87.1361 32.8017C82.8026 32.8017 80.0533 30.3754 80.0533 26.596C80.0533 25.6628 80.2397 23.9364 80.4727 22.8632L83.4549 8.72534H92.4481L89.6989 21.8834C89.6057 22.3966 89.5125 23.0965 89.5125 23.5164C89.5125 24.9629 90.4444 25.8494 92.0287 25.8494C94.079 25.8494 95.4769 24.3097 96.0827 21.4168L98.7853 8.772H107.685L102.746 32.1485Z" fill="#1C2227"/>
<path d="M133.919 8.77197H123.994L120.406 13.1113L118.869 8.77197H109.782L115.094 19.5037L104.61 32.1484H114.489L133.919 8.77197Z" fill="#1C2227"/>
<path d="M129.726 32.1485L125.485 23.6097L119.195 27.9024L120.686 32.1485H129.726Z" fill="#1C2227"/>
<path d="M6.80316 8.77197L1.86389 32.1484H10.8105L15.7498 8.77197H6.80316Z" fill="#1C2227"/>
<path d="M8.66699 -1.42394e-06L7.40888 5.87911H16.4021L17.6136 -1.42394e-06H8.66699Z" fill="#1C2227"/>
<path d="M72.6911 -1.42394e-06L65.7948 32.1485H74.788L81.5911 -1.42394e-06H72.6911Z" fill="#1C2227"/>
<path d="M142.866 32.1485H139.185L139.977 28.6024H143.658L142.866 32.1485Z" fill="#1C2227"/>
<path d="M154.515 23.2365C154.003 23.0966 153.63 23.0499 153.257 23.0499C150.834 23.0499 149.856 24.9163 149.39 26.9226L148.271 32.1019H145.103L147.572 20.437H150.601L150.089 22.5833C151.067 21.1369 152.232 20.1103 154.049 20.1103C154.422 20.1103 154.608 20.157 155.074 20.2037L154.515 23.2365Z" fill="#1C2227"/>
<path d="M164.207 32.1485H161.132L161.505 30.4688C160.526 31.8686 159.268 32.5218 157.591 32.5218C155.401 32.5218 154.096 31.3553 154.096 29.4423C154.096 28.9757 154.189 28.3691 154.329 27.5759L155.82 20.5303H159.035L157.684 26.8294C157.497 27.6692 157.404 28.2291 157.404 28.5091C157.404 29.4423 157.963 29.9555 159.035 29.9555C160.852 29.9555 161.738 28.2758 162.064 26.736L163.415 20.4836H166.584L164.207 32.1485Z" fill="#1C2227"/>
</svg>
