<svg width="28" height="28" viewBox="0 0 28 28" fill="none" xmlns="http://www.w3.org/2000/svg">
<path opacity="0.2" d="M22.75 28H5.25C2.35028 28 0 25.6497 0 22.75V5.25C0 2.35028 2.35028 0 5.25 0H22.75C25.6497 0 28 2.35028 28 5.25V22.75C28 25.6497 25.6497 28 22.75 28Z" fill="#96ADFF"/>
<path d="M19.3966 7H13.2716C12.387 7 11.6677 7.71927 11.6677 8.60388V10.0232C11.8559 9.95654 12.051 9.91638 12.2513 9.91638C12.7185 9.91638 13.158 10.0984 13.4886 10.4291L15.8223 12.7627C16.153 13.0936 16.335 13.5328 16.335 14C16.335 14.4672 16.153 14.9064 15.8223 15.2373L13.4886 17.5709C13.158 17.9016 12.7185 18.0836 12.2513 18.0836C12.051 18.0836 11.8559 18.0435 11.6677 17.9768V19.3961C11.6677 20.2807 12.387 21 13.2716 21H19.3966C20.2812 21 21.0005 20.2807 21.0005 19.3961V8.60388C21.0005 7.71927 20.2812 7 19.3966 7Z" fill="#96ADFF"/>
<path d="M12.027 16.8726C11.8091 16.7825 11.6672 16.5699 11.6672 16.3336V14.5836H7.58362C7.26083 14.5836 7 14.3219 7 14C7 13.6781 7.26169 13.4164 7.58362 13.4164H11.6672V11.6664C11.6672 11.4301 11.8091 11.2176 12.027 11.1274C12.2447 11.0373 12.4959 11.0871 12.6629 11.2543L14.9966 13.5879C15.2241 13.8154 15.2241 14.1846 14.9966 14.4129L12.6629 16.7466C12.4959 16.913 12.2447 16.9628 12.027 16.8726Z" fill="#81FEC6"/>
</svg>
