<svg width="129" height="33" viewBox="0 0 129 33" fill="none" xmlns="http://www.w3.org/2000/svg">
<path d="M44.5191 11.4414H46.2372C46.919 11.4414 47.5329 11.338 48.0789 11.1306C48.6244 10.9226 49.0874 10.6326 49.4698 10.2573C49.8513 9.8821 50.1443 9.42863 50.3489 8.89908C50.5545 8.36909 50.657 7.78075 50.657 7.13275C50.657 6.39484 50.544 5.75764 50.3189 5.22074C50.0942 4.68341 49.7797 4.24161 49.3782 3.89146C48.9753 3.54303 48.4909 3.28409 47.9248 3.11593C47.3588 2.94734 46.7408 2.86218 46.0731 2.86218H41.5517V16.3686H44.5191V11.4414ZM53.9092 15.118C54.2784 15.5399 54.751 15.871 55.3307 16.1179C55.9109 16.3643 56.61 16.4875 57.428 16.4875C58.0971 16.4875 58.7073 16.3859 59.2592 16.1862C59.812 15.9851 60.2892 15.6934 60.6921 15.3121C61.0936 14.9308 61.4081 14.4713 61.6328 13.9339C61.8583 13.3975 61.9709 12.7931 61.9709 12.1196V7.09428C61.9709 6.56343 61.8789 6.0395 61.6943 5.52118C61.5097 5.00417 61.2335 4.54205 60.8653 4.13354C60.4975 3.72589 60.0258 3.39649 59.4543 3.14576C58.8805 2.89374 58.2051 2.76708 57.428 2.76708C56.5963 2.76708 55.8899 2.89763 55.3106 3.16392C54.7305 3.42934 54.2574 3.76739 53.8887 4.18325C53.5205 4.59695 53.2552 5.05993 53.0907 5.57003C52.9276 6.08056 52.8451 6.58893 52.8451 7.09428V11.9061C52.8451 12.5156 52.9303 13.097 53.1012 13.6534C53.2721 14.2097 53.541 14.6974 53.9092 15.118ZM55.791 6.9767C55.791 6.82237 55.822 6.6568 55.8831 6.48216C55.9455 6.30708 56.0398 6.14627 56.1697 5.9967C56.2992 5.84929 56.4669 5.72565 56.6715 5.62709C56.8757 5.53112 57.1282 5.484 57.428 5.484C57.7279 5.484 57.9777 5.53847 58.1759 5.64827C58.3728 5.75764 58.5337 5.89036 58.6558 6.04512C58.7789 6.20031 58.8641 6.36285 58.9115 6.53014C58.9593 6.70003 58.983 6.84917 58.983 6.9767V12.3142C58.983 12.7668 58.8304 13.1212 58.5227 13.3815C58.216 13.6404 57.8501 13.7692 57.428 13.7692C56.841 13.7692 56.4222 13.6019 56.1697 13.2661C55.9177 12.9289 55.791 12.5005 55.791 11.9848V6.9767ZM65.888 15.118C66.2495 15.5395 66.7198 15.8719 67.2995 16.1179C67.8797 16.3634 68.5783 16.4866 69.3968 16.4866C70.5563 16.4866 71.5384 16.1892 72.3428 15.5935C73.1476 14.9987 73.6526 14.1777 73.8572 13.129L71.0334 12.3518C70.9792 12.7931 70.7946 13.1381 70.4811 13.3897C70.168 13.6434 69.8056 13.7684 69.3968 13.7684C68.8112 13.7684 68.3974 13.6019 68.1595 13.2661C67.9202 12.9293 67.8017 12.5005 67.8017 11.9848V6.97626C67.8017 6.82194 67.8286 6.6568 67.8824 6.48302C67.9375 6.30708 68.0255 6.14541 68.149 5.9967C68.2716 5.84929 68.4357 5.72522 68.6403 5.62709C68.8445 5.53112 69.097 5.48314 69.3968 5.48314C69.684 5.48314 69.9287 5.53458 70.1333 5.63876C70.3379 5.74165 70.5084 5.86485 70.6451 6.00578C70.7814 6.15016 70.8798 6.30708 70.9423 6.48302C71.0029 6.6568 71.0466 6.81027 71.0753 6.93865L73.8768 6.14195C73.782 5.70318 73.618 5.27867 73.3864 4.87102C73.1545 4.46337 72.8546 4.10371 72.4859 3.79462C72.1181 3.48338 71.6746 3.23524 71.1569 3.04763C70.6383 2.85959 70.0517 2.76664 69.3968 2.76664C68.5646 2.76664 67.8582 2.89806 67.2794 3.16305C66.6993 3.42891 66.2285 3.76739 65.868 4.18325C65.5061 4.59695 65.2436 5.05907 65.0796 5.5709C64.9169 6.08056 64.8344 6.58893 64.8344 7.09342V11.9065C64.8344 12.5152 64.9201 13.0962 65.09 13.653C65.26 14.2097 65.5266 14.6974 65.888 15.118ZM77.4275 15.118C77.7885 15.5395 78.2588 15.8719 78.839 16.1179C79.4187 16.3634 80.1173 16.4866 80.9359 16.4866C82.0944 16.4866 83.077 16.1892 83.8814 15.5935C84.6871 14.9987 85.1916 14.1777 85.3962 13.129L82.5724 12.3518C82.5182 12.7931 82.3336 13.1381 82.021 13.3897C81.7065 13.6434 81.3447 13.7684 80.9359 13.7684C80.3493 13.7684 79.9364 13.6019 79.698 13.2661C79.4601 12.9293 79.3403 12.5005 79.3403 11.9848V6.97626C79.3403 6.82194 79.3672 6.6568 79.4219 6.48302C79.4757 6.30708 79.5645 6.14541 79.6876 5.9967C79.8106 5.84929 79.9747 5.72522 80.1789 5.62709C80.383 5.53112 80.6355 5.48314 80.9359 5.48314C81.2216 5.48314 81.4677 5.53458 81.6723 5.63876C81.877 5.74165 82.0474 5.86485 82.1846 6.00578C82.32 6.15016 82.4193 6.30708 82.4804 6.48302C82.5424 6.6568 82.5856 6.81027 82.6134 6.93865L85.4158 6.14195C85.321 5.70318 85.157 5.27867 84.9259 4.87102C84.6935 4.46337 84.3931 4.10371 84.0254 3.79462C83.6567 3.48338 83.2141 3.23524 82.6959 3.04763C82.1768 2.85959 81.5912 2.76664 80.9359 2.76664C80.1032 2.76664 79.3977 2.89806 78.8185 3.16305C78.2383 3.42891 77.7675 3.76739 77.407 4.18325C77.0447 4.59695 76.7827 5.05907 76.6186 5.5709C76.4545 6.08056 76.3734 6.58893 76.3734 7.09342V11.9065C76.3734 12.5152 76.4582 13.0962 76.6291 13.653C76.7991 14.2097 77.0657 14.6974 77.4275 15.118ZM88.2401 16.3686H96.526V13.7126H91.2056V10.8401H95.7886V8.25713H91.2056V5.46369H96.526V2.86218H88.2401V16.3686ZM98.1617 5.42392H101.21V16.3686H104.156V5.42392H107.205V2.86218H98.1617V5.42392ZM112.606 10.7035H112.566V2.86304H109.619V16.3677H112.401L116.371 9.01537H116.391V16.3677H119.357V2.86304H116.677L112.606 10.7035ZM19.1819 8.01375L3.00701 7.20754C1.11566 9.8432 0.00683618 13.0261 0 16.4524V16.5718C0.0050132 17.4709 0.0893255 18.3506 0.239722 19.2092L19.3163 8.574C19.2443 8.3972 19.2047 8.20785 19.1819 8.01375ZM20.9251 9.92879L10.7852 31.7589C12.8283 32.5573 15.0656 33 17.4113 33C19.7083 33 21.8995 32.5751 23.9066 31.8073L21.3872 9.99493C21.2282 9.98715 21.0737 9.96554 20.9251 9.92879ZM19.7844 9.28209L0.721901 21.1925C2.0267 25.3602 5.01821 28.8392 8.94673 30.9172L20.1362 9.5821C20.0081 9.49391 19.891 9.39319 19.7844 9.28209ZM20.0337 6.04382L16.39 0H16.3845C11.6466 0.261967 7.41726 2.32052 4.44261 5.46758L19.2575 7.15177C19.3929 6.70738 19.6672 6.3261 20.0337 6.04382ZM23.4577 9.02185L34.6121 19.0514C34.7492 18.2153 34.8217 17.3581 34.8217 16.4849C34.8217 12.9414 33.6418 9.66164 31.6388 6.97151L23.8601 7.86289C23.8414 8.29258 23.6965 8.68942 23.4577 9.02185ZM21.5627 5.53588C22.5234 5.55533 23.3342 6.11947 23.6824 6.91142L30.3299 5.41441C27.3744 2.31404 23.1979 0.284878 18.5183 0.00648406L20.972 5.60375C21.163 5.56052 21.3581 5.53242 21.5627 5.53588ZM22.2554 9.88081L25.8244 30.9445C29.7912 28.8643 32.8073 25.3576 34.1121 21.1549L22.8142 9.62706C22.6437 9.73513 22.4546 9.81683 22.2554 9.88081ZM44.5191 5.46455H46.0731C46.5918 5.46455 47.001 5.58948 47.3009 5.84151C47.6013 6.09396 47.7507 6.51155 47.7507 7.09428C47.7507 7.72845 47.5844 8.17284 47.2508 8.43307C46.9158 8.69245 46.5303 8.82041 46.0946 8.82041H44.5191V5.46455Z" fill="#075497"/>
<path d="M44.6515 28.3208C44.6005 28.5775 44.4797 28.779 44.2892 28.9247C44.0987 29.0708 43.8681 29.1434 43.5974 29.1434C43.4146 29.1434 43.2551 29.114 43.1198 29.0548C42.9839 28.996 42.8705 28.9147 42.7793 28.8101C42.6877 28.7063 42.6203 28.5844 42.576 28.4457C42.5323 28.3069 42.5104 28.1612 42.5104 28.0082V25.1235C42.5104 24.9982 42.5323 24.8733 42.576 24.7483C42.6203 24.6234 42.6863 24.511 42.7738 24.4098C42.8618 24.3095 42.973 24.2278 43.1088 24.1652C43.2442 24.1029 43.4073 24.0714 43.5974 24.0714C43.7587 24.0714 43.9014 24.096 44.0258 24.1444C44.1502 24.1928 44.2564 24.2577 44.3439 24.3368C44.4318 24.4172 44.5016 24.5054 44.5526 24.6026C44.6041 24.6999 44.6406 24.8006 44.6625 24.9048L45.8592 24.5296C45.7348 24.0714 45.4801 23.6896 45.0959 23.384C44.7117 23.0788 44.2122 22.9258 43.5974 22.9258C43.195 22.9258 42.8472 22.9885 42.5542 23.1134C42.2616 23.2383 42.0178 23.4048 41.8241 23.6131C41.6299 23.8215 41.4855 24.061 41.3902 24.3316C41.2954 24.6026 41.2476 24.8806 41.2476 25.165V27.9771C41.2476 28.3035 41.2954 28.6069 41.3902 28.8883C41.4855 29.1698 41.6322 29.4144 41.8295 29.6228C42.0273 29.8312 42.2725 29.9941 42.5651 30.1126C42.8582 30.2302 43.2022 30.2894 43.5974 30.2894C44.1684 30.2894 44.6552 30.1485 45.058 29.8675C45.4605 29.5861 45.7239 29.1922 45.8483 28.6852L44.6515 28.3208ZM51.4043 30.2267V29.1019H48.4069V27.1021H50.9868V26.0192H48.4069V24.0817H51.4043V22.9781H47.1549V30.2267H51.4043ZM57.2401 27.5655C57.2 27.3957 57.1376 27.2379 57.0533 27.0918C56.9694 26.9461 56.8614 26.8194 56.7292 26.7113C56.5975 26.6041 56.4403 26.5224 56.2571 26.4667V26.4148C56.6085 26.2622 56.8523 26.0573 56.9876 25.8005C57.123 25.5433 57.1904 25.2623 57.1904 24.9567C57.1904 24.3459 57.0095 23.863 56.6472 23.5089C56.2849 23.1549 55.7412 22.9781 55.0165 22.9781H52.6777V30.2267H55.1373C55.7959 30.2267 56.3213 30.0426 56.7128 29.6747C57.1048 29.3068 57.3003 28.7755 57.3003 28.0813C57.3003 27.9075 57.2802 27.7359 57.2401 27.5655ZM55.7138 25.6911C55.5493 25.8679 55.2873 25.9566 54.9286 25.9566H53.9291V24.061H54.9176C55.2836 24.061 55.5493 24.1444 55.7138 24.3113C55.8784 24.4777 55.9608 24.7068 55.9608 24.9982C55.9608 25.2831 55.8784 25.5139 55.7138 25.6911ZM56.0215 28.4323C55.9882 28.5646 55.9312 28.6813 55.851 28.7829C55.7704 28.884 55.6642 28.9623 55.5324 29.018C55.4007 29.0742 55.2362 29.1019 55.0384 29.1019H53.9291V26.988H55.0275C55.4007 26.988 55.6678 27.0818 55.8287 27.2703C55.99 27.4588 56.0707 27.7065 56.0707 28.0134C56.0707 28.1599 56.0543 28.2996 56.0215 28.4323ZM63.0099 30.2267V29.1019H60.0124V27.1021H62.5929V26.0192H60.0124V24.0817H63.0099V22.9781H58.7605V30.2267H63.0099ZM68.7636 24.2222C68.6543 23.9412 68.4966 23.7091 68.2915 23.5245C68.0864 23.3408 67.8412 23.2038 67.5559 23.1134C67.2702 23.0231 66.9484 22.9781 66.5897 22.9781H64.2837V30.2267H65.5356V27.4462H66.6554C67.0359 27.4462 67.3691 27.3883 67.6548 27.2742C67.9401 27.1592 68.1762 27.0014 68.3626 26.8C68.5495 26.5989 68.6907 26.3629 68.786 26.0919C68.8808 25.8213 68.9282 25.5295 68.9282 25.2169C68.9282 24.8352 68.8735 24.5036 68.7636 24.2222ZM67.4183 26.0154C67.2392 26.2194 66.963 26.3214 66.5897 26.3214H65.5356V24.0817H66.5783C66.9521 24.0817 67.2301 24.1768 67.4128 24.367C67.596 24.5572 67.6876 24.8318 67.6876 25.191C67.6876 25.5368 67.5979 25.8118 67.4183 26.0154ZM74.7809 30.2267V22.9781H73.5289V26.0192H71.3769V22.9781H70.1145V30.2267H71.3769V27.0918H73.5289V30.2267H74.7809ZM78.8657 30.2267C79.5826 30.2267 80.1459 30.0395 80.5565 29.6643C80.9658 29.2895 81.1713 28.7306 81.1713 27.9875C81.1713 27.6749 81.1276 27.3883 81.0391 27.1281C80.9516 26.8678 80.814 26.6426 80.6276 26.4511C80.4408 26.2605 80.2029 26.1131 79.9139 26.0084C79.625 25.9047 79.2786 25.8524 78.8762 25.8524H77.7564V22.9781H76.5045V30.2267H78.8657ZM77.7564 29.1226V26.9564H78.8106C79.2057 26.9564 79.4892 27.052 79.6614 27.2426C79.8333 27.4341 79.9194 27.6922 79.9194 28.0186C79.9194 28.3588 79.8319 28.6277 79.656 28.8257C79.48 29.0236 79.2016 29.1226 78.8215 29.1226H77.7564ZM83.0709 22.9781H81.8189V30.2271H83.0709V22.9781ZM85.9366 30.2267L87.7377 26.8938C87.8617 26.6647 87.9856 26.4321 88.111 26.1961C88.2345 25.96 88.3593 25.7275 88.4838 25.4983H88.5061V30.2267H89.7576V22.9781H88.5936C88.3229 23.4986 88.0517 24.0126 87.7815 24.5192C87.5103 25.0263 87.2355 25.5368 86.9579 26.0504C86.8043 26.3486 86.6521 26.6474 86.5022 26.9461C86.3522 27.2448 86.1927 27.5431 86.0246 27.8418C86.0168 27.8418 86.0113 27.84 86.0081 27.8362C86.0041 27.8331 85.9986 27.8314 85.9913 27.8314V22.9781H84.7508V30.2267H85.9366ZM88.023 22.3634C88.2276 22.2592 88.3921 22.1308 88.517 21.9782C88.641 21.8252 88.7344 21.6588 88.7969 21.4781C88.8588 21.2974 88.8971 21.1309 88.9126 20.9783H87.9792C87.9792 21.0544 87.9642 21.1331 87.935 21.2122C87.9054 21.2926 87.8617 21.367 87.8033 21.4366C87.7441 21.5057 87.6716 21.5632 87.5837 21.6082C87.4957 21.6536 87.3932 21.6761 87.2765 21.6761C87.1667 21.6761 87.0696 21.6536 86.9848 21.6082C86.9009 21.5632 86.8276 21.5057 86.7656 21.4366C86.7032 21.367 86.6558 21.2926 86.6225 21.2122C86.5897 21.1331 86.5696 21.0544 86.5623 20.9783H85.618C85.6253 21.1309 85.6581 21.2974 85.7169 21.4781C85.7753 21.6588 85.8687 21.8252 85.9968 21.9782C86.1248 22.1308 86.2934 22.2592 86.5022 22.3634C86.7109 22.4676 86.9689 22.5199 87.2765 22.5199C87.5686 22.5199 87.8175 22.4676 88.023 22.3634ZM95.5109 30.2267V27.0814H96.1699C96.4479 27.0814 96.6895 27.1527 96.8946 27.2945C97.0996 27.4376 97.2605 27.7272 97.3776 28.1647L97.9159 30.2267H99.2002L98.5635 27.8625C98.4755 27.5016 98.3475 27.2046 98.1793 26.972C98.0111 26.7394 97.7728 26.5743 97.4651 26.4775C97.6999 26.401 97.9045 26.2466 98.0804 26.0136C98.2563 25.7815 98.3917 25.488 98.4865 25.1339L99.0794 22.9988H97.8717L97.3116 24.9882C97.2528 25.2035 97.1776 25.3782 97.0864 25.5139C96.9948 25.6492 96.8959 25.7534 96.7902 25.826C96.6835 25.8991 96.5723 25.9496 96.4552 25.9773C96.3385 26.0054 96.2251 26.0192 96.1148 26.0192H95.5109V22.9781H94.2485V30.2267H95.5109ZM104.042 30.2267H105.371L103.153 22.9781H101.945L99.7384 30.2267H101.045C101.067 30.1645 101.098 30.0598 101.138 29.9146C101.179 29.7685 101.222 29.6124 101.27 29.4456C101.317 29.2791 101.364 29.1226 101.407 28.977C101.451 28.8313 101.48 28.7271 101.495 28.6644H103.614L104.042 30.2267ZM102.528 24.6234H102.582C102.589 24.6861 102.611 24.7885 102.648 24.9307C102.684 25.0734 102.723 25.2238 102.763 25.3838C102.803 25.5433 102.84 25.6963 102.873 25.842C102.906 25.9881 102.93 26.0919 102.945 26.1546L103.329 27.6023H101.77L102.165 26.1442L102.528 24.6234ZM111.031 27.5655C110.991 27.3957 110.929 27.2379 110.845 27.0918C110.761 26.9461 110.652 26.8194 110.52 26.7113C110.389 26.6041 110.231 26.5224 110.049 26.4667V26.4148C110.4 26.2622 110.643 26.0573 110.779 25.8005C110.914 25.5433 110.982 25.2623 110.982 24.9567C110.982 24.3459 110.801 23.863 110.438 23.5089C110.076 23.1549 109.532 22.9781 108.808 22.9781H106.469V30.2267H108.929C109.587 30.2267 110.113 30.0426 110.504 29.6747C110.896 29.3068 111.091 28.7755 111.091 28.0813C111.091 27.9075 111.072 27.7359 111.031 27.5655ZM109.505 25.6911C109.34 25.8679 109.078 25.9566 108.72 25.9566H107.72V24.061H108.709C109.075 24.061 109.34 24.1444 109.505 24.3113C109.67 24.4777 109.752 24.7068 109.752 24.9982C109.752 25.2831 109.67 25.5139 109.505 25.6911ZM109.813 28.4323C109.78 28.5646 109.723 28.6813 109.642 28.7829C109.562 28.884 109.455 28.9623 109.324 29.018C109.192 29.0742 109.027 29.1019 108.83 29.1019H107.72V26.988H108.818C109.192 26.988 109.459 27.0818 109.62 27.2703C109.781 27.4588 109.861 27.7065 109.861 28.0134C109.861 28.1599 109.845 28.2996 109.813 28.4323ZM113.792 30.2267V27.0814H114.452C114.73 27.0814 114.971 27.1527 115.176 27.2945C115.381 27.4376 115.542 27.7272 115.659 28.1647L116.197 30.2267H117.482L116.845 27.8625C116.757 27.5016 116.629 27.2046 116.461 26.972C116.292 26.7394 116.055 26.5743 115.747 26.4775C115.981 26.401 116.186 26.2466 116.362 26.0136C116.538 25.7815 116.673 25.488 116.768 25.1339L117.362 22.9988H116.153L115.593 24.9882C115.535 25.2035 115.46 25.3782 115.368 25.5139C115.277 25.6492 115.178 25.7534 115.072 25.826C114.966 25.8991 114.854 25.9496 114.737 25.9773C114.62 26.0054 114.506 26.0192 114.397 26.0192H113.792V22.9781H112.53V30.2267H113.792ZM122.324 30.2267H123.653L121.435 22.9781H120.227L118.02 30.2267H119.327C119.349 30.1645 119.379 30.0598 119.42 29.9146C119.46 29.7685 119.504 29.6124 119.551 29.4456C119.599 29.2791 119.645 29.1226 119.689 28.977C119.733 28.8313 119.762 28.7271 119.777 28.6644H121.896L122.324 30.2267ZM120.809 24.6234H120.864C120.871 24.6861 120.893 24.7885 120.93 24.9307C120.967 25.0734 121.005 25.2238 121.045 25.3838C121.085 25.5433 121.122 25.6963 121.155 25.842C121.188 25.9881 121.212 26.0919 121.226 26.1546L121.611 27.6023H120.051L120.447 26.1442L120.809 24.6234ZM125.074 29.8476C125.488 30.1424 126.009 30.2894 126.639 30.2894C126.99 30.2894 127.311 30.2423 127.6 30.1485C127.889 30.0547 128.138 29.9163 128.346 29.7317C128.555 29.548 128.717 29.3206 128.83 29.05C128.943 28.779 129 28.4634 129 28.102C129 27.9494 128.987 27.7916 128.962 27.6278C128.936 27.4653 128.887 27.307 128.813 27.1544C128.74 27.0014 128.643 26.8648 128.522 26.7433C128.402 26.6214 128.249 26.5259 128.067 26.4567V26.4148C128.243 26.3456 128.387 26.2466 128.5 26.1178C128.614 25.9899 128.701 25.8511 128.764 25.7011C128.826 25.5524 128.87 25.4011 128.896 25.2485C128.922 25.0959 128.934 24.9601 128.934 24.8421C128.934 24.2106 128.743 23.7311 128.363 23.4048C127.982 23.0788 127.437 22.9154 126.727 22.9154C126.105 22.9154 125.594 23.0615 125.195 23.3542C124.796 23.6464 124.535 24.042 124.41 24.54L125.563 24.9359C125.636 24.6722 125.77 24.457 125.964 24.2901C126.158 24.1237 126.405 24.0402 126.705 24.0402C127.012 24.0402 127.25 24.1224 127.419 24.2862C127.587 24.4505 127.672 24.6649 127.672 24.9307C127.672 25.2584 127.583 25.51 127.408 25.6842C127.232 25.8589 126.99 25.9462 126.683 25.9462H126.079V26.9564H126.672C126.87 26.9564 127.034 26.9858 127.166 27.0446C127.298 27.1034 127.404 27.183 127.484 27.2833C127.565 27.3835 127.622 27.4994 127.655 27.6304C127.688 27.7614 127.704 27.9032 127.704 28.0549C127.704 28.3938 127.611 28.6631 127.424 28.8637C127.238 29.0647 126.979 29.1646 126.65 29.1646C126.357 29.1646 126.105 29.0829 125.892 28.9195C125.68 28.7565 125.545 28.5257 125.486 28.2269C125.42 28.2481 125.334 28.2758 125.228 28.3104C125.122 28.345 125.01 28.3817 124.893 28.4197C124.776 28.4582 124.664 28.4924 124.559 28.5239C124.452 28.555 124.366 28.5814 124.3 28.6022C124.403 29.1382 124.661 29.5536 125.074 29.8476Z" fill="#075497"/>
</svg>
