<svg width="16" height="17" viewBox="0 0 16 17" fill="none" xmlns="http://www.w3.org/2000/svg">
<path d="M15.8285 4.37875L12.1212 0.671438C12.1212 0.671406 12.1211 0.671344 12.1211 0.671312C12.0146 0.564875 11.8655 0.5 11.7073 0.5C11.238 0.5 1.03231 0.5 0.585375 0.5C0.262094 0.5 0 0.762094 0 1.08538V15.9147C0 16.2379 0.262094 16.5 0.585375 16.5C1.29047 16.5 14.7214 16.5 15.4147 16.5C15.7379 16.5 16 16.2379 16 15.9146V4.79269C16 4.63744 15.9383 4.48856 15.8285 4.37875ZM4.87806 1.67072H11.122V5.13394H4.87806V1.67072ZM12.5141 15.3293H3.48594V10.4042H12.5141V15.3293ZM14.8293 15.3293H13.6848V9.81888C13.6848 9.49559 13.4227 9.2335 13.0994 9.2335H2.90056C2.57728 9.2335 2.31519 9.49559 2.31519 9.81888V15.3293H1.17072V1.67072H3.70731V5.71931C3.70731 6.04259 3.96941 6.30469 4.29269 6.30469H11.7073C12.0306 6.30469 12.2927 6.04259 12.2927 5.71931V2.49856L14.8293 5.03516V15.3293Z" fill="white"/>
</svg>
