<svg width="798" height="502" viewBox="0 0 798 502" fill="none" xmlns="http://www.w3.org/2000/svg">
<path fill-rule="evenodd" clip-rule="evenodd" d="M743.91 -28.7325C753.11 61.1287 731.307 150.714 686.993 229.428C642.972 307.621 577.18 370.727 496.691 410.394C414.997 450.655 323.387 467.915 233.558 452.891C142.181 437.609 50.3177 399.693 -6.20511 326.287C-60.4633 255.822 -49.0582 159.893 -60.0088 71.6351C-70.9488 -16.5368 -124.54 -118.024 -70.0396 -188.193C-14.5035 -259.695 99.6405 -228.662 188.124 -247.836C251.858 -261.646 310.281 -280.836 375.379 -284.712C464.141 -289.997 562.376 -325.195 635.406 -274.468C710.793 -222.105 734.562 -120.043 743.91 -28.7325Z" fill="#96ADFF"/>
</svg>
