<svg width="120" height="254" viewBox="0 0 120 254" fill="none" xmlns="http://www.w3.org/2000/svg">
<path d="M40.3118 173.668L34.6274 194.264C33.1037 199.797 35.9696 205.594 41.2913 207.742C47.0779 210.071 53.657 207.27 55.9894 201.485C56.1948 200.973 56.3629 200.447 56.4926 199.911L61.4972 179.143C62.766 173.868 59.9784 168.459 54.9457 166.431C52.2542 165.346 49.2419 165.375 46.5718 166.511C43.9016 167.648 41.7923 169.798 40.7079 172.49C40.5527 172.874 40.4205 173.268 40.3118 173.668Z" fill="white"/>
<path fill-rule="evenodd" clip-rule="evenodd" d="M36.3009 204.283C38.4909 207.159 41.8989 208.847 45.5137 208.845H45.5298C50.8717 208.834 55.5142 205.173 56.7701 199.981L61.7748 179.213C63.0076 173.335 59.4017 167.526 53.5869 166.023C47.772 164.52 41.8029 167.854 40.0327 173.593L34.3537 194.189C33.3906 197.674 34.111 201.408 36.3009 204.283ZM34.8893 194.339L40.5844 173.747L40.5737 173.726C42.0518 168.028 47.8691 164.607 53.567 166.085C59.265 167.563 62.6859 173.381 61.2078 179.079L56.2032 199.846C56.1764 199.959 56.1443 200.077 56.1122 200.189C54.4967 206.05 48.4361 209.491 42.5756 207.875C36.7151 206.26 33.2738 200.199 34.8893 194.339Z" fill="#0C121B"/>
<path d="M33.4333 194.28L30.5376 207.357C30.6204 208.18 31.3156 208.806 32.1434 208.802H76.7943C77.6812 208.802 78.4001 208.083 78.4001 207.196C78.4053 207.134 78.4053 207.071 78.4001 207.009C77.4822 199.102 70.789 193.136 62.8295 193.13L58.2692 193.022C51.3911 196.432 41.3979 196.71 34.3807 193.601C34.2185 193.525 34.0327 193.518 33.8654 193.582C33.6981 193.645 33.5635 193.774 33.4922 193.938C33.4409 194.044 33.4205 194.163 33.4333 194.28Z" fill="#585BB5"/>
<path d="M78.8774 119.264C77.9735 114.936 75.5248 111.085 71.9887 108.431L68.7772 106.691L50.5785 96.762C50.9647 95.6893 51.2899 94.5956 51.5527 93.4863L39.0491 90.4835L13.753 76.6953C12.2488 78.7949 11.0754 81.1127 10.2738 83.568L4.92128 82.278C1.37789 97.0457 8.94104 111.524 21.8246 114.618C22.7318 114.837 23.6528 114.994 24.5812 115.089L45.8683 128.133L27.5572 186.653L62.2899 187.498L78.0478 127.261L78.9577 123.744C79.1495 122.255 79.1224 120.746 78.8774 119.264Z" fill="white"/>
<path fill-rule="evenodd" clip-rule="evenodd" d="M27.1552 186.926L62.4821 187.793L78.3149 127.357L79.2248 123.825V123.755C79.423 122.247 79.4014 120.718 79.1606 119.216C78.2455 114.801 75.7432 110.874 72.1274 108.179L50.9206 96.6284C51.2755 95.6189 51.5774 94.5916 51.8251 93.5507L51.8947 93.2723L39.145 90.2107L13.6615 76.3262L13.5116 76.5296C12.0437 78.5808 10.8858 80.837 10.0753 83.2256L4.69059 81.9356L4.62636 82.214C2.86738 89.1819 3.6887 96.5509 6.93866 102.96C10.1716 109.143 15.4225 113.382 21.7385 114.897C22.6373 115.112 23.5491 115.27 24.4683 115.368L45.5091 128.257L27.1552 186.926ZM62.0481 187.209L27.9202 186.374L46.1136 128.219L46.1778 128.005L24.6445 114.811H24.5803C23.6649 114.717 22.7566 114.563 21.8612 114.35C15.6843 112.868 10.5619 108.736 7.40928 102.698C4.26254 96.4996 3.43667 89.3801 5.08092 82.6259L10.4335 83.9105L10.5138 83.659C11.2803 81.3131 12.3915 79.0943 13.8109 77.0753L38.8876 90.7404L51.1985 93.7004C50.9469 94.7066 50.6472 95.7022 50.2993 96.671L50.2136 96.9012L68.6478 106.948L71.8219 108.671C76.5317 112.155 79.1149 117.819 78.6571 123.659L77.7578 127.165L62.0481 187.209Z" fill="#585BB5"/>
<path d="M6.80437 218.051L3.9354 239.22C3.16009 244.909 6.77885 250.274 12.3443 251.686C15.248 252.422 18.3254 251.975 20.8992 250.442C23.473 248.909 25.3324 246.417 26.0682 243.513C26.2014 242.985 26.298 242.448 26.3572 241.907L28.5357 220.657C29.0898 215.258 25.602 210.269 20.341 208.935C17.5287 208.22 14.5474 208.652 12.0537 210.135C9.55993 211.619 7.75819 214.033 7.04523 216.846C6.94392 217.243 6.86353 217.645 6.80437 218.051Z" fill="white"/>
<path fill-rule="evenodd" clip-rule="evenodd" d="M6.40095 248.351C8.6011 250.869 11.7834 252.312 15.1274 252.307L15.1221 252.329C21.0607 252.329 26.0367 247.837 26.6408 241.929L28.8193 220.679C29.2714 214.681 24.922 209.391 18.9501 208.674C12.9783 207.957 7.50046 212.068 6.52053 218.003L3.65156 239.172C3.19816 242.485 4.2008 245.832 6.40095 248.351ZM4.2238 239.22L7.09812 218.051C7.81994 212.23 13.1101 208.086 18.9346 208.78C24.7591 209.474 28.9279 214.744 28.2621 220.572L26.0836 241.821C26.0783 241.864 26.0711 241.907 26.064 241.95C26.0497 242.036 26.0354 242.121 26.0354 242.207C25.0943 248.12 19.6005 252.197 13.6684 251.385C7.73631 250.572 3.54072 245.169 4.2238 239.22Z" fill="#0C121B"/>
<path d="M3.21249 238.439L1.33374 251.526C1.41134 252.354 2.10804 252.986 2.93951 252.982L46.4504 253.378C47.3372 253.378 48.0562 252.659 48.0562 251.772C48.0562 251.708 48.0562 251.649 48.0562 251.585C47.2165 243.667 40.5756 237.637 32.614 237.561L26.1053 237.497C19.1919 240.84 11.1497 240.934 4.15989 237.754C3.82141 237.599 3.42129 237.747 3.26601 238.086C3.2182 238.197 3.19977 238.319 3.21249 238.439Z" fill="#585BB5"/>
<path d="M42.6615 159.639C40.7974 167.203 33.4484 172.078 25.7544 170.854C18.0604 169.629 12.5876 162.714 13.1636 154.945C13.2375 153.873 13.4277 152.812 13.731 151.781C15.8176 144.589 22.8927 140.041 30.302 141.129C37.7113 142.217 43.1803 148.607 43.1111 156.096C43.1024 157.29 42.9514 158.48 42.6615 159.639Z" fill="white"/>
<path fill-rule="evenodd" clip-rule="evenodd" d="M17.2903 166.772C20.1515 169.649 24.0388 171.271 28.0964 171.281L28.0857 171.254C35.0938 171.248 41.204 166.487 42.923 159.693C43.2177 158.527 43.3723 157.33 43.3833 156.128V156.074C43.3342 147.901 36.8618 141.213 28.6941 140.896C20.5263 140.579 13.5555 146.746 12.8737 154.891V154.94C12.8416 155.271 12.8416 155.609 12.8416 155.94C12.8288 159.998 14.4292 163.894 17.2903 166.772ZM25.8222 170.52C18.3012 169.332 12.93 162.601 13.4413 155.004L13.4467 154.993C14.0117 147.09 20.7355 141.054 28.6536 141.343C36.5717 141.631 42.8384 148.14 42.8268 156.063V156.112C42.8159 157.278 42.6667 158.438 42.3826 159.569L42.6609 159.639L42.3826 159.575C40.5275 166.959 33.3432 171.708 25.8222 170.52Z" fill="#585BB5"/>
<path d="M49.7952 90.4462L27.8497 84.8688C26.6209 84.5646 25.3764 85.3074 25.061 86.5335L25.0289 86.6887V86.8064L15.9831 84.6333C13.7565 93.9093 15.9135 103.073 21.0145 109.373L13.4781 151.679L13.1302 153.628L12.9 154.902L0.326904 225.009L33.5769 233.45L42.9493 159.708L43.4042 156.111L48.7247 114.683L51.4812 93.1867L51.508 92.9779C51.6608 91.822 50.925 90.7344 49.7952 90.4462Z" fill="white"/>
<path fill-rule="evenodd" clip-rule="evenodd" d="M0 225.223L33.8174 233.787L43.6929 156.197V156.165V156.133L51.7699 93.2347V93.026C51.9375 91.732 51.1127 90.5166 49.8483 90.1945L27.9028 84.6171C26.5212 84.2691 25.1184 85.1045 24.7662 86.4852L15.7311 84.3174L15.6669 84.5904C13.5045 93.5773 15.3779 102.869 20.6715 109.474L13.178 151.636L0 225.223ZM33.3095 233.075L0.632158 224.779L13.1571 154.982L21.2876 109.292L21.202 109.191C16.01 102.784 14.1366 93.7538 16.1599 84.9756L25.2271 87.1541L25.2967 86.742L25.3288 86.6028C25.4589 86.0858 25.7893 85.6417 26.2472 85.3685C26.7051 85.0954 27.2528 85.0157 27.7696 85.1469L49.715 90.7189C50.6997 90.9702 51.3426 91.9161 51.2138 92.9242L43.11 156.084V156.116L42.6604 159.66V159.708L33.3095 233.075Z" fill="#585BB5"/>
<path d="M34.7474 60.2305C39.1881 60.2305 43.1914 62.9058 44.8903 67.0087C46.5892 71.1115 45.649 75.8338 42.5081 78.9731C39.3673 82.1124 34.6446 83.0503 30.5425 81.3494C26.4405 79.6486 23.7671 75.6439 23.7693 71.2032C23.7722 65.1423 28.6864 60.2305 34.7474 60.2305Z" fill="white"/>
<path fill-rule="evenodd" clip-rule="evenodd" d="M24.4859 75.8948C26.3206 79.9054 30.3312 82.4726 34.7416 82.4592C39.922 82.4435 44.4207 78.8894 45.6349 73.8533C46.849 68.8172 44.464 63.6035 39.8599 61.229C35.2558 58.8544 29.625 59.934 26.2257 63.8431C23.3316 67.1711 22.6513 71.8841 24.4859 75.8948ZM25.1835 76.0267C23.2406 72.1542 23.8235 67.4925 26.66 64.2176C30.5232 59.7573 37.2672 59.2641 41.7381 63.115C45.0208 65.9424 46.2757 70.4697 44.9169 74.5836C43.5581 78.6975 39.8536 81.5868 35.5326 81.9028C31.2117 82.2187 27.1263 79.8991 25.1835 76.0267Z" fill="#0C121B"/>
<path d="M26.1729 64.3412L47.2565 39.9282L63.8494 54.2731L42.7658 78.686" fill="white"/>
<path d="M43.0061 78.8842L42.5726 78.5095L63.4475 54.316L47.2668 40.3459L26.3918 64.5394L25.9583 64.1647L47.2239 39.543L64.2718 54.2625L43.0061 78.8842Z" fill="#0C121B"/>
<path d="M18.5721 32.3169C24.6351 32.3169 29.5502 37.2319 29.5502 43.295C29.5502 49.358 24.6351 54.2731 18.5721 54.2731C12.509 54.2731 7.59399 49.358 7.59399 43.295C7.59399 37.2319 12.509 32.3169 18.5721 32.3169Z" fill="#81FEC6"/>
<path fill-rule="evenodd" clip-rule="evenodd" d="M7.54162 45.2614C8.49138 50.6217 13.1458 54.531 18.5895 54.5407C22.6211 54.5479 26.3477 52.3954 28.356 48.8997C30.3643 45.404 30.3467 41.1004 28.3098 37.6213C25.5594 32.9234 19.8378 30.8717 14.7288 32.7512C9.61974 34.6307 6.59186 39.9012 7.54162 45.2614ZM8.21935 40.5479C9.46564 35.8634 13.7042 32.601 18.5516 32.5951C22.3675 32.5905 25.8974 34.6175 27.8169 37.9155C30.2551 42.1051 29.5739 47.4102 26.1562 50.8478C22.7385 54.2854 17.4374 54.9975 13.2337 52.5836C9.03009 50.1697 6.97307 45.2324 8.21935 40.5479Z" fill="#81FEC6"/>
<path d="M8.87305 48.4335L27.8585 37.4126L44.0554 65.3047L25.0699 76.331L8.87305 48.4335Z" fill="#81FEC6"/>
<path fill-rule="evenodd" clip-rule="evenodd" d="M8.48242 48.3744L24.9683 76.7429L44.4462 65.433L27.9604 37.0645L8.48242 48.3744ZM25.1772 75.9562L9.26404 48.5565L27.7517 37.8514L43.6649 65.2511L25.1772 75.9562Z" fill="#81FEC6"/>
<path d="M75.6512 39.1041C75.187 38.5606 74.5246 38.2253 73.8118 38.173C73.0989 38.1207 72.3947 38.3558 71.8562 38.8258L66.054 43.8358C65.8884 43.3035 65.6827 42.7846 65.4385 42.2835L70.7161 36.3047C71.1913 35.7717 71.4337 35.0709 71.3895 34.3582C71.3452 33.6455 71.018 32.98 70.4806 32.5098C69.948 32.0323 69.2464 31.7879 68.5324 31.8312C67.8184 31.8744 67.1514 32.2017 66.6803 32.7399L61.9165 38.1353C61.4548 37.8085 60.9679 37.5185 60.4606 37.2682L64.4215 30.7006C64.9187 29.8764 64.9384 28.8496 64.4733 28.0069C64.0081 27.1642 63.1287 26.6337 62.1663 26.6152C61.2039 26.5968 60.3048 27.0931 59.8076 27.9173L54.8458 36.1442C49.3264 36.5144 44.9457 40.9352 44.6258 46.4577C44.3058 51.9802 48.1467 56.8773 53.5864 57.8824C59.0261 58.8875 64.3634 55.6862 66.038 50.4141C66.5461 50.3381 67.0227 50.1211 67.4136 49.7878L75.3835 42.8991C75.9271 42.4349 76.2624 41.7726 76.3147 41.0597C76.3669 40.3468 76.1319 39.6426 75.6619 39.1041H75.6512Z" fill="white"/>
<path fill-rule="evenodd" clip-rule="evenodd" d="M54.4388 58.3038C54.8188 58.3626 55.2042 58.3626 55.5896 58.3626H55.5949C60.4337 58.3582 64.7265 55.2577 66.2519 50.6657C66.7474 50.5659 67.2085 50.339 67.59 50.0073L75.5653 43.1239C76.7781 42.0398 76.898 40.1837 75.8348 38.9526C74.7716 37.7214 72.9178 37.5698 71.6687 38.6117L66.1876 43.3434C66.0692 43.0005 65.9316 42.6646 65.7755 42.3371L70.93 36.5028C71.9756 35.2642 71.8401 33.4171 70.6248 32.3444C69.4095 31.2718 67.5598 31.3666 66.4606 32.558L61.8628 37.7607C61.5382 37.5415 61.2023 37.3396 60.8565 37.1558L64.6568 30.8505C65.4246 29.4489 64.9506 27.6911 63.5822 26.8655C62.2139 26.0399 60.4379 26.4401 59.5558 27.7728L54.669 35.8766C48.7686 36.2191 44.1413 41.0727 44.0807 46.9827C44.02 52.8927 48.5467 57.8402 54.4388 58.3038ZM60.0435 28.0675C60.481 27.3444 61.2643 26.902 62.1095 26.9007L62.1149 26.9382C62.5506 26.9427 62.9772 27.0627 63.3513 27.2861C63.8988 27.6159 64.2927 28.1499 64.4463 28.7703C64.5999 29.3907 64.5006 30.0468 64.1703 30.5939L60.0488 37.4291L60.3271 37.563C60.8214 37.8092 61.2957 38.0938 61.7456 38.414L61.9543 38.5585L66.8894 32.9758C67.7762 31.9781 69.3039 31.8883 70.3016 32.7751C71.2993 33.6619 71.3892 35.1897 70.5023 36.1874L65.0963 42.3107L65.1765 42.482C65.4163 42.9683 65.6168 43.4731 65.776 43.9914L65.9098 44.4089L72.0385 39.1098C73.0459 38.2417 74.5656 38.3518 75.4374 39.3561C76.3055 40.3634 76.1954 41.8832 75.1912 42.7549L67.2159 49.6383C66.8665 49.9296 66.4413 50.1153 65.9901 50.1736H65.8135L65.76 50.3448C64.1285 55.4925 58.9185 58.6191 53.6085 57.6371C48.2986 56.6552 44.5513 51.8722 44.8686 46.4815C45.1858 41.0909 49.4683 36.7805 54.8568 36.4282H55.0067L60.0435 28.0675Z" fill="#0C121B"/>
<path d="M57.1379 29.2771C57.7556 29.6392 58.2024 30.2338 58.3784 30.9279C58.5545 31.6219 58.445 32.3576 58.0746 32.9704L52.6792 42.0215C52.3162 42.6383 51.7212 43.084 51.0272 43.259C50.3332 43.434 49.5981 43.3237 48.986 42.9529C48.3692 42.5898 47.9235 41.9948 47.7485 41.3009C47.5735 40.6069 47.6837 39.8717 48.0546 39.2596L53.4446 30.2138C53.8068 29.5961 54.4014 29.1493 55.0954 28.9733C55.7895 28.7972 56.5251 28.9067 57.1379 29.2771Z" fill="white"/>
<path fill-rule="evenodd" clip-rule="evenodd" d="M48.8471 43.2047C49.3072 43.4778 49.8322 43.622 50.3672 43.6222C51.4172 43.622 52.3902 43.0715 52.9311 42.1717L58.3211 33.1205C58.9205 32.2044 58.9696 31.0334 58.4489 30.0703C57.9282 29.1072 56.9215 28.507 55.8267 28.5068C54.7319 28.5067 53.725 29.1066 53.2041 30.0696L47.8087 39.1207C46.9718 40.5358 47.4359 42.3612 48.8471 43.2047ZM52.438 41.8773C51.7568 43.0166 50.2822 43.3901 49.1408 42.7123C48.5916 42.387 48.1944 41.8566 48.0367 41.238C47.8791 40.6195 47.974 39.9636 48.3005 39.4151L53.6905 30.364C53.7009 30.3473 53.7105 30.3307 53.7199 30.3144C53.7347 30.2887 53.7491 30.2638 53.7654 30.2409C54.496 29.1606 55.9536 28.8579 57.0538 29.5581C58.154 30.2582 58.4972 31.7068 57.828 32.8261L52.438 41.8773Z" fill="#0C121B"/>
<path d="M51.5242 93.4706L4.87671 82.2677C8.42545 67.5 21.7479 58.0367 34.6262 61.1304C47.5044 64.2242 55.0729 78.7082 51.5242 93.4706Z" fill="#81FEC6"/>
<path fill-rule="evenodd" clip-rule="evenodd" d="M4.53418 82.4763L51.7383 93.8184L51.8025 93.54C53.562 86.5722 52.7407 79.203 49.4902 72.7936C46.2573 66.6114 41.0011 62.3721 34.6904 60.8574C21.6784 57.7315 8.17927 67.3018 4.60376 82.198L4.53418 82.4763ZM51.3091 93.1173L5.22362 82.0428C8.83123 67.607 21.9343 58.3632 34.5556 61.3981C40.7057 62.8754 45.8281 67.0075 48.9807 73.0452C52.1275 79.2436 52.9533 86.3631 51.3091 93.1173Z" fill="#81FEC6"/>
<path d="M51.1815 81.9466L10.4219 72.1515L12.0276 43.0496C12.2202 40.755 13.008 38.5503 14.3132 36.6533C16.4542 33.581 19.7085 31.9056 22.7916 32.6496L58.1827 41.1495C61.2657 41.8935 63.3907 44.8481 63.9206 48.5735C64.2199 50.8552 63.9211 53.1755 63.0535 55.307L51.1815 81.9466Z" fill="#81FEC6"/>
<path fill-rule="evenodd" clip-rule="evenodd" d="M10.1333 72.376L51.3479 82.2782L63.3216 55.4138C64.2051 53.2359 64.5093 50.8662 64.2048 48.5358C63.6374 44.5588 61.3572 41.6256 58.2527 40.8763L22.8617 32.3764C19.7572 31.6271 16.3904 33.2061 14.0781 36.4925C12.7441 38.4349 11.9381 40.6908 11.7391 43.0387L10.1333 72.376ZM51.0212 81.6144L10.7219 71.9317L12.3116 43.0814C12.4991 40.8355 13.2683 38.6772 14.5436 36.819C16.7221 33.7305 19.8587 32.2372 22.7277 32.9277L58.1187 41.4329C60.993 42.118 63.1073 44.8692 63.6426 48.616C63.9326 50.845 63.6413 53.1111 62.7969 55.1943L51.0212 81.6144Z" fill="#81FEC6"/>
<path d="M20.5481 32.1197L60.3657 41.7062C65.9444 43.0511 69.3777 48.6624 68.0359 54.2418L67.7041 55.6174C66.3591 61.1961 60.7478 64.6295 55.1684 63.2876L15.3508 53.728C9.77284 52.3855 6.33897 46.7758 7.68057 41.1977L8.01242 39.8167C9.35741 34.238 14.9687 30.8047 20.5481 32.1465V32.1197Z" fill="#81FEC6"/>
<path fill-rule="evenodd" clip-rule="evenodd" d="M55.1323 63.5552C55.956 63.7543 56.8005 63.8549 57.648 63.8549V63.8335C62.5772 63.8163 66.8575 60.4353 68.0159 55.6441L68.3424 54.2631C69.6913 48.5378 66.1682 42.7965 60.4527 41.4063L20.619 31.836C14.8866 30.4735 9.13077 33.9997 7.74081 39.7256L7.40895 41.1066C6.04655 46.8391 9.57274 52.5948 15.2986 53.9848L55.1323 63.5552ZM8.29612 39.8595C9.39269 35.3197 13.4531 32.1196 18.1234 32.1143L18.1502 32.0876C18.9451 32.0887 19.7372 32.1821 20.5106 32.3659L60.3443 41.9363C65.771 43.2444 69.1125 48.701 67.8111 54.1294L67.4793 55.505C66.8594 58.1164 65.2262 60.3741 62.9398 61.7798C60.6533 63.1856 57.9016 63.6241 55.2915 62.9985L15.4578 53.4282C12.8464 52.8084 10.5888 51.1751 9.18296 48.8887C7.77717 46.6023 7.3387 43.8505 7.96426 41.2404L8.29612 39.8595Z" fill="#81FEC6"/>
<path d="M35.9596 26.7031L45.728 29.7273L43.3835 37.2851C42.9831 38.5869 42.0797 39.675 40.8739 40.3081C39.668 40.9411 38.2594 41.0668 36.9605 40.6572C35.6589 40.2569 34.5711 39.3533 33.9389 38.1471C33.3067 36.941 33.1824 35.5323 33.5937 34.2342L35.9596 26.7031Z" fill="white"/>
<path fill-rule="evenodd" clip-rule="evenodd" d="M36.8798 40.9299C37.3997 41.0914 37.9412 41.1726 38.4855 41.1708C40.843 41.1656 42.9258 39.6349 43.6347 37.3865L46.0594 29.5558L35.745 26.3442L33.3203 34.175C32.4421 37.0229 34.0342 40.0443 36.8798 40.9299ZM40.7383 40.0502C39.6042 40.6469 38.2792 40.7671 37.0562 40.3843C35.8327 40.0071 34.8097 39.1583 34.2132 38.0255C33.6166 36.8926 33.4956 35.5689 33.8768 34.3466L36.1302 27.0618L45.3526 29.9201L43.0992 37.2049C42.722 38.4296 41.8724 39.4536 40.7383 40.0502Z" fill="#0C121B"/>
<path d="M40.9154 3.64941C46.995 3.64941 51.9251 8.57472 51.931 14.6543V21.27C51.9324 24.1924 50.7725 26.9957 48.7065 29.0626C46.6405 31.1296 43.8379 32.2909 40.9154 32.2909C34.8288 32.2909 29.8945 27.3567 29.8945 21.27V14.6543C29.9034 8.57385 34.835 3.64941 40.9154 3.64941V3.64941Z" fill="white"/>
<path fill-rule="evenodd" clip-rule="evenodd" d="M29.6111 21.286C29.617 27.5269 34.6748 32.5847 40.9157 32.5906C47.1628 32.5847 52.2232 27.5171 52.2203 21.2699V14.6542C52.2203 8.41084 47.159 3.34961 40.9157 3.34961C34.6723 3.34961 29.6111 8.41084 29.6111 14.6542V21.286ZM30.1842 14.6435C30.2048 8.72935 35.0019 3.94425 40.9161 3.93839L40.9428 3.9491C46.8466 3.96965 51.6274 8.75047 51.6479 14.6542V21.2592C51.6479 27.1863 46.8431 31.9911 40.9161 31.9911C34.989 31.9911 30.1842 27.1863 30.1842 21.2592V14.6435Z" fill="#0C121B"/>
<path d="M51.8719 11.0091C51.8733 7.2935 49.9997 3.8281 46.8901 1.79455C43.7804 -0.238991 39.8545 -0.566067 36.4512 0.924858C36.3267 0.949722 36.2061 0.991125 36.0926 1.04797L23.1126 7.6209C19.1071 9.62781 16.467 13.6093 16.1773 18.0801C15.8877 22.551 17.9918 26.8399 21.7049 29.3469C28.2755 33.7829 37.1977 32.0555 41.6378 25.4877C41.8805 25.1309 42.1053 24.7615 42.3122 24.3797L43.7895 21.7035V21.6232C48.5656 20.3076 51.8739 15.963 51.8719 11.0091Z" fill="#0C121B"/>
<path d="M46.9638 16.4581V19.4716C46.971 20.044 46.7486 20.5955 46.3463 21.0028C45.944 21.4102 45.3953 21.6394 44.8228 21.6394C44.2504 21.6465 43.6989 21.4241 43.2916 21.0218C42.8842 20.6195 42.655 20.0708 42.655 19.4983V16.4635C42.655 15.891 42.8842 15.3423 43.2916 14.94C43.6989 14.5377 44.2504 14.3153 44.8228 14.3224C46.0032 14.3224 46.9609 15.2777 46.9638 16.4581Z" fill="white"/>
<path fill-rule="evenodd" clip-rule="evenodd" d="M42.3442 19.4928C42.3442 20.8476 43.4409 21.9467 44.7957 21.9496C45.4501 21.9468 46.0766 21.6841 46.5374 21.2193C46.9981 20.7546 47.2554 20.1258 47.2525 19.4714V16.4579C47.1913 15.147 46.1107 14.1157 44.7984 14.1157C43.4861 14.1157 42.4055 15.147 42.3442 16.4579V19.4928ZM42.9174 16.4579C42.9174 15.4203 43.7585 14.5792 44.7961 14.5792C45.8283 14.588 46.6613 15.4257 46.6642 16.4579V19.4982C46.5617 20.4556 45.7537 21.1817 44.7908 21.1817C43.8279 21.1817 43.0199 20.4556 42.9174 19.4982V16.4579Z" fill="#0C121B"/>
<path d="M114.894 48.1127C114.429 47.5675 113.766 47.2312 113.052 47.1788C112.338 47.1265 111.632 47.3626 111.093 47.8343L105.291 52.8497C105.128 52.3168 104.922 51.7977 104.676 51.2974L109.953 45.3186C110.938 44.2042 110.832 42.5027 109.718 41.5183C108.603 40.5339 106.902 40.6394 105.918 41.7538L101.154 47.1492C100.689 46.8249 100.203 46.5334 99.6979 46.2767L103.659 39.7092C104.427 38.4336 104.016 36.7765 102.741 36.0079C101.465 35.2393 99.8081 35.6503 99.0395 36.9258L94.083 45.1581C91.1518 45.3491 88.4205 46.7109 86.5038 48.937L65.3987 73.3499C61.7377 77.9574 62.3632 84.6326 66.8165 88.4797C71.2698 92.3267 77.965 91.9757 81.9916 87.6841L102.867 63.4959L103.006 63.3353L103.059 63.2711C104.027 62.1452 104.756 60.8339 105.2 59.4173C105.707 59.3423 106.182 59.1251 106.571 58.791L114.54 51.9023C115.086 51.4387 115.424 50.7757 115.477 50.0614C115.53 49.3472 115.295 48.6414 114.824 48.102L114.894 48.1127Z" fill="white"/>
<path fill-rule="evenodd" clip-rule="evenodd" d="M63.9099 85.2175C65.8084 89.0507 69.7121 91.4799 73.9896 91.49C77.0406 91.5031 79.9652 90.2718 82.088 88.0804L103.156 63.6835L103.247 63.5764L103.552 63.2178C104.42 62.1625 105.086 60.9557 105.516 59.6584C106.012 59.5554 106.474 59.3289 106.86 59L114.835 52.1113C115.637 51.4123 116.006 50.3385 115.801 49.2943C115.597 48.2501 114.851 47.3942 113.845 47.0489C112.839 46.7037 111.724 46.9216 110.922 47.6205L105.441 52.3521C105.322 52.0079 105.184 51.6702 105.029 51.3405L110.184 45.5062C111.273 44.2735 111.157 42.3911 109.924 41.3018C108.691 40.2125 106.809 40.3287 105.72 41.5614L101.116 46.7694C100.793 46.5483 100.457 46.3464 100.11 46.1646L103.91 39.8539C103.92 39.8405 103.929 39.8261 103.937 39.8111C104.771 38.3937 104.297 36.5688 102.88 35.7352C101.463 34.9015 99.6377 35.3748 98.8041 36.7923L93.9172 44.896C91.062 45.1222 88.4008 46.4299 86.4771 48.5518L65.2114 73.1736L65.0295 73.3984C62.445 76.807 62.0115 81.3843 63.9099 85.2175ZM65.6441 73.5321L65.7297 73.4251L86.5351 49.3386L86.7171 49.1245C87.1249 48.6551 87.5707 48.2201 88.0499 47.8238C89.7671 46.4165 91.8826 45.5834 94.0983 45.4419H94.2481L99.2849 37.0813L99.3491 36.9796C100.064 35.8577 101.554 35.5282 102.676 36.2436C103.798 36.959 104.127 38.4483 103.412 39.5702L99.2902 46.4054L99.5686 46.5446C100.064 46.787 100.538 47.0698 100.987 47.3903L101.196 47.5401L106.131 41.9521C107.018 40.9559 108.544 40.8672 109.54 41.754C110.537 42.6409 110.625 44.1674 109.738 45.1636L104.332 51.2816L104.418 51.4528C104.657 51.9415 104.857 52.4479 105.017 52.9676L105.151 53.3851L111.28 48.0861C111.763 47.6678 112.393 47.4587 113.03 47.5049C113.668 47.551 114.261 47.8487 114.679 48.3323C115.546 49.3411 115.433 50.861 114.427 51.7312L106.457 58.6146C106.108 58.9064 105.683 59.0921 105.232 59.1498L105.055 59.1766L105.001 59.3479C104.563 60.7282 103.845 62.0035 102.892 63.0946L102.694 63.3302L81.9961 87.2935L81.8088 87.4916C77.8461 91.4799 71.4732 91.7232 67.218 88.0485C62.9628 84.3738 62.2753 78.0334 65.6441 73.5321Z" fill="#0C121B"/>
<path d="M114.945 43.5577C114.141 45.3272 112.911 46.87 111.365 48.0485C110.903 48.4118 110.419 48.7444 109.914 49.044C108.07 50.1293 106.061 50.9084 103.967 51.351C103.619 51.4313 103.261 51.5009 102.897 51.5704C101.228 51.8673 99.5386 52.0284 97.8441 52.0522C97.5229 52.0522 97.2018 52.0522 96.8806 52.0522C95.3219 52.0397 93.7652 51.9361 92.2186 51.7417C91.9188 51.7096 91.6191 51.6668 91.314 51.624C89.8741 51.4206 88.4076 51.1369 86.9142 50.7836L86.0578 50.5695C84.6715 50.2109 83.2691 49.788 81.8614 49.301L81.0424 49.0119C79.7792 48.5552 78.516 48.0431 77.2528 47.4757L77.028 47.374C76.7604 47.2563 76.4928 47.1385 76.2466 47.0101C74.9191 46.3892 73.6399 45.7272 72.4088 45.0243C72.1572 44.8851 71.9056 44.7352 71.6594 44.5907C71.4132 44.4462 71.1242 44.2749 70.8672 44.1143C69.877 43.5041 68.9189 42.8779 68.0036 42.2302L67.2917 41.695C66.1517 40.86 65.0704 39.9982 64.0802 39.1044L63.8661 38.9117C63.6413 38.7136 63.4219 38.5102 63.2024 38.3068C62.0658 37.2684 60.9934 36.162 59.9909 34.9936C59.7875 34.7527 59.5841 34.5065 59.386 34.2603L59.3164 34.18C58.9043 33.6448 58.5136 33.1416 58.1496 32.6171C57.5881 31.8239 57.0682 31.0021 56.592 30.1549C56.4154 29.8391 56.2441 29.5286 56.0889 29.2128C55.522 28.0896 55.0562 26.9181 54.6972 25.7123C54.5687 25.2627 54.4563 24.8184 54.3707 24.3795C54.285 23.9406 54.2369 23.6462 54.1887 23.309C54.1122 22.7376 54.0729 22.1619 54.0709 21.5855C54.0536 19.9269 54.3931 18.284 55.0665 16.7682L58.444 9.89014L59.568 10.3933L60.3548 10.7519L64.3264 12.5129L65.1133 12.8662L69.0527 14.6486L69.8449 15.0018L73.7844 16.7789L74.5712 17.1375L78.516 18.9145L79.3029 19.2678L83.2477 21.0449L84.0345 21.4035L87.9793 23.1805L88.7662 23.5338L92.7056 25.3108L93.4978 25.6695L97.4373 27.4465L98.2241 27.7998L102.169 29.5768L102.956 29.9354L106.901 31.7125L107.687 32.0658L111.627 33.8428L112.419 34.2014L116.359 35.9785L117.145 36.3317L118.28 36.867L115.245 42.9154L114.945 43.5577Z" fill="#585BB5"/>
<path d="M60.3444 10.7249L54.1568 23.2819C54.083 22.7103 54.0437 22.1348 54.0391 21.5584L59.5361 10.3716L60.3444 10.7249Z" fill="white"/>
<path d="M65.0768 12.8553L56.5876 30.1761C56.4056 29.8603 56.2397 29.5499 56.0845 29.2341L64.2899 12.5127L65.0768 12.8553Z" fill="white"/>
<path d="M69.8086 14.9909L59.9867 34.9934C59.7779 34.7526 59.5799 34.5063 59.3818 34.2601L69.0164 14.6323L69.8086 14.9909Z" fill="white"/>
<path d="M74.5343 17.1209L63.8292 38.9112L63.1602 38.3063L73.7475 16.7944L74.5343 17.1209Z" fill="white"/>
<path d="M79.2667 19.257L68.0263 42.2087L67.3145 41.6735L78.5066 18.8823L79.2667 19.257Z" fill="white"/>
<path d="M83.9978 21.3923L72.4095 45.0024C72.1579 44.8632 71.901 44.7187 71.6602 44.5688L83.211 21.0176L83.9978 21.3923Z" fill="white"/>
<path d="M88.7297 23.5227L77.029 47.3523L76.2422 46.9936L87.9429 23.1694L88.7297 23.5227Z" fill="white"/>
<path d="M93.4611 25.6531L81.8568 49.2792L81.0378 48.9902L92.6957 25.2998L93.4611 25.6531Z" fill="white"/>
<path d="M98.1877 27.7888L86.9099 50.762L86.0535 50.5479L97.4009 27.4355L98.1877 27.7888Z" fill="white"/>
<path d="M102.92 29.9245L92.2146 51.7255L91.3101 51.6024L102.133 29.5659L102.92 29.9245Z" fill="white"/>
<path d="M107.65 32.0549L97.8446 52.0252C97.5234 52.0252 97.2023 52.0252 96.8811 52.0252L106.864 31.6855L107.65 32.0549Z" fill="white"/>
<path d="M112.382 34.1906L103.968 51.3188C103.615 51.3991 103.261 51.4687 102.897 51.5382L111.59 33.8267L112.382 34.1906Z" fill="white"/>
<path d="M117.114 36.3206L111.366 48.0266C110.903 48.3864 110.419 48.7171 109.915 49.0168L116.338 35.9673L117.114 36.3206Z" fill="white"/>
<path d="M118.32 36.653C114.038 46.218 97.1716 47.979 80.6323 40.5765C78.4312 39.596 76.2964 38.4731 74.2413 37.2151C71.8345 35.7482 69.5568 34.0793 67.4329 32.2265C65.712 30.726 64.1252 29.0783 62.6905 27.3021C62.2766 26.7883 61.8858 26.2691 61.5183 25.7445C59.9969 23.6465 58.8322 21.3117 58.0713 18.8344C57.9428 18.3901 57.8304 17.9459 57.7394 17.5016C57.16 14.9459 57.4035 12.2724 58.4352 9.86352C58.5316 9.64942 58.6386 9.43532 58.751 9.23192C63.4773 0.223583 79.9632 -1.29119 96.1279 5.94011C99.9259 7.62063 103.518 9.73273 106.833 12.2347C107.432 12.6897 108.016 13.1553 108.578 13.6317C110.901 15.5556 112.992 17.7434 114.808 20.1511C115.165 20.6436 115.513 21.1413 115.852 21.6445C116.957 23.3094 117.845 25.108 118.496 26.997C119.091 28.7173 119.374 30.5299 119.331 32.3496C119.29 33.5975 119.046 34.8304 118.609 36C118.507 36.2195 118.421 36.4389 118.32 36.653Z" fill="white"/>
<path fill-rule="evenodd" clip-rule="evenodd" d="M80.5138 40.8388C87.4186 43.9273 94.3984 45.4206 100.511 45.4206C109.139 45.4206 116.044 42.4446 118.597 36.7709C118.704 36.5354 118.795 36.3159 118.87 36.1018C119.317 34.9011 119.565 33.6355 119.604 32.355C119.65 30.4993 119.364 28.6501 118.758 26.8954C118.099 24.9854 117.2 23.167 116.082 21.484C115.739 20.9862 115.386 20.4777 115.011 19.9746C113.18 17.5508 111.075 15.347 108.738 13.407C108.181 12.9413 107.587 12.4703 106.982 12.0047C103.655 9.49138 100.051 7.36856 96.2396 5.67794C79.9037 -1.61223 63.3108 -0.124223 58.4935 9.09287C58.3811 9.29626 58.274 9.51572 58.1723 9.74588C57.1115 12.2073 56.8621 14.9426 57.4604 17.5552C57.5461 17.9942 57.6585 18.4545 57.7923 18.9094C58.5606 21.4193 59.7419 23.7836 61.2875 25.9052C61.6515 26.4084 62.0475 26.9436 62.465 27.4789C63.9108 29.2688 65.5101 30.9291 67.2449 32.4407C69.3799 34.3059 71.6702 35.9855 74.0908 37.4614C76.1577 38.7227 78.3031 39.8509 80.5138 40.8388ZM73.1701 1.77574C74.171 1.6901 75.1933 1.64193 76.2317 1.64193C82.4568 1.64193 89.3615 3.22093 96.0094 6.19695C99.781 7.86702 103.346 9.96853 106.634 12.4594C107.239 12.9144 107.839 13.3854 108.374 13.8457C110.677 15.7577 112.751 17.9291 114.556 20.317C114.92 20.8094 115.268 21.3072 115.589 21.7996C116.681 23.4402 117.559 25.2138 118.201 27.0772C118.785 28.7665 119.063 30.5466 119.02 32.3335C118.978 33.5532 118.741 34.7585 118.319 35.9036C118.244 36.1016 118.164 36.3104 118.062 36.5352C113.855 45.9396 97.112 47.6364 80.7439 40.3141C78.5559 39.3378 76.4336 38.2203 74.3905 36.9688C71.998 35.5126 69.7345 33.8544 67.6248 32.0123C65.9133 30.5239 64.3371 28.8868 62.9146 27.1201C62.5024 26.6062 62.1117 26.1138 61.7531 25.5785C60.2454 23.5088 59.0931 21.2024 58.3435 18.754C58.2151 18.3044 58.108 17.8655 58.0224 17.4427C57.4467 14.9472 57.683 12.333 58.6968 9.9812C58.7931 9.76175 58.8948 9.55835 59.0019 9.3603C61.2446 5.08897 66.276 2.39664 73.1701 1.77574Z" fill="#585BB5"/>
<path d="M112.312 33.9661C112.215 34.1802 112.108 34.3836 112.001 34.5924C108.142 41.6738 95.0123 42.8407 82.1822 37.1027C69.3522 31.3648 61.4786 20.7935 64.1816 13.1982C64.2619 12.9841 64.3475 12.7647 64.4439 12.5506C67.8588 4.91784 81.374 3.51012 94.568 9.41398C107.762 15.3178 115.711 26.3334 112.312 33.9661Z" fill="#0C121B"/>
<path d="M112.001 34.5872C108.142 41.6686 95.0123 42.8408 82.1823 37.1029L81.3312 36.7068C78.6191 35.4369 76.0482 33.885 73.661 32.0768C71.5315 30.4733 69.6015 28.6206 67.9124 26.5583C67.5216 26.0713 67.1523 25.5735 66.8044 25.081C65.3377 23.06 64.3227 20.7471 63.8284 18.2994C63.7358 17.7776 63.6803 17.25 63.6624 16.7204C63.6115 15.5228 63.7933 14.3267 64.1977 13.1984C68.0569 6.11696 81.1867 4.94475 94.0167 10.6827C95.602 11.391 97.1444 12.1917 98.636 13.0806C99.38 13.5195 100.097 13.9799 100.777 14.4509C103.434 16.2306 105.837 18.3645 107.917 20.7936C108.324 21.2807 108.709 21.7732 109.068 22.271C110.38 24.0229 111.381 25.9874 112.028 28.0785C112.573 29.8266 112.671 31.6836 112.312 33.4792C112.233 33.8551 112.13 34.2253 112.001 34.5872Z" fill="#585BB5"/>
<path d="M88.1939 32.6021L87.1608 34.9037L82.1134 32.6449L83.0929 30.4504C79.5709 28.7215 76.3433 26.6073 74.5288 24.8837L78.843 22.534C81.1297 24.5956 83.7204 26.2927 86.5239 27.5654C88.9272 28.6359 89.9174 28.7322 90.1368 28.2344C90.9558 26.4092 76.4343 21.6829 78.8537 16.2715C79.9242 13.9324 83.7191 13.2741 89.805 15.4311L90.8166 13.1724L95.8641 15.4311L94.8738 17.6471C97.2939 18.8473 99.5557 20.3431 101.607 22.1004L97.4805 24.5091C95.525 22.8045 93.3349 21.3895 90.9772 20.3073C88.5043 19.1993 87.5302 19.2636 87.3107 19.7721C86.5292 21.517 101.04 26.2647 98.6528 31.6119C97.6625 33.8279 93.996 34.529 88.1939 32.6021Z" fill="#0C121B"/>
<path d="M88.4131 31.7828L87.3854 34.0844L82.3326 31.8202L83.3175 29.6257C79.7902 27.9022 76.5679 25.7879 74.7534 24.059L79.0729 21.7146C81.3596 23.7763 83.9503 25.4733 86.7538 26.746C89.1518 27.8165 90.142 27.9129 90.3668 27.4151C91.1804 25.5899 76.6589 20.8582 79.0783 15.4521C80.1488 13.1131 83.9437 12.4547 90.0349 14.6064L91.0412 12.3477L96.094 14.6118L95.1038 16.8277C97.525 18.0259 99.7871 19.522 101.837 21.2811L97.7105 23.6844C95.7522 21.9834 93.5627 20.5687 91.2072 19.4826C88.7343 18.38 87.7601 18.4121 87.5353 18.9474C86.7592 20.6869 101.27 25.44 98.8774 30.7872C97.855 32.9978 94.1885 33.6936 88.4131 31.7828Z" fill="white"/>
<rect x="94.1768" y="56.0508" width="15.9292" height="5.39002" rx="2.69501" transform="rotate(-40.82 94.1768 56.0508)" fill="white"/>
<path fill-rule="evenodd" clip-rule="evenodd" d="M95.6435 58.1004C96.2086 58.756 97.0313 59.1332 97.8969 59.1334C98.612 59.134 99.3035 58.8775 99.8452 58.4108L107.815 51.5221C109.028 50.438 109.148 48.5818 108.085 47.3507C107.021 46.1195 105.168 45.9679 103.919 47.0099L95.9486 53.8986C94.7053 54.9753 94.5688 56.8554 95.6435 58.1004ZM99.4697 57.9775C98.4627 58.8437 96.9445 58.7311 96.0762 57.7259C95.6581 57.2435 95.4492 56.6147 95.4954 55.9781C95.5416 55.3414 95.8391 54.7494 96.3224 54.3324L104.292 47.4436C104.313 47.4212 104.336 47.4014 104.362 47.3848C105.388 46.5752 106.872 46.7311 107.707 47.7361C108.542 48.7411 108.423 50.2287 107.44 51.0887L99.4697 57.9775Z" fill="#0C121B"/>
<path d="M67.3077 46.7691L67.1097 46.4266C63.9611 41.4294 57.422 39.8211 52.3147 42.7877C47.2075 45.7544 45.3648 52.2314 48.1456 57.4421L64.3424 85.3343L80.8497 70.0956L67.3077 46.7691Z" fill="#81FEC6"/>
<path fill-rule="evenodd" clip-rule="evenodd" d="M47.7343 57.3405L64.2415 85.7894L81.161 70.1706L67.5334 46.6622L67.2871 46.8067L67.5227 46.6408L67.1694 46.0574C63.9729 40.8703 57.2258 39.1743 51.9566 42.2334C46.6873 45.2925 44.8147 51.9928 47.7343 57.3405ZM64.38 84.8846L48.5043 57.5438L48.3545 57.2815C45.9192 52.239 47.7815 46.1717 52.6264 43.3639C57.4714 40.556 63.6617 41.9565 66.8261 46.5764L66.9064 46.6888L80.4377 70.042L64.38 84.8846Z" fill="#0C121B"/>
</svg>
