<svg width="103" height="82" viewBox="0 0 103 82" fill="none" xmlns="http://www.w3.org/2000/svg">
<path d="M85.6158 5.53518V59.0048C85.6171 60.4027 85.0627 61.7438 84.0747 62.7327C83.0867 63.7217 81.7461 64.2773 80.3482 64.2773H5.54038C4.14247 64.2787 2.80136 63.7243 1.81242 62.7362C0.82348 61.7482 0.267822 60.4076 0.267822 59.0097V5.54014C0.267822 2.62818 2.62843 0.267578 5.54038 0.267578H80.3433C83.2552 0.267578 85.6158 2.62818 85.6158 5.54014V5.53518Z" fill="white"/>
<path fill-rule="evenodd" clip-rule="evenodd" d="M5.5404 64.5405H80.3433C83.3993 64.5378 85.876 62.061 85.8787 59.005V5.53544C85.8787 2.4783 83.4004 0 80.3433 0H5.5404C2.48246 0 0.00273764 2.4775 0 5.53544V59.005C0.00273764 62.063 2.48246 64.5405 5.5404 64.5405ZM0.530731 5.56517C0.530731 2.7984 2.77364 0.555491 5.54041 0.555491H80.3433C83.1089 0.558226 85.3502 2.79953 85.353 5.56517V59.0348C85.3475 61.7993 83.1078 64.039 80.3433 64.0444H5.54041C2.77477 64.0417 0.533465 61.8004 0.530731 59.0348V5.56517Z" fill="#81FEC6"/>
<path d="M102.158 22.0772V75.5468C102.158 78.4569 99.8003 80.8167 96.8903 80.8194H22.0775C20.6791 80.8194 19.338 80.2639 18.3492 79.2751C17.3604 78.2863 16.8049 76.9452 16.8049 75.5468V22.0772C16.8049 19.1653 19.1655 16.8047 22.0775 16.8047H96.8804C99.7912 16.8047 102.152 19.1615 102.158 22.0723V22.0772Z" fill="white"/>
<path fill-rule="evenodd" clip-rule="evenodd" d="M22.0774 81.0826H96.8803C99.9371 81.0798 102.415 78.6039 102.421 75.5471V22.0726C102.415 19.0157 99.9371 16.5398 96.8803 16.5371H22.0774C19.0214 16.5398 16.5447 19.0165 16.542 22.0726V75.5471C16.5447 78.6031 19.0214 81.0798 22.0774 81.0826ZM17.0678 22.077C17.0733 19.3125 19.313 17.0728 22.0775 17.0674H96.8804C99.646 17.0701 101.887 19.3114 101.89 22.077V75.5466C101.89 78.3134 99.6472 80.5563 96.8804 80.5563H22.0775C19.3119 80.5536 17.0706 78.3123 17.0678 75.5466V22.077Z" fill="#81FEC6"/>
<path d="M102.158 22.0772V24.9094H16.7949V22.0772C16.7949 19.1653 19.1555 16.8047 22.0675 16.8047H96.8753C98.2737 16.8047 99.6148 17.3602 100.604 18.349C101.592 19.3378 102.148 20.6789 102.148 22.0772H102.158Z" fill="#96ADFF"/>
<path d="M22.0476 19.6177C22.7325 19.6177 23.2877 20.1729 23.2877 20.8577C23.2877 21.5425 22.7325 22.0977 22.0476 22.0977C21.3628 22.0977 20.8076 21.5425 20.8076 20.8577C20.8076 20.1729 21.3628 19.6177 22.0476 19.6177Z" fill="white"/>
<path d="M26.6853 19.6172C27.3702 19.6172 27.9253 20.1724 27.9253 20.8572C27.9253 21.542 27.3702 22.0972 26.6853 22.0972C26.0005 22.0972 25.4453 21.542 25.4453 20.8572C25.4453 20.1724 26.0005 19.6172 26.6853 19.6172Z" fill="white"/>
<path d="M31.323 19.6172C32.0079 19.6172 32.563 20.1724 32.563 20.8572C32.563 21.542 32.0079 22.0972 31.323 22.0972C30.6382 22.0972 30.083 21.542 30.083 20.8572C30.083 20.1724 30.6382 19.6172 31.323 19.6172Z" fill="white"/>
<path d="M27.0225 31.665H57.7749C58.5474 31.665 59.1737 32.2913 59.1737 33.0638C59.1737 33.4343 59.0261 33.7896 58.7637 34.0511C58.5012 34.3126 58.1454 34.4589 57.7749 34.4576H27.0225C26.2527 34.4576 25.6287 33.8335 25.6287 33.0638C25.6274 32.6933 25.7736 32.3375 26.0351 32.075C26.2967 31.8126 26.6519 31.665 27.0225 31.665Z" fill="#96ADFF"/>
<path d="M75.021 31.665H89.7524C90.5249 31.665 91.1511 32.2913 91.1511 33.0638C91.1511 33.4343 91.0036 33.7896 90.7412 34.0511C90.4787 34.3126 90.1229 34.4589 89.7524 34.4576H75.021C74.2512 34.4576 73.6272 33.8335 73.6272 33.0638C73.6259 32.6933 73.7721 32.3375 74.0337 32.075C74.2952 31.8126 74.6505 31.665 75.021 31.665Z" fill="#96ADFF"/>
<path d="M75.021 37.7559H89.7524C90.1229 37.7545 90.4787 37.9008 90.7412 38.1623C91.0036 38.4239 91.1511 38.7791 91.1511 39.1496C91.1511 39.9222 90.5249 40.5484 89.7524 40.5484H75.021C74.6505 40.5484 74.2952 40.4009 74.0337 40.1384C73.7721 39.876 73.6259 39.5202 73.6272 39.1496C73.6272 38.3799 74.2512 37.7559 75.021 37.7559Z" fill="#96ADFF"/>
<path d="M75.021 43.8418H89.7524C90.1229 43.8405 90.4787 43.9867 90.7412 44.2483C91.0036 44.5098 91.1511 44.8651 91.1511 45.2356C91.1511 46.0081 90.5249 46.6343 89.7524 46.6343H75.021C74.6505 46.6343 74.2952 46.4868 74.0337 46.2243C73.7721 45.9619 73.6259 45.6061 73.6272 45.2356C73.6272 44.4658 74.2512 43.8418 75.021 43.8418Z" fill="#96ADFF"/>
<path d="M75.021 57.4077H89.7524C90.5249 57.4077 91.1511 58.034 91.1511 58.8065C91.1511 59.177 91.0036 59.5322 90.7412 59.7938C90.4787 60.0553 90.1229 60.2016 89.7524 60.2002H75.021C74.2512 60.2002 73.6272 59.5762 73.6272 58.8065C73.6259 58.4359 73.7721 58.0802 74.0337 57.8177C74.2952 57.5552 74.6505 57.4077 75.021 57.4077V57.4077Z" fill="#96ADFF"/>
<path d="M75.021 63.4941H89.7524C90.5249 63.4941 91.1511 64.1204 91.1511 64.8929C91.1511 65.2634 91.0036 65.6187 90.7412 65.8802C90.4787 66.1417 90.1229 66.288 89.7524 66.2867H75.021C74.2512 66.2867 73.6272 65.6626 73.6272 64.8929C73.6259 64.5224 73.7721 64.1666 74.0337 63.9041C74.2952 63.6417 74.6505 63.4941 75.021 63.4941V63.4941Z" fill="#96ADFF"/>
<path d="M75.021 69.5801H89.7524C90.1229 69.5788 90.4787 69.725 90.7412 69.9866C91.0036 70.2481 91.1511 70.6034 91.1511 70.9739C91.1511 71.7464 90.5249 72.3726 89.7524 72.3726H75.021C74.6505 72.3726 74.2952 72.2251 74.0337 71.9626C73.7721 71.7002 73.6259 71.3444 73.6272 70.9739C73.6272 70.2041 74.2512 69.5801 75.021 69.5801Z" fill="#96ADFF"/>
<path d="M27.0225 57.5317H57.7749C58.5474 57.5317 59.1737 58.158 59.1737 58.9305C59.1737 59.301 59.0261 59.6563 58.7637 59.9178C58.5012 60.1793 58.1454 60.3256 57.7749 60.3243H27.0225C26.2527 60.3243 25.6287 59.7002 25.6287 58.9305C25.6274 58.56 25.7736 58.2042 26.0351 57.9417C26.2967 57.6793 26.6519 57.5317 27.0225 57.5317Z" fill="#96ADFF"/>
</svg>
