<svg width="350" height="376" viewBox="0 0 350 376" fill="none" xmlns="http://www.w3.org/2000/svg">
<path fill-rule="evenodd" clip-rule="evenodd" d="M151.644 0.504145C189.722 3.78674 216.095 36.2839 247.354 58.205C279.243 80.568 319.469 94.611 336.019 129.802C353.462 166.893 355.323 212.817 337.402 249.681C320.294 284.87 277.277 295.391 244.832 317.37C213.762 338.417 189.045 372.017 151.644 375.514C112.891 379.137 73.6221 362.174 44.8276 336.069C17.6588 311.437 4.80194 274.829 0.487553 238.474C-3.27372 206.781 15.7507 178.884 22.4704 147.68C30.3153 111.252 18.4889 68.6383 43.1005 40.5967C69.1445 10.9231 112.238 -2.89299 151.644 0.504145Z" fill="#E9EEF7"/>
</svg>
