<svg width="1041" height="481" viewBox="0 0 1041 481" fill="none" xmlns="http://www.w3.org/2000/svg">
<path fill-rule="evenodd" clip-rule="evenodd" d="M2.43242 606.1C19.8348 490.791 147.426 433.497 233.564 354.801C300.258 293.869 371.849 248.815 447.528 199.459C557.603 127.673 645.693 -9.98453 776.72 0.573941C908.044 11.1563 988.918 146.585 1070.82 249.686C1156.37 357.381 1263.93 468.75 1257.74 606.1C1251.61 742.166 1138.02 845.559 1039.72 939.941C955.985 1020.34 855.389 1081.43 741.115 1102.15C636.875 1121.05 536.801 1080.72 435.577 1049.49C332.605 1017.71 223.655 996.282 148.381 919.228C65.8658 834.762 -15.1809 722.806 2.43242 606.1Z" fill="#81FEC6"/>
</svg>
