<svg width="130" height="292" viewBox="0 0 130 292" fill="none" xmlns="http://www.w3.org/2000/svg">
<path d="M85.8142 44.454L96.961 42.833L98.1929 51.4686C98.4103 52.9456 98.0308 54.4483 97.1382 55.645C96.2457 56.8416 94.9136 57.6338 93.436 57.8466C91.9583 58.064 90.4549 57.6847 89.2573 56.7923C88.0597 55.8999 87.2663 54.5678 87.0521 53.0897L85.8142 44.454Z" fill="white"/>
<path fill-rule="evenodd" clip-rule="evenodd" d="M86.716 53.1193C87.1411 56.0465 89.6527 58.2166 92.6106 58.2123C92.9005 58.2137 93.1901 58.194 93.4771 58.1533C96.7243 57.6737 98.9723 54.6588 98.5053 51.4099L97.2085 42.4795L85.4192 44.1889L86.716 53.1193ZM87.3058 53.031L86.1269 44.7196L96.6193 43.187L97.8277 51.4984C98.035 52.8942 97.6776 54.315 96.8347 55.4467C95.9917 56.5783 94.7327 57.3275 93.336 57.5286C91.9393 57.7358 90.5177 57.3776 89.3859 56.5334C88.2541 55.6893 87.5054 54.4288 87.3058 53.031Z" fill="#222222"/>
<path d="M96.4244 17.7282C103.029 18.8095 107.511 25.0327 106.445 31.6395L105.266 38.831C104.188 45.4372 97.9626 49.9215 91.355 48.8518C84.7506 47.7705 80.2678 41.5473 81.3341 34.9405L82.513 27.7432C83.5942 21.1394 89.8187 16.6583 96.4244 17.7282Z" fill="white"/>
<path fill-rule="evenodd" clip-rule="evenodd" d="M83.8755 44.976C86.2422 47.7546 89.7091 49.3547 93.3591 49.3528C99.4651 49.3423 104.665 44.911 105.644 38.884L106.822 31.6866C107.578 27.2741 105.906 22.7959 102.444 19.958C98.9813 17.1202 94.262 16.3596 90.0836 17.9662C85.9051 19.5728 82.911 23.2991 82.2418 27.7254L81.0629 34.9169C80.4805 38.5201 81.5087 42.1974 83.8755 44.976ZM82.8489 27.8255C83.77 22.1066 88.6983 17.897 94.4908 17.8812C95.1187 17.8773 95.7457 17.9266 96.3653 18.0286C99.4663 18.5224 102.244 20.2288 104.086 22.7718C105.928 25.3148 106.683 28.4858 106.186 31.5862L105.007 38.7836C104.334 42.9523 101.488 46.4454 97.5416 47.9471C93.5949 49.4487 89.147 48.7308 85.8732 46.0637C82.5994 43.3967 80.9971 39.1856 81.67 35.0169L82.8489 27.8255Z" fill="#222222"/>
<path d="M102.089 15.647C101.771 15.647 101.452 15.647 101.134 15.6883C100.661 14.8668 100.114 14.0895 99.5014 13.3658C94.9271 7.98399 87.659 6.6459 83.2675 10.3772C78.876 14.1085 79.0234 21.4945 83.5918 26.8822C85.0817 28.6639 86.9642 30.0762 89.0914 31.0084C89.3154 38.9838 95.045 45.3677 102.06 45.3677C109.245 45.3677 115.069 38.7245 115.069 30.5251C115.069 22.3256 109.281 15.647 102.089 15.647Z" fill="#222222"/>
<path d="M93.477 31.5328L92.9465 34.8338C92.8526 35.4617 92.5095 36.0253 91.9947 36.397C91.4799 36.7687 90.837 36.917 90.2114 36.8085C89.586 36.7085 89.0259 36.3642 88.6544 35.8512C88.283 35.3383 88.1306 34.6987 88.2308 34.0734L88.7672 30.7724C88.9781 29.4724 90.202 28.5888 91.5023 28.7977C92.1303 28.8915 92.6939 29.2346 93.0655 29.7494C93.4372 30.2642 93.5855 30.9072 93.477 31.5328Z" fill="white"/>
<path fill-rule="evenodd" clip-rule="evenodd" d="M90.1407 37.1211C90.2829 37.1446 90.4268 37.1565 90.571 37.1565C91.8992 37.154 93.0311 36.1917 93.2472 34.8812L93.7777 31.5802C93.7749 31.5686 93.7749 31.5564 93.7777 31.5448C93.924 30.5908 93.5503 29.6312 92.7973 29.0275C92.0443 28.4237 91.0264 28.2675 90.1271 28.6178C89.2277 28.968 88.5835 29.7715 88.4371 30.7255L87.9066 34.0265C87.7911 34.7333 87.9618 35.457 88.381 36.0377C88.8002 36.6184 89.4334 37.0083 90.1407 37.1211ZM89.062 30.8494C89.2084 29.8353 90.0769 29.0823 91.1015 29.0811V29.1518C91.2114 29.1428 91.3218 29.1428 91.4316 29.1518C92.5547 29.333 93.3225 30.3847 93.1529 31.5096L92.6224 34.8106C92.3884 35.8881 91.3526 36.5943 90.2641 36.4187C89.1757 36.243 88.4147 35.2468 88.5315 34.1504L89.062 30.8494Z" fill="#222222"/>
<path d="M120.846 255.087L120.003 278.6C119.773 284.918 114.841 290.059 108.538 290.549C104.936 290.822 101.393 289.518 98.8267 286.975C96.2605 284.433 94.9239 280.902 95.1631 277.298L96.7842 253.825C97.1897 247.86 101.906 243.094 107.866 242.625C111.056 242.372 114.216 243.397 116.649 245.476C119.082 247.555 120.588 250.517 120.834 253.707C120.865 254.166 120.869 254.627 120.846 255.087Z" fill="white"/>
<path fill-rule="evenodd" clip-rule="evenodd" d="M98.5557 287.166C100.946 289.559 104.189 290.903 107.571 290.903C107.901 290.903 108.214 290.891 108.568 290.862C115.029 290.362 120.086 285.09 120.316 278.613L121.164 255.099C121.178 248.504 116.018 243.056 109.432 242.711C102.846 242.367 97.1458 247.247 96.4718 253.808L94.8566 277.275C94.8272 277.558 94.8272 277.858 94.8272 278.147C94.824 281.529 96.1653 284.774 98.5557 287.166ZM107.895 242.957C108.213 242.922 108.502 242.922 108.803 242.922L109.186 242.928C115.663 243.161 120.724 248.6 120.492 255.077L119.649 278.59V278.962C118.907 285.393 113.243 290.107 106.784 289.669C100.324 289.231 95.3485 283.796 95.4811 277.323L97.0962 253.85C97.5187 248.054 102.103 243.43 107.895 242.957Z" fill="#222222"/>
<path d="M120.593 275.193L120.322 289.594C120.228 290.498 119.463 291.184 118.553 291.179H72.8463C71.8696 291.179 71.0779 290.388 71.0779 289.411C71.072 289.342 71.072 289.273 71.0779 289.205C72.0867 280.495 79.4634 273.924 88.2313 273.926H95.3991C102.977 277.686 111.835 277.877 119.567 274.445C119.942 274.278 120.38 274.443 120.552 274.816C120.598 274.936 120.612 275.066 120.593 275.193Z" fill="#96ADFF"/>
<path d="M89.5164 185.937C90.4453 194.473 97.7638 200.871 106.347 200.651C114.931 200.431 121.912 193.666 122.403 185.094C122.479 183.913 122.426 182.727 122.243 181.557C121.014 173.396 113.946 167.398 105.694 167.513C97.4417 167.627 90.5427 173.819 89.54 182.011C89.3755 183.314 89.3676 184.632 89.5164 185.937Z" fill="#222222"/>
<path d="M126.269 263.41L122.732 185.117L122.567 181.51C122.503 181.062 122.408 180.614 122.302 180.172L118.577 109.607C118.46 107.451 116.651 105.778 114.492 105.829L92.7583 106.347C90.588 106.402 88.858 108.179 88.8619 110.35L89.027 182.158V186.167C89.0682 186.491 89.1213 186.809 89.1802 187.128L88.7617 267.801L126.269 263.41Z" fill="#222222"/>
<path d="M97.4676 255.087L96.6246 278.601C96.395 284.918 91.4625 290.059 85.1596 290.549C81.5549 290.834 78.0049 289.534 75.4368 286.989C72.8686 284.443 71.5373 280.905 71.7905 277.298L73.4057 253.825C73.8116 247.858 78.531 243.091 84.4935 242.626C91.1329 242.104 96.9385 247.062 97.4617 253.702C97.4906 254.163 97.4926 254.625 97.4676 255.087Z" fill="white"/>
<path fill-rule="evenodd" clip-rule="evenodd" d="M75.175 287.165C77.5662 289.558 80.8102 290.902 84.1927 290.902C84.5228 290.902 84.8529 290.89 85.1889 290.86C91.6508 290.361 96.7073 285.089 96.9369 278.611L97.7857 255.098C97.7995 248.502 92.6397 243.054 86.0533 242.71C79.4669 242.366 73.7672 247.246 73.0931 253.807L71.478 277.273C71.4426 277.556 71.4426 277.857 71.4426 278.146C71.4411 281.528 72.7837 284.773 75.175 287.165ZM84.5168 242.956C84.8351 242.92 85.1239 242.92 85.4246 242.92L85.8077 242.926C92.2842 243.16 97.3457 248.599 97.1136 255.075L96.2707 278.589V278.96C96.1278 283.39 93.578 287.389 89.6216 289.387C85.6653 291.386 80.9337 291.065 77.2833 288.551C73.6329 286.037 71.6462 281.73 72.1027 277.322L73.7178 253.849C74.1403 248.053 78.7241 243.429 84.5168 242.956Z" fill="#222222"/>
<path d="M97.2318 275.194L96.9547 289.594C96.8607 290.499 96.0959 291.185 95.1863 291.18H49.4735C48.4968 291.18 47.7051 290.388 47.7051 289.411C47.6992 289.343 47.6992 289.274 47.7051 289.205C48.7139 280.495 56.0906 273.925 64.8584 273.926H72.0263C79.6042 277.685 88.4622 277.875 96.1943 274.445C96.5671 274.279 97.0041 274.445 97.1728 274.816C97.2226 274.936 97.2428 275.065 97.2318 275.194Z" fill="#96ADFF"/>
<path fill-rule="evenodd" clip-rule="evenodd" d="M49.4736 291.474H95.1924C96.2562 291.467 97.1408 290.654 97.2378 289.594L97.5148 275.211C97.5267 275.034 97.4965 274.856 97.4264 274.692C97.1927 274.168 96.5788 273.931 96.053 274.162C88.4079 277.566 79.6423 277.378 72.1502 273.649L72.0913 273.62H64.8468C55.927 273.612 48.4204 280.297 47.3987 289.158V289.4C47.4019 290.544 48.329 291.471 49.4736 291.474ZM48.0058 289.228C48.9864 280.662 56.2424 274.198 64.8644 274.209L71.9675 274.197C79.6046 277.976 88.5278 278.157 96.3123 274.692C96.3853 274.663 96.4639 274.651 96.5422 274.657C96.6597 274.669 96.7676 274.727 96.8418 274.819C96.916 274.911 96.9503 275.029 96.9371 275.146L96.666 289.547C96.5874 290.301 95.9509 290.874 95.1923 290.873H49.4794H49.3026C48.9117 290.829 48.5548 290.63 48.3112 290.321C48.0676 290.012 47.9576 289.619 48.0058 289.228Z" fill="white"/>
<path d="M66.1384 185.937C67.0673 194.473 74.3858 200.871 82.9694 200.651C91.5531 200.431 98.5342 193.667 99.0246 185.094C99.1012 183.913 99.0478 182.727 98.8654 181.557C97.6262 173.407 90.5625 167.42 82.3188 167.535C74.0752 167.649 67.1803 173.829 66.1679 182.011C66.0014 183.314 65.9915 184.632 66.1384 185.937Z" fill="white"/>
<path fill-rule="evenodd" clip-rule="evenodd" d="M65.8257 185.978C66.8089 194.469 73.99 200.88 82.537 200.898L82.5134 200.892C91.3971 200.882 98.7476 193.977 99.3131 185.112C99.9065 176.023 93.1595 168.113 84.0912 167.265C75.023 166.418 66.9269 172.941 65.8257 181.982V182.023C65.6727 183.337 65.6727 184.664 65.8257 185.978ZM82.9447 200.236C74.5662 200.445 67.4124 194.227 66.4508 185.901L66.4803 185.913C66.327 184.639 66.327 183.35 66.4803 182.076V182.029C67.5599 173.332 75.3619 167.073 84.0856 167.904C92.8093 168.735 99.2887 176.356 98.7062 185.1C98.1594 193.463 91.3233 200.028 82.9447 200.236Z" fill="#96ADFF"/>
<path d="M118.742 107.804L94.3677 107.391C93.5946 106.377 92.3828 105.794 91.108 105.823L69.3745 106.348C68.6739 106.367 67.9906 106.57 67.3939 106.937H65.9202C65.9202 107.468 65.9202 107.998 65.9202 108.523C65.623 109.095 65.4693 109.73 65.4722 110.374L65.6314 182.182V186.191C65.6726 186.515 65.7257 186.833 65.7846 187.152L65.3425 267.843L102.862 263.446L99.3251 185.147L99.16 181.54C99.0893 181.092 98.995 180.644 98.8889 180.208L96.6194 137.248C108.975 134.819 118.494 122.641 118.742 107.804Z" fill="#222222"/>
<path fill-rule="evenodd" clip-rule="evenodd" d="M65.4956 187.151L65.0535 268.167L103.245 263.658L99.5253 181.463V181.422C99.4663 181.015 99.3779 180.591 99.26 180.09L97.0083 137.43C109.57 134.842 118.842 122.422 119.09 107.774V107.456L94.5502 107.037C93.7053 106.023 92.4457 105.446 91.1254 105.469L69.3919 105.994C68.6673 106.013 67.9594 106.216 67.3347 106.584H65.637V106.896V108.417C65.3426 109.017 65.1894 109.676 65.189 110.344L65.3482 182.153V186.202C65.3836 186.491 65.4307 186.804 65.4956 187.151ZM66.2323 108.499V107.244L67.4231 107.261L67.4997 107.214C68.0508 106.877 68.6809 106.69 69.327 106.672L91.0546 106.153C92.2308 106.123 93.3497 106.66 94.0609 107.597L94.1552 107.709L118.364 108.122C118.017 122.446 108.874 134.559 96.5543 136.917L96.2832 136.964L98.5703 180.202V180.261C98.6882 180.762 98.7707 181.174 98.8296 181.54L102.52 263.151L65.6488 267.472L66.085 187.14V187.081C66.0201 186.733 65.973 186.426 65.9376 186.179V182.17L65.7726 110.362C65.7719 109.767 65.9155 109.18 66.1911 108.653L66.2323 108.582V108.499Z" fill="white"/>
<path d="M99.637 108.617C106.314 108.617 111.727 103.204 111.727 96.5269C111.727 89.8498 106.314 84.437 99.637 84.437C92.9599 84.437 87.5471 89.8498 87.5471 96.5269C87.5471 103.204 92.9599 108.617 99.637 108.617Z" fill="white"/>
<path fill-rule="evenodd" clip-rule="evenodd" d="M87.4717 98.7311C88.5297 104.628 93.6582 108.92 99.6489 108.924C102.62 108.925 105.493 107.858 107.742 105.917C112.278 102.004 113.361 95.4042 110.313 90.2468C107.265 85.0895 100.961 82.8548 95.3455 84.9408C89.7297 87.0267 86.4136 92.8347 87.4717 98.7311ZM88.1102 94.0443C89.2859 88.6274 94.0764 84.7612 99.6194 84.7556C99.763 84.7556 99.9082 84.7644 100.054 84.7732C100.201 84.7821 100.35 84.791 100.498 84.791C103.614 85.0093 106.514 86.4654 108.55 88.8347C112.175 93.0279 112.389 99.1802 109.065 103.616C105.74 108.051 99.775 109.571 94.733 107.268C89.6911 104.965 86.9345 99.4612 88.1102 94.0443Z" fill="#222222"/>
<path d="M109.08 88.9704L85.8612 62.0791L67.5879 77.8767L90.8068 104.762" fill="white"/>
<path d="M90.53 104.974L67.1047 77.8592L85.8791 61.6489L109.299 88.7642L108.821 89.1769L85.832 62.5331L68.0125 77.924L91.0016 104.574L90.53 104.974Z" fill="#222222"/>
<path d="M117.457 77.8595C124.134 77.8595 129.546 72.4466 129.546 65.7696C129.546 59.0925 124.134 53.6797 117.457 53.6797C110.78 53.6797 105.367 59.0925 105.367 65.7696C105.367 72.4466 110.78 77.8595 117.457 77.8595Z" fill="#FF8BCE"/>
<path fill-rule="evenodd" clip-rule="evenodd" d="M105.03 66.5524C105.455 73.0905 110.881 78.1765 117.433 78.1777C118.514 78.1778 119.59 78.0371 120.634 77.7592C126.965 76.0734 130.902 69.7632 129.631 63.3356C128.361 56.908 122.32 52.5696 115.824 53.4191C109.327 54.2685 104.605 60.0143 105.03 66.5524ZM106.379 61.9436C107.995 57.1948 112.458 54.0038 117.474 54.0097V53.992C122.763 54.0287 127.38 57.5831 128.769 62.6866C130.067 67.5322 128.134 72.6664 123.962 75.4522C119.79 78.238 114.307 78.056 110.329 74.9998C106.351 71.9436 104.762 66.6925 106.379 61.9436Z" fill="#FF8BCE"/>
<rect x="80.1421" y="100.231" width="35.3359" height="24.0478" transform="rotate(-59.8265 80.1421 100.231)" fill="#FF8BCE"/>
<path fill-rule="evenodd" clip-rule="evenodd" d="M88.9561 90.1439L110.407 102.599L128.562 71.3577L107.112 58.9023L88.9561 90.1439ZM110.183 101.745L89.8167 89.9203L107.341 59.7221L127.702 71.5703L110.183 101.745Z" fill="#FF8BCE"/>
<path d="M54.5727 61.1776C55.084 60.5772 55.8147 60.2068 56.6012 60.1492C57.3877 60.0916 58.1645 60.3516 58.7579 60.8711L65.1476 66.3943C65.328 65.8075 65.5546 65.2358 65.8255 64.6849L60.0134 58.1006C59.4883 57.5133 59.2202 56.7401 59.2689 55.9538C59.3176 55.1675 59.6792 54.4334 60.2728 53.9154C60.8601 53.3903 61.6332 53.1222 62.4196 53.1709C63.2059 53.2196 63.94 53.5811 64.458 54.1748L69.7042 60.1165C70.2144 59.7591 70.7503 59.44 71.3075 59.1616L66.9455 51.9289C66.0991 50.5241 66.5517 48.6992 67.9564 47.8528C69.3612 47.0063 71.1861 47.4589 72.0326 48.8637L77.491 57.9237C83.5735 58.3216 88.4074 63.1873 88.7654 69.2723C89.1234 75.3572 84.8934 80.7562 78.8995 81.8645C72.9056 82.9729 67.0247 79.4436 65.183 73.6329C64.625 73.554 64.1013 73.3167 63.674 72.9492L54.891 65.3628C54.2924 64.8516 53.9231 64.1222 53.8656 63.3371C53.808 62.552 54.0669 61.7765 54.5845 61.1835L54.5727 61.1776Z" fill="white"/>
<path fill-rule="evenodd" clip-rule="evenodd" d="M64.9472 73.9097C66.627 78.9668 71.3546 82.3813 76.6834 82.3862C77.1078 82.3862 77.5617 82.3626 77.9566 82.339C84.4455 81.8272 89.4296 76.3774 89.3612 69.8687C89.2929 63.3599 84.1955 58.016 77.6972 57.6405L72.3213 48.7161C71.3581 47.2307 69.3907 46.7764 67.8738 47.6891C66.3569 48.6018 65.8367 50.5528 66.6979 52.0996L70.883 59.0494C70.5017 59.2509 70.1317 59.4732 69.7749 59.7155L64.7114 53.98C63.5009 52.6679 61.4639 52.5635 60.1255 53.7448C58.7871 54.9261 58.6378 56.9602 59.7894 58.3243L65.4659 64.7554C65.3008 65.1149 65.1476 65.4863 65.012 65.8636L58.9759 60.6527C57.6048 59.4692 55.5343 59.6196 54.3486 60.9887C53.1666 62.3613 53.3196 64.432 54.6905 65.616L63.4676 73.1847C63.8898 73.5502 64.3996 73.8 64.9472 73.9097ZM55.0974 65.1265C53.9915 64.1664 53.8702 62.4928 54.8263 61.3834V61.3185C55.2855 60.7863 55.9375 60.4586 56.6386 60.4078C57.3397 60.3569 58.0323 60.587 58.5635 61.0474L65.3187 66.8831L65.4602 66.4233C65.6402 65.8514 65.8629 65.2937 66.1263 64.7551L66.2147 64.5665L60.2611 57.8289L60.1963 57.7523C59.5824 57.0299 59.4005 56.035 59.7191 55.1422C60.0378 54.2493 60.8085 53.5943 61.741 53.4239C62.6735 53.2534 63.6261 53.5934 64.24 54.3157L69.6748 60.4697L69.9047 60.3047C70.4017 59.956 70.9238 59.6447 71.4668 59.3733L71.7733 59.2259L67.2345 51.6985C66.4776 50.4435 66.8813 48.8125 68.1364 48.0556C69.3914 47.2987 71.0223 47.7025 71.7792 48.9575L77.3261 58.159H77.4852C83.4205 58.544 88.1395 63.2897 88.4909 69.227C88.8423 75.1643 84.7161 80.4336 78.8677 81.5159C73.0193 82.5983 67.2805 79.1549 65.4838 73.4851L65.4248 73.2964H65.2303C64.733 73.2339 64.2643 73.0292 63.8804 72.707L55.0974 65.1265Z" fill="#222222"/>
<path d="M83.9518 65.4215C83.277 65.8294 82.4668 65.9499 81.7025 65.7561C80.9381 65.5622 80.2833 65.0702 79.8845 64.3899L73.9486 54.428C73.5401 53.7539 73.4187 52.9443 73.6114 52.18C73.8042 51.4157 74.295 50.7605 74.9743 50.3607C75.6484 49.9523 76.458 49.8308 77.2222 50.0236C77.9865 50.2163 78.6417 50.7071 79.0415 51.3864L84.9833 61.3542C85.3913 62.029 85.5118 62.8392 85.3179 63.6035C85.1241 64.3679 84.632 65.0226 83.9518 65.4215Z" fill="white"/>
<path fill-rule="evenodd" clip-rule="evenodd" d="M79.613 64.549C80.2064 65.5431 81.2787 66.1521 82.4365 66.1523C83.0266 66.1529 83.6056 65.9919 84.1106 65.6867C85.6675 64.7598 86.1792 62.747 85.2541 61.1891L79.3182 51.2212C78.3779 49.6919 76.3836 49.2015 74.8412 50.1201C73.2988 51.0388 72.7803 53.026 73.6771 54.5812L79.613 64.549ZM74.1929 51.5799C74.6633 50.7511 75.5422 50.2384 76.4951 50.2368C77.4305 50.2387 78.2963 50.7309 78.7764 51.5336L84.7123 61.5014C85.4034 62.7546 84.9758 64.3301 83.746 65.0619C82.5162 65.7938 80.9275 65.4181 80.1557 64.2129L74.2198 54.2451C73.7327 53.426 73.7225 52.4086 74.1929 51.5799Z" fill="#222222"/>
<path d="M129.375 65.0265C129.385 62.0634 128.216 59.2182 126.126 57.1175C124.036 55.0168 121.197 53.8329 118.234 53.8267H66.1259C59.9622 53.8267 54.9647 58.8216 54.9614 64.9852V66.8715C54.9616 68.6812 55.4027 70.4637 56.2465 72.0646L65.4774 111.559H118.865L128.845 70.3316C129.029 69.7722 129.167 69.1985 129.257 68.6163L129.393 68.0268H129.334C129.376 67.6353 129.398 67.2417 129.399 66.8479L129.375 65.0265Z" fill="white"/>
<path fill-rule="evenodd" clip-rule="evenodd" d="M65.1825 111.93H119.142L129.163 70.5084C129.348 69.9306 129.488 69.3394 129.581 68.74L129.829 67.732H129.699C129.729 67.4551 129.729 67.1781 129.729 66.907V66.9068V65.0264C129.725 58.6757 124.585 53.5245 118.234 53.5083H66.1138C59.7539 53.5116 54.599 58.6665 54.5957 65.0264V66.9009C54.5994 68.748 55.0461 70.5673 55.8984 72.2061L65.1825 111.93ZM118.588 111.216H65.7544L56.5941 72.0289L56.5646 71.9405C55.7467 70.3907 55.3198 68.6647 55.3209 66.9124V65.0261C55.3274 59.0614 60.1611 54.2277 66.1257 54.2212H118.217C124.18 54.2309 129.012 59.0627 129.021 65.0261V66.8829C129.022 67.2648 129.003 67.6466 128.962 68.0264L128.921 68.4214L128.886 68.5746C128.793 69.1485 128.655 69.7142 128.473 70.2664L118.588 111.216Z" fill="#96ADFF"/>
<path d="M3.49486 61.2654C4.00621 60.665 4.73684 60.2946 5.52336 60.237C6.30988 60.1794 7.08668 60.4394 7.68005 60.9589L14.0698 66.4822C14.2527 65.8962 14.4793 65.3248 14.7477 64.7727L8.93561 58.1884C7.85152 56.9611 7.96764 55.0873 9.19497 54.0032C10.4223 52.9191 12.2961 53.0353 13.3802 54.2626L18.6264 60.2044C19.1356 59.8438 19.6716 59.5226 20.2297 59.2436L15.8677 52.0108C15.0213 50.6077 15.4725 48.7841 16.8757 47.9377C18.2788 47.0912 20.1024 47.5425 20.9489 48.9456L26.4132 58.0116C29.6413 58.222 32.6492 59.7217 34.76 62.1732L57.9789 89.0586C62.0108 94.1327 61.3219 101.484 56.4176 105.721C51.5133 109.957 44.14 109.571 39.7056 104.844L16.7165 78.2066L16.5633 78.0297L16.5043 77.959C15.4349 76.7192 14.6323 75.2725 14.1465 73.709C13.5863 73.6311 13.0605 73.3937 12.6315 73.0252L3.85443 65.4388C3.2549 64.9266 2.88561 64.1956 2.82911 63.4091C2.77262 62.6226 3.03364 61.8462 3.55381 61.2536L3.49486 61.2654Z" fill="white"/>
<path fill-rule="evenodd" clip-rule="evenodd" d="M39.7001 105.286C42.0201 107.679 45.2094 109.031 48.5421 109.035L48.5657 109.024C53.2765 109.01 57.5745 106.333 59.6647 102.111C61.755 97.8895 61.2782 92.8487 58.4333 89.0938L35.0139 61.9785L34.8017 61.7427C34.3863 61.2891 33.9391 60.8655 33.4636 60.4754C31.5137 58.8784 29.121 57.9177 26.6082 57.7226L21.2323 48.7981C20.2691 47.3127 18.3017 46.8585 16.7847 47.7712C15.2678 48.6839 14.7476 50.6349 15.6088 52.1816L19.794 59.1314C19.4256 59.3314 19.0676 59.5498 18.7211 59.7857L13.6577 54.0502C12.4378 52.7834 10.4363 52.7027 9.11844 53.8673C7.80058 55.0319 7.6344 57.0281 8.74154 58.3946L14.4181 64.8197C14.2491 65.1695 14.0958 65.5408 13.9583 65.9338L7.92218 60.7229C6.5511 59.5395 4.48063 59.6898 3.2949 61.0589C2.11288 62.4316 2.26587 64.5022 3.63679 65.6862L12.4139 73.2667C12.8365 73.6328 13.3459 73.8844 13.8934 73.9976C14.3708 75.4337 15.1103 76.7688 16.0745 77.9353L16.3987 78.3066L16.493 78.4186L39.482 105.056L39.7001 105.286ZM39.9416 104.632L39.8355 104.52L16.9113 77.9587L16.7109 77.7229C15.662 76.5213 14.8714 75.1168 14.3884 73.5967L14.3294 73.4081H14.1349C13.6363 73.344 13.1661 73.1396 12.7792 72.8186L4.00205 65.2381C3.46946 64.7779 3.14165 64.1248 3.09079 63.4228C3.03993 62.7207 3.2702 62.0272 3.73089 61.495C4.68883 60.3898 6.36064 60.2685 7.46809 61.2239L14.2233 67.0596L14.3648 66.5998C14.5433 66.0273 14.766 65.4696 15.0309 64.9316L15.1193 64.743L9.16574 58.0054C8.18909 56.9067 8.28806 55.2242 9.38679 54.2476C10.4855 53.2709 12.168 53.3699 13.1446 54.4686L18.5795 60.6226L18.8094 60.4635C19.3048 60.1108 19.8271 59.7974 20.3714 59.5262L20.678 59.3789L16.1391 51.8514C16.1155 51.816 16.0743 51.7512 16.0743 51.7512C15.6025 50.9288 15.6054 49.9173 16.0817 49.0975C16.558 48.2778 17.4355 47.7745 18.3835 47.7771C19.3316 47.7798 20.2062 48.288 20.678 49.1104L26.2484 58.3237H26.4075C29.5522 58.5276 32.4822 59.9894 34.5362 62.3792L34.7425 62.6091L57.5548 89.0171L57.7434 89.2528C61.4726 94.2091 60.7236 101.207 56.03 105.262C51.3364 109.317 44.3036 109.041 39.9416 104.632Z" fill="#222222"/>
<path d="M65.2354 14.6332C73.8345 25.9742 74.9687 41.3088 68.1316 53.7914C61.2945 66.2741 47.7621 73.5754 33.5754 72.436C32.7089 72.3711 31.8483 72.2709 30.9876 72.1353C27.204 71.5618 23.5352 70.3919 20.1179 68.6693C19.446 68.3274 18.7858 67.9678 18.1373 67.5847C14.0487 65.1889 10.4747 62.0075 7.62133 58.224C7.35017 57.8703 7.09081 57.5049 6.83145 57.1335C0.0882285 47.48 -1.53087 35.1472 2.49208 24.0803C6.51503 13.0134 15.6759 4.59922 27.0441 1.52945C27.8851 1.30545 28.7339 1.10897 29.5906 0.939987C33.297 0.228326 37.0919 0.101034 40.8376 0.562731C41.6569 0.668834 42.4704 0.792622 43.2838 0.951777C51.589 2.54414 59.0672 7.0127 64.4043 13.5722C64.6931 13.92 64.9702 14.2736 65.2354 14.6332Z" fill="white"/>
<path fill-rule="evenodd" clip-rule="evenodd" d="M33.5463 72.7482C34.5189 72.8249 35.4856 72.8661 36.4582 72.8661V72.8897C44.3874 72.8908 52.0991 70.2967 58.4157 65.5037C66.1231 59.6725 71.1983 51.0183 72.5249 41.445C73.8514 31.8717 71.3207 22.1635 65.4893 14.4562C65.1945 14.0672 64.9234 13.7194 64.6522 13.3952C59.2655 6.77954 51.7214 2.27183 43.3431 0.662791C42.5356 0.50953 41.7044 0.379848 40.8733 0.273745C37.0962 -0.190784 33.2698 -0.0635033 29.532 0.651001C28.6832 0.816051 27.8167 1.01057 26.962 1.24046C15.4941 4.3359 6.25272 12.823 2.19445 23.9865C-1.86382 35.15 -0.230288 47.5905 6.57242 57.3279C6.82 57.6816 7.08525 58.0529 7.3682 58.4243C10.2472 62.2381 13.8535 65.4436 17.9785 67.8557C18.6152 68.2329 19.293 68.5984 19.9768 68.9462C23.4233 70.6858 27.124 71.8677 30.9408 72.4476C31.7779 72.5773 32.6738 72.6775 33.5463 72.7482ZM29.6498 1.25203C31.8724 0.826127 34.1302 0.611001 36.3932 0.609512L36.3815 0.615407C37.8515 0.614134 39.3201 0.704695 40.7789 0.88656C41.5982 0.986769 42.4117 1.11645 43.2074 1.26971C51.4418 2.84808 58.857 7.27672 64.1511 13.7781C64.4163 14.1023 64.6875 14.4383 64.9763 14.8215C73.4841 26.0683 74.5988 41.2611 67.8237 53.6292C61.0487 65.9974 47.6455 73.2376 33.5874 72.1232C32.7268 72.0583 31.8662 71.9581 31.0232 71.8284C27.272 71.2612 23.6348 70.1012 20.2479 68.3919C19.57 68.05 18.9098 67.6904 18.2849 67.319C14.2297 64.9439 10.6855 61.7884 7.85734 58.035C7.57833 57.6695 7.31896 57.31 7.07925 56.9563C0.383982 47.3896 -1.22651 35.1595 2.76395 24.1857C6.7544 13.212 15.8446 4.87298 27.121 1.84149C27.9698 1.6057 28.8128 1.40922 29.6498 1.25203Z" fill="#96ADFF"/>
<path d="M59.4527 19.0064C59.7238 19.3601 59.9832 19.7197 60.2308 20.0793C68.7533 32.8009 65.8669 49.9627 53.6517 59.1964C41.4366 68.4302 24.1381 66.5266 14.2232 54.8576C13.9461 54.5157 13.6691 54.1679 13.4038 53.8142C4.22967 41.1213 6.8426 23.4294 19.2943 13.9303C31.746 4.43128 49.4995 6.58622 59.3171 18.7883C59.3643 18.8827 59.4114 18.9416 59.4527 19.0064Z" fill="#222222"/>
<path d="M60.2312 20.0799C68.9611 32.8005 66.1527 50.1362 53.8532 59.4501C53.5761 59.6623 53.2991 59.8627 53.0161 60.0396C47.5546 63.8834 40.9238 65.7032 34.2653 65.1856C33.4459 65.1266 32.6325 65.0323 31.819 64.8967C28.0858 64.2961 24.5069 62.9683 21.2853 60.9886C20.4994 60.5092 19.7409 59.9924 19.01 59.4383C11.8556 53.1371 8.33747 43.6682 9.6419 34.2242C10.9463 24.7801 16.8994 16.6194 25.4941 12.4935C26.3547 12.1005 27.2369 11.7291 28.1408 11.3794C31.7599 10.0714 35.6034 9.49828 39.4467 9.69353C40.266 9.74069 41.0854 9.81732 41.9047 9.92931C48.3194 10.7915 54.2564 13.7901 58.7575 18.4412C59.288 18.9776 59.7655 19.5199 60.2312 20.0799Z" fill="#96ADFF"/>
<path d="M49.5147 47.0654L52.4089 50.891L47.5459 54.5693L44.7872 50.9146C41.1796 53.3137 37.1241 54.9171 34.1002 55.2059L32.2375 47.2953C35.7191 46.8556 39.0327 45.5415 41.8693 43.4756C44.1741 41.7072 44.6398 40.6226 44.0091 39.7914C41.7161 36.7616 30.2333 49.2995 23.425 40.3043C20.4777 36.4079 20.8314 30.9967 25.8831 25.9273L23.0419 22.1724L27.899 18.4941L30.6872 22.1842C33.2702 20.517 36.1668 19.3957 39.1991 18.8891L41.2091 26.6346C38.2949 27.0764 35.5271 28.2037 33.1335 29.9238C30.7756 31.6922 30.5163 32.989 31.147 33.8143C33.3339 36.7086 44.8461 24.206 51.5778 33.101C54.3895 36.8205 54.1537 42.0962 49.5147 47.0654Z" fill="#222222"/>
<path d="M48.4122 45.8979L51.3064 49.7236L46.4434 53.4018L43.6847 49.7471C40.0772 52.1462 36.0217 53.7496 32.9977 54.0384L31.135 46.1278C34.6154 45.6907 37.9277 44.3763 40.7609 42.3081C43.0716 40.5397 43.5314 39.4551 42.9066 38.6299C40.6136 35.5941 29.1308 48.132 22.3225 39.1368C19.3752 35.2404 19.723 29.8292 24.7806 24.7598L21.9335 21.0049L26.7966 17.3267L29.5847 21.0167C32.1672 19.3485 35.064 18.2271 38.0966 17.7216L40.1066 25.4671C37.1928 25.9105 34.4254 27.0376 32.031 28.7563C29.6731 30.5601 29.4138 31.8216 30.0386 32.6468C32.2314 35.547 43.7436 23.0386 50.4694 31.9336C53.287 35.6531 53.0512 40.9288 48.4122 45.8979Z" fill="white"/>
<rect x="9.12793" y="62.6489" width="5.93589" height="17.5424" rx="2.96795" transform="rotate(-49.18 9.12793 62.6489)" fill="white"/>
<path fill-rule="evenodd" clip-rule="evenodd" d="M20.0649 72.6065C20.66 73.1192 21.4192 73.4015 22.2047 73.4023H22.4523C23.7729 73.2989 24.9026 72.4133 25.3184 71.1556C25.7342 69.8979 25.355 68.5134 24.3562 67.6432L15.5791 60.0627L15.5084 59.9979C14.1159 58.8855 12.0902 59.0872 10.9443 60.4523C9.79848 61.8174 9.95094 63.8474 11.2878 65.026L20.0649 72.6065ZM10.953 61.6103C11.3404 60.5728 12.3317 59.8852 13.4392 59.8857C14.0653 59.8911 14.669 60.1189 15.1427 60.5282L23.9198 68.1146C23.9539 68.1389 23.9855 68.1665 24.0142 68.1971C24.8069 68.8036 25.1921 69.8037 25.011 70.7852C24.8299 71.7667 24.1131 72.5635 23.1562 72.8471C22.1992 73.1307 21.1641 72.8532 20.4774 72.1288L11.7003 64.5424C10.8635 63.8169 10.5655 62.6479 10.953 61.6103Z" fill="#222222"/>
<path d="M55.8983 59.8035L56.1164 59.4262C59.5925 53.9464 66.7759 52.1904 72.3879 55.4487C77.9999 58.7069 80.0365 65.8159 77.0011 71.5515L59.164 102.268L41.0144 85.4746L55.8983 59.8035Z" fill="#96ADFF"/>
<path fill-rule="evenodd" clip-rule="evenodd" d="M40.6313 85.5337L59.2879 102.752L77.2842 71.6754L77.4315 71.3984C80.6893 65.5047 78.6382 58.088 72.8151 54.7057C66.9919 51.3234 59.5333 53.2166 56.0281 58.9666L40.6313 85.5337ZM59.111 101.756L41.4271 85.4099L56.1578 59.9805L56.3935 59.5915C59.8785 54.5037 66.6957 52.9613 72.0313 56.0535C77.3669 59.1458 79.4179 65.8275 76.7359 71.3807L76.6711 71.5163L59.111 101.756Z" fill="#222222"/>
</svg>
