<svg width="132" height="101" viewBox="0 0 132 101" version="1.1" xmlns="http://www.w3.org/2000/svg" xmlns:xlink="http://www.w3.org/1999/xlink">
<g id="Canvas" transform="translate(1752 275)">
<g id="Group 2">
<g id=":(">
<use xlink:href="#path0_fill" transform="matrix(6.12323e-17 1 -1 6.12323e-17 -1668 -200)" fill="#6C8A9B"/>
<use xlink:href="#path1_fill" transform="matrix(6.12323e-17 1 -1 6.12323e-17 -1668 -200)" fill="#6C8A9B"/>
</g>
<g id="Group">
<g id="Vector">
<use xlink:href="#path2_fill" transform="translate(-1752 -243.714)" fill="#6C8A9B"/>
</g>
<g id="Vector">
<use xlink:href="#path3_fill" transform="translate(-1641.02 -243.577)" fill="#6C8A9B"/>
</g>
<g id="Vector">
<use xlink:href="#path4_fill" transform="translate(-1734.56 -243.797)" fill="#6C8A9B"/>
</g>
<g id="Vector">
<use xlink:href="#path5_fill" transform="translate(-1734.56 -208.214)" fill="#6C8A9B"/>
</g>
<g id="Vector">
<use xlink:href="#path6_fill" transform="translate(-1720.3 -275)" fill="#6C8A9B"/>
</g>
<g id="Vector">
<use xlink:href="#path7_fill" transform="translate(-1688.82 -257.345)" fill="#6C8A9B"/>
</g>
<g id="Vector">
<use xlink:href="#path8_fill" transform="translate(-1690.74 -234.491)" fill="#6C8A9B"/>
</g>
</g>
</g>
</g>
<defs>
<path id="path0_fill" d="M 0 26.3398C 0 25.7946 0.163043 25.3403 0.48913 24.9768C 0.826863 24.6133 1.32764 24.4316 1.99146 24.4316C 2.65528 24.4316 3.15606 24.6133 3.49379 24.9768C 3.84317 25.3403 4.01786 25.7946 4.01786 26.3398C 4.01786 26.8623 3.84317 27.2996 3.49379 27.6517C 3.15606 28.0038 2.65528 28.1798 1.99146 28.1798C 1.32764 28.1798 0.826863 28.0038 0.48913 27.6517C 0.163043 27.2996 0 26.8623 0 26.3398ZM 0.0174689 11.2958C 0.0174689 10.7506 0.180512 10.2963 0.506599 9.9328C 0.844332 9.56933 1.34511 9.3876 2.00893 9.3876C 2.67275 9.3876 3.17352 9.56933 3.51126 9.9328C 3.86064 10.2963 4.03533 10.7506 4.03533 11.2958C 4.03533 11.8183 3.86064 12.2556 3.51126 12.6077C 3.17352 12.9598 2.67275 13.1358 2.00893 13.1358C 1.34511 13.1358 0.844332 12.9598 0.506599 12.6077C 0.180512 12.2556 0.0174689 11.8183 0.0174689 11.2958Z"/>
<path id="path1_fill" d="M 9.98175 17.9233C 9.98175 14.9475 10.3952 12.1477 11.222 9.5239C 12.0489 6.90014 13.2193 4.60009 14.7333 2.62376C 15.6533 1.43114 16.5384 0.556555 17.3886 0L 18 2.07856C 16.6025 3.38476 15.4554 5.35542 14.5586 7.99053C 13.6619 10.6143 13.1727 13.5334 13.0912 16.7478L 13.0738 18.1278C 13.0738 22.1259 13.6502 25.6583 14.8032 28.725C 15.6766 31.0308 16.7422 32.814 18 34.0748L 17.3886 36C 16.3172 35.2958 15.2283 34.1372 14.1219 32.5244C 11.3618 28.4695 9.98175 23.6025 9.98175 17.9233Z"/>
<path id="path2_fill" d="M 1.78564 51.2382C 1.51093 51.2382 1.23621 51.2382 0.961498 51.1013C 0.412071 50.6908 0 50.1433 0 49.4591L 0 13.4658C 0 12.9184 0.274714 12.371 0.824141 12.0973L 18.2685 0.327618C 18.8179 -0.0829508 19.5047 -0.0829539 20.0541 0.190759C 20.6035 0.464472 21.0156 1.0119 21.0156 1.69618L 21.0156 37.2788C 21.0156 37.8263 20.7409 38.3737 20.3288 38.6474L 2.74714 50.8276C 2.47242 51.1013 2.06035 51.2382 1.78564 51.2382ZM 3.43392 14.4238L 3.43392 46.1745L 17.4443 36.4577L 17.4443 4.98073L 3.43392 14.4238Z"/>
<path id="path3_fill" d="M 19.0926 51.1013C 18.6805 51.1013 18.4058 50.9645 18.1311 50.8276L 0.686788 38.6474C 0.274718 38.3737 4.1918e-06 37.8263 4.1918e-06 37.2788L 4.1918e-06 1.69618C 4.1918e-06 1.0119 0.412071 0.464475 0.961498 0.190762C 1.51093 -0.0829508 2.19771 -0.0829529 2.74714 0.327616L 20.1915 12.0973C 20.6035 12.371 21.0156 12.9184 21.0156 13.4658L 21.0156 49.4591C 21.0156 50.1433 20.6035 50.6908 20.0541 50.9645C 19.642 50.9645 19.3673 51.1013 19.0926 51.1013ZM 3.43393 36.3208L 17.4443 46.0377L 17.4443 14.287L 3.43393 4.84388L 3.43393 36.3208Z"/>
<path id="path4_fill" d="M 95.1883 39.1409L 1.78564 39.1409C 0.824141 39.1409 -2.61987e-07 38.3198 -2.61987e-07 37.3618L -2.61987e-07 1.77913C -2.61987e-07 0.821139 0.824141 2.08826e-06 1.78564 2.08826e-06L 16.8949 2.08826e-06C 17.8564 2.08826e-06 18.6805 0.821139 18.6805 1.77913C 18.6805 2.73713 17.8564 3.55827 16.8949 3.55827L 3.43392 3.55827L 3.43392 35.7195L 93.54 35.7195L 93.54 3.55827L 79.667 3.55827C 78.7055 3.55827 77.8813 2.73713 77.8813 1.77913C 77.8813 0.821139 78.7055 0.136856 79.667 0.136856L 95.1883 0.136856C 96.1498 0.136856 96.9739 0.957994 96.9739 1.91599L 96.9739 37.4987C 96.9739 38.3198 96.1498 39.1409 95.1883 39.1409Z"/>
<path id="path5_fill" d="M 95.1883 34.2141L 1.78564 34.2141C 0.824141 34.2141 -2.61987e-07 33.393 -2.61987e-07 32.435L -2.61987e-07 1.77913C -2.61987e-07 0.821139 0.824141 2.08826e-06 1.78564 2.08826e-06L 95.1883 2.08826e-06C 96.1498 2.08826e-06 96.9739 0.821139 96.9739 1.77913L 96.9739 32.435C 96.9739 33.393 96.1498 34.2141 95.1883 34.2141ZM 3.43392 30.7927L 93.54 30.7927L 93.54 3.55827L 3.43392 3.55827L 3.43392 30.7927Z"/>
<path id="path6_fill" d="M 58.2736 59.5325L 8.27575 59.5325C 5.2539 59.5325 2.64412 58.0271 1.13319 55.4268C -0.377732 52.8266 -0.377732 49.8157 1.13319 47.2155L 26.1321 4.10569C 27.6431 1.50542 30.2528 5.22066e-07 33.2747 5.22066e-07C 36.2965 5.22066e-07 38.9063 1.50542 40.4173 4.10569L 65.4162 47.2155C 66.9271 49.8157 66.9271 52.8266 65.4162 55.4268C 63.9053 58.0271 61.2955 59.5325 58.2736 59.5325ZM 33.2747 3.42141C 31.6264 3.42141 29.9781 4.24255 29.154 5.74797L 4.15505 48.9946C 3.3309 50.5 3.3309 52.2791 4.15505 53.7846C 4.97919 55.29 6.49011 56.1111 8.27575 56.1111L 58.2736 56.1111C 59.9219 56.1111 61.5702 55.29 62.3943 53.7846C 63.2185 52.2791 63.2185 50.5 62.3943 48.9946L 37.3954 5.88482C 36.5713 4.3794 35.0603 3.42141 33.2747 3.42141Z"/>
<path id="path7_fill" d="M 1.78564 19.5705C 0.82414 19.5705 0 18.7493 0 17.7913L 0 1.77913C 0 0.821137 0.82414 0 1.78564 0C 2.74714 0 3.57128 0.821137 3.57128 1.77913L 3.57128 17.7913C 3.57128 18.7493 2.74714 19.5705 1.78564 19.5705Z"/>
<path id="path8_fill" d="M 3.70863 7.39024C 5.75686 7.39024 7.41727 5.73588 7.41727 3.69512C 7.41727 1.65436 5.75686 0 3.70863 0C 1.66041 0 -2.0959e-06 1.65436 -2.0959e-06 3.69512C -2.0959e-06 5.73588 1.66041 7.39024 3.70863 7.39024Z"/>
</defs>
</svg>
