<?xml version="1.0" encoding="utf-8"?><svg width="150" height="82" viewBox="0 0 150 82" xmlns="http://www.w3.org/2000/svg" xmlns:xlink="http://www.w3.org/1999/xlink"><view id="car-1" viewBox="50 55 45 25"/><svg width="45" height="25" fill="none" viewBox="0 0 45 25" x="50" y="55" xmlns="http://www.w3.org/2000/svg"><path fill-rule="evenodd" clip-rule="evenodd" d="M15.359.001H2.37C1.064.001 0 1.054 0 2.35v8.271l.001.047.006.051c-.003.048-.007.095-.007.144v6.047c0 2.12 1.795 3.136 3.166 3.499.092 2.51 2.182 4.525 4.74 4.525 2.345 0 4.297-1.696 4.675-3.915h19.13c.378 2.22 2.33 3.915 4.677 3.915 2.345 0 4.297-1.696 4.675-3.915h2.395c.437 0 .79-.35.79-.782v-6.062a.762.762 0 0 0-.01-.123c.006-.04.01-.08.01-.122 0-2.158-1.772-3.913-3.95-3.913H33.96l-2.507-4.162c-1.144-1.89-2.217-2.914-4.607-2.914h-3.299l-.014-.024C22.436 1.102 21.404.08 19.209 0L19.15 0h-.128l-.096.001h-3.568zm7.292 4.504h4.196c1.029 0 1.664.219 2.228.766h-3.7a.705.705 0 0 0-.704.698v4.877a.742.742 0 0 0 .742.735H40.09c-.394.42-.636.981-.636 1.598l-.02 1.238c0 .432.355.782.79.782h2.423l.02 4.254h-1.605c-.378-2.218-2.33-3.915-4.676-3.915s-4.298 1.697-4.676 3.915h-19.13c-.378-2.218-2.33-3.915-4.676-3.915a4.747 4.747 0 0 0-4.528 3.299c-.74-.228-1.797-.757-1.797-1.928v-2.141h.848c.871 0 1.58-.703 1.58-1.565v-2.394h.008v-.78a.789.789 0 0 0-.793-.785H1.58V2.333a.776.776 0 0 1 .18-.48.795.795 0 0 1 .61-.287H18.927c1.029 0 1.664.219 2.228.767l1.13 1.565.366.607zm3.576 5.511h5.893l-1.914-3.18h-3.98v3.18zM1.58 13.203h.848v-2.394h-.844c-.002.013-.004.03-.004.053v2.34zm9.487 7.033c0-1.727-1.418-3.133-3.162-3.133s-3.163 1.406-3.163 3.133 1.419 3.132 3.163 3.132c1.744 0 3.162-1.405 3.162-3.132zm28.482 0c0-1.727-1.418-3.133-3.162-3.133s-3.163 1.406-3.163 3.133 1.419 3.132 3.163 3.132c1.744 0 3.162-1.405 3.162-3.132zm3.1-6.602c0-.544-.172-.79-.484-1.153a.25.25 0 0 0-.188-.085h-.152a.787.787 0 0 0-.79.783l-.019.455h1.633zM4.766 4.5h14.33a.79.79 0 0 0 .797-.784.79.79 0 0 0-.797-.783H4.766a.79.79 0 0 0-.797.783.79.79 0 0 0 .797.784zM7.14 14.852h29.388a.79.79 0 0 0 .798-.784.775.775 0 0 0-.244-.563.802.802 0 0 0-.554-.22H7.14a.79.79 0 0 0-.797.783.79.79 0 0 0 .797.784zm30.763 5.32c0 .81-.663 1.464-1.483 1.464a1.473 1.473 0 0 1-1.482-1.463c0-.809.663-1.464 1.482-1.464.82 0 1.483.655 1.483 1.464zM7.825 21.637c.82 0 1.483-.655 1.483-1.463 0-.809-.664-1.464-1.483-1.464-.819 0-1.482.655-1.482 1.464 0 .808.663 1.463 1.482 1.463z" fill="#61BDFC"/></svg><view id="car-2" viewBox="105 51 44 24"/><svg width="44" height="24" fill="none" viewBox="0 0 44 24" x="105" y="51" xmlns="http://www.w3.org/2000/svg"><path fill-rule="evenodd" clip-rule="evenodd" d="M43.931 8.425a.785.785 0 0 0-.102-.484L40.82 2.894c-1.032-1.705-2.006-2.7-3.954-2.868a.799.799 0 0 0-.2-.026H2.353C1.056 0 0 1.046 0 2.331v13.02c0 2.106 1.782 3.115 3.144 3.475.092 2.493 2.166 4.494 4.706 4.494 2.329 0 4.267-1.684 4.642-3.888h18.996c.374 2.204 2.314 3.888 4.643 3.888 2.33 0 4.268-1.684 4.642-3.888h2.38a.78.78 0 0 0 .784-.777V8.475l-.005-.05zm-3.09 2.494c0-.429.351-.777.784-.777h.743v1.53H40.84v-.753zm1.068-3.141h-6.684l-1.951-3.869h6.33l2.305 3.869zM1.569 9.332h.842v2.34h-.842v-2.34zm0-5.423V2.332c0-.43.352-.778.785-.778h33.892c1.046 0 1.682.228 2.253.801h-6.494a.79.79 0 0 0-.668.369.771.771 0 0 0-.034.756l2.659 5.27a.783.783 0 0 0 .76.582h5.18a2.31 2.31 0 0 0-.631 1.587v1.53c0 .428.351.777.785.777h2.312v4.652h-1.595c-.374-2.203-2.313-3.887-4.642-3.887-2.33 0-4.269 1.684-4.643 3.887H12.492c-.374-2.203-2.313-3.887-4.642-3.887a4.713 4.713 0 0 0-4.497 3.275c-.733-.226-1.784-.752-1.784-1.914v-2.127h.842c.865 0 1.57-.697 1.57-1.554V7.778H1.568V3.909zm6.28 17.857c-1.732 0-3.14-1.396-3.14-3.111 0-1.715 1.408-3.11 3.14-3.11 1.732 0 3.14 1.395 3.14 3.11 0 1.715-1.408 3.11-3.14 3.11zm28.282 0c-1.731 0-3.14-1.396-3.14-3.111 0-1.715 1.409-3.11 3.14-3.11s3.14 1.395 3.14 3.11c0 1.715-1.409 3.11-3.14 3.11zM28.281 3.08l-23.708.012a.78.78 0 0 0-.785.777c0 .429.352.777.785.777l23.708-.012a.78.78 0 0 0 .784-.777.78.78 0 0 0-.784-.777zm7.85 8.591H7.158a.78.78 0 0 0-.784.777c0 .43.351.777.784.777H36.13a.78.78 0 0 0 .728-1.068.785.785 0 0 0-.728-.486zm.029 8.418c.82 0 1.483-.655 1.483-1.463 0-.809-.664-1.464-1.483-1.464-.819 0-1.482.655-1.482 1.463 0 .809.663 1.464 1.482 1.464zM9.34 18.626c0 .808-.664 1.463-1.483 1.463a1.473 1.473 0 0 1-1.482-1.463c0-.809.663-1.464 1.482-1.464.82 0 1.483.655 1.483 1.463z" fill="#61BDFC"/></svg><view id="car-3" viewBox="105 0 45 27"/><svg width="45" height="27" fill="none" viewBox="0 0 45 27" x="105" xmlns="http://www.w3.org/2000/svg"><path d="M44.536 11.165l-3.057-5.09c-1.048-1.718-2.037-2.721-4.017-2.891a.814.814 0 0 0-.204-.026h-6.115V1.567C31.143.703 30.427 0 29.548 0H1.595C.715 0 0 .703 0 1.567v19.616c0 .864.715 1.567 1.595 1.567h1.663c.38 2.221 2.351 3.92 4.718 3.92s4.337-1.699 4.718-3.92h19.302c.38 2.221 2.351 3.92 4.718 3.92s4.337-1.699 4.718-3.92h2.417a.79.79 0 0 0 .797-.783V11.563a.774.774 0 0 0-.11-.398zm-3.037 3.002c0-.432.358-.784.798-.784h.755v1.542h-1.553v-.759zm1.075-3.186H35.25a.821.821 0 0 0-.163-.017.807.807 0 0 1-.813-.799V7.026h5.924l2.376 3.955zM1.594 1.567h27.954v19.616H12.694c-.381-2.221-2.35-3.919-4.718-3.919-2.367 0-4.337 1.698-4.718 3.92H1.595V1.566zm6.382 23.535c-1.76 0-3.191-1.406-3.191-3.136 0-1.729 1.431-3.135 3.191-3.135 1.76 0 3.19 1.406 3.19 3.135 0 1.73-1.43 3.136-3.19 3.136zm28.738 0c-1.76 0-3.191-1.406-3.191-3.136 0-1.729 1.431-3.135 3.191-3.135 1.76 0 3.19 1.406 3.19 3.135 0 1.73-1.43 3.136-3.19 3.136zm4.718-3.919c-.381-2.221-2.35-3.919-4.718-3.919-2.367 0-4.337 1.698-4.718 3.92h-.853V4.723h5.688c1.017 0 1.652.212 2.213.735h-5.568a.79.79 0 0 0-.797.784v3.922c0 1.24.975 2.26 2.21 2.358.064.016.13.024.198.024h5.478a2.32 2.32 0 0 0-.66 1.62v1.542a.79.79 0 0 0 .797.783h2.35v4.691h-1.62z" fill="#61BDFC"/><path d="M4.02 4.725h23.104a.79.79 0 0 0 .797-.784.79.79 0 0 0-.797-.783H4.02a.79.79 0 0 0-.797.783.79.79 0 0 0 .797.784zM38.193 21.975c0 .809-.664 1.464-1.483 1.464a1.473 1.473 0 0 1-1.483-1.464c0-.808.664-1.463 1.483-1.463.819 0 1.483.655 1.483 1.463zM9.434 21.975c0 .809-.664 1.464-1.483 1.464a1.473 1.473 0 0 1-1.482-1.464c0-.808.664-1.463 1.482-1.463.82 0 1.483.655 1.483 1.463z" fill="#61BDFC"/></svg><view id="car-4" viewBox="105 27 45 24"/><svg width="45" height="24" fill="none" viewBox="0 0 45 24" x="105" y="27" xmlns="http://www.w3.org/2000/svg"><path d="M44.537 8.007l-3.057-5.09C40.432 1.2 39.443.197 37.463.027A.814.814 0 0 0 37.259 0h-6.115-.116c-.82 0-1.484.658-1.484 1.47l.005 10.297-27.954-.11c-.879 0-1.594.704-1.594 1.568v4.8c0 .864.715 1.567 1.594 1.567H3.26c.38 2.221 2.351 3.92 4.718 3.92s4.337-1.699 4.718-3.92h19.302c.38 2.221 2.351 3.92 4.718 3.92s4.337-1.699 4.718-3.92h2.417a.79.79 0 0 0 .797-.783V8.405a.774.774 0 0 0-.11-.398zM41.5 11.009c0-.432.358-.784.798-.784h.755v1.542H41.5v-.758zm1.075-3.186H35.25a.817.817 0 0 0-.163-.016.807.807 0 0 1-.813-.8V3.868h5.924l2.376 3.955zm-40.98 5.402H29.55v4.8H12.695c-.381-2.221-2.35-3.919-4.718-3.919-2.367 0-4.337 1.698-4.718 3.92H1.595v-4.801zm6.382 8.72c-1.76 0-3.191-1.407-3.191-3.137 0-1.729 1.431-3.135 3.191-3.135 1.76 0 3.19 1.406 3.19 3.135 0 1.73-1.43 3.137-3.19 3.137zm28.738 0c-1.76 0-3.191-1.407-3.191-3.137 0-1.729 1.431-3.135 3.191-3.135 1.76 0 3.19 1.406 3.19 3.135 0 1.73-1.43 3.137-3.19 3.137zm4.718-3.92c-.381-2.221-2.35-3.919-4.718-3.919-2.367 0-4.337 1.698-4.718 3.92h-.853V1.565h5.688c1.017 0 1.652.212 2.213.735h-5.568a.79.79 0 0 0-.797.784v3.922c0 1.24.975 2.26 2.21 2.358a.81.81 0 0 0 .198.025h5.478a2.32 2.32 0 0 0-.66 1.618v1.543a.79.79 0 0 0 .797.783h2.35v4.691h-1.62z" fill="#61BDFC"/><path d="M38.193 18.817c0 .809-.664 1.464-1.483 1.464a1.473 1.473 0 0 1-1.483-1.463c0-.809.664-1.464 1.483-1.464.819 0 1.483.655 1.483 1.463zM9.434 18.817c0 .809-.664 1.464-1.483 1.464a1.473 1.473 0 0 1-1.482-1.463c0-.809.664-1.464 1.482-1.464.82 0 1.483.655 1.483 1.463zM26.692.814c0-.45.39-.814.87-.814s.87.364.87.814v11.209c0 .45-.39.813-.87.813s-.87-.364-.87-.813V.813z" fill="#61BDFC"/><path fill-rule="evenodd" clip-rule="evenodd" d="M1.484 6.418C.664 6.418 0 7.076 0 7.888V16.265h1.54V7.943h26.022V6.418H1.484z" fill="#61BDFC"/></svg><view id="car-5" viewBox="55 0 50 26"/><svg width="50" height="26" fill="none" viewBox="0 0 50 26" x="55" xmlns="http://www.w3.org/2000/svg"><path fill-rule="evenodd" clip-rule="evenodd" d="M0 10.76V19.658c0 .941.782 1.708 1.745 1.708H5.702c.41 2.424 2.56 4.273 5.15 4.273 2.59 0 4.74-1.849 5.15-4.273H35.005c.416 2.422 2.571 4.273 5.161 4.273 2.59 0 4.744-1.851 5.162-4.273h3.505a.863.863 0 0 0 .872-.854v-7.659a.839.839 0 0 0-.006-.095l-.009-.055-.005-.029-2.073-9.478C47.247 1.403 45.5 0 43.634 0H37.57a.888.888 0 0 0-.654.29l-.046.056a.829.829 0 0 0-.052.077l-.03.054-.018.04a.878.878 0 0 0-.051.154l-.014.076-.004.043-.002.064.002 5.65v2.678l-.002.254-.001 1.708v1.655h-.935l.003-.077V.861A.865.865 0 0 0 34.898 0c-.48 0-.87.385-.87.861v6.3H1.485C.664 7.16 0 7.818 0 8.63V10.76zm5.705 8.9c.418-2.416 2.563-4.255 5.147-4.255 2.583 0 4.728 1.84 5.146 4.255l10.426-.004h8.581a5.1 5.1 0 0 1 1.694-2.983v-2.167l-9.981.001H1.745v5.15h1.209l2.751.003zM34.03 8.868H1.724V12.8h32.308l-.003-.077V8.868zm13.725 3.13h-5.7a.892.892 0 0 0-.178-.018c-.49 0-.89-.39-.89-.871V5.103h5.26l1.508 6.895zM40.166 23.93c-1.925 0-3.49-1.534-3.49-3.42 0-1.885 1.565-3.419 3.49-3.419 1.925 0 3.49 1.534 3.49 3.42 0 1.885-1.565 3.419-3.49 3.419zm5.162-4.274c-.417-2.421-2.572-4.273-5.162-4.273l-.089.001-.13.004a5.326 5.326 0 0 0-1.143.172l-.11.031-.119.036-.131.043V1.708h5.19c.98 0 1.968.76 2.233 1.687h-5.753a.863.863 0 0 0-.872.854v6.86c0 1.351 1.066 2.463 2.418 2.57a.881.881 0 0 0 .216.027h6.084v.846h-.849a.863.863 0 0 0-.872.854c0 .471.39.854.872.854h.85v3.396h-2.633zm-5.267 2.308c.819 0 1.483-.657 1.483-1.469s-.664-1.47-1.483-1.47c-.82 0-1.484.659-1.484 1.47 0 .811.664 1.47 1.484 1.47zm-29.21 1.938c1.906 0 3.45-1.513 3.45-3.38 0-1.868-1.544-3.381-3.45-3.381-1.904 0-3.449 1.513-3.449 3.38 0 1.868 1.545 3.381 3.45 3.381zm0-1.917c.82 0 1.483-.655 1.483-1.463 0-.809-.663-1.464-1.483-1.464-.819 0-1.482.655-1.482 1.463 0 .809.664 1.464 1.482 1.464z" fill="#61BDFC"/></svg><view id="car-6" viewBox="55 26 50 29"/><svg width="50" height="29" fill="none" viewBox="0 0 50 29" x="55" y="26" xmlns="http://www.w3.org/2000/svg"><path d="M49.046 16.058l-2.047-9.462c-.36-1.79-2.084-3.19-3.927-3.19H37.95v-1.7C37.949.764 37.176 0 36.227 0H1.722C.772 0 0 .765 0 1.705V23.03c0 .94.773 1.705 1.722 1.705h1.796C3.93 27.152 6.058 29 8.614 29a5.18 5.18 0 0 0 4.307-2.294A5.18 5.18 0 0 0 17.228 29c2.556 0 4.683-1.848 5.095-4.266h12.23C34.966 27.152 37.094 29 39.65 29s4.684-1.848 5.095-4.266h3.46a.857.857 0 0 0 .861-.853v-7.645c0-.06-.006-.12-.02-.178zm-1.907-.674h-5.626a.876.876 0 0 0-.176-.018.875.875 0 0 1-.878-.87V8.5h5.191l1.49 6.884zM1.722 1.705h34.505V20.05a5.102 5.102 0 0 0-1.673 2.979H22.323c-.411-2.418-2.538-4.266-5.095-4.266a5.18 5.18 0 0 0-4.307 2.294 5.18 5.18 0 0 0-4.307-2.294c-2.557 0-4.685 1.848-5.096 4.266H1.722V1.705zm6.892 25.59c-1.9 0-3.447-1.532-3.447-3.414 0-1.881 1.546-3.413 3.447-3.413 1.9 0 3.446 1.531 3.446 3.413 0 1.883-1.546 3.414-3.446 3.414zm8.614 0c-1.9 0-3.447-1.532-3.447-3.414 0-1.881 1.547-3.413 3.447-3.413 1.9 0 3.446 1.531 3.446 3.413 0 1.883-1.546 3.414-3.446 3.414zm22.421 0c-1.9 0-3.446-1.532-3.446-3.414 0-1.881 1.546-3.413 3.446-3.413 1.9 0 3.446 1.531 3.446 3.413 0 1.883-1.546 3.414-3.446 3.414zm5.095-4.266c-.411-2.418-2.538-4.266-5.095-4.266-.595 0-1.167.102-1.7.286V5.111h5.123c.969 0 1.944.758 2.204 1.684h-5.678a.857.857 0 0 0-.861.853v6.848c0 1.349 1.053 2.459 2.387 2.567.068.017.14.026.213.026h6.006v.844h-.838a.857.857 0 0 0-.861.853c0 .47.385.852.86.852h.839v3.391h-2.6z" fill="#61BDFC"/><path d="M41.212 23.884c0 .808-.664 1.463-1.482 1.463a1.473 1.473 0 0 1-1.483-1.463c0-.809.664-1.464 1.483-1.464.819 0 1.482.655 1.482 1.464zM18.667 23.884c0 .808-.663 1.463-1.482 1.463a1.473 1.473 0 0 1-1.483-1.463c0-.809.664-1.464 1.483-1.464.819 0 1.482.655 1.482 1.464zM10.13 23.884c0 .808-.664 1.463-1.482 1.463a1.473 1.473 0 0 1-1.483-1.463c0-.809.664-1.464 1.483-1.464.818 0 1.482.655 1.482 1.464zM3.934 4.27c0-.426.349-.771.78-.771h28.493c.43 0 .78.345.78.772a.776.776 0 0 1-.78.772H4.713a.776.776 0 0 1-.78-.772z" fill="#61BDFC"/></svg><view id="car-7" viewBox="0 0 55 29"/><svg width="55" height="29" fill="none" viewBox="0 0 55 29" xmlns="http://www.w3.org/2000/svg"><path d="M54.98 16.058l-2.046-9.462c-.36-1.79-2.084-3.19-3.927-3.19h-5.123v-1.7C43.884.764 43.11 0 42.162 0H1.722C.772 0 0 .765 0 1.705V23.03c0 .94.773 1.705 1.722 1.705h5.506C7.639 27.152 9.767 29 12.323 29a5.18 5.18 0 0 0 4.307-2.294A5.18 5.18 0 0 0 20.938 29c2.556 0 4.683-1.848 5.094-4.266H40.49C40.9 27.152 43.028 29 45.584 29c2.556 0 4.683-1.848 5.095-4.266h3.46a.857.857 0 0 0 .861-.853v-7.645c0-.06-.007-.12-.02-.178zm-1.906-.674h-5.626a.876.876 0 0 0-.176-.018.875.875 0 0 1-.878-.87V8.5h5.191l1.489 6.884zM1.722 1.705h40.44V20.05a5.102 5.102 0 0 0-1.673 2.979H26.032c-.41-2.418-2.538-4.266-5.094-4.266a5.18 5.18 0 0 0-4.308 2.294 5.18 5.18 0 0 0-4.307-2.294c-2.556 0-4.684 1.848-5.095 4.266H1.722V1.705zm10.601 25.59c-1.9 0-3.446-1.532-3.446-3.414 0-1.881 1.546-3.413 3.446-3.413 1.9 0 3.446 1.531 3.446 3.413 0 1.883-1.546 3.414-3.446 3.414zm8.615 0c-1.9 0-3.447-1.532-3.447-3.414 0-1.881 1.546-3.413 3.447-3.413 1.9 0 3.445 1.531 3.445 3.413 0 1.883-1.546 3.414-3.445 3.414zm24.646 0c-1.9 0-3.446-1.532-3.446-3.414 0-1.881 1.546-3.413 3.446-3.413 1.9 0 3.446 1.531 3.446 3.413 0 1.883-1.546 3.414-3.446 3.414zm5.095-4.266c-.411-2.418-2.539-4.266-5.095-4.266-.596 0-1.167.102-1.7.286V5.111h5.123c.969 0 1.943.758 2.204 1.684h-5.678a.857.857 0 0 0-.861.853v6.848c0 1.349 1.053 2.459 2.387 2.567.068.017.14.026.213.026h6.006v.844h-.838a.857.857 0 0 0-.861.853c0 .47.385.852.86.852h.839v3.391h-2.6z" fill="#61BDFC"/><path d="M47.148 23.884c0 .808-.664 1.463-1.483 1.463a1.473 1.473 0 0 1-1.482-1.463c0-.809.663-1.464 1.482-1.464s1.483.655 1.483 1.464zM22.376 23.884c0 .808-.663 1.463-1.482 1.463a1.473 1.473 0 0 1-1.483-1.463c0-.809.664-1.464 1.483-1.464.819 0 1.482.655 1.482 1.464zM13.84 23.884c0 .808-.665 1.463-1.483 1.463a1.473 1.473 0 0 1-1.483-1.463c0-.809.664-1.464 1.483-1.464.819 0 1.482.655 1.482 1.464zM3.947 4.27c0-.426.35-.771.78-.771h34.42c.43 0 .779.345.779.772a.776.776 0 0 1-.78.772H4.726a.776.776 0 0 1-.779-.772z" fill="#61BDFC"/></svg><view id="car-8" viewBox="0 55 50 27"/><svg width="50" height="27" fill="none" viewBox="0 0 50 27" y="55" xmlns="http://www.w3.org/2000/svg"><path d="M49.685 13.485l-2.073-9.479C47.246 2.214 45.501.811 43.634.811h-6.062a.863.863 0 0 0-.873.854v8.582h-.947V3.134a2.52 2.52 0 0 0 .064-.563C35.816 1.153 34.638 0 33.19 0H4.363C2.914 0 1.737 1.153 1.737 2.571c0 1.119.733 2.072 1.753 2.425v3.507c0 .472.39.854.872.854.486 0 .882.387.882.863a.873.873 0 0 1-.882.863.873.873 0 0 1-.881-.863.863.863 0 0 0-.872-.854.863.863 0 0 0-.872.854c0 1.418 1.178 2.571 2.625 2.571 1.448 0 2.626-1.153 2.626-2.57 0-1.12-.733-2.073-1.754-2.426V5.143h25.33v5.104h-.01c-1.443 0-2.617 1.15-2.617 2.563v.8H.872a.863.863 0 0 0-.872.854v6.004c0 .942.783 1.708 1.744 1.708h1.82c.417 2.422 2.572 4.273 5.162 4.273 1.82 0 3.425-.914 4.363-2.298a5.264 5.264 0 0 0 4.364 2.298c2.59 0 4.744-1.851 5.16-4.273h12.391c.417 2.422 2.573 4.273 5.162 4.273 2.59 0 4.745-1.851 5.161-4.273h3.506a.863.863 0 0 0 .872-.854v-7.658c0-.06-.007-.12-.02-.18zm-1.931-.676h-5.7a.893.893 0 0 0-.178-.018c-.49 0-.89-.39-.89-.87V5.913h5.26l1.508 6.895zM32.309 2.571c0-.476.395-.863.881-.863a.88.88 0 0 1 .85.636.836.836 0 0 0-.033.227v.322a.882.882 0 0 1-.817.541.873.873 0 0 1-.88-.863zM4.362 1.708c.486 0 .882.387.882.863a.873.873 0 0 1-.882.863.873.873 0 0 1-.881-.863c0-.476.395-.863.881-.863zm2.473 1.726a2.51 2.51 0 0 0 0-1.726h23.882a2.51 2.51 0 0 0-.152.863v.863H6.835zM32.31 5.143h.881c.286 0 .56-.046.817-.129v5.233H32.31V5.143zm-2.628 7.666c0-.47.392-.854.872-.854H36.7v5.529a5.097 5.097 0 0 0-1.695 2.984h-5.323v-7.659zM1.744 15.32h26.193v5.149h-5.323c-.417-2.422-2.572-4.273-5.161-4.273-1.82 0-3.425.914-4.364 2.297a5.263 5.263 0 0 0-4.363-2.297c-2.59 0-4.745 1.85-5.162 4.273h-1.82v-5.15zm6.982 9.422c-1.925 0-3.491-1.534-3.491-3.42 0-1.885 1.566-3.418 3.491-3.418s3.49 1.533 3.49 3.419c0 1.885-1.565 3.419-3.49 3.419zm8.727 0c-1.925 0-3.492-1.534-3.492-3.42 0-1.885 1.567-3.418 3.492-3.418s3.49 1.533 3.49 3.419c0 1.885-1.565 3.419-3.49 3.419zm22.713 0c-1.925 0-3.491-1.534-3.491-3.42 0-1.885 1.566-3.418 3.491-3.418s3.491 1.533 3.491 3.419c0 1.885-1.566 3.419-3.49 3.419zm5.161-4.273c-.416-2.422-2.571-4.273-5.16-4.273a5.31 5.31 0 0 0-1.723.286V2.519h5.19c.981 0 1.968.76 2.233 1.687h-5.753a.863.863 0 0 0-.872.854v6.86c0 1.351 1.066 2.463 2.418 2.571a.89.89 0 0 0 .216.027h6.084v.845h-.849a.863.863 0 0 0-.872.854c0 .472.39.854.872.854h.85v3.397h-2.634z" fill="#61BDFC"/><path d="M31.438 15.318h3.442a.863.863 0 0 0 .873-.854.863.863 0 0 0-.873-.854h-3.442a.863.863 0 0 0-.873.854c0 .472.391.854.873.854zM41.544 21.306c0 .812-.665 1.47-1.484 1.47-.82 0-1.484-.658-1.484-1.47 0-.811.664-1.47 1.484-1.47s1.484.659 1.484 1.47zM18.99 21.306c0 .812-.663 1.47-1.483 1.47-.82 0-1.484-.658-1.484-1.47 0-.811.665-1.47 1.484-1.47.82 0 1.484.659 1.484 1.47zM10.167 21.306c0 .812-.665 1.47-1.484 1.47-.82 0-1.484-.658-1.484-1.47 0-.811.665-1.47 1.484-1.47.82 0 1.484.659 1.484 1.47z" fill="#61BDFC"/></svg><view id="car-9" viewBox="0 29 54 26"/><svg width="54" height="26" fill="none" viewBox="0 0 54 26" y="29" xmlns="http://www.w3.org/2000/svg"><path d="M37.738.861c0-.476.39-.861.87-.861s.869.385.869.861v11.861c0 .476-.39.861-.87.861a.865.865 0 0 1-.869-.86V.86z" fill="#61BDFC"/><path fill-rule="evenodd" clip-rule="evenodd" d="M0 10.76V19.658c0 .941.782 1.708 1.745 1.708h5.529c.416 2.422 2.572 4.273 5.162 4.273 1.819 0 3.424-.915 4.362-2.298a5.264 5.264 0 0 0 4.364 2.298c2.59 0 4.745-1.851 5.161-4.273h12.391c.416 2.422 2.572 4.273 5.162 4.273 2.589 0 4.744-1.851 5.16-4.273h3.506a.863.863 0 0 0 .872-.854v-7.659c0-.06-.006-.12-.02-.179l-2.073-9.478C50.956 1.403 49.21 0 47.343 0h-6.062a.879.879 0 0 0-.783.477l-.03.067a.827.827 0 0 0-.039.127l-.013.076-.005.043-.002.064.002 5.65v2.678l-.002.254v3.363H1.723v-3.93h37.753V7.16H1.484C.664 7.16 0 7.818 0 8.63V10.76zm40.408 3.746l-9.98.001H1.744v5.15h5.528c.417-2.422 2.573-4.274 5.163-4.274 1.819 0 3.424.915 4.362 2.298a5.264 5.264 0 0 1 4.364-2.298c2.59 0 4.745 1.852 5.161 4.273h12.391a5.1 5.1 0 0 1 1.694-2.983v-2.167zm11.055-2.508h-5.7a.927.927 0 0 0-.096-.014l-.082-.004c-.49 0-.89-.39-.89-.871V5.103h5.26l1.508 6.895zM12.436 23.93c-1.926 0-3.492-1.534-3.492-3.42 0-1.885 1.566-3.419 3.492-3.419 1.925 0 3.49 1.534 3.49 3.42 0 1.885-1.565 3.419-3.49 3.419zm8.726 0c-1.925 0-3.491-1.534-3.491-3.42 0-1.885 1.566-3.419 3.49-3.419 1.926 0 3.492 1.534 3.492 3.42 0 1.885-1.566 3.419-3.491 3.419zm22.714 0c-1.926 0-3.492-1.534-3.492-3.42 0-1.885 1.566-3.419 3.492-3.419 1.925 0 3.49 1.534 3.49 3.42 0 1.885-1.565 3.419-3.49 3.419zm5.16-4.274c-.416-2.421-2.571-4.273-5.16-4.273a5.338 5.338 0 0 0-1.591.244l-.132.043V1.708h5.19c.981 0 1.968.76 2.233 1.687h-5.752a.863.863 0 0 0-.873.854v6.86c0 1.351 1.067 2.463 2.419 2.57a.881.881 0 0 0 .215.027h6.085v.846h-.85a.863.863 0 0 0-.872.854c0 .471.39.854.873.854h.849v3.396h-2.633zm-35.16.839c0 .811-.664 1.47-1.483 1.47-.82 0-1.484-.659-1.484-1.47 0-.812.664-1.47 1.484-1.47s1.484.659 1.484 1.47zm7.341 1.47c.82 0 1.484-.659 1.484-1.47 0-.812-.665-1.47-1.484-1.47-.82 0-1.484.659-1.484 1.47 0 .811.665 1.47 1.484 1.47zm22.553 0c.82 0 1.484-.659 1.484-1.47 0-.812-.665-1.47-1.484-1.47-.82 0-1.484.659-1.484 1.47 0 .811.664 1.47 1.484 1.47z" fill="#61BDFC"/></svg></svg>