<svg width="60" height="60" viewBox="0 0 60 60" fill="none" xmlns="http://www.w3.org/2000/svg">
<path d="M33.8256 44.1772C33.9403 44.4922 34.176 44.7485 34.4823 44.8877C34.6459 44.9621 34.8228 45 34.9999 45C35.1513 45 35.3039 44.9719 35.4491 44.917L51.6991 38.6671C52.3351 38.4217 52.6574 37.7137 52.4243 37.0728L47.4242 23.3229C47.3095 23.0079 47.0739 22.7516 46.7675 22.6124C46.4624 22.4744 46.1133 22.4622 45.8007 22.5831L29.5507 28.833C28.9147 29.0784 28.5924 29.7863 28.8255 30.4272L33.8256 44.1772ZM37.161 28.5851L38.2713 31.8128C38.4496 32.3315 38.9341 32.6563 39.4529 32.6563C39.5872 32.6563 39.7251 32.6342 39.8594 32.588C40.5125 32.3633 40.8592 31.6529 40.6346 30.9998L39.4951 27.6873L45.5101 25.3735L49.6556 36.7737L35.7396 42.1264L31.5941 30.7263L37.161 28.5851Z" fill="white"/>
<path d="M57.4146 40.7971C57.1656 40.1537 56.4393 39.8352 55.7972 40.0854L33.8801 48.6084C33.4615 47.9246 32.9357 47.325 32.3275 46.8082L18.6731 9.56906C18.5755 9.30176 18.3874 9.07465 18.1433 8.92816L7.4924 2.5377C7.49263 2.52445 7.50001 2.51332 7.50001 2.49996C7.50001 1.12184 6.37818 0 5.00005 0C3.62193 0 2.50009 1.12184 2.50009 2.49996C2.50009 3.87809 3.62193 4.99992 5.00005 4.99992C5.43376 4.99992 5.82177 4.85953 6.17767 4.66418L16.4782 10.8446L20.1034 20.7313L16.4282 26.8567C16.2402 27.1692 16.1987 27.5488 16.3146 27.8955L22.6307 46.8427C21.0336 48.2191 19.9999 50.2311 19.9999 52.5C19.9999 56.6358 23.3642 60 27.4999 60C31.6357 60 34.9999 56.6358 34.9999 52.5C34.9999 51.958 34.9358 51.4317 34.8261 50.9221L56.7028 42.4145C57.3463 42.1643 57.6648 41.4404 57.4146 40.7971ZM5.00064 2.49891C5.00052 2.49844 5.00005 2.49809 5.00005 2.49809L5.00158 2.4975L5.00064 2.49891ZM18.8672 27.6502L21.2093 23.7472L24.6567 33.1489L21.2654 34.8445L18.8672 27.6502ZM22.0643 37.2405L25.523 35.5113L29.0644 45.1696C28.559 45.0619 28.0371 45 27.5001 45C26.554 45 25.657 45.1946 24.8229 45.5157L22.0643 37.2405ZM27.5001 57.5C24.7425 57.5 22.5 55.2575 22.5 52.5C22.5 49.7425 24.7424 47.5 27.5001 47.5C30.2577 47.5 32.5001 49.7423 32.5001 52.5C32.5001 55.2577 30.2576 57.5 27.5001 57.5Z" fill="white"/>
</svg>
