<svg width="60" height="60" viewBox="0 0 60 60" fill="none" xmlns="http://www.w3.org/2000/svg">
<path d="M59.4666 12.7258C59.1333 12.4914 58.706 12.434 58.3228 12.5757L48.1324 16.2818C46.869 16.7408 45.8631 17.6661 45.3004 18.8867C45.1949 19.1156 45.1256 19.3534 45.0563 19.5908C43.3064 19.0933 40.0545 18.0543 36.8227 16.3892C31.9391 13.8729 28.2082 15.1157 25.0083 17.5565C23.3869 17.5884 21.1521 17.7801 18.9553 17.9737C17.554 18.0973 16.2296 18.2111 15.1557 18.2766C15.1294 17.6316 14.9784 16.9916 14.7 16.3869C14.1373 15.1661 13.1314 14.2408 11.8679 13.7819L1.6773 10.0756C1.29527 9.93524 0.865547 9.99266 0.533555 10.2257C0.198984 10.4602 0 10.8423 0 11.25V36.2499C0 36.9409 0.559102 37.5 1.25004 37.5H4.90113C6.45398 37.5 7.89867 36.7675 8.83254 35.5849C9.33 35.9632 9.91922 36.4061 10.5371 36.8701C11.9959 37.9675 13.5926 39.165 14.2932 39.7522C18.9478 43.6487 24.5435 47.8564 25.658 48.5888C26.6992 49.2724 28.5742 50 30 50C30.5578 50 31.9629 50 32.9493 49.1662C33.9661 49.5654 35.0623 49.5459 36.0816 49.0966C37.0984 48.6486 37.9212 47.8039 38.3997 46.7772C39.3762 46.9774 40.498 46.8309 41.5148 46.3207C42.4682 45.8434 43.1701 45.1207 43.5461 44.276C44.4493 44.3589 45.4138 44.0648 46.2768 43.4043C47.5098 42.4618 48.0744 41.0698 47.9147 39.6966L51.0854 37.9425C52.014 39.2012 53.4899 39.9998 55.0988 39.9998H58.7498C59.4408 39.9998 59.9999 39.4407 59.9999 38.7498V13.75C60 13.3422 59.801 12.9602 59.4666 12.7258ZM7.24242 33.3777C6.87867 34.3481 5.93754 35 4.90113 35H2.49996V13.0346L11.0132 16.1304C11.6455 16.3611 12.1485 16.8238 12.4291 17.4341C12.7111 18.0444 12.7356 18.728 12.4999 19.3566L7.24242 33.3777ZM44.7595 41.4185C44.3359 41.7432 43.7427 41.9239 43.479 41.6602C43.4655 41.6468 43.4447 41.648 43.4309 41.6352C43.407 41.613 43.3951 41.5831 43.3692 41.5625C42.4757 40.8569 38.4717 36.7603 35.9974 34.1797C35.5201 33.6805 34.7279 33.6621 34.2311 34.1418C33.7318 34.6191 33.7147 35.4102 34.1932 35.9082C34.774 36.5144 39.4362 41.3701 41.3022 43.0682C41.1628 43.6171 40.654 43.9561 40.3956 44.0857C39.5948 44.4873 38.7599 44.4201 38.4473 44.1296C38.4381 44.1209 38.4243 44.1214 38.4146 44.113C38.3994 44.0994 38.3926 44.0803 38.3764 44.0674C36.8774 42.8698 33.1165 38.8733 32.2656 37.948C31.798 37.4389 31.0083 37.4071 30.4992 37.8736C29.9914 38.3411 29.9572 39.1321 30.4248 39.6399C30.4658 39.6843 34.1516 43.6602 36.2217 45.5069C36.0183 46.0914 35.6038 46.5756 35.072 46.8103C34.6795 46.9846 34.0657 47.0741 33.3643 46.5557C31.5693 45.0337 27.9668 41.199 27.2583 40.4407C26.7884 39.9352 25.9949 39.9097 25.4919 40.3809C24.9878 40.8521 24.9609 41.6431 25.4321 42.1473C26.2721 43.0463 28.755 45.6779 30.6424 47.4597C30.4316 47.4854 30.2102 47.5 30 47.5C29.1723 47.5 27.7502 46.9715 27.0313 46.499C26.1548 45.9228 20.6518 41.8164 15.8996 37.8369C15.1807 37.2338 13.5401 35.9997 12.0386 34.8718C11.2338 34.2677 10.4924 33.7107 9.94594 33.2904L14.6262 20.808C15.8411 20.7549 17.4607 20.6149 19.1748 20.4637C20.1443 20.3783 21.1148 20.295 22.0423 20.2228C20.6168 21.6861 18.4975 24.307 18.7768 26.7637C18.905 27.8819 19.5166 28.8133 20.5481 29.4579C22.5904 30.7359 26.3709 29.6641 28.1921 27.4242C29.3677 27.2545 30.1624 26.9543 31.029 26.5245C32.4939 27.9015 34.4579 29.5202 36.521 31.2206C40.1123 34.1796 44.1833 37.5341 45.26 39.4152C45.8593 40.4614 45.0281 41.2134 44.7595 41.4185ZM46.9039 37.3985C45.2385 35.1705 41.6282 32.1896 38.1103 29.2907C35.7654 27.3583 33.551 25.5334 32.1338 24.1162C31.7432 23.728 31.1438 23.6401 30.6604 23.8977C29.3871 24.58 28.8135 24.862 27.3755 25.006C26.9921 25.045 26.648 25.2575 26.4429 25.5834C25.4626 27.1386 22.738 27.8783 21.8738 27.3388C21.383 27.0311 21.2878 26.7186 21.261 26.4806C21.1402 25.4173 22.2168 23.5766 24.0027 21.7895C28.4254 17.3668 31.587 16.5014 35.6775 18.6107C39.5639 20.6145 43.3996 21.7475 45.0097 22.1755C45.0563 22.3627 45.09 22.5519 45.1587 22.7355L50.0122 35.679L46.9039 37.3985ZM57.5 37.5H55.0989C54.0625 37.5 53.1213 36.848 52.7576 35.8776L47.5 21.8579C47.2644 21.228 47.2888 20.5445 47.5707 19.934C47.8515 19.3237 48.3545 18.8611 48.9867 18.6303L57.4999 15.5346V37.5H57.5Z" fill="white"/>
</svg>
