<svg width="60" height="60" viewBox="0 0 60 60" fill="none" xmlns="http://www.w3.org/2000/svg">
<g clip-path="url(#clip0)">
<path d="M59.6338 25.3662L47.1338 12.8663C46.8994 12.6319 46.582 12.5 46.2499 12.5H34.9999V8.75004C35 8.0591 34.4409 7.5 33.75 7.5H5.00004C2.24238 7.5 0 9.74238 0 12.5V43.7501C0 45.818 1.68211 47.5001 3.75 47.5001H6.71086C7.74609 50.4038 10.4952 52.5 13.75 52.5C17.0048 52.5 19.7539 50.4038 20.7893 47.5H39.2108C40.2462 50.4038 42.9952 52.5 46.25 52.5C49.5049 52.5 52.254 50.4038 53.2894 47.5H55.0001C57.7576 47.5 60.0001 45.2576 60.0001 42.4999V26.25C60 25.918 59.8682 25.6005 59.6338 25.3662ZM13.75 50C10.9924 50 8.74992 47.7577 8.74992 45C8.74992 42.2423 10.9923 40 13.75 40C16.5076 40 18.75 42.2425 18.75 45C18.75 47.7575 16.5076 50 13.75 50ZM32.5 13.75V45H21.25C21.25 40.8642 17.8857 37.5 13.75 37.5C9.61418 37.5 6.24996 40.8642 6.24996 45H3.75C3.06035 45 2.49996 44.4397 2.49996 43.75V12.5C2.49996 11.1219 3.6218 10.0001 4.99992 10.0001H32.5V13.75ZM46.25 50C43.4924 50 41.25 47.7575 41.25 45C41.25 42.2425 43.4924 40 46.25 40C49.0077 40 51.2501 42.2423 51.2501 45C51.2501 47.7577 49.0076 50 46.25 50ZM57.5 42.5C57.5 43.8782 56.3782 45 55.0001 45H53.75C53.75 40.8642 50.3858 37.5 46.25 37.5C42.1143 37.5 38.75 40.8642 38.75 45H35V15H45.7324L57.5 26.7676V42.5Z" fill="white"/>
<path d="M42.5 18.75C42.5 18.0591 41.9409 17.5 41.25 17.5C40.5591 17.5 40 18.0591 40 18.75V28.75C40 29.441 40.5591 30.0001 41.25 30.0001H53.75C54.441 30.0001 55.0001 29.441 55.0001 28.75C55.0001 28.0591 54.441 27.5 53.75 27.5H42.5V18.75Z" fill="white"/>
</g>
<defs>
<clipPath id="clip0">
<rect width="60" height="60" fill="white"/>
</clipPath>
</defs>
</svg>
