<svg width="60" height="60" viewBox="0 0 60 60" fill="none" xmlns="http://www.w3.org/2000/svg">
<path d="M59.9913 16.2068C59.9886 16.1238 59.9617 16.0442 59.9419 15.9617C59.9221 15.8803 59.9101 15.7979 59.8752 15.7235C59.8688 15.7098 59.8703 15.6946 59.8632 15.681L54.7498 5.68109C54.5361 5.26238 54.1064 4.99988 53.6365 4.99988H26.3636C25.8936 4.99988 25.4639 5.26238 25.2503 5.68109L20.1368 15.681C20.1298 15.6946 20.1313 15.7098 20.1248 15.7235C20.0899 15.7978 20.078 15.8802 20.0582 15.9617C20.0384 16.0442 20.0115 16.1238 20.0087 16.2068C20.0081 16.222 20 16.2345 20 16.25V31.2949C17.7311 31.4281 15.742 31.8759 14.5369 32.2075C14.1605 30.8987 13.0922 29.8434 11.676 29.5606L1.49531 27.5244C1.1291 27.456 0.74707 27.5464 0.457734 27.7831C0.168516 28.0212 0 28.3752 0 28.7499V48.75C0 49.4409 0.559102 50 1.25004 50H9.08203C10.6248 50 11.9395 49.0177 12.5053 47.639C15.3032 48.973 28.2485 55 33.75 55C38.5986 55 48.5779 50.094 55.1807 46.8481C56.9043 46.001 58.3289 45.3003 59.2529 44.895C59.707 44.6948 60 44.2455 60 43.7499V16.25C60 16.2345 59.9919 16.222 59.9913 16.2068ZM12.1778 33.4142L10.3186 46.4269C10.2319 47.0385 9.69973 47.4999 9.08203 47.4999H2.49996V30.2745L11.1853 32.0116C11.8359 32.1423 12.2718 32.7575 12.1778 33.4142ZM52.8723 7.49996L56.7068 15H47.2254L45.3504 7.49996H52.8723ZM37.2253 7.49996H42.7746L44.6491 15H35.3508L37.2253 7.49996ZM35 17.4999H45V22.5H35V17.4999ZM27.1277 7.49996H34.6498L32.7748 15H23.2932L27.1277 7.49996ZM54.0771 44.6044C48.0713 47.5573 38.0176 52.5 33.75 52.5C29.2029 52.5 17.2631 47.1765 13.0468 45.1257C13.0418 45.1232 13.0363 45.1241 13.0312 45.1217L14.5028 34.8212C15.412 34.5364 18.1957 33.75 21.25 33.75C23.0957 33.75 24.5202 34.4373 26.3232 35.3063C27.942 36.0876 29.7778 36.9726 32.2509 37.4755C37.683 38.5766 40 39.7057 40 41.2498C40 41.555 39.9072 41.743 39.6691 41.92C38.8781 42.5121 35.7738 43.5131 24.1051 40.0511C23.441 39.8582 22.7477 40.2343 22.5512 40.8946C22.3547 41.5563 22.7331 42.252 23.3947 42.4486C29.1516 44.1552 33.5546 45.0059 36.6748 45.0059C38.7097 45.0059 40.1989 44.6446 41.1646 43.9231C41.2479 43.861 41.3089 43.7848 41.3846 43.7179C41.4626 43.7094 41.5396 43.7189 41.6175 43.6948C43.8281 43.0152 50.0904 41.25 52.5 41.25C54.5386 41.25 56.6834 41.8701 57.3157 43.0321C56.4429 43.4423 55.3382 43.9856 54.0771 44.6044ZM57.5 39.9264C56.2086 39.1898 54.5029 38.75 52.5 38.75C50.0599 38.75 44.9995 40.1097 42.4353 40.8464C42.0953 37.259 37.4989 35.9892 32.7491 35.0244C30.5811 34.5849 28.9686 33.8074 27.4085 33.0554C25.836 32.2961 24.3161 31.5997 22.5001 31.3606V17.4999H32.5001V23.7499C32.5001 24.4408 33.0592 24.9999 33.7501 24.9999H46.2502C46.9411 24.9999 47.5002 24.4408 47.5002 23.7499V17.4999H57.5002V39.9264H57.5Z" fill="white"/>
</svg>
