<svg width="60" height="60" viewBox="0 0 60 60" fill="none" xmlns="http://www.w3.org/2000/svg">
<g clip-path="url(#clip0)">
<path d="M55 0H5.00004C2.24367 0 0 2.24238 0 5.00004V20C0 22.7576 2.24367 25.0001 5.00004 25.0001H9.22852L10.1318 26.8092C10.5566 27.6564 11.9433 27.6564 12.3681 26.8092L13.2714 25.0001H27.4999L28.999 26.9996C29.4727 27.6295 30.5273 27.6295 31.0009 26.9996L32.5 25.0001H46.7285L47.6318 26.8092C47.8443 27.2329 48.2763 27.5002 48.75 27.5002C49.2237 27.5002 49.6557 27.2329 49.8682 26.8092L50.7715 25.0001H55C57.7563 25.0001 60 22.7577 60 20V5.00004C60 2.24238 57.7563 0 55 0ZM57.5 20C57.5 21.3782 56.3794 22.5 55.0001 22.5H50C49.5264 22.5 49.0943 22.7673 48.8818 23.1909L48.75 23.4546L48.6182 23.1909C48.4057 22.7673 47.9736 22.5 47.5 22.5H31.875C31.482 22.5 31.1108 22.6855 30.874 23.0005L30 24.1663L29.126 23.0005C28.8892 22.6855 28.518 22.5 28.125 22.5H12.5C12.0264 22.5 11.5943 22.7673 11.3818 23.1909L11.25 23.4546L11.1182 23.1909C10.9057 22.7673 10.4736 22.5 9.99996 22.5H5.00004C3.62063 22.5 2.50008 21.3782 2.50008 20V5.00004C2.50008 3.62191 3.62074 2.50008 5.00004 2.50008H55.0001C56.3795 2.50008 57.5 3.62191 57.5 5.00004V20Z" fill="white"/>
<path d="M36.25 40C36.25 36.5539 33.4473 33.75 30 33.75C26.5527 33.75 23.7501 36.5539 23.7501 40C23.7501 43.446 26.5528 46.2499 30 46.2499C33.4472 46.2499 36.25 43.4461 36.25 40ZM26.25 40C26.25 37.9321 27.9321 36.25 30 36.25C32.0679 36.25 33.75 37.9321 33.75 40C33.75 42.0679 32.0679 43.75 30 43.75C27.9321 43.75 26.25 42.0679 26.25 40Z" fill="white"/>
<path d="M55 36.25C55 32.8039 52.1973 30 48.75 30C45.3027 30 42.5 32.8039 42.5 36.25C42.5 39.696 45.3028 42.4999 48.75 42.4999C52.1973 42.5 55 39.6961 55 36.25ZM45 36.25C45 34.1821 46.6821 32.5 48.75 32.5C50.8179 32.5 52.5 34.1821 52.5 36.25C52.5 38.3179 50.8179 40 48.75 40C46.6821 40 45 38.3179 45 36.25Z" fill="white"/>
<path d="M17.5 36.25C17.5 32.8039 14.6973 30 11.25 30C7.80272 30 5.00006 32.8039 5.00006 36.25C5.00006 39.696 7.80272 42.5 11.25 42.5C14.6973 42.5 17.5 39.6961 17.5 36.25ZM7.50002 36.25C7.50002 34.1821 9.18213 32.5 11.25 32.5C13.3179 32.5 15 34.1821 15 36.25C15 38.3179 13.3179 40 11.25 40C9.18213 40 7.50002 38.3179 7.50002 36.25Z" fill="white"/>
<path d="M48.75 7.5H11.25C10.559 7.5 9.99994 8.0591 9.99994 8.75004C9.99994 9.44098 10.559 10.0001 11.25 10.0001H48.75C49.4409 10.0001 50 9.44098 50 8.75004C50 8.0591 49.4409 7.5 48.75 7.5Z" fill="white"/>
<path d="M41.25 15H11.25C10.559 15 9.99994 15.5591 9.99994 16.25C9.99994 16.941 10.559 17.5001 11.25 17.5001H41.25C41.9409 17.5001 42.5 16.941 42.5 16.25C42.5 15.5591 41.9409 15 41.25 15Z" fill="white"/>
<path d="M57.2998 46.3294C55.3027 45.1526 52.1972 43.7501 48.75 43.7501C45.3027 43.7501 42.1972 45.1527 40.2002 46.3294C38.7803 47.1674 37.863 48.6913 37.6106 50.4133C35.5248 49.5314 32.8672 48.75 30 48.75C27.1328 48.75 24.4754 49.5313 22.3895 50.413C22.1371 48.6911 21.2197 47.1673 19.7998 46.3293C17.8027 45.1525 14.6972 43.75 11.25 43.75C7.80281 43.75 4.69723 45.1526 2.70023 46.3293C1.03512 47.312 0 49.22 0 51.3086V52.1093C0 53.7036 1.20117 55 2.6782 55H17.6782C17.578 55.4249 17.5 55.8586 17.5 56.3086V57.1094C17.5 58.7036 18.7818 60 20.3564 60H39.6435C41.2182 60 42.4999 58.7036 42.4999 57.1094V56.3086C42.4999 55.8586 42.422 55.425 42.3217 55H57.3217C58.7987 55 59.9999 53.7036 59.9999 52.1093V51.3086C60 49.22 58.9649 47.312 57.2998 46.3294ZM19.014 52.5H2.6782C2.64891 52.5 2.49996 52.3694 2.49996 52.1095V51.3087C2.49996 50.1186 3.07617 49.0101 3.96973 48.4827C5.69824 47.4646 8.36426 46.2501 11.25 46.2501C14.1357 46.2501 16.8018 47.4647 18.5303 48.4827C19.4238 49.0101 20 50.1184 20 51.3087L20.0066 51.6618C19.6411 51.9087 19.3068 52.1812 19.014 52.5ZM40 57.1094C40 57.3242 39.8413 57.5 39.6435 57.5H20.3564C20.1586 57.5 19.9999 57.3242 19.9999 57.1094V56.3086C19.9999 55.1257 20.642 54.0552 21.6772 53.5132C23.6475 52.4805 26.6895 51.25 30 51.25C33.3105 51.25 36.3525 52.4805 38.3228 53.5132C39.3579 54.0552 40.0001 55.1257 40.0001 56.3086V57.1094H40ZM57.5 52.1095C57.5 52.3695 57.3511 52.5 57.3218 52.5H40.986C40.695 52.1832 40.3627 51.9125 40 51.6665V51.3087C40 50.1186 40.5762 49.0101 41.4697 48.4827C43.1982 47.4646 45.8643 46.2501 48.75 46.2501C51.6357 46.2501 54.3018 47.4647 56.0303 48.4827C56.9238 49.0101 57.5 50.1184 57.5 51.3087V52.1095Z" fill="white"/>
</g>
<defs>
<clipPath id="clip0">
<rect width="60" height="60" fill="white"/>
</clipPath>
</defs>
</svg>
