<svg width="60" height="60" viewBox="0 0 60 60" fill="none" xmlns="http://www.w3.org/2000/svg">
<path d="M52.5 36.25C50.0593 36.25 45 37.6091 42.4353 38.3459C42.095 34.7589 37.4988 33.4891 32.7491 32.5243C30.5811 32.0849 28.9673 31.3074 27.4073 30.5541C25.4835 29.6263 23.6671 28.7499 21.2501 28.7499C18.4823 28.7499 15.96 29.316 14.5366 29.7076C14.1604 28.3984 13.0929 27.3431 11.6748 27.0604L1.49414 25.0245C1.13039 24.9512 0.74707 25.0465 0.456562 25.2832C0.168516 25.5212 0 25.8752 0 26.25V46.25C0 46.941 0.559102 47.5001 1.25004 47.5001H9.08203C10.6256 47.5001 11.9411 46.5182 12.5066 45.1397C15.3076 46.4749 28.2517 52.5 33.75 52.5C38.5986 52.5 48.5816 47.5928 55.1856 44.3457C56.9068 43.4998 58.3301 42.7991 59.2529 42.395C59.707 42.1949 60 41.7456 60 41.25C60 38.3057 56.9166 36.25 52.5 36.25ZM12.1778 30.9143L10.3199 43.927C10.232 44.5386 9.69973 45 9.08203 45H2.49996V27.7746L11.1865 29.5117C11.8359 29.6424 12.2729 30.2576 12.1778 30.9143ZM54.082 42.1021C48.0737 45.0561 38.0176 50 33.75 50C29.2041 50 17.2631 44.6766 13.0468 42.6258C13.0421 42.6234 13.0369 42.6243 13.0322 42.6222L14.503 32.3209C15.4138 32.036 18.1965 31.25 21.25 31.25C23.0957 31.25 24.519 31.9374 26.3232 32.8064C27.942 33.5877 29.7778 34.4727 32.2509 34.9756C37.683 36.0766 40 37.2057 40 38.7499C40 39.0551 39.9071 39.2431 39.6703 39.4201C38.8768 40.0146 35.7714 41.0132 24.1063 37.5512C23.4397 37.3583 22.7489 37.7331 22.5511 38.3947C22.3557 39.0564 22.7318 39.7521 23.3934 39.9486C29.1527 41.6552 33.5545 42.506 36.6746 42.506C38.7083 42.506 40.2 42.1447 41.1645 41.4232C41.2474 41.3612 41.3082 41.2854 41.3837 41.2187C41.4623 41.21 41.5397 41.2192 41.6186 41.1949C43.8281 40.5151 50.0904 38.75 52.5 38.75C54.5386 38.75 56.6845 39.3689 57.3144 40.5322C56.4429 40.9424 55.3418 41.4844 54.082 42.1021Z" fill="white"/>
<path d="M38.75 30C42.1412 30 45.1816 28.0023 46.6154 24.963C51.2671 24.7666 55 20.949 55 16.2499C55 11.4257 51.0742 7.49988 46.2499 7.49988C42.7566 7.49988 39.7576 9.57222 38.3559 12.5398C33.7178 12.7508 30 16.5607 30 21.25C30 26.0742 33.9258 30 38.75 30ZM46.25 9.99996C49.6973 9.99996 52.5 12.8039 52.5 16.2499C52.5 19.6959 49.6972 22.5 46.25 22.5C42.8029 22.5 40.0001 19.6961 40.0001 16.25C40.0001 12.804 42.8027 9.99996 46.25 9.99996ZM37.6131 15.131C37.565 15.5013 37.5 15.8668 37.5 16.2499C37.5 16.8865 37.5768 17.5041 37.7065 18.1023C37.5871 18.294 37.5 18.5074 37.5 18.75V23.75C37.5 24.441 38.0591 25.0001 38.75 25.0001C39.441 25.0001 40.0001 24.441 40.0001 23.75V22.3543C41.0674 23.447 42.4257 24.233 43.939 24.6507C42.8053 26.3919 40.8736 27.5 38.75 27.5C35.3027 27.5 32.5001 24.6961 32.5001 21.2501C32.5 18.2136 34.68 15.6834 37.6131 15.131Z" fill="white"/>
<path d="M46.25 20.0001C46.941 20.0001 47.5001 19.441 47.5001 18.75V13.75C47.5001 13.059 46.941 12.4999 46.25 12.4999C45.5591 12.4999 45 13.0592 45 13.75V18.75C45 19.441 45.5591 20.0001 46.25 20.0001Z" fill="white"/>
</svg>
