<svg width="620" height="154" viewBox="0 0 620 154" fill="none" xmlns="http://www.w3.org/2000/svg">
<path d="M8.27748 153.64C3.08376 153.64 -1.98125e-05 150.39 -1.98125e-05 144.702C-1.98125e-05 138.038 3.89528 132.35 10.712 132.35C15.4188 132.35 18.5026 135.113 18.5026 139.501V139.989H14.445C14.2827 137.388 13.1466 136.088 10.5497 136.088C6.32982 136.088 4.3822 140.964 4.3822 144.702C4.3822 148.115 6.00526 150.065 8.76442 150.065C11.199 150.065 12.822 148.602 13.4712 145.839H17.6911C16.8796 150.715 13.1466 153.64 8.27748 153.64Z" fill="white"/>
<path d="M36.0315 136.413H30.0263L26.6179 153.153H22.398L25.8064 136.413H19.8011L20.6127 132.675H37.0053L36.0315 136.413Z" fill="white"/>
<path d="M46.0942 132.838C47.555 132.838 48.6911 133 49.5026 133.163C51.6125 133.813 53.0733 135.926 53.0733 138.526C53.0733 140.964 51.9372 143.402 49.9895 144.539C48.3665 145.514 46.2565 145.677 44.3089 145.677H40.089L38.6283 152.991H34.4084L38.6283 132.675H46.0942V132.838ZM40.9005 142.264H45.2827C47.3927 142.264 48.8534 141.289 48.8534 139.014C48.8534 136.576 47.0681 136.413 45.1204 136.413H41.8743L40.9005 142.264Z" fill="white"/>
<path d="M73.1989 140.964C73.1989 147.79 69.3036 153.64 62.3245 153.64C56.9685 153.64 53.8847 150.227 53.8847 144.539C53.8847 137.551 58.4292 132.35 64.4345 132.35C69.9528 132.35 73.1989 135.6 73.1989 140.964ZM58.1046 144.702C58.1046 148.115 59.89 150.065 62.6491 150.065C67.0313 150.065 68.979 145.027 68.979 141.126C68.979 137.876 67.3559 135.925 64.4345 135.925C60.0523 135.925 58.1046 140.801 58.1046 144.702Z" fill="white"/>
<path d="M90.2408 153.153H86.0209L88.9424 139.013L79.0419 153.153H74.0104L78.068 132.838H82.2879L79.3665 146.977L89.267 132.838H94.2984L90.2408 153.153Z" fill="white"/>
<path d="M111.827 136.413H105.822L102.414 153.153H98.1938L101.602 136.413H95.4346L96.2462 132.675H112.639L111.827 136.413Z" fill="white"/>
<path d="M128.707 136.413H118.157L117.183 140.964H127.084L126.435 144.377H116.534L115.56 149.415H126.435L125.623 153.153H110.529L114.749 132.838H129.681L128.707 136.413Z" fill="white"/>
<path d="M144.45 153.153H140.23L143.639 136.413H138.607L136.497 145.189C135.037 151.69 132.764 153.478 129.194 153.478C128.382 153.478 127.408 153.153 126.922 153.153L127.571 149.74C127.895 149.74 128.545 149.903 128.869 149.903C130.005 149.903 131.141 149.253 132.115 145.027L135.037 132.675H148.67L144.45 153.153Z" fill="white"/>
<path d="M161.979 152.015C160.356 152.99 158.246 153.153 156.299 153.153H147.859L152.079 132.838H156.299L154.838 140.151H158.084C159.545 140.151 160.681 140.314 161.492 140.476C163.602 141.126 165.063 143.239 165.063 145.839C165.063 148.44 163.927 150.715 161.979 152.015ZM157.272 143.564H154.189L152.89 149.577H157.272C159.382 149.577 161.005 148.602 161.005 146.327C161.005 143.889 159.22 143.564 157.272 143.564Z" fill="white"/>
<path d="M182.429 153.153H178.21L179.995 144.377H172.042L170.257 153.153H165.874L169.932 132.838H174.152L172.529 140.639H180.482L182.105 132.838H186.325L182.429 153.153Z" fill="white"/>
<path d="M199.147 152.015C197.524 152.99 195.414 153.153 193.466 153.153H186L190.058 132.838H194.278L192.817 140.151H195.251C196.712 140.151 197.848 140.314 198.66 140.476C200.77 141.126 202.068 143.239 202.068 145.839C202.23 148.44 201.094 150.715 199.147 152.015ZM194.44 143.564H192.168L191.031 149.415H194.44C196.55 149.415 198.01 148.44 198.01 146.164C198.173 143.889 196.387 143.564 194.44 143.564ZM211.319 132.838L207.262 153.153H203.042L207.262 132.838H211.319Z" fill="white"/>
<path d="M227.225 153.153H223.005L225.927 139.013L216.026 153.153H210.833L215.052 132.838H219.272L216.351 146.977L226.251 132.838H231.283L227.225 153.153ZM228.037 127.312C227.712 130.237 225.765 131.375 223.168 131.375C220.733 131.375 218.948 130.4 218.948 128.124C218.948 127.799 218.948 127.637 218.948 127.312H220.409C220.409 128.612 221.545 129.262 223.168 129.262C224.791 129.262 226.089 128.775 226.414 127.312H228.037Z" fill="white"/>
<path d="M255.304 136.413H245.89L242.482 153.153H238.262L242.482 132.838H256.115L255.304 136.413Z" fill="white"/>
<path d="M270.236 153.153H266.016L268.937 139.013L259.037 153.153H253.843L258.063 132.838H262.283L259.361 146.977L269.262 132.838H274.293L270.236 153.153Z" fill="white"/>
<path d="M290.361 153.153H286.141L289.55 136.413H281.597L278.189 153.153H273.969L278.189 132.838H294.743L290.361 153.153Z" fill="white"/>
<path d="M312.272 136.413H301.723L300.749 140.964H310.649L310 144.377H300.1L299.126 149.415H310L309.188 153.153H294.094L298.314 132.838H313.246L312.272 136.413Z" fill="white"/>
<path d="M323.471 132.838C324.932 132.838 326.068 133 326.88 133.163C328.99 133.813 330.45 135.926 330.45 138.526C330.45 140.964 329.314 143.402 327.366 144.539C325.743 145.514 323.633 145.677 321.686 145.677H317.466L316.005 152.991H311.785L316.005 132.675H323.471V132.838ZM318.115 142.264H322.497C324.607 142.264 326.068 141.289 326.068 139.014C326.068 136.576 324.283 136.413 322.335 136.413H319.089L318.115 142.264Z" fill="white"/>
<path d="M334.183 132.838H340.189L341.649 147.627L349.278 132.838H355.445L351.225 153.153H347.168L350.738 136.901L342.461 153.153H339.215L337.267 136.901L334.346 153.153H330.288L334.183 132.838Z" fill="white"/>
<path d="M371.838 153.153H367.618L366.969 148.602H359.665L357.23 153.153H352.524L364.047 132.838H368.429L371.838 153.153ZM366.644 145.352L365.508 137.713L361.288 145.352H366.644Z" fill="white"/>
<path d="M384.66 132.838C386.12 132.838 387.257 133 388.068 133.163C390.178 133.813 391.639 135.926 391.639 138.526C391.639 140.964 390.503 143.402 388.555 144.539C386.932 145.514 384.822 145.677 382.874 145.677H378.654L377.194 152.991H372.974L377.194 132.675H384.66V132.838ZM379.304 142.264H383.686C385.796 142.264 387.257 141.289 387.257 139.014C387.257 136.576 385.471 136.413 383.524 136.413H380.44L379.304 142.264Z" fill="white"/>
<path d="M403.162 141.126L409.167 153.153H404.298L399.754 144.052L396.67 146.814L395.372 153.315H391.152L395.209 133H399.429L397.806 141.289L406.733 133H412.414L403.162 141.126Z" fill="white"/>
<path d="M429.131 136.413H418.581L417.607 140.964H427.508L426.859 144.377H416.958L415.984 149.415H426.859L426.047 153.153H410.953L415.173 132.838H430.105L429.131 136.413Z" fill="white"/>
<path d="M107.932 55.1518C108.094 54.6642 108.094 54.1767 108.094 53.8517C108.094 48.976 105.01 46.7007 98.6806 46.7007C93.3246 46.7007 89.9162 49.301 89.9162 53.039C89.9162 58.2398 96.2461 58.7273 99.979 59.3774C115.722 61.9778 131.791 64.5781 131.791 84.5683C131.791 107.484 109.23 114.635 89.7539 114.635C72.5497 114.635 51.1256 109.759 51.1256 88.1438C51.1256 87.3312 51.2879 86.8437 51.2879 85.381H79.8534V86.3561C79.8534 92.5319 83.2618 95.1323 91.0523 95.1323C97.5445 95.1323 101.277 92.6945 101.277 88.6314C101.277 82.6181 93.1623 82.1305 80.5026 79.6927C65.8953 76.9298 58.5916 69.7788 58.5916 57.5896C58.5916 35.1616 79.8534 28.9858 99.1675 28.9858C123.838 28.9858 136.173 36.7868 136.173 52.5514V54.9893H107.932V55.1518Z" fill="white"/>
<path d="M179.346 114.798C156.136 114.798 138.77 104.071 138.77 78.3927C138.77 49.4638 157.759 29.311 187.623 29.311C210.508 29.311 228.199 40.6876 228.199 65.391C228.199 94.3199 209.209 114.798 179.346 114.798ZM169.445 79.6929C169.445 88.4691 173.178 93.0197 180.482 93.0197C193.466 93.0197 197.361 73.6795 197.361 63.9282C197.361 56.7772 194.44 50.6014 186.325 50.6014C173.503 50.7639 169.445 70.1041 169.445 79.6929Z" fill="white"/>
<path d="M447.471 132.838H431.079L430.429 136.413H436.435L433.026 153.153H437.408L440.817 136.413H446.66L447.471 132.838Z" fill="white"/>
<path d="M357.879 112.62H327.691L330.126 101.568C323.633 110.67 315.356 114.895 303.508 114.895C288.413 114.895 278.838 106.444 278.838 93.2797C278.838 90.0293 279.487 84.016 280.298 80.2779L290.686 31.0337H322.01L312.434 76.865C312.11 78.6527 311.785 81.0905 311.785 82.5532C311.785 87.5914 315.031 90.6793 320.55 90.6793C327.691 90.6793 332.56 85.3161 334.67 75.2397L344.084 31.1962H375.084L357.879 112.62Z" fill="white"/>
<path d="M466.461 31.1961H431.89L419.393 46.3106L414.037 31.1961H382.388L400.89 68.5762L364.372 112.62H398.78L466.461 31.1961Z" fill="white"/>
<path d="M451.854 112.62L437.084 82.8782L415.173 97.8302L420.367 112.62H451.854Z" fill="white"/>
<path d="M23.6963 30.9361L6.49211 112.36H37.6544L54.8586 30.9361H23.6963Z" fill="white"/>
<path d="M30.1885 0.382014L25.8063 20.8598H57.1309L61.3508 0.382014H30.1885Z" fill="white"/>
<path d="M253.194 0.382014L229.173 112.36H260.497L284.194 0.382014H253.194Z" fill="white"/>
<path fill-rule="evenodd" clip-rule="evenodd" d="M478.634 30.9361H620L594.031 153.153H452.827L478.634 30.9361ZM484.801 112.36H497.623L500.382 100.008H487.56L484.801 112.36ZM538.199 81.3182C536.414 80.8307 535.115 80.6682 533.817 80.6682C525.377 80.6682 521.969 87.169 520.346 94.1575L516.45 112.197H505.414L514.016 71.5669H524.566L522.78 79.0429C526.189 74.0047 530.246 70.4292 536.576 70.4292C537.442 70.4292 538.019 70.5015 538.788 70.5978L538.788 70.5978C539.173 70.6459 539.606 70.7001 540.147 70.7543L538.199 81.3182ZM561.246 112.36H571.958L580.236 71.7295H569.199L564.492 93.5074C563.356 98.8707 560.272 104.721 553.942 104.721C550.21 104.721 548.262 102.934 548.262 99.6833C548.262 98.7081 548.587 96.7579 549.236 93.8325L553.942 71.892H542.744L537.55 96.4328C537.063 99.1957 536.738 101.308 536.738 102.934C536.738 109.597 541.283 113.66 548.911 113.66C554.754 113.66 559.136 111.385 562.545 106.509L561.246 112.36Z" fill="#FFE600"/>
</svg>
