<svg width="60" height="60" viewBox="0 0 60 60" fill="none" xmlns="http://www.w3.org/2000/svg">
<path d="M30 17.5C34.8242 17.5 38.75 13.5742 38.75 8.74992C38.75 3.92578 34.8242 0 30 0C25.1757 0 21.2499 3.92578 21.2499 8.75004C21.2499 13.5742 25.1757 17.5 30 17.5ZM30 2.49996C33.4473 2.49996 36.25 5.30391 36.25 8.74992C36.25 12.1959 33.4473 15 30 15C26.5527 15 23.75 12.1961 23.75 8.75004C23.75 5.30402 26.5527 2.49996 30 2.49996Z" fill="white"/>
<path d="M52.513 32.5013C52.5246 31.6706 52.5415 30.8691 52.561 30.1257C52.6909 25.0163 52.7389 21.5214 49.592 17.9161C49.8445 17.4119 50 16.8513 50 16.25C50 14.1821 48.3179 12.5 46.25 12.5C44.1821 12.5 42.5 14.1821 42.5 16.25C42.5 18.3179 44.1821 20 46.25 20C46.8041 20 47.326 19.8717 47.7998 19.6551C50.2244 22.5104 50.1845 25.304 50.0611 30.061C50.0413 30.8237 50.0243 31.6469 50.0127 32.5H47.5001V30.2625C47.5001 27.4378 45.9424 24.8768 43.4375 23.5779C40.2906 21.9458 35.4053 20 30 20C24.5947 20 19.7094 21.9458 16.5624 23.5779C14.0576 24.8766 12.4999 27.4378 12.4999 30.2625V32.5H10.0947C10.0831 31.6469 10.0663 30.8237 10.0463 30.061C9.92295 25.3041 9.88287 22.5104 12.3076 19.6551C12.7814 19.8717 13.3033 20 13.8574 20C15.9253 20 17.6074 18.3179 17.6074 16.25C17.6074 14.1821 15.9253 12.5 13.8574 12.5C11.7895 12.5 10.1074 14.1821 10.1074 16.25C10.1074 16.8513 10.2629 17.4119 10.5154 17.9161C7.36849 21.5214 7.41654 25.0163 7.54638 30.1257C7.56596 30.8688 7.58283 31.6699 7.59443 32.4999H7.49998C4.74361 32.4999 2.49994 34.7423 2.49994 37.5V42.5C2.49994 45.2575 4.74361 47.5 7.49998 47.5H7.72533L10.0244 58.9954C10.1441 59.5898 10.664 60 11.2475 60C11.3305 60 11.4136 59.9926 11.4941 59.9756C12.1728 59.8401 12.6123 59.1821 12.4755 58.5046L10.2746 47.5H49.7253L47.5244 58.5046C47.3877 59.1821 47.8271 59.8401 48.5059 59.9756C48.5865 59.9927 48.6695 60 48.7524 60C49.3359 60 49.856 59.5898 49.9756 58.9953L52.2746 47.4999H52.5C55.2563 47.4999 57.5 45.2575 57.5 42.4999V37.5C57.5 34.7469 55.2634 32.5087 52.513 32.5013ZM46.25 17.4999C45.5615 17.4999 45 16.9396 45 16.2499C45 15.5602 45.5615 14.9998 46.25 14.9998C46.9385 14.9998 47.5001 15.5601 47.5001 16.2499C47.4999 16.9396 46.9385 17.4999 46.25 17.4999ZM13.8574 15C14.5459 15 15.1074 15.5602 15.1074 16.25C15.1074 16.9396 14.5459 17.5 13.8574 17.5C13.1689 17.5 12.6074 16.9398 12.6074 16.25C12.6074 15.5602 13.1689 15 13.8574 15ZM15 30.2625C15 28.3753 16.04 26.665 17.7149 25.7971C20.6128 24.2932 25.1001 22.5 30 22.5C34.8998 22.5 39.3872 24.2932 42.2851 25.797C43.9599 26.6649 45 28.3752 45 30.2623V32.4999H15V30.2625ZM54.9999 42.5C54.9999 43.8781 53.8793 45 52.5 45H7.49998C6.12056 45 5.00002 43.8781 5.00002 42.5V37.5C5.00002 36.1218 6.12068 35 7.49998 35H52.5C53.8794 35 54.9999 36.1218 54.9999 37.5V42.5Z" fill="white"/>
</svg>
