<svg width="60" height="60" viewBox="0 0 60 60" fill="none" xmlns="http://www.w3.org/2000/svg">
<g clip-path="url(#clip0)">
<path d="M30.0001 13.6364C33.7594 13.6364 36.8182 10.5776 36.8182 6.81827C36.8182 3.05898 33.7594 0 30.0001 0C26.2408 0 23.1819 3.05885 23.1819 6.81814C23.1819 10.5774 26.2406 13.6364 30.0001 13.6364ZM30.0001 2.72723C32.2559 2.72723 34.091 4.56226 34.091 6.81814C34.091 9.07403 32.2559 10.9091 30.0001 10.9091C27.7442 10.9091 25.9092 9.07403 25.9092 6.81814C25.9092 4.56226 27.7442 2.72723 30.0001 2.72723Z" fill="white"/>
<path d="M20.649 27.2727H39.3511C40.9624 27.2727 42.2728 25.8584 42.2728 24.1193V23.2457C42.2728 20.9672 41.1449 18.8859 39.3271 17.8138C37.1498 16.53 33.7647 15 30.0001 15C26.2354 15 22.8503 16.5301 20.673 17.8138C18.8553 18.8857 17.7273 20.9672 17.7273 23.2457V24.1193C17.7273 25.8586 19.0377 27.2727 20.649 27.2727ZM20.4546 23.2457C20.4546 21.9474 21.0844 20.7381 22.0579 20.1629C23.9423 19.0522 26.8507 17.7272 30.0001 17.7272C33.1494 17.7272 36.0578 19.0523 37.9422 20.1629C38.9157 20.7381 39.5456 21.9473 39.5456 23.2457V24.1193C39.5456 24.403 39.3845 24.5454 39.3511 24.5454H20.649C20.6158 24.5454 20.4546 24.4028 20.4546 24.1193V23.2457Z" fill="white"/>
<path d="M12.2727 46.3637C16.032 46.3637 19.0909 43.3049 19.0909 39.5456C19.0909 35.7863 16.032 32.7273 12.2727 32.7273C8.51345 32.7273 5.4546 35.7861 5.4546 39.5454C5.4546 43.3047 8.51345 46.3637 12.2727 46.3637ZM12.2727 35.4545C14.5286 35.4545 16.3636 37.2896 16.3636 39.5454C16.3636 41.8013 14.5286 43.6364 12.2727 43.6364C10.0169 43.6364 8.18183 41.8013 8.18183 39.5454C8.18183 37.2896 10.0169 35.4545 12.2727 35.4545Z" fill="white"/>
<path d="M21.5998 50.5413C19.4225 49.2575 16.0374 47.7275 12.2727 47.7275C8.50807 47.7275 5.12297 49.2577 2.94571 50.5413C1.12794 51.6133 0 53.6946 0 55.9732V56.8467C0 58.5858 1.31037 60.0001 2.92168 60.0001H21.6238C23.2351 60.0001 24.5455 58.5858 24.5455 56.8467V55.9732C24.5455 53.6946 23.4175 51.6133 21.5998 50.5413ZM21.8182 56.8468C21.8182 57.1305 21.6572 57.2729 21.6238 57.2729H2.92168C2.88844 57.2729 2.72723 57.1304 2.72723 56.8468V55.9733C2.72723 54.6749 3.35711 53.4657 4.33061 52.8904C6.21499 51.7797 9.12337 50.4548 12.2727 50.4548C15.4221 50.4548 18.3305 51.7798 20.2149 52.8904C21.1884 53.4657 21.8182 54.6748 21.8182 55.9733V56.8468Z" fill="white"/>
<path d="M47.7273 46.3637C51.4866 46.3637 54.5454 43.3049 54.5454 39.5456C54.5454 35.7863 51.4867 32.7273 47.7273 32.7273C43.9678 32.7273 40.9091 35.7861 40.9091 39.5454C40.9091 43.3047 43.968 46.3637 47.7273 46.3637ZM47.7273 35.4545C49.9831 35.4545 51.8182 37.2896 51.8182 39.5454C51.8182 41.8013 49.9831 43.6364 47.7273 43.6364C45.4714 43.6364 43.6364 41.8013 43.6364 39.5454C43.6364 37.2896 45.4715 35.4545 47.7273 35.4545Z" fill="white"/>
<path d="M57.0544 50.5413C54.8772 49.2575 51.4921 47.7275 47.7274 47.7275C43.9627 47.7275 40.5776 49.2577 38.4004 50.5413C36.5826 51.6133 35.4547 53.6948 35.4547 55.9733V56.8468C35.4547 58.586 36.765 60.0003 38.3763 60.0003H57.0785C58.6898 60.0003 60.0001 58.586 60.0001 56.8468V55.9733C60 53.6947 58.8721 51.6133 57.0544 50.5413ZM57.2728 56.8468C57.2728 57.1305 57.1117 57.2729 57.0783 57.2729H38.3762C38.343 57.2729 38.1818 57.1304 38.1818 56.8468V55.9733C38.1818 54.6749 38.8116 53.4657 39.7851 52.8904C41.6695 51.7797 44.5779 50.4548 47.7273 50.4548C50.8766 50.4548 53.785 51.7799 55.6694 52.8904C56.6429 53.4657 57.2728 54.6748 57.2728 55.9733V56.8468Z" fill="white"/>
<path d="M36.8169 46.3636C37.2177 46.3636 37.6133 46.1879 37.8836 45.8523C38.3537 45.2637 38.2578 44.406 37.6705 43.9347L31.3637 38.8893V31.3637C31.3637 30.6099 30.7538 30 30.0001 30C29.2463 30 28.6364 30.6098 28.6364 31.3636V38.8902L22.3296 43.9345C21.7423 44.406 21.6464 45.2636 22.1165 45.8522C22.3869 46.1877 22.7823 46.3635 23.1832 46.3635C23.4815 46.3635 23.7825 46.2664 24.0341 46.0653L30.0001 41.2926L35.9659 46.0653C36.2176 46.2664 36.5186 46.3636 36.8169 46.3636Z" fill="white"/>
</g>
<defs>
<clipPath id="clip0">
<rect width="60" height="60" fill="white"/>
</clipPath>
</defs>
</svg>
