<svg width="60" height="60" viewBox="0 0 60 60" fill="none" xmlns="http://www.w3.org/2000/svg">
<g clip-path="url(#clip0)">
<path d="M50.0001 0C44.4862 0 40.0001 4.48605 40.0001 9.99996C40.0001 14.7829 47.0863 24.4631 48.7466 26.6664C48.7462 27.378 48.7466 28.0768 48.7294 28.7182C48.7111 29.4079 49.2556 29.9829 49.9464 30.0012C49.9574 30.0012 49.9684 30.0012 49.9806 30.0012C50.6545 30.0012 51.2111 29.4628 51.2294 28.7842C51.2466 28.1261 51.2461 27.4077 51.2466 26.6757C52.8959 24.4876 60 14.7885 60 9.99996C60 4.48605 55.514 0 50.0001 0ZM50.0001 24.1577C47.2523 20.3773 42.5001 13.1824 42.5001 9.99996C42.5001 5.86418 45.8643 2.49996 50.0001 2.49996C54.1359 2.49996 57.5001 5.86418 57.5001 9.99996C57.5001 13.1824 52.7479 20.3771 50.0001 24.1577Z" fill="white"/>
<path d="M50.0001 7.5C48.622 7.5 47.5001 8.62184 47.5001 9.99996C47.5001 11.3781 48.622 12.4999 50.0001 12.4999C51.3782 12.4999 52.5 11.3782 52.5 9.99996C52.5 8.62184 51.3782 7.5 50.0001 7.5Z" fill="white"/>
<path d="M15 27.5C10.8642 27.5 7.5 30.8642 7.5 35C7.5 39.1358 10.8642 42.5 15 42.5C19.1358 42.5 22.5 39.1358 22.5 35C22.5 30.8642 19.1358 27.5 15 27.5ZM15 39.9999C12.2425 39.9999 9.99996 37.7575 9.99996 34.9999C9.99996 32.2422 12.2425 30 15 30C17.7575 30 20 32.2423 20 35C20 37.7576 17.7575 39.9999 15 39.9999Z" fill="white"/>
<path d="M33.9343 45.0513C33.2873 44.7998 32.5671 45.1209 32.3169 45.7654C31.7566 47.2131 31.0559 48.9013 30.111 50.448C29.7509 51.0375 29.9377 51.8066 30.5261 52.1668C30.73 52.2913 30.9546 52.3499 31.1767 52.3499C31.5979 52.3499 32.0092 52.1375 32.2449 51.7518C33.2923 50.0355 34.0478 48.2191 34.6484 46.6688C34.8974 46.0253 34.5776 45.3015 33.9343 45.0513Z" fill="white"/>
<path d="M26.886 54.1735C25.6335 55.166 24.2102 55.9131 22.5329 56.4587C21.8762 56.6723 21.5173 57.3779 21.7309 58.0346C21.903 58.562 22.3925 58.8977 22.9199 58.8977C23.0481 58.8977 23.1786 58.8782 23.3068 58.8367C25.244 58.2068 26.9701 57.2974 28.4387 56.134C28.9795 55.7042 29.071 54.9181 28.6426 54.3773C28.2104 53.8379 27.4255 53.7415 26.886 54.1735Z" fill="white"/>
<path d="M38.2617 36.0265C36.1988 37.1973 35.0526 39.2296 34.3689 40.6555C34.0698 41.2781 34.3322 42.0251 34.9548 42.3229C35.1294 42.4072 35.3138 42.4462 35.4943 42.4462C35.9606 42.4462 36.4075 42.185 36.6223 41.737C37.4902 39.9267 38.3765 38.8366 39.497 38.1993C40.0964 37.8588 40.3076 37.0958 39.9658 36.4952C39.6265 35.8947 38.8659 35.6835 38.2617 36.0265Z" fill="white"/>
<path d="M49.5361 32.9322C48.9684 32.5477 48.1884 32.6953 47.8002 33.2666C47.3888 33.8746 46.5465 34.7107 43.9989 34.939C43.3115 35.0012 42.8038 35.6079 42.866 36.2964C42.9246 36.9458 43.4702 37.434 44.1099 37.434C44.1478 37.434 44.1856 37.4329 44.2235 37.4291C46.9298 37.1862 48.7767 36.2829 49.8705 34.6678C50.2576 34.0967 50.1074 33.3191 49.5361 32.9322Z" fill="white"/>
<path d="M17.9619 57.5162C21.9061 53.3101 30 43.6337 30 35C30 26.5893 23.4107 20 15 20C6.58934 20 0 26.5893 0 35C0 46.1633 13.5645 59.1125 14.1418 59.6582C14.3823 59.8865 14.6912 60.0001 15 60.0001C15.9107 60.0001 16.7761 59.9683 17.5964 59.9061C18.2849 59.8536 18.8012 59.2542 18.7487 58.5657C18.7112 58.0729 18.3923 57.6887 17.9619 57.5162ZM15 56.9873C12.0471 53.9746 2.49996 43.5693 2.49996 35C2.49996 27.9907 7.99078 22.5 15 22.5C22.0092 22.5 27.5 27.9907 27.5 35C27.5 43.5693 17.9529 53.9745 15 56.9873Z" fill="white"/>
</g>
<defs>
<clipPath id="clip0">
<rect width="60" height="60" fill="white"/>
</clipPath>
</defs>
</svg>
