<svg width="17" height="17" viewBox="0 0 17 17" version="1.1" xmlns="http://www.w3.org/2000/svg" xmlns:xlink="http://www.w3.org/1999/xlink">
<title>Group 4</title>
<desc>Created using Figma</desc>
<g id="Canvas" transform="translate(2361 -837)">
<g id="Group 4">
<g id="Vector">
<use xlink:href="#path0_fill" transform="translate(-2361 837)" fill="#61BDFC"/>
</g>
<g id="Vector">
<use xlink:href="#path1_fill" transform="translate(-2358.64 841.722)" fill="#61BDFC"/>
</g>
</g>
</g>
<defs>
<path id="path0_fill" d="M 14.6389 0.944444L 14.6389 0.472222C 14.6389 0.211367 14.4275 0 14.1667 0L 12.2778 0C 12.0169 0 11.8056 0.211367 11.8056 0.472222L 11.8056 0.944444L 5.19444 0.944444L 5.19444 0.472222C 5.19444 0.211367 4.98308 0 4.72222 0L 2.83333 0C 2.57248 0 2.36111 0.211367 2.36111 0.472222L 2.36111 0.944444C 1.0591 0.944444 0 2.00354 0 3.30556L 0 14.6389C 0 15.9409 1.0591 17 2.36111 17L 14.6389 17C 15.9409 17 17 15.9409 17 14.6389L 17 3.30556C 17 2.00354 15.9409 0.944444 14.6389 0.944444ZM 13.6944 0.944444L 13.6944 2.83333L 12.75 2.83333L 12.75 0.944444L 13.6944 0.944444ZM 4.25 0.944444L 4.25 2.83333L 3.30556 2.83333L 3.30556 0.944444L 4.25 0.944444ZM 16.0556 14.6389C 16.0556 15.4201 15.4201 16.0556 14.6389 16.0556L 2.36111 16.0556C 1.57987 16.0556 0.944444 15.4201 0.944444 14.6389L 0.944444 3.30556C 0.944444 2.52431 1.57987 1.88889 2.36111 1.88889L 2.36111 3.30556C 2.36111 3.56641 2.57248 3.77778 2.83333 3.77778L 4.72222 3.77778C 4.98308 3.77778 5.19444 3.56641 5.19444 3.30556L 5.19444 1.88889L 11.8056 1.88889L 11.8056 3.30556C 11.8056 3.56641 12.0169 3.77778 12.2778 3.77778L 14.1667 3.77778C 14.4275 3.77778 14.6389 3.56641 14.6389 3.30556L 14.6389 1.88889C 15.4201 1.88889 16.0556 2.52431 16.0556 3.30556L 16.0556 14.6389Z"/>
<path id="path1_fill" d="M 11.8056 0L 3.30556 0C 3.0447 0 2.83333 0.211367 2.83333 0.472222L 2.83333 2.36111L 0.472222 2.36111C 0.211367 2.36111 0 2.57248 0 2.83333L 0 9.91667C 0 10.1775 0.211367 10.3889 0.472222 10.3889L 8.97222 10.3889C 9.23308 10.3889 9.44444 10.1775 9.44444 9.91667L 9.44444 8.02778L 11.8056 8.02778C 12.0664 8.02778 12.2778 7.81641 12.2778 7.55556L 12.2778 0.472222C 12.2778 0.211367 12.0664 0 11.8056 0ZM 6.61111 7.08333L 6.61111 5.66667L 8.5 5.66667L 8.5 7.08333L 6.61111 7.08333ZM 0.944444 5.66667L 2.83333 5.66667L 2.83333 7.08333L 0.944444 7.08333L 0.944444 5.66667ZM 5.66667 3.30556L 5.66667 4.72222L 3.77778 4.72222L 3.77778 3.30556L 5.66667 3.30556ZM 8.5 4.72222L 6.61111 4.72222L 6.61111 3.30556L 8.5 3.30556L 8.5 4.72222ZM 3.77778 5.66667L 5.66667 5.66667L 5.66667 7.08333L 3.77778 7.08333L 3.77778 5.66667ZM 9.44444 3.30556L 11.3333 3.30556L 11.3333 4.72222L 9.44444 4.72222L 9.44444 3.30556ZM 11.3333 2.36111L 9.44444 2.36111L 9.44444 0.944444L 11.3333 0.944444L 11.3333 2.36111ZM 8.5 2.36111L 6.61111 2.36111L 6.61111 0.944444L 8.5 0.944444L 8.5 2.36111ZM 3.77778 0.944444L 5.66667 0.944444L 5.66667 2.36111L 3.77778 2.36111L 3.77778 0.944444ZM 0.944444 3.30556L 2.83333 3.30556L 2.83333 4.72222L 0.944444 4.72222L 0.944444 3.30556ZM 0.944444 8.02778L 2.83333 8.02778L 2.83333 9.44444L 0.944444 9.44444L 0.944444 8.02778ZM 3.77778 8.02778L 5.66667 8.02778L 5.66667 9.44444L 3.77778 9.44444L 3.77778 8.02778ZM 8.5 9.44444L 6.61111 9.44444L 6.61111 8.02778L 8.5 8.02778L 8.5 9.44444ZM 11.3333 7.08333L 9.44444 7.08333L 9.44444 5.66667L 11.3333 5.66667L 11.3333 7.08333Z"/>
</defs>
</svg>
