<svg width="17" height="12" viewBox="0 0 17 12" version="1.1" xmlns="http://www.w3.org/2000/svg" xmlns:xlink="http://www.w3.org/1999/xlink">
<title>Group 2</title>
<desc>Created using Figma</desc>
<g id="Canvas" transform="translate(2361 -707)">
<g id="Group 2">
<g id="Vector">
<use xlink:href="#path0_fill" transform="translate(-2361 707)" fill="#61BDFC"/>
</g>
<g id="Vector">
<use xlink:href="#path1_fill" transform="translate(-2359 714)" fill="#61BDFC"/>
</g>
<g id="Vector">
<use xlink:href="#path2_fill" transform="translate(-2355.5 714)" fill="#61BDFC"/>
</g>
<g id="Vector">
<use xlink:href="#path1_fill" transform="translate(-2352 714)" fill="#61BDFC"/>
</g>
<g id="Vector">
<use xlink:href="#path1_fill" transform="translate(-2348.5 714)" fill="#61BDFC"/>
</g>
<g id="Vector">
<use xlink:href="#path3_fill" transform="translate(-2359 710)" fill="#61BDFC"/>
</g>
<g id="Vector">
<use xlink:href="#path4_fill" transform="translate(-2359 716)" fill="#61BDFC"/>
</g>
</g>
</g>
<defs>
<path id="path0_fill" d="M 1.5 12L 15.5 12C 16.3272 12 17 11.3272 17 10.5L 17 1.5C 17 0.6728 16.3272 0 15.5 0L 1.5 0C 0.6728 0 0 0.6728 0 1.5L 0 10.5C 0 11.3272 0.6728 12 1.5 12ZM 1 1.5C 1 1.2244 1.2244 1 1.5 1L 15.5 1C 15.7756 1 16 1.2244 16 1.5L 16 10.5C 16 10.7756 15.7756 11 15.5 11L 1.5 11C 1.2244 11 1 10.7756 1 10.5L 1 1.5Z"/>
<path id="path1_fill" d="M 0.5 1L 2 1C 2.2762 1 2.5 0.7762 2.5 0.5C 2.5 0.2238 2.2762 0 2 0L 0.5 0C 0.2238 0 0 0.2238 0 0.5C 0 0.7762 0.2238 1 0.5 1Z"/>
<path id="path2_fill" d="M 0 0.5C 0 0.7762 0.2238 1 0.5 1L 2 1C 2.2762 1 2.5 0.7762 2.5 0.5C 2.5 0.2238 2.2762 0 2 0L 0.5 0C 0.2238 0 0 0.2238 0 0.5Z"/>
<path id="path3_fill" d="M 0.5 3L 3.5 3C 3.7762 3 4 2.7762 4 2.5L 4 0.5C 4 0.2238 3.7762 0 3.5 0L 0.5 0C 0.2238 0 0 0.2238 0 0.5L 0 2.5C 0 2.7762 0.2238 3 0.5 3ZM 1 1L 3 1L 3 2L 1 2L 1 1Z"/>
<path id="path4_fill" d="M 0.5 1L 4 1C 4.2762 1 4.5 0.7762 4.5 0.5C 4.5 0.2238 4.2762 0 4 0L 0.5 0C 0.2238 0 0 0.2238 0 0.5C 0 0.7762 0.2238 1 0.5 1Z"/>
</defs>
</svg>
