<svg width="34" height="24" viewBox="0 0 34 24" version="1.1" xmlns="http://www.w3.org/2000/svg" xmlns:xlink="http://www.w3.org/1999/xlink">
<title>Group 13</title>
<desc>Created using Figma</desc>
<g id="Canvas" transform="translate(1949 -833)">
<g id="Group 13">
<g id="Group 7">
<g id="Vector">
<use xlink:href="#path0_fill" transform="translate(-1948.78 833)" fill="#6C8A9B"/>
</g>
<g id="Vector">
<use xlink:href="#path1_fill" transform="translate(-1944.78 846.64)" fill="#6C8A9B"/>
</g>
<g id="Vector">
<use xlink:href="#path2_fill" transform="translate(-1944.78 849.177)" fill="#6C8A9B"/>
</g>
<g id="Vector">
<use xlink:href="#path3_fill" transform="translate(-1944.78 851.715)" fill="#6C8A9B"/>
</g>
<g id="Rectangle 14">
<use xlink:href="#path4_fill" transform="translate(-1927.34 846.64)" fill="#61BDFC"/>
</g>
</g>
</g>
</g>
<defs>
<path id="path0_fill" d="M 3.15429 24L 29.6914 24C 31.4743 24 32.8457 22.5943 32.8457 20.8457L 32.8457 3.15429C 32.8457 1.37143 31.44 0 29.6914 0L 3.15429 0C 1.37143 0 -3.26974e-08 1.40571 -3.26974e-08 3.15429L -3.26974e-08 20.8457C -3.26974e-08 22.5943 1.40571 24 3.15429 24ZM 29.6914 22.7314L 3.15429 22.7314C 2.09143 22.7314 1.26857 21.9086 1.26857 20.8457L 1.26857 10.7314L 31.5771 10.7314L 31.5771 20.8457C 31.5771 21.9086 30.7543 22.7314 29.6914 22.7314ZM 3.15429 1.26857L 29.6914 1.26857C 30.7543 1.26857 31.5771 2.09143 31.5771 3.15429L 31.5771 5.69143L 1.26857 5.69143L 1.26857 3.15429C 1.26857 2.09143 2.09143 1.26857 3.15429 1.26857Z"/>
<path id="path1_fill" d="M 15.1422 0L 0 0L 0 1.26857L 15.1422 1.26857L 15.1422 0Z"/>
<path id="path2_fill" d="M 11.553 0L 0 0L 0 1.26857L 11.553 1.26857L 11.553 0Z"/>
<path id="path3_fill" d="M 14.0283 0L 0 0L 0 1.26857L 14.0283 1.26857L 14.0283 0Z"/>
<path id="path4_fill" d="M 0 0L 8 0L 8 6.34352L 0 6.34352L 0 0Z"/>
</defs>
</svg>
