<svg width="20" height="20" viewBox="0 0 20 20" version="1.1" xmlns="http://www.w3.org/2000/svg" xmlns:xlink="http://www.w3.org/1999/xlink">
<title>Group</title>
<desc>Created using Figma</desc>
<g id="Canvas" transform="translate(2236 -3083)">
<g id="Group">
<g id="Group">
<g id="Vector">
<use xlink:href="#path0_fill" transform="translate(-2236 3083)" fill="#E84C3D"/>
</g>
<g id="Vector">
<use xlink:href="#path1_fill" transform="translate(-2226.91 3088)" fill="#E84C3D"/>
</g>
<g id="Vector">
<use xlink:href="#path2_fill" transform="translate(-2227.14 3096.02)" fill="#E84C3D"/>
</g>
</g>
</g>
</g>
<defs>
<path id="path0_fill" d="M 10 0C 4.47727 0 0 4.47727 0 10C 0 15.5227 4.47727 20 10 20C 15.5227 20 20 15.5227 20 10C 20 4.47727 15.5227 0 10 0ZM 10 18.1818C 5.47727 18.1818 1.81818 14.5227 1.81818 10C 1.81818 5.47727 5.47727 1.81818 10 1.81818C 14.5227 1.81818 18.1818 5.47727 18.1818 10C 18.1818 14.5227 14.5227 18.1818 10 18.1818Z"/>
<path id="path1_fill" d="M 0.909091 7.04545C 1.40909 7.04545 1.81818 6.63636 1.81818 6.13636L 1.81818 0.909091C 1.81818 0.409091 1.40909 0 0.909091 0C 0.409091 0 0 0.409091 0 0.909091L 0 6.13636C 0 6.63636 0.409091 7.04545 0.909091 7.04545Z"/>
<path id="path2_fill" d="M 1.13636 2.27273C 1.76396 2.27273 2.27273 1.76396 2.27273 1.13636C 2.27273 0.508768 1.76396 0 1.13636 0C 0.508767 0 0 0.508768 0 1.13636C 0 1.76396 0.508767 2.27273 1.13636 2.27273Z"/>
</defs>
</svg>
