<svg width="17" height="17" viewBox="0 0 17 17" version="1.1" xmlns="http://www.w3.org/2000/svg" xmlns:xlink="http://www.w3.org/1999/xlink">
<title>Group 3</title>
<desc>Created using Figma</desc>
<g id="Canvas" transform="translate(2361 -771)">
<g id="Group 3">
<g id="Vector">
<use xlink:href="#path0_fill" transform="translate(-2356.75 771)" fill="#61BDFC"/>
</g>
<g id="Vector">
<use xlink:href="#path1_fill" transform="translate(-2361 780.562)" fill="#61BDFC"/>
</g>
</g>
</g>
<defs>
<path id="path0_fill" d="M 8.5 4.25C 8.5 1.90655 6.59345 0 4.25 0C 1.90655 0 0 1.90655 0 4.25C 0 6.59345 1.90655 8.5 4.25 8.5C 6.59345 8.5 8.5 6.59345 8.5 4.25ZM 1.0625 4.25C 1.0625 2.49241 2.49241 1.0625 4.25 1.0625C 6.00759 1.0625 7.4375 2.49241 7.4375 4.25C 7.4375 6.00759 6.00759 7.4375 4.25 7.4375C 2.49241 7.4375 1.0625 6.00759 1.0625 4.25Z"/>
<path id="path1_fill" d="M 0 5.3125L 0 6.90625C 0 7.19971 0.237787 7.4375 0.53125 7.4375L 16.4688 7.4375C 16.7622 7.4375 17 7.19971 17 6.90625L 17 5.3125C 17 2.33346 13.2664 0 8.5 0C 3.73362 0 0 2.33346 0 5.3125ZM 8.5 1.0625C 12.5316 1.0625 15.9375 3.00879 15.9375 5.3125L 15.9375 6.375L 1.0625 6.375L 1.0625 5.3125C 1.0625 3.00879 4.46845 1.0625 8.5 1.0625Z"/>
</defs>
</svg>
