<svg width="11" height="9" viewBox="0 0 11 9" version="1.1" xmlns="http://www.w3.org/2000/svg" xmlns:xlink="http://www.w3.org/1999/xlink">
<title>Shape</title>
<desc>Created using Figma</desc>
<g id="Canvas" transform="translate(2516 -516)">
<g id="Shape">
<use xlink:href="#path0_fill" transform="translate(-2516 516)" fill="#61BDFC"/>
</g>
</g>
<defs>
<path id="path0_fill" d="M 9.8894 0.240912L 3.83157 7.20208L 1.10555 4.0903C 0.970934 3.93663 0.816123 3.8598 0.64112 3.8598C 0.466116 3.8598 0.311305 3.93663 0.176687 4.0903C 0.149763 4.12103 0.122839 4.16329 0.0959153 4.21708C 0.068992 4.27086 0.0487991 4.3208 0.0353375 4.3669C 0.0218751 4.413 0.011779 4.46295 0.00504786 4.51673C -0.00168262 4.57051 -0.00168262 4.6243 0.00504786 4.67808C 0.011779 4.73187 0.0218751 4.78565 0.0353375 4.83943C 0.0487991 4.89322 0.068992 4.94316 0.0959153 4.98926C 0.122839 5.03536 0.149763 5.08146 0.176687 5.12756L 3.38733 8.7695C 3.50849 8.92317 3.65994 9 3.84167 9C 4.02341 9 4.17485 8.92317 4.29601 8.7695C 4.32293 8.73876 4.34985 8.70803 4.37678 8.6773L 10.8183 1.27817C 10.9394 1.13987 11 0.966994 11 0.759542C 11 0.55209 10.9394 0.379214 10.8183 0.240912C 10.576 -0.0356907 10.3134 -0.0741076 10.0307 0.125661C 9.9769 0.156394 9.92978 0.194812 9.8894 0.240912Z"/>
</defs>
</svg>
