<svg version="1.1" xmlns="http://www.w3.org/2000/svg" width="1024" height="1024" viewBox="0 0 1024 1024">
<path fill="#ffd000" d="M910 448h-114c-12 72-74 112-170 114 0 10-10 10 0 0h-170v114c0 30 24 66 56 114 34-16 54-10 56 0h114l114 114c20-2 26 0 58 0-24-2-20-2 0 0-10-6-6-14 0 0v-114h56c36-10 74-34 114-58-4-38 0-58 0-56v-114c0-40-24-78-56-114-36 4-54 0-58 0zM796 334v-170c0-56-30-108-114-172-6 10-38 0-56 0h-456c-50 0-104 30-114 58-46 58-56 90-56 114v170c0 66 30 118 114 170 6 2 40 12 56 0h58v172c4-12 8-6 0 0 30-2 36-4 56 0l172-172h170c52 12 104-18 114-56 46-48 56-80 56-114z"></path>
</svg>
