<svg width="17" height="20" viewBox="0 0 17 20" version="1.1" xmlns="http://www.w3.org/2000/svg" xmlns:xlink="http://www.w3.org/1999/xlink">
<title>Group 5</title>
<desc>Created using Figma</desc>
<g id="Canvas" transform="translate(2171 -835)">
<g id="Group 5">
<g id="Vector">
<use xlink:href="#path0_fill" transform="translate(-2171 835)" fill="#61BDFC"/>
</g>
<g id="Vector">
<use xlink:href="#path1_fill" transform="translate(-2163.56 847.219)" fill="#61BDFC"/>
</g>
</g>
</g>
<defs>
<path id="path0_fill" d="M 15.4062 8.5L 14.875 8.5L 14.875 6.375C 14.875 2.85983 12.0152 0 8.5 0C 4.98483 0 2.125 2.85983 2.125 6.375L 2.125 8.5L 1.59375 8.5C 0.71485 8.5 0 9.21485 0 10.0938L 0 17.5312C 0 18.4102 0.71485 19.125 1.59375 19.125L 15.4062 19.125C 16.2852 19.125 17 18.4102 17 17.5312L 17 10.0938C 17 9.21485 16.2852 8.5 15.4062 8.5ZM 3.1875 6.375C 3.1875 3.44569 5.57069 1.0625 8.5 1.0625C 11.4293 1.0625 13.8125 3.44569 13.8125 6.375L 13.8125 8.5L 12.75 8.5L 12.75 6.375C 12.75 4.03155 10.8434 2.125 8.5 2.125C 6.15655 2.125 4.25 4.03155 4.25 6.375L 4.25 8.5L 3.1875 8.5L 3.1875 6.375ZM 11.6875 6.375L 11.6875 8.5L 5.3125 8.5L 5.3125 6.375C 5.3125 4.61741 6.74241 3.1875 8.5 3.1875C 10.2576 3.1875 11.6875 4.61741 11.6875 6.375ZM 15.9375 17.5312C 15.9375 17.8241 15.6991 18.0625 15.4062 18.0625L 1.59375 18.0625C 1.30093 18.0625 1.0625 17.8241 1.0625 17.5312L 1.0625 10.0938C 1.0625 9.80093 1.30093 9.5625 1.59375 9.5625L 2.65625 9.5625L 4.78125 9.5625L 12.2188 9.5625L 14.3438 9.5625L 15.4062 9.5625C 15.6991 9.5625 15.9375 9.80093 15.9375 10.0938L 15.9375 17.5312Z"/>
<path id="path1_fill" d="M 1.0625 0C 0.476638 0 0 0.476638 0 1.0625C 0 1.45393 0.215263 1.79286 0.53125 1.9771L 0.53125 3.1875C 0.53125 3.48096 0.769037 3.71875 1.0625 3.71875C 1.35596 3.71875 1.59375 3.48096 1.59375 3.1875L 1.59375 1.9771C 1.90974 1.79286 2.125 1.45393 2.125 1.0625C 2.125 0.476638 1.64836 0 1.0625 0Z"/>
</defs>
</svg>
