<svg width="10" height="8" viewBox="0 0 10 8" version="1.1" xmlns="http://www.w3.org/2000/svg" xmlns:xlink="http://www.w3.org/1999/xlink">
<g id="Canvas" fill="none">
<g id="Shape">
<path d="M 8.99036 0.214144L 3.48325 6.40185L 1.00505 3.63582C 0.882667 3.49923 0.74193 3.43093 0.582836 3.43093C 0.423742 3.43093 0.283004 3.49923 0.160624 3.63582C 0.136148 3.66314 0.111672 3.7007 0.0871957 3.74851C 0.06272 3.79632 0.0443628 3.84071 0.032125 3.88169C 0.0198865 3.92267 0.0107082 3.96706 0.00458897 4.01487C -0.00152966 4.06268 -0.00152966 4.11049 0.00458897 4.1583C 0.0107082 4.2061 0.0198865 4.25391 0.032125 4.30172C 0.0443628 4.34953 0.06272 4.39392 0.0871957 4.4349C 0.111672 4.47588 0.136148 4.51685 0.160624 4.55783L 3.07939 7.79511C 3.18954 7.9317 3.32721 8 3.49243 8C 3.65764 8 3.79532 7.9317 3.90546 7.79511C 3.92994 7.76779 3.95441 7.74047 3.97889 7.71315L 9.83479 1.13615C 9.94493 1.01322 10 0.859551 10 0.675149C 10 0.490747 9.94493 0.337079 9.83479 0.214144C 9.6145 -0.031725 9.37586 -0.0658735 9.11886 0.111699C 9.06991 0.139017 9.02708 0.173166 8.99036 0.214144Z" fill="#61BDFC"/>
</g>
</g>
</svg>

