<svg width="33" height="26" viewBox="0 0 33 26" version="1.1" xmlns="http://www.w3.org/2000/svg" xmlns:xlink="http://www.w3.org/1999/xlink">
<title>Mastercard-logo</title>
<desc>Created using Figma</desc>
<g id="Canvas" transform="translate(1949 -700)">
<g id="Mastercard-logo">
<g id="Group">
<g id="Group">
<g id="Group">
<g id="Vector">
<use xlink:href="#path0_fill" transform="matrix(3.92962 0 0 -3.92962 -1947.35 726)" fill="#231F20"/>
</g>
</g>
<g id="Group">
<g id="Vector">
<use xlink:href="#path1_fill" transform="matrix(3.92962 0 0 -3.92962 -1917.65 716.731)" fill="#F79410"/>
</g>
</g>
<g id="Vector">
<use xlink:href="#path2_fill" transform="matrix(3.1437 0 0 3.1437 -1937.15 702.21)" fill="#FF5F00"/>
</g>
<g id="Group">
<g id="Vector">
<use xlink:href="#path3_fill" transform="matrix(3.92962 0 0 -3.92962 -1949 720.662)" fill="#EB001B"/>
</g>
</g>
<g id="Group">
<g id="Vector">
<use xlink:href="#path4_fill" transform="matrix(3.92962 0 0 -3.92962 -1932.75 720.662)" fill="#F79E1B"/>
</g>
</g>
</g>
</g>
</g>
</g>
<defs>
<path id="path0_fill" d="M 7.68061 0.0897543L 7.68061 0.0725388L 7.69605 0.0725388C 7.69947 0.0725388 7.70239 0.0733745 7.70451 0.0747116C 7.70646 0.0760488 7.7076 0.0783887 7.7076 0.0812301C 7.7076 0.0840715 7.70646 0.0862443 7.70451 0.0875814C 7.70239 0.0890857 7.69947 0.0897543 7.69605 0.0897543L 7.68061 0.0897543ZM 7.69622 0.101788C 7.70418 0.101788 7.71036 0.0999498 7.71475 0.0962727C 7.71914 0.0925956 7.72125 0.0875814 7.72125 0.0812301C 7.72125 0.0758816 7.71962 0.071536 7.71605 0.068026C 7.71263 0.0646832 7.70776 0.0625104 7.70126 0.0616747L 7.72174 0.0374394L 7.70581 0.0374394L 7.68679 0.0615076L 7.68061 0.0615076L 7.68061 0.0374394L 7.66728 0.0374394L 7.66728 0.101788L 7.69622 0.101788ZM 7.69215 0.0152098C 7.69947 0.0152098 7.70629 0.016714 7.71247 0.0195554C 7.71881 0.0223968 7.72434 0.026241 7.72905 0.0310881C 7.73377 0.0359351 7.7375 0.0416179 7.74027 0.0483035C 7.74287 0.054822 7.74433 0.0618419 7.74433 0.0693632C 7.74433 0.0768845 7.74287 0.0839044 7.74027 0.0904228C 7.7375 0.0969413 7.73377 0.102791 7.72905 0.107638C 7.72434 0.112485 7.71881 0.11633 7.71247 0.119171C 7.70629 0.121845 7.69947 0.123182 7.69215 0.123182C 7.68484 0.123182 7.67785 0.121845 7.67151 0.119171C 7.66501 0.11633 7.65932 0.112485 7.6546 0.107638C 7.64989 0.102791 7.64615 0.0969413 7.64355 0.0904228C 7.64079 0.0839044 7.63949 0.0768845 7.63949 0.0693632C 7.63949 0.0618419 7.64079 0.054822 7.64355 0.0483035C 7.64615 0.0416179 7.64989 0.0359351 7.6546 0.0310881C 7.65932 0.026241 7.66501 0.0223968 7.67151 0.0195554C 7.67785 0.016714 7.68484 0.0152098 7.69215 0.0152098ZM 7.69215 0.138726C 7.70174 0.138726 7.71052 0.136888 7.71897 0.133211C 7.72726 0.129701 7.73442 0.124687 7.74076 0.118335C 7.74693 0.112151 7.75181 0.104797 7.75538 0.0962727C 7.75896 0.0879157 7.76075 0.0788902 7.76075 0.0693632C 7.76075 0.0598362 7.75896 0.0508106 7.75538 0.0424536C 7.75181 0.0340966 7.74693 0.0267424 7.74076 0.0203911C 7.73442 0.0142069 7.72726 0.00919271 7.71897 0.00551562C 7.71052 0.00183854 7.70174 -7.96986e-11 7.69215 -7.96986e-11C 7.6824 -7.96986e-11 7.67346 0.00183854 7.66501 0.00551562C 7.65655 0.00919271 7.64924 0.0142069 7.64306 0.0203911C 7.63689 0.0267424 7.63201 0.0340966 7.62843 0.0424536C 7.62486 0.0508106 7.62307 0.0598362 7.62307 0.0693632C 7.62307 0.0788902 7.62486 0.0879157 7.62843 0.0962727C 7.63201 0.104797 7.63689 0.112151 7.64306 0.118335C 7.64924 0.124687 7.65655 0.129701 7.66501 0.133211C 7.67346 0.136888 7.6824 0.138726 7.69215 0.138726ZM 1.35907 0.386595C 1.35907 0.509276 1.43726 0.610062 1.56502 0.610062C 1.6871 0.610062 1.76951 0.513622 1.76951 0.386595C 1.76951 0.259569 1.6871 0.163129 1.56502 0.163129C 1.43726 0.163129 1.35907 0.263914 1.35907 0.386595ZM 1.90865 0.386595L 1.90865 0.735584L 1.76106 0.735584L 1.76106 0.650844C 1.71424 0.713688 1.64321 0.753134 1.54666 0.753134C 1.35631 0.753134 1.20709 0.599699 1.20709 0.386595C 1.20709 0.173324 1.35631 0.0200568 1.54666 0.0200568C 1.64321 0.0200568 1.71424 0.0595019 1.76106 0.122347L 1.76106 0.0376065L 1.90865 0.0376065L 1.90865 0.386595ZM 6.89631 0.386595C 6.89631 0.509276 6.9745 0.610062 7.10226 0.610062C 7.2245 0.610062 7.30675 0.513622 7.30675 0.386595C 7.30675 0.259569 7.2245 0.163129 7.10226 0.163129C 6.9745 0.163129 6.89631 0.263914 6.89631 0.386595ZM 7.44605 0.386595L 7.44605 1.01588L 7.2983 1.01588L 7.2983 0.650844C 7.25148 0.713688 7.18045 0.753134 7.08389 0.753134C 6.89355 0.753134 6.74433 0.599699 6.74433 0.386595C 6.74433 0.173324 6.89355 0.0200568 7.08389 0.0200568C 7.18045 0.0200568 7.25148 0.0595019 7.2983 0.122347L 7.2983 0.0376065L 7.44605 0.0376065L 7.44605 0.386595ZM 3.74074 0.617249C 3.83584 0.617249 3.89695 0.555908 3.91256 0.447936L 3.56032 0.447936C 3.57608 0.548721 3.63558 0.617249 3.74074 0.617249ZM 3.74367 0.753134C 3.54471 0.753134 3.40557 0.604212 3.40557 0.386595C 3.40557 0.164633 3.5504 0.0200568 3.75359 0.0200568C 3.85583 0.0200568 3.94946 0.0462978 4.03187 0.117834L 3.95954 0.230319C 3.90264 0.183687 3.83015 0.157279 3.76204 0.157279C 3.66695 0.157279 3.58031 0.202574 3.55901 0.328263L 4.06308 0.328263C 4.06454 0.34715 4.06601 0.366204 4.06601 0.386595C 4.06454 0.604212 3.93385 0.753134 3.74367 0.753134ZM 5.52586 0.386595C 5.52586 0.509276 5.60405 0.610062 5.73181 0.610062C 5.85388 0.610062 5.9363 0.513622 5.9363 0.386595C 5.9363 0.259569 5.85388 0.163129 5.73181 0.163129C 5.60405 0.163129 5.52586 0.263914 5.52586 0.386595ZM 6.07544 0.386595L 6.07544 0.735584L 5.92784 0.735584L 5.92784 0.650844C 5.88087 0.713688 5.81 0.753134 5.71344 0.753134C 5.5231 0.753134 5.37388 0.599699 5.37388 0.386595C 5.37388 0.173324 5.5231 0.0200568 5.71344 0.0200568C 5.81 0.0200568 5.88087 0.0595019 5.92784 0.122347L 5.92784 0.0376065L 6.07544 0.0376065L 6.07544 0.386595ZM 4.69231 0.386595C 4.69231 0.174829 4.83568 0.0200568 5.05447 0.0200568C 5.15671 0.0200568 5.22482 0.0434564 5.29862 0.103293L 5.22774 0.225973C 5.17232 0.185024 5.11412 0.163129 5.05008 0.163129C 4.93223 0.164633 4.84559 0.252214 4.84559 0.386595C 4.84559 0.520976 4.93223 0.608557 5.05008 0.610062C 5.11412 0.610062 5.17232 0.588166 5.22774 0.547217L 5.29862 0.669898C 5.22482 0.729734 5.15671 0.753134 5.05447 0.753134C 4.83568 0.753134 4.69231 0.598362 4.69231 0.386595ZM 6.59527 0.753134C 6.5101 0.753134 6.45467 0.712184 6.4163 0.650844L 6.4163 0.735584L 6.27001 0.735584L 6.27001 0.0376065L 6.41777 0.0376065L 6.41777 0.428882C 6.41777 0.544375 6.46604 0.608557 6.5626 0.608557C 6.59251 0.608557 6.62372 0.604212 6.65493 0.591008L 6.70044 0.73408C 6.66777 0.747284 6.62518 0.753134 6.59527 0.753134ZM 2.63866 0.680093C 2.56763 0.72823 2.46977 0.753134 2.36184 0.753134C 2.18986 0.753134 2.07917 0.668393 2.07917 0.529667C 2.07917 0.415845 2.16158 0.345646 2.3134 0.32375L 2.38313 0.313555C 2.46408 0.301855 2.50228 0.27996 2.50228 0.240515C 2.50228 0.186528 2.44832 0.155775 2.34754 0.155775C 2.24529 0.155775 2.17149 0.18937 2.12175 0.228815L 2.05218 0.110647C 2.13313 0.0493063 2.23538 0.0200568 2.34607 0.0200568C 2.54211 0.0200568 2.65573 0.114992 2.65573 0.247869C 2.65573 0.37055 2.56633 0.434732 2.41857 0.456627L 2.349 0.46699C 2.28512 0.475681 2.23391 0.488718 2.23391 0.535517C 2.23391 0.586662 2.28219 0.617249 2.36314 0.617249C 2.44978 0.617249 2.53365 0.583653 2.57478 0.557412L 2.63866 0.680093ZM 4.54309 0.753134C 4.45791 0.753134 4.40248 0.712184 4.36428 0.650844L 4.36428 0.735584L 4.21799 0.735584L 4.21799 0.0376065L 4.36558 0.0376065L 4.36558 0.428882C 4.36558 0.544375 4.41386 0.608557 4.51042 0.608557C 4.54032 0.608557 4.57153 0.604212 4.60274 0.591008L 4.64826 0.73408C 4.61558 0.747284 4.573 0.753134 4.54309 0.753134ZM 3.28349 0.735584L 3.04211 0.735584L 3.04211 0.94735L 2.89289 0.94735L 2.89289 0.735584L 2.75521 0.735584L 2.75521 0.596857L 2.89289 0.596857L 2.89289 0.278455C 2.89289 0.116497 2.95401 0.0200568 3.12858 0.0200568C 3.19263 0.0200568 3.26643 0.0404479 3.31324 0.0740431L 3.27065 0.204078C 3.2266 0.177837 3.17832 0.164633 3.13996 0.164633C 3.06617 0.164633 3.04211 0.211432 3.04211 0.281464L 3.04211 0.596857L 3.28349 0.596857L 3.28349 0.735584ZM 1.07656 0.0376065L 1.07656 0.475681C 1.07656 0.640648 0.97432 0.751629 0.809495 0.753134C 0.722856 0.754638 0.633455 0.726893 0.570873 0.628948C 0.524059 0.706334 0.450261 0.753134 0.346555 0.753134C 0.274058 0.753134 0.203187 0.731238 0.147757 0.649507L 0.147757 0.735584L 8.92909e-08 0.735584L 8.92909e-08 0.0376065L 0.149058 0.0376065L 0.149058 0.424536C 0.149058 0.545713 0.214402 0.610062 0.315345 0.610062C 0.413362 0.610062 0.46294 0.544375 0.46294 0.42604L 0.46294 0.0376065L 0.61216 0.0376065L 0.61216 0.424536C 0.61216 0.545713 0.680268 0.610062 0.778285 0.610062C 0.879066 0.610062 0.927343 0.544375 0.927343 0.42604L 0.927343 0.0376065L 1.07656 0.0376065Z"/>
<path id="path1_fill" d="M 0.215378 0L 0.215378 0.101956L 0.189532 0.101956L 0.159623 0.0319238L 0.129877 0.101956L 0.103869 0.101956L 0.103869 0L 0.122237 0L 0.122237 0.0768845L 0.150195 0.0105298L 0.169214 0.0105298L 0.197172 0.0770516L 0.197172 0L 0.215378 0ZM 0.0513656 0L 0.0513656 0.0845729L 0.0845256 0.0845729L 0.0845256 0.101788L -7.75095e-09 0.101788L -7.75095e-09 0.0845729L 0.03316 0.0845729L 0.03316 0L 0.0513656 0Z"/>
<path id="path2_fill" d="M 2.79617 5.16714L -8.25445e-06 5.16714L -8.25445e-06 1.63223e-06L 2.79617 1.63223e-06L 2.79617 5.16714Z"/>
<path id="path3_fill" d="M 3.15996 2.62895C 3.15996 3.46749 3.54178 4.21444 4.13639 4.6958C 3.70157 5.0478 3.1528 5.2579 2.55641 5.2579C 1.14451 5.2579 -8.68106e-08 4.08089 -8.68106e-08 2.62895C -8.68106e-08 1.177 1.14451 -1.53021e-08 2.55641 -1.53021e-08C 3.1528 -1.53021e-08 3.70157 0.210095 4.13639 0.562092C 3.54178 1.04346 3.15996 1.79041 3.15996 2.62895Z"/>
<path id="path4_fill" d="M 4.13655 2.62895C 4.13655 1.177 2.99204 -1.53021e-08 1.58014 -1.53021e-08C 0.983748 -1.53021e-08 0.434982 0.210095 7.44091e-09 0.562092C 0.594768 1.04346 0.976596 1.79041 0.976596 2.62895C 0.976596 3.46749 0.594768 4.21444 7.44091e-09 4.6958C 0.434982 5.0478 0.983748 5.2579 1.58014 5.2579C 2.99204 5.2579 4.13655 4.08089 4.13655 2.62895Z"/>
</defs>
</svg>
