<svg width="27" height="27" viewBox="0 0 27 27" fill="none" xmlns="http://www.w3.org/2000/svg">
<path fill-rule="evenodd" clip-rule="evenodd" d="M26.0264 21.3976C26.0264 22.2961 25.298 23.0244 24.3996 23.0244H16.2664C16.2664 24.8212 14.81 26.278 13.0132 26.278C11.2164 26.278 9.76 24.8212 9.76 23.0244H1.62668C0.728251 23.0244 0 22.2961 0 21.3976C0 21.1362 0.0622007 20.8891 0.171788 20.6701L3.25332 14.5067V10.0105C3.25332 4.61993 7.62297 0.25 13.0132 0.25C18.4034 0.25 22.7731 4.61993 22.7731 10.0105V14.5067L25.8546 20.6701C25.9643 20.8891 26.0264 21.1362 26.0264 21.3976ZM19.5197 10.0105C19.5197 6.41674 16.6067 3.50348 13.0132 3.50348C9.41968 3.50348 6.50668 6.41674 6.50668 10.0105V14.8908C6.50668 15.1524 6.44459 15.3992 6.33489 15.6182L4.25856 19.7709H21.7677L19.6915 15.6182C19.5819 15.3992 19.5197 15.1524 19.5197 14.8908V10.0105Z" fill="#96ADFF"/>
<path fill-rule="evenodd" clip-rule="evenodd" d="M21.3397 0.949992C23.2726 0.949992 24.8397 2.51698 24.8397 4.44999C24.8397 6.383 23.2726 7.94999 21.3397 7.94999C19.4067 7.94999 17.8397 6.383 17.8397 4.44999C17.8397 2.51698 19.4067 0.949992 21.3397 0.949992Z" fill="#81FEC6"/>
</svg>
