<svg width="19" height="19" viewBox="0 0 19 19" fill="none" xmlns="http://www.w3.org/2000/svg">
<path fill-rule="evenodd" clip-rule="evenodd" d="M17.7387 0.511841H1.98376C1.36224 0.511841 0.858337 1.0157 0.858337 1.63727C0.858337 2.25882 1.36224 2.76268 1.98376 2.76268H17.7387C18.3602 2.76268 18.8641 2.25882 18.8641 1.63727C18.8641 1.0157 18.3602 0.511841 17.7387 0.511841ZM16.8634 5.01355H2.85899C1.75409 5.01355 0.858337 5.90928 0.858337 7.01429V16.5178C0.858337 17.6228 1.75409 18.5186 2.85899 18.5186H16.8634C17.9684 18.5186 18.8641 17.6228 18.8641 16.5178V7.01429C18.8641 5.90928 17.9684 5.01355 16.8634 5.01355ZM2.85899 7.01429H16.8634V16.5178H2.85899V7.01429ZM7.36042 9.01504H5.35978C5.08359 9.01504 4.85962 9.23895 4.85962 9.51518V11.5159C4.85962 11.7922 5.08359 12.0161 5.35978 12.0161H7.36042C7.63667 12.0161 7.86056 11.7922 7.86056 11.5159V9.51518C7.86056 9.23895 7.63667 9.01504 7.36042 9.01504Z" fill="#222222"/>
</svg>
