<svg width="43" height="12" viewBox="0 0 43 12" version="1.1" xmlns="http://www.w3.org/2000/svg" xmlns:xlink="http://www.w3.org/1999/xlink">
<title>Mir-logo</title>
<desc>Created using Figma</desc>
<g id="Canvas" transform="translate(2055 -707)">
<g id="Mir-logo">
<g id="Page 1">
<g id="Artboard">
<g id="Group">
<g id="Combined Shape">
<use xlink:href="#path0_fill" transform="translate(-2024.16 712.421)" fill="#37A72E"/>
</g>
<g id="Combined Shape">
<use xlink:href="#path1_fill" transform="translate(-2024.65 707)" fill="url(#paint1_linear)"/>
</g>
<g id="Combined Shape">
<use xlink:href="#path2_fill" transform="translate(-2037.98 707)" fill="#37A72E"/>
</g>
<g id="Combined Shape">
<use xlink:href="#path3_fill" transform="translate(-2055 707)" fill="#37A72E"/>
</g>
</g>
</g>
</g>
</g>
</g>
<defs>
<linearGradient id="paint1_linear" x1="0" y1="0" x2="1" y2="0" gradientUnits="userSpaceOnUse" gradientTransform="matrix(12.397 0 0 4.81218 3.79549e-16 0)">
<stop offset="0" stop-color="#00A0E5"/>
<stop offset="1" stop-color="#0077C3"/>
</linearGradient>
<path id="path0_fill" fill-rule="evenodd" d="M 0 0L 0 6.57868L 3.6866 6.57868L 3.6866 2.6802L 7.86474 2.6802C 9.62323 2.66726 11.117 1.55365 11.6803 0L 0 0Z"/>
<path id="path1_fill" fill-rule="evenodd" d="M 0 0C 0.214739 2.689 2.7808 4.81218 5.91474 4.81218C 5.92498 4.81218 12.325 4.81218 12.325 4.81218C 12.3723 4.56557 12.397 4.31103 12.397 4.05076C 12.397 1.82326 10.5842 0.0164786 8.34175 0.000112077L 0 0Z"/>
<path id="path2_fill" fill-rule="evenodd" d="M 7.87702 4.74819L 7.87991 4.74206L 7.88029 4.74215C 7.91808 4.67492 7.99051 4.62944 8.07365 4.62944C 8.19375 4.62944 8.2915 4.72434 8.29476 4.84262L 8.29485 4.84264L 8.29485 11.9391L 11.9814 11.9391L 11.9814 0L 8.29485 0C 7.82734 0.0154265 7.29915 0.355528 7.10278 0.773011L 4.16896 7.01039C 4.16171 7.03588 4.15038 7.05968 4.13572 7.08105L 4.13474 7.08313L 4.13436 7.08301C 4.08998 7.14635 4.01606 7.18782 3.93237 7.18782C 3.79663 7.18782 3.6866 7.07873 3.6866 6.94416L 3.6866 0L 0 0L 0 11.9391L 3.6866 11.9391L 3.6866 11.9377C 4.14898 11.9138 4.66477 11.5775 4.85829 11.1661L 7.86945 4.76428C 7.87176 4.7588 7.87429 4.75344 7.87702 4.74819Z"/>
<path id="path3_fill" fill-rule="evenodd" d="M 11.1307 4.95228L 8.976 11.9391L 6.32394 11.9391L 4.16798 4.94804C 4.14719 4.83609 4.04824 4.75127 3.9293 4.75127C 3.79526 4.75127 3.6866 4.85899 3.6866 4.99188C 3.6866 4.99289 3.6866 4.99391 3.68662 4.99492L 3.6866 11.9391L 0 11.9391L 0 0L 3.16433 0L 4.10673 0C 4.78508 0 5.49593 0.521897 5.69416 1.16469L 7.48834 6.98258C 7.57761 7.27205 7.72243 7.27174 7.81161 6.98258L 9.60578 1.16469C 9.80415 0.521448 10.5148 1.73127e-15 11.1932 1.73127e-15L 12.1353 0L 15.2994 0L 15.2994 11.9391L 11.6128 11.9391L 11.6128 4.99492C 11.6128 4.99391 11.6128 4.99289 11.6128 4.99188C 11.6128 4.85899 11.5041 4.75127 11.3701 4.75127C 11.2497 4.75127 11.1497 4.83823 11.1307 4.95228Z"/>
</defs>
</svg>
