<svg width="89" height="89" viewBox="0 0 89 89" version="1.1" xmlns="http://www.w3.org/2000/svg" xmlns:xlink="http://www.w3.org/1999/xlink">
<title>Group 8</title>
<desc>Created using Figma</desc>
<g id="Canvas" transform="translate(2183 -6326)">
<g id="Group 8">
<g id="Vector">
<use xlink:href="#path0_fill" transform="translate(-2183 6326)" fill="#E84C3D"/>
</g>
<g id="Vector">
<use xlink:href="#path1_fill" transform="translate(-2166.47 6368.87)" fill="#E84C3D"/>
</g>
<g id="Vector">
<use xlink:href="#path2_fill" transform="translate(-2154.57 6352.43)" fill="#E84C3D"/>
</g>
<g id="Vector">
<use xlink:href="#path3_fill" transform="translate(-2131.33 6352.43)" fill="#E84C3D"/>
</g>
</g>
</g>
<defs>
<path id="path0_fill" d="M 44.5 89C 19.8888 89 0 69.1112 0 44.5C 0 19.8888 19.8888 0 44.5 0C 69.1112 0 89 19.8888 89 44.5C 89 69.0204 69.0204 89 44.5 89ZM 44.5 6.81122C 23.7031 6.81122 6.81122 23.7031 6.81122 44.5C 6.81122 65.2969 23.7031 82.1888 44.5 82.1888C 65.2969 82.1888 82.1888 65.2969 82.1888 44.5C 82.098 23.7031 65.2969 6.90204 44.5 6.81122Z"/>
<path id="path1_fill" d="M 1.63469 18.4357C 0.726531 18.4357 6.92874e-07 17.7092 6.92874e-07 16.801C 6.92874e-07 16.5286 0.090816 16.2561 0.181632 15.9837C 5.99388 6.17551 16.5286 0.090817 27.9714 6.92874e-07C 39.1418 6.92874e-07 49.5857 5.81224 55.3071 15.348C 55.7612 16.0745 55.4888 17.0735 54.7622 17.5275C 54.0357 17.9816 53.0367 17.7092 52.5826 16.9827C 47.4061 8.3551 38.052 3.08775 27.9714 3.08775C 17.7092 3.08775 8.17347 8.62755 2.99694 17.4367C 2.72449 18.0724 2.27041 18.4357 1.63469 18.4357Z"/>
<path id="path2_fill" d="M 4.45 8.9C 6.90767 8.9 8.9 6.90767 8.9 4.45C 8.9 1.99233 6.90767 0 4.45 0C 1.99233 0 0 1.99233 0 4.45C 0 6.90767 1.99233 8.9 4.45 8.9Z"/>
<path id="path3_fill" d="M 4.45 8.9C 6.90767 8.9 8.9 6.90767 8.9 4.45C 8.9 1.99233 6.90767 0 4.45 0C 1.99233 0 0 1.99233 0 4.45C 0 6.90767 1.99233 8.9 4.45 8.9Z"/>
</defs>
</svg>
