<svg width="89" height="89" viewBox="0 0 89 89" version="1.1" xmlns="http://www.w3.org/2000/svg" xmlns:xlink="http://www.w3.org/1999/xlink">
<title>Group</title>
<desc>Created using Figma</desc>
<g id="Canvas" transform="translate(2183 -5202)">
<g id="Group">
<g id="Vector">
<use xlink:href="#path0_fill" transform="translate(-2183 5202)" fill="#2DCC70"/>
</g>
<g id="Vector">
<use xlink:href="#path1_fill" transform="translate(-2170.47 5244.87)" fill="#2DCC70"/>
</g>
<g id="Vector">
<use xlink:href="#path2_fill" transform="translate(-2154.57 5228.43)" fill="#2DCC70"/>
</g>
<g id="Vector">
<use xlink:href="#path3_fill" transform="translate(-2131.33 5228.43)" fill="#2DCC70"/>
</g>
</g>
</g>
<defs>
<path id="path0_fill" d="M 44.5 89C 19.8888 89 0 69.1112 0 44.5C 0 19.8888 19.8888 0 44.5 0C 69.1112 0 89 19.8888 89 44.5C 89 69.0204 69.0204 89 44.5 89ZM 44.5 6.81122C 23.7031 6.81122 6.81122 23.7031 6.81122 44.5C 6.81122 65.2969 23.7031 82.1888 44.5 82.1888C 65.2969 82.1888 82.1888 65.2969 82.1888 44.5C 82.098 23.7031 65.2969 6.90204 44.5 6.81122Z"/>
<path id="path1_fill" d="M 31.9673 33.602C 14.349 33.602 1.73218e-07 19.2531 1.73218e-07 1.63469C 1.73218e-07 0.726531 0.635714 6.92874e-07 1.54388 6.92874e-07C 2.45204 6.92874e-07 3.17857 0.635716 3.17857 1.54388L 3.17857 1.63469C 3.17857 17.5275 16.0745 30.4235 31.9673 30.4235C 47.8602 30.4235 60.7561 17.5275 60.7561 1.63469C 60.7561 0.726531 61.3918 6.92874e-07 62.3 6.92874e-07C 63.2082 6.92874e-07 63.9347 0.635716 63.9347 1.54388L 63.9347 1.63469C 63.9347 19.2531 49.5857 33.602 31.9673 33.602Z"/>
<path id="path2_fill" d="M 4.45 8.9C 6.90767 8.9 8.9 6.90767 8.9 4.45C 8.9 1.99233 6.90767 0 4.45 0C 1.99233 0 0 1.99233 0 4.45C 0 6.90767 1.99233 8.9 4.45 8.9Z"/>
<path id="path3_fill" d="M 4.45 8.9C 6.90767 8.9 8.9 6.90767 8.9 4.45C 8.9 1.99233 6.90767 0 4.45 0C 1.99233 0 0 1.99233 0 4.45C 0 6.90767 1.99233 8.9 4.45 8.9Z"/>
</defs>
</svg>
