<svg width="55" height="29" viewBox="0 0 55 29" xmlns="http://www.w3.org/2000/svg">
<path d="M54.9808 16.0578L52.9342 6.59595C52.5734 4.80662 50.8499 3.406 49.0071 3.406H43.8838V1.70534C43.8838 0.764953 43.1112 0 42.1618 0H1.72198C0.772523 0 0 0.764953 0 1.70534V23.0288C0 23.9691 0.772523 24.7342 1.72198 24.7342H7.22764C7.63909 27.1519 9.7667 29 12.3233 29C14.1193 29 15.7035 28.0872 16.63 26.7059C17.5566 28.0872 19.1412 29 20.9376 29C23.4936 29 25.6207 27.1519 26.0321 24.7342H40.4887C40.9001 27.1519 43.0277 29 45.5843 29C48.1403 29 50.2675 27.1519 50.6788 24.7342H54.139C54.6145 24.7342 55 24.3524 55 23.8815V16.2364C54.9999 16.1764 54.9934 16.1166 54.9808 16.0578ZM53.074 15.3838H47.448C47.3913 15.3722 47.3325 15.366 47.2722 15.366C46.7879 15.366 46.3938 14.9758 46.3938 14.4961V8.50018H51.585L53.074 15.3838ZM1.72198 1.70545H42.1619V20.0504C41.296 20.8098 40.6888 21.8515 40.4886 23.029H26.0322C25.6211 20.6112 23.4938 18.7631 20.9376 18.7631C19.1413 18.7631 17.5566 19.6758 16.63 21.0569C15.7035 19.6758 14.1193 18.7631 12.3233 18.7631C9.76659 18.7631 7.63876 20.6113 7.22753 23.029H1.72198V1.70545ZM12.3233 27.2948C10.4228 27.2948 8.87654 25.7635 8.87654 23.8813C8.87654 21.9995 10.4228 20.4684 12.3233 20.4684C14.2232 20.4684 15.7689 21.9993 15.7689 23.8813C15.7689 25.7635 14.2232 27.2948 12.3233 27.2948ZM20.9376 27.2948C19.0371 27.2948 17.4908 25.7635 17.4908 23.8813C17.4908 21.9995 19.0371 20.4684 20.9376 20.4684C22.8375 20.4684 24.3833 21.9993 24.3833 23.8813C24.3832 25.7635 22.8375 27.2948 20.9376 27.2948ZM45.5843 27.2948C43.6838 27.2948 42.1376 25.7635 42.1376 23.8813C42.1376 21.9995 43.6838 20.4684 45.5843 20.4684C47.4842 20.4684 49.0299 21.9993 49.0299 23.8813C49.0299 25.7635 47.4842 27.2948 45.5843 27.2948ZM50.6788 23.029C50.2677 20.6112 48.1404 18.7631 45.5842 18.7631C44.9885 18.7631 44.4167 18.8646 43.8838 19.0491V5.11145H49.0071C49.9757 5.11145 50.9504 5.86915 51.2111 6.79483H45.5328C45.0573 6.79483 44.6718 7.17662 44.6718 7.6475V14.4961C44.6718 15.8449 45.7245 16.9548 47.0589 17.0627C47.1271 17.08 47.1986 17.0891 47.2722 17.0891H53.2779V17.933H52.4397C51.9643 17.933 51.5788 18.3147 51.5788 18.7856C51.5788 19.2565 51.9643 19.6383 52.4397 19.6383H53.2779V23.0291L50.6788 23.029Z"/>
<path d="M47.1478 23.8837C47.1478 24.692 46.484 25.3474 45.6652 25.3474C44.8464 25.3474 44.1826 24.692 44.1826 23.8837C44.1826 23.0753 44.8464 22.4199 45.6652 22.4199C46.484 22.4199 47.1478 23.0753 47.1478 23.8837Z"/>
<path d="M22.3764 23.8837C22.3764 24.692 21.7126 25.3474 20.8937 25.3474C20.0749 25.3474 19.4111 24.692 19.4111 23.8837C19.4111 23.0753 20.0749 22.4199 20.8937 22.4199C21.7126 22.4199 22.3764 23.0753 22.3764 23.8837Z"/>
<path d="M13.8392 23.8837C13.8392 24.692 13.1755 25.3474 12.3566 25.3474C11.5378 25.3474 10.874 24.692 10.874 23.8837C10.874 23.0753 11.5378 22.4199 12.3566 22.4199C13.1755 22.4199 13.8392 23.0753 13.8392 23.8837Z"/>
<path d="M3.94727 4.27071C3.94727 3.84438 4.29624 3.49878 4.72673 3.49878H39.1464C39.5769 3.49878 39.9259 3.84438 39.9259 4.27071C39.9259 4.69704 39.5769 5.04264 39.1464 5.04264H4.72673C4.29624 5.04264 3.94727 4.69704 3.94727 4.27071Z"/>
</svg>
