<svg width="44" height="24" viewBox="0 0 44 24" xmlns="http://www.w3.org/2000/svg">
<path fill-rule="evenodd" clip-rule="evenodd" d="M43.9315 8.42546C43.9423 8.32878 43.9358 8.22954 43.9097 8.13309C43.8923 8.06735 43.8655 8.00291 43.8286 7.94139L40.8206 2.89399C39.7889 1.18931 38.8152 0.193853 36.8671 0.0255601C36.8026 0.00892361 36.736 0 36.6664 0H2.35382C1.05629 0 0 1.04568 0 2.33104V15.3514C0 17.4566 1.78221 18.4657 3.14422 18.8261C3.23551 21.319 5.3104 23.3195 7.84969 23.3195C10.1789 23.3195 12.1169 21.6355 12.4921 19.4322H31.4879C31.8624 21.6355 33.8018 23.3195 36.131 23.3195C38.4602 23.3195 40.3989 21.6355 40.7735 19.4322H43.1527C43.5859 19.4322 43.9373 19.0843 43.9373 18.6552V8.51761L43.9365 8.47483L43.9315 8.42546ZM40.8401 10.9187C40.8401 10.4903 41.1922 10.1417 41.6247 10.1417H42.368V11.6714H40.8401V10.9187ZM41.9087 7.77789H35.2254L33.2737 3.90944H39.6035L41.9087 7.77789ZM1.56921 9.33195H2.41105V11.6713H1.56921V9.33195ZM1.56921 3.90944V3.89612V2.35543V2.34211V2.33113C1.56921 1.9027 1.92131 1.55414 2.35382 1.55414H36.2455C37.2924 1.55414 37.9285 1.78248 38.4986 2.35543H32.0051C31.8284 2.35543 31.6596 2.41426 31.5241 2.51825C31.4509 2.57435 31.3872 2.64359 31.3372 2.72381C31.2763 2.82089 31.2394 2.92829 31.2256 3.03811C31.2075 3.18725 31.2329 3.34093 31.3031 3.47967L33.962 8.75083C34.0496 9.08513 34.3561 9.33195 34.7212 9.33195H39.9027C39.5114 9.74839 39.2709 10.3061 39.2709 10.9187V12.4484C39.2709 12.8775 39.6223 13.2255 40.0555 13.2255H42.368V17.8783H40.7735C40.3989 15.6751 38.4602 13.9909 36.131 13.9909C33.8011 13.9909 31.8624 15.6751 31.4879 17.8783H12.4921C12.1176 15.6751 10.1789 13.9909 7.84969 13.9909C5.74074 13.9909 3.95129 15.3704 3.35287 17.2659C2.6197 17.0401 1.56921 16.5142 1.56921 15.3516V13.2255H2.41105C3.27608 13.2255 3.98027 12.5284 3.98027 11.6714V9.33204V7.77789H1.56921V3.90944ZM7.84969 21.7656C6.11747 21.7656 4.70909 20.3702 4.70909 18.655C4.70909 16.9402 6.11747 15.5449 7.84969 15.5449C9.58119 15.5449 10.9896 16.9402 10.9896 18.655C10.9896 20.3702 9.58119 21.7656 7.84969 21.7656ZM36.131 21.7656C34.3995 21.7656 32.9904 20.3702 32.9904 18.655C32.9904 16.9402 34.3995 15.5449 36.131 15.5449C37.8625 15.5449 39.2709 16.9402 39.2709 18.655C39.2709 20.3702 37.8625 21.7656 36.131 21.7656ZM28.2806 3.08044L4.57289 3.09152C4.13965 3.09152 3.78828 3.4394 3.78828 3.86854C3.78828 4.29764 4.13965 4.64552 4.57289 4.64552L28.2806 4.63445C28.7139 4.63445 29.0652 4.28656 29.0652 3.85747C29.0652 3.42833 28.7139 3.08044 28.2806 3.08044ZM36.1303 11.6714H7.15927C6.72603 11.6714 6.37466 12.0193 6.37466 12.4484C6.37466 12.8775 6.72603 13.2254 7.15927 13.2254H36.1303C36.5635 13.2254 36.9149 12.8775 36.9149 12.4484C36.9149 12.3454 36.8946 12.2471 36.8584 12.1572C36.8171 12.0565 36.7548 11.9663 36.6773 11.8918C36.536 11.7554 36.3433 11.6714 36.1303 11.6714ZM36.16 20.0892C36.9794 20.0892 37.643 19.4339 37.643 18.6255C37.643 17.8171 36.9794 17.1618 36.16 17.1618C35.3414 17.1618 34.6777 17.8171 34.6777 18.6255C34.6777 19.4339 35.3414 20.0892 36.16 20.0892ZM9.33994 18.6255C9.33994 19.4339 8.67632 20.0892 7.85694 20.0892C7.03828 20.0892 6.37466 19.4339 6.37466 18.6255C6.37466 17.8171 7.03828 17.1618 7.85694 17.1618C8.67632 17.1618 9.33994 17.8171 9.33994 18.6255Z"/>
</svg>
