<svg width="45" height="25" viewBox="0 0 45 25"  xmlns="http://www.w3.org/2000/svg">
<path fill-rule="evenodd" clip-rule="evenodd" d="M15.3589 0.00130043H2.37048C1.06353 0.00130043 0 1.05438 0 2.34884V10.6201L0.00144895 10.6672L0.00724475 10.7184C0.00362238 10.7656 0 10.8127 0 10.862V16.9087C0 19.0287 1.79453 20.045 3.16596 20.4079C3.25797 22.9185 5.34808 24.9332 7.90548 24.9332C10.2506 24.9332 12.2031 23.2372 12.5805 21.0184H31.711C32.0885 23.2372 34.0409 24.9332 36.3875 24.9332C38.7326 24.9332 40.6851 23.2372 41.0625 21.0184H43.4584C43.8945 21.0184 44.2481 20.668 44.2481 20.2359V14.1737C44.2481 14.1319 44.2444 14.0911 44.2379 14.0511C44.2444 14.0111 44.2481 13.9704 44.2481 13.9287C44.2481 11.7712 42.476 10.0161 40.2975 10.0161H35.2341H33.9605L31.4538 5.85447C30.3099 3.96442 29.2369 2.94008 26.8469 2.94008H23.5483L23.5339 2.91569C22.4356 1.1016 21.4032 0.0800883 19.2087 0.00130043L19.1508 0L19.0233 0.000582949L18.9269 0.00130043H15.3589ZM22.6514 4.50454L23.2788 4.50512H26.8469C27.8756 4.50512 28.511 4.72373 29.0754 5.2713H25.3748C25.1784 5.2713 25.0002 5.35112 24.8727 5.47982C24.7474 5.60573 24.6706 5.77846 24.6706 5.96904V10.0161V10.8464C24.6706 11.0368 24.7437 11.2103 24.864 11.3408C24.9995 11.4885 25.1951 11.5811 25.4124 11.5811H35.2341H40.091C39.6969 12.0006 39.4549 12.5622 39.4549 13.1791L39.4354 14.4166C39.4354 14.8488 39.7896 15.1991 40.2258 15.1991H42.6484L42.668 19.4534H41.0625C40.6851 17.2345 38.7326 15.5384 36.3868 15.5384C34.0409 15.5384 32.0885 17.2345 31.711 19.4534H12.5805C12.2031 17.2345 10.2513 15.5384 7.90548 15.5384C5.78131 15.5384 3.97954 16.9277 3.37678 18.8365C2.63781 18.6092 1.58008 18.0797 1.58008 16.9087V14.7675H2.42772C3.29926 14.7675 4.0078 14.0655 4.0078 13.2026V10.8091H4.01577V10.029C4.01577 9.59548 3.66077 9.2441 3.22319 9.24414H3.21377L1.58008 9.24423V6.84127V6.10164V5.27623L1.58081 2.33252C1.5837 2.2135 1.61341 2.10095 1.66412 2.00059C1.6902 1.9479 1.7228 1.89858 1.75975 1.85347C1.8293 1.7693 1.91624 1.69975 2.01477 1.65015C2.08287 1.61625 2.15604 1.59172 2.23283 1.57827C2.27703 1.57042 2.32339 1.56634 2.37048 1.56634H15.3589H18.9269C19.9557 1.56634 20.591 1.78495 21.1554 2.33252L22.2856 3.89756L22.6514 4.50454ZM26.2267 10.0162H32.1203L30.2056 6.83634H26.2267V10.0162ZM1.58008 13.2026H2.42772V10.8093L1.5837 10.8094C1.58225 10.8216 1.58008 10.8389 1.58008 10.862V13.2026ZM11.0671 20.2356C11.0671 18.5086 9.64856 17.1035 7.90548 17.1035C6.16094 17.1035 4.74242 18.5086 4.74242 20.2356C4.74242 21.963 6.16094 23.3682 7.90548 23.3682C9.64856 23.3682 11.0671 21.963 11.0671 20.2356ZM39.5491 20.2356C39.5491 18.5086 38.1306 17.1035 36.3868 17.1035C34.643 17.1035 33.2237 18.5086 33.2237 20.2356C33.2237 21.963 34.643 23.3682 36.3868 23.3682C38.1306 23.3682 39.5491 21.963 39.5491 20.2356ZM42.6491 13.6341C42.6491 13.0903 42.4774 12.8437 42.1652 12.4814C42.1369 12.4491 42.1014 12.425 42.0623 12.4108C42.0355 12.401 42.0065 12.3959 41.9768 12.3959L41.8254 12.3967C41.39 12.3967 41.0357 12.7478 41.0357 13.1792L41.0162 13.6342L42.6491 13.6341ZM4.7656 4.49974H19.0957C19.5362 4.49974 19.8934 4.14899 19.8934 3.71635C19.8934 3.28371 19.5362 2.93295 19.0957 2.93295H4.7656C4.32584 2.93295 3.96868 3.28371 3.96868 3.71635C3.96868 4.14899 4.32584 4.49974 4.7656 4.49974ZM7.13971 14.8518H36.528C36.9685 14.8518 37.3257 14.501 37.3257 14.0684C37.3257 13.8474 37.2322 13.6477 37.0823 13.5053C36.9388 13.3689 36.7432 13.285 36.528 13.285H7.13971C6.69995 13.285 6.34278 13.6358 6.34278 14.0684C6.34278 14.501 6.69995 14.8518 7.13971 14.8518ZM37.9031 20.1727C37.9031 20.9811 37.2395 21.6364 36.4201 21.6364C35.6014 21.6364 34.9378 20.9811 34.9378 20.1727C34.9378 19.3643 35.6014 18.709 36.4201 18.709C37.2395 18.709 37.9031 19.3643 37.9031 20.1727ZM7.82506 21.6364C8.64444 21.6364 9.30806 20.9811 9.30806 20.1727C9.30806 19.3643 8.64444 18.709 7.82506 18.709C7.0064 18.709 6.34278 19.3643 6.34278 20.1727C6.34278 20.9811 7.0064 21.6364 7.82506 21.6364Z"/>
</svg>
