<svg width="50" height="29" viewBox="0 0 50 29" xmlns="http://www.w3.org/2000/svg">
<path d="M49.0459 16.0578L46.9993 6.59595C46.6385 4.80662 44.915 3.406 43.0722 3.406H37.9489V1.70534C37.9489 0.764953 37.1763 0 36.2269 0H1.72198C0.772523 0 0 0.764953 0 1.70534V23.0288C0 23.9691 0.772523 24.7342 1.72198 24.7342H3.51833C3.92977 27.1519 6.05738 29 8.61398 29C10.41 29 11.9942 28.0872 12.9207 26.7059C13.8473 28.0872 15.4318 29 17.2283 29C19.7842 29 21.9114 27.1519 22.3228 24.7342H34.5538C34.9652 27.1519 37.0928 29 39.6494 29C42.2054 29 44.3326 27.1519 44.7439 24.7342H48.2041C48.6796 24.7342 49.0651 24.3524 49.0651 23.8815V16.2364C49.065 16.1764 49.0585 16.1166 49.0459 16.0578ZM47.1391 15.3838H41.5131C41.4564 15.3722 41.3976 15.366 41.3373 15.366C40.853 15.366 40.4589 14.9758 40.4589 14.4961V8.50018H45.6501L47.1391 15.3838ZM1.72198 1.70545H36.227V20.0504C35.361 20.8098 34.7539 21.8515 34.5537 23.029H22.3229C21.9118 20.6112 19.7845 18.7631 17.2283 18.7631C15.4319 18.7631 13.8473 19.6758 12.9207 21.0569C11.9942 19.6758 10.41 18.7631 8.61398 18.7631C6.05728 18.7631 3.92945 20.6113 3.51822 23.029H1.72198V1.70545ZM8.61398 27.2948C6.71346 27.2948 5.16723 25.7635 5.16723 23.8813C5.16723 21.9995 6.71346 20.4684 8.61398 20.4684C10.5139 20.4684 12.0596 21.9994 12.0596 23.8813C12.0596 25.7635 10.5139 27.2948 8.61398 27.2948ZM17.2283 27.2948C15.3278 27.2948 13.7815 25.7635 13.7815 23.8813C13.7815 21.9995 15.3278 20.4684 17.2283 20.4684C19.1282 20.4684 20.674 21.9994 20.674 23.8813C20.6739 25.7635 19.1282 27.2948 17.2283 27.2948ZM39.6494 27.2948C37.7489 27.2948 36.2027 25.7635 36.2027 23.8813C36.2027 21.9995 37.7489 20.4684 39.6494 20.4684C41.5493 20.4684 43.095 21.9994 43.095 23.8813C43.095 25.7635 41.5493 27.2948 39.6494 27.2948ZM44.7439 23.029C44.3328 20.6112 42.2055 18.7631 39.6493 18.7631C39.0536 18.7631 38.4818 18.8646 37.9489 19.0491V5.11145H43.0722C44.0408 5.11145 45.0155 5.86915 45.2762 6.79483H39.5979C39.1224 6.79483 38.7369 7.17662 38.7369 7.6475V14.4961C38.7369 15.8449 39.7896 16.9548 41.124 17.0627C41.1922 17.08 41.2637 17.0891 41.3373 17.0891H47.343V17.933H46.5048C46.0294 17.933 45.6438 18.3147 45.6438 18.7856C45.6438 19.2565 46.0294 19.6383 46.5048 19.6383H47.343V23.0291H44.7439V23.029Z"/>
<path d="M41.2123 23.8837C41.2123 24.692 40.5485 25.3474 39.7297 25.3474C38.9109 25.3474 38.2471 24.692 38.2471 23.8837C38.2471 23.0753 38.9109 22.4199 39.7297 22.4199C40.5485 22.4199 41.2123 23.0753 41.2123 23.8837Z"/>
<path d="M18.6674 23.8837C18.6674 24.692 18.0036 25.3474 17.1848 25.3474C16.3659 25.3474 15.7021 24.692 15.7021 23.8837C15.7021 23.0753 16.3659 22.4199 17.1848 22.4199C18.0036 22.4199 18.6674 23.0753 18.6674 23.8837Z"/>
<path d="M10.1303 23.8837C10.1303 24.692 9.46647 25.3474 8.64765 25.3474C7.82883 25.3474 7.16504 24.692 7.16504 23.8837C7.16504 23.0753 7.82883 22.4199 8.64765 22.4199C9.46647 22.4199 10.1303 23.0753 10.1303 23.8837Z"/>
<path d="M3.93359 4.27071C3.93359 3.84438 4.28257 3.49878 4.71306 3.49878H33.2069C33.6374 3.49878 33.9864 3.84438 33.9864 4.27071C33.9864 4.69704 33.6374 5.04264 33.2069 5.04264H4.71306C4.28257 5.04264 3.93359 4.69704 3.93359 4.27071Z"/>
</svg>
