<svg width="56" height="31" viewBox="0 0 56 31" xmlns="http://www.w3.org/2000/svg">
<path d="M3.49805 3.74801C3.49805 3.32168 3.84702 2.97607 4.27751 2.97607H36.6972C37.1277 2.97607 37.4767 3.32168 37.4767 3.74801C37.4767 4.17433 37.1277 4.51994 36.6972 4.51994H4.27751C3.84702 4.51994 3.49805 4.17433 3.49805 3.74801Z"/>
<path d="M39.7383 5.70033C39.7383 5.22482 40.1275 4.83936 40.6077 4.83936C41.0878 4.83936 41.477 5.22483 41.477 5.70033V17.5618C41.477 18.0373 41.0878 18.4227 40.6077 18.4227C40.1275 18.4227 39.7383 18.0373 39.7383 17.5618V5.70033Z"/>
<path fill-rule="evenodd" clip-rule="evenodd" d="M0 15.6002V18.4926V19.1303V24.4959C0 25.4378 0.782434 26.2042 1.74454 26.2042H7.27373C7.69031 28.6261 9.84562 30.4773 12.4356 30.4773C14.2548 30.4773 15.8602 29.563 16.7984 28.1793C17.7373 29.563 19.342 30.4773 21.1619 30.4773C23.7512 30.4773 25.9065 28.6261 26.3231 26.2042H38.2194H38.6824H40.7138C41.1304 28.6261 43.2857 30.4773 45.8757 30.4773C48.465 30.4773 50.6195 28.6261 51.0368 26.2042H54.5419C55.0236 26.2042 55.4141 25.8218 55.4141 25.3501V17.6919C55.4141 17.6317 55.4076 17.5716 55.3946 17.5128L53.3211 8.03455C52.956 6.24239 51.21 4.83945 49.343 4.83945H43.2806C43.0205 4.83945 42.7865 4.95147 42.6264 5.12909C42.5757 5.18554 42.5322 5.24864 42.4982 5.31689L42.4677 5.38393C42.4518 5.42455 42.4388 5.46666 42.4294 5.51002L42.4156 5.58617L42.4112 5.62935L42.4091 5.69361L42.4112 11.3444V14.0219L42.4091 14.2753L42.4083 15.9835V17.6383H32.3345L1.72425 17.6385V1.70759H38.5121V0H10.9538H10.7133H1.48373C0.664344 0 0 0.65788 0 1.46939V15.362V15.6002ZM42.4083 19.3459L32.4272 19.3466H1.74454V24.4958H7.27301C7.68958 22.0741 9.84562 20.2227 12.4356 20.2227C14.2548 20.2227 15.8595 21.137 16.7984 22.5204C17.7373 21.137 19.342 20.2227 21.1619 20.2227C23.7519 20.2227 25.9065 22.0739 26.3231 24.4958H37.6688H38.5121H40.7138C40.9166 23.3165 41.5317 22.273 42.4083 21.5123V19.3459ZM53.4631 16.8376H47.7637C47.7318 16.8312 47.6992 16.8265 47.6666 16.8235L47.5854 16.8198C47.095 16.8198 46.6958 16.4289 46.6958 15.9484V9.94223H51.9548L53.4631 16.8376ZM12.4356 28.769C10.51 28.769 8.94365 27.2351 8.94365 25.3498C8.94365 23.4647 10.51 21.931 12.4356 21.931C14.3606 21.931 15.9261 23.4646 15.9261 25.3498C15.9261 27.235 14.3606 28.769 12.4356 28.769ZM21.1619 28.769C19.237 28.769 17.6707 27.2351 17.6707 25.3498C17.6707 23.4647 19.237 21.931 21.1619 21.931C23.0869 21.931 24.6532 23.4646 24.6532 25.3498C24.6524 27.235 23.0869 28.769 21.1619 28.769ZM45.8757 28.769C43.95 28.769 42.3844 27.2351 42.3844 25.3498C42.3844 23.4647 43.95 21.931 45.8757 21.931C47.8006 21.931 49.3662 23.4646 49.3662 25.3498C49.3662 27.235 47.8006 28.769 45.8757 28.769ZM51.0368 24.4958C50.6203 22.0739 48.465 20.2227 45.8757 20.2227C45.6178 20.2227 45.3642 20.2412 45.1164 20.2769C44.9114 20.3064 44.71 20.3476 44.5137 20.3997C44.4369 20.4202 44.3601 20.4423 44.2847 20.466L44.1529 20.5092V6.54772H49.343C50.324 6.54772 51.3114 7.30672 51.5759 8.23397H45.8235C45.3417 8.23397 44.9512 8.61643 44.9512 9.08812V15.9484C44.9512 17.2995 46.0177 18.4114 47.3695 18.5194C47.4384 18.5367 47.5108 18.5459 47.5854 18.5459H53.6696V19.3911H52.8205C52.3387 19.3911 51.9482 19.7736 51.9482 20.2453C51.9482 20.717 52.3387 21.0994 52.8205 21.0994H53.6696V24.4959L51.0368 24.4958ZM13.8766 25.3344C13.8766 26.1459 13.2123 26.8038 12.3929 26.8038C11.5735 26.8038 10.9092 26.1459 10.9092 25.3344C10.9092 24.5229 11.5735 23.865 12.3929 23.865C13.2123 23.865 13.8766 24.5229 13.8766 25.3344ZM21.217 26.8038C22.0364 26.8038 22.7007 26.1459 22.7007 25.3344C22.7007 24.5229 22.0364 23.865 21.217 23.865C20.3976 23.865 19.7333 24.5229 19.7333 25.3344C19.7333 26.1459 20.3976 26.8038 21.217 26.8038ZM45.7699 26.8038C46.5893 26.8038 47.2536 26.1459 47.2536 25.3344C47.2536 24.5229 46.5893 23.865 45.7699 23.865C44.9505 23.865 44.2862 24.5229 44.2862 25.3344C44.2862 26.1459 44.9505 26.8038 45.7699 26.8038Z"/>
<path fill-rule="evenodd" clip-rule="evenodd" d="M39.7523 8H41.4766V1.46939C41.4766 0.65788 40.8122 0 39.9928 0H33.4766V1.70759H39.7523V8Z"/>
</svg>
