<svg width="50" height="27" viewBox="0 0 50 27" xmlns="http://www.w3.org/2000/svg">
<path d="M49.6855 13.4846L47.6121 4.00629C47.2465 2.21411 45.5006 0.811208 43.634 0.811208H37.5716C37.0899 0.811208 36.6994 1.19364 36.6994 1.66534V10.247H35.752V3.13433C35.7935 2.95294 35.8162 2.76471 35.8162 2.57125C35.8162 1.1535 34.6382 0 33.1905 0H4.36228C2.9144 0 1.73658 1.1535 1.73658 2.57125C1.73658 3.68973 2.46979 4.64315 3.49007 4.99612V8.50317C3.49007 8.97486 3.8806 9.3573 4.36228 9.3573C4.84822 9.3573 5.24355 9.74443 5.24355 10.2203C5.24355 10.6961 4.84822 11.0833 4.36228 11.0833C3.87635 11.0833 3.48102 10.6961 3.48102 10.2203C3.48102 9.7486 3.09048 9.36616 2.6088 9.36616C2.12712 9.36616 1.73658 9.7486 1.73658 10.2203C1.73658 11.6381 2.91451 12.7915 4.36228 12.7915C5.81006 12.7915 6.98798 11.638 6.98798 10.2203C6.98798 9.1017 6.25489 8.14774 5.2345 7.79488V5.1426H30.5647V10.2471H30.5534C29.1107 10.2471 27.9368 11.3965 27.9368 12.8095V13.6102H0.872217C0.390535 13.6102 0 13.9927 0 14.4643V20.4677C0 21.4096 0.782597 22.1759 1.74443 22.1759H3.56421C3.98102 24.5978 6.13637 26.449 8.72631 26.449C10.5458 26.449 12.1506 25.5347 13.0891 24.151C14.0279 25.5347 15.6331 26.449 17.453 26.449C20.0422 26.449 22.1972 24.5978 22.6139 22.1759H35.0044C35.4212 24.5978 37.5765 26.449 40.1664 26.449C42.7556 26.449 44.9106 24.5978 45.3273 22.1759H48.8326C49.3143 22.1759 49.7048 21.7935 49.7048 21.3218V13.6636C49.7049 13.6034 49.6984 13.5434 49.6855 13.4846ZM47.7538 12.8094H42.0544C41.9969 12.7977 41.9373 12.7915 41.8762 12.7915C41.3856 12.7915 40.9865 12.4007 40.9865 11.9201V5.91399H46.2454L47.7538 12.8094ZM32.3091 2.57125C32.3091 2.09539 32.7044 1.70826 33.1904 1.70826C33.5958 1.70826 33.9374 1.97827 34.0396 2.34405C34.0192 2.41644 34.0074 2.49245 34.0074 2.57125V2.89304C33.8768 3.20981 33.5601 3.43424 33.1904 3.43424C32.7044 3.43434 32.3091 3.0471 32.3091 2.57125ZM4.36228 1.70826C4.84822 1.70826 5.24355 2.09539 5.24355 2.57125C5.24355 3.0471 4.84822 3.43424 4.36228 3.43424C3.87635 3.43424 3.48102 3.0471 3.48102 2.57125C3.48102 2.09539 3.87635 1.70826 4.36228 1.70826ZM6.83546 3.43434C6.93402 3.16444 6.98809 2.87393 6.98809 2.57135C6.98809 2.26867 6.93402 1.97827 6.83546 1.70836H30.7173C30.6187 1.97827 30.5647 2.26867 30.5647 2.57135V3.43434H6.83546ZM32.3091 5.1426H33.1904C33.4756 5.1426 33.7501 5.09722 34.0074 5.01448V10.2471H32.3091V5.1426ZM29.6812 12.8094C29.6812 12.3384 30.0725 11.9552 30.5534 11.9552H36.6993V17.484C35.8221 18.2447 35.207 19.2882 35.0042 20.4676H29.6812V12.8094ZM1.74443 15.3184H27.9368V20.4676H22.6139C22.1974 18.0457 20.0423 16.1945 17.4528 16.1945C15.6331 16.1945 14.0278 17.1087 13.089 18.4922C12.1505 17.1087 10.5456 16.1945 8.7262 16.1945C6.13616 16.1945 3.98058 18.0458 3.56399 20.4676H1.74443V15.3184ZM8.72631 24.7408C6.801 24.7408 5.23461 23.2069 5.23461 21.3215C5.23461 19.4364 6.801 17.9027 8.72631 17.9027C10.651 17.9027 12.2168 19.4363 12.2168 21.3215C12.2168 23.2068 10.651 24.7408 8.72631 24.7408ZM17.453 24.7408C15.5276 24.7408 13.9612 23.2069 13.9612 21.3215C13.9612 19.4364 15.5276 17.9027 17.453 17.9027C19.3776 17.9027 20.9436 19.4363 20.9436 21.3215C20.9435 23.2068 19.3776 24.7408 17.453 24.7408ZM40.1664 24.7408C38.241 24.7408 36.6748 23.2069 36.6748 21.3215C36.6748 19.4364 38.241 17.9027 40.1664 17.9027C42.091 17.9027 43.657 19.4363 43.657 21.3215C43.657 23.2068 42.0911 24.7408 40.1664 24.7408ZM45.3274 20.4676C44.9109 18.0457 42.7557 16.1945 40.1664 16.1945C39.5629 16.1945 38.9836 16.2961 38.4437 16.4809V2.51947H43.6339C44.615 2.51947 45.6024 3.27847 45.8665 4.20573H40.1142C39.6326 4.20573 39.242 4.58816 39.242 5.05986V11.9201C39.242 13.2712 40.3083 14.3831 41.6601 14.4911C41.7293 14.5084 41.8017 14.5176 41.8762 14.5176H47.9604V15.3629H47.1112C46.6295 15.3629 46.2389 15.7453 46.2389 16.217C46.2389 16.6887 46.6295 17.0711 47.1112 17.0711H47.9604V20.4677H45.3274V20.4676Z"/>
<path d="M31.4376 15.3184H34.8804C35.3621 15.3184 35.7526 14.9359 35.7526 14.4642C35.7526 13.9925 35.3621 13.6101 34.8804 13.6101H31.4376C30.956 13.6101 30.5654 13.9925 30.5654 14.4642C30.5654 14.9359 30.956 15.3184 31.4376 15.3184Z"/>
<path d="M41.5436 21.3062C41.5436 22.1177 40.8793 22.7756 40.0599 22.7756C39.2405 22.7756 38.5762 22.1177 38.5762 21.3062C38.5762 20.4947 39.2405 19.8368 40.0599 19.8368C40.8793 19.8368 41.5436 20.4947 41.5436 21.3062Z"/>
<path d="M18.9909 21.3062C18.9909 22.1177 18.3266 22.7756 17.5072 22.7756C16.6877 22.7756 16.0234 22.1177 16.0234 21.3062C16.0234 20.4947 16.6877 19.8368 17.5072 19.8368C18.3266 19.8368 18.9909 20.4947 18.9909 21.3062Z"/>
<path d="M10.1667 21.3062C10.1667 22.1177 9.50238 22.7756 8.68294 22.7756C7.86351 22.7756 7.19922 22.1177 7.19922 21.3062C7.19922 20.4947 7.86351 19.8368 8.68294 19.8368C9.50238 19.8368 10.1667 20.4947 10.1667 21.3062Z"/>
</svg>
