<svg width="45" height="31" viewBox="0 0 45 31" xmlns="http://www.w3.org/2000/svg">
<path d="M44.5366 14.9764L41.48 9.88751C40.4317 8.16883 39.4425 7.1652 37.4627 6.99549C37.3978 6.97875 37.3295 6.96974 37.2592 6.96974H31.1437C31.1437 6.96974 31.1027 6.96973 31.0283 6.96973C30.2086 6.96964 29.5438 7.62796 29.5442 8.43976L29.5492 18.737L1.59549 18.6275C0.716313 18.6275 0.000976562 19.3304 0.000976562 20.1943V24.9949C0.000976562 25.8589 0.716313 26.5617 1.59549 26.5617H3.25886C3.63984 28.783 5.60996 30.481 7.97721 30.481C10.344 30.481 12.3137 28.783 12.6946 26.5617H31.9969C32.3779 28.783 34.348 30.481 36.7152 30.481C39.082 30.481 41.0517 28.783 41.4326 26.5617H43.85C44.2902 26.5617 44.6472 26.2109 44.6472 25.7783V15.3746C44.6472 15.2345 44.6089 15.0969 44.5366 14.9764ZM41.5004 17.9782C41.5004 17.5462 41.858 17.1948 42.2976 17.1948H43.0527V18.737H41.5004V17.9782ZM42.5746 14.7925H35.2507C35.1982 14.7818 35.1437 14.7761 35.0879 14.7761C34.6395 14.7761 34.2746 14.4176 34.2746 13.9769V10.8378H40.1992L42.5746 14.7925ZM1.59549 20.1943H29.5492V24.9949H12.6947C12.314 22.7736 10.3441 21.0756 7.97721 21.0756C5.60976 21.0756 3.63954 22.7737 3.25876 24.9949H1.59549V20.1943ZM7.97721 28.9142C6.21737 28.9142 4.7857 27.5073 4.7857 25.778C4.7857 24.049 6.21737 22.6423 7.97721 22.6423C9.73645 22.6423 11.1678 24.049 11.1678 25.778C11.1678 27.5073 9.73645 28.9142 7.97721 28.9142ZM36.7152 28.9142C34.9554 28.9142 33.5237 27.5073 33.5237 25.778C33.5237 24.049 34.9554 22.6423 36.7152 22.6423C38.4745 22.6423 39.9058 24.049 39.9058 25.778C39.9058 27.5073 38.4746 28.9142 36.7152 28.9142ZM41.4327 24.9949C41.052 22.7736 39.0821 21.0756 36.7152 21.0756C34.3478 21.0756 32.3776 22.7737 31.9968 24.9949H31.1437V8.53654H36.8315C37.849 8.53654 38.4844 8.74727 39.045 9.27098H33.4774C33.0371 9.27098 32.6801 9.62175 32.6801 10.0544V13.9769C32.6801 15.2162 33.6548 16.2361 34.8905 16.335C34.9537 16.3509 35.0199 16.3592 35.0879 16.3592H40.5662C40.1575 16.7811 39.9058 17.3511 39.9058 17.9781V19.5203C39.9058 19.9529 40.2628 20.3037 40.7031 20.3037H43.0527V24.9948L41.4327 24.9949Z"/>
<path d="M38.1928 25.787C38.1928 26.5954 37.529 27.2507 36.7101 27.2507C35.8913 27.2507 35.2275 26.5954 35.2275 25.787C35.2275 24.9786 35.8913 24.3232 36.7101 24.3232C37.529 24.3232 38.1928 24.9786 38.1928 25.787Z"/>
<path d="M9.43397 25.787C9.43397 26.5954 8.77018 27.2507 7.95136 27.2507C7.13254 27.2507 6.46875 26.5954 6.46875 25.787C6.46875 24.9786 7.13254 24.3232 7.95136 24.3232C8.77018 24.3232 9.43397 24.9786 9.43397 25.787Z"/>
<path fill-rule="evenodd" clip-rule="evenodd" d="M1.48373 0C0.664287 0 0 0.657869 0 1.46939V1.52486V23.2343H1.53951V1.52486H25.5619V0H1.53951H1.48373Z"/>
<path fill-rule="evenodd" clip-rule="evenodd" d="M26.9469 0C27.7664 0 28.4307 0.657869 28.4307 1.46939V1.52486V19.2343H26.8912V1.52486H15.8687V0H26.8912H26.9469Z"/>
<path d="M1.91992 3.71749C1.91992 3.29116 2.2689 2.94556 2.69938 2.94556H25.1191C25.5495 2.94556 25.8985 3.29116 25.8985 3.71749C25.8985 4.14381 25.5495 4.48942 25.1191 4.48942H2.69938C2.2689 4.48942 1.91992 4.14381 1.91992 3.71749Z"/>
</svg>
