<svg width="45" height="27" viewBox="0 0 45 27" xmlns="http://www.w3.org/2000/svg">
<path d="M44.5356 11.1647L41.479 6.07586C40.4308 4.35718 39.4416 3.35354 37.4617 3.18384C37.3968 3.16709 37.3285 3.15808 37.2582 3.15808H31.1427V1.5668C31.1427 0.702906 30.4274 0 29.5482 0H1.59451C0.715336 0 0 0.702906 0 1.5668V21.1833C0 22.0472 0.715336 22.7501 1.59451 22.7501H3.25788C3.63887 24.9714 5.60898 26.6693 7.97623 26.6693C10.343 26.6693 12.3127 24.9714 12.6936 22.7501H31.9959C32.3769 24.9714 34.347 26.6693 36.7143 26.6693C39.081 26.6693 41.0507 24.9714 41.4316 22.7501H43.849C44.2893 22.7501 44.6462 22.3993 44.6462 21.9667V11.5629C44.6462 11.4229 44.608 11.2853 44.5356 11.1647ZM41.4994 14.1665C41.4994 13.7346 41.857 13.3831 42.2966 13.3831H43.0517V14.9254H41.4994V14.1665ZM42.5736 10.9808H35.2497C35.1972 10.9702 35.1428 10.9645 35.087 10.9645C34.6385 10.9645 34.2737 10.606 34.2737 10.1652V7.02613H40.1983L42.5736 10.9808ZM1.59451 1.5668H29.5482V21.1833H12.6937C12.313 18.9619 10.3431 17.264 7.97623 17.264C5.60878 17.264 3.63857 18.962 3.25778 21.1833H1.59451V1.5668ZM7.97623 25.1025C6.21639 25.1025 4.78472 23.6956 4.78472 21.9664C4.78472 20.2374 6.21639 18.8307 7.97623 18.8307C9.73547 18.8307 11.1668 20.2374 11.1668 21.9664C11.1668 23.6956 9.73547 25.1025 7.97623 25.1025ZM36.7143 25.1025C34.9544 25.1025 33.5227 23.6956 33.5227 21.9664C33.5227 20.2374 34.9544 18.8307 36.7143 18.8307C38.4735 18.8307 39.9049 20.2374 39.9049 21.9664C39.9049 23.6956 38.4736 25.1025 36.7143 25.1025ZM41.4317 21.1833C41.051 18.9619 39.0811 17.264 36.7143 17.264C34.3468 17.264 32.3766 18.962 31.9958 21.1833H31.1427V4.72489H36.8306C37.8481 4.72489 38.4835 4.93562 39.044 5.45932H33.4764C33.0361 5.45932 32.6791 5.81009 32.6791 6.24272V10.1652C32.6791 11.4046 33.6538 12.4244 34.8895 12.5233C34.9527 12.5392 35.0189 12.5475 35.087 12.5475H40.5652C40.1565 12.9694 39.9049 13.5394 39.9049 14.1664V15.7087C39.9049 16.1413 40.2618 16.4921 40.7021 16.4921H43.0517V21.1832H41.4317V21.1833Z"/>
<path d="M4.01991 4.72488H27.1237C27.564 4.72488 27.921 4.37411 27.921 3.94148C27.921 3.50885 27.564 3.15808 27.1237 3.15808H4.01991C3.57963 3.15808 3.22266 3.50885 3.22266 3.94148C3.22266 4.37411 3.57963 4.72488 4.01991 4.72488Z"/>
<path d="M38.1928 21.9753C38.1928 22.7837 37.529 23.4391 36.7101 23.4391C35.8913 23.4391 35.2275 22.7837 35.2275 21.9753C35.2275 21.1669 35.8913 20.5116 36.7101 20.5116C37.529 20.5116 38.1928 21.1669 38.1928 21.9753Z"/>
<path d="M9.43397 21.9753C9.43397 22.7837 8.77018 23.4391 7.95136 23.4391C7.13254 23.4391 6.46875 22.7837 6.46875 21.9753C6.46875 21.1669 7.13254 20.5116 7.95136 20.5116C8.77018 20.5116 9.43397 21.1669 9.43397 21.9753Z"/>
</svg>
