<svg width="50" height="32" viewBox="0 0 50 32" xmlns="http://www.w3.org/2000/svg">
<path fill-rule="evenodd" clip-rule="evenodd" d="M0 16.6002V19.4926V20.1303V25.4959C0 26.4378 0.782434 27.2042 1.74454 27.2042H2.95369L5.70162 27.204C6.11167 29.6285 8.26119 31.4773 10.8519 31.4773C13.4419 31.4773 15.5914 29.6285 16.0015 27.204L26.4238 27.2042H32.5101H32.973H35.0045C35.4211 29.6261 37.5764 31.4773 40.1664 31.4773C42.7556 31.4773 44.9102 29.6261 45.3275 27.2042H48.8325C49.3143 27.2042 49.7048 26.8218 49.7048 26.3501V18.6919C49.7048 18.66 49.7026 18.6283 49.699 18.5967L49.6903 18.5415L49.6852 18.5128L47.6118 9.03455C47.2467 7.24239 45.5007 5.83945 43.6337 5.83945H37.5713C37.4844 5.83945 37.4003 5.85205 37.3206 5.87546C37.246 5.89743 37.1757 5.92896 37.1105 5.96855C37.0381 6.01268 36.9729 6.06685 36.9171 6.12909L36.8707 6.18541C36.8519 6.21012 36.8345 6.23581 36.8186 6.26245L36.7889 6.31689L36.7708 6.35635C36.7599 6.3807 36.7505 6.40563 36.7418 6.43106C36.7331 6.45689 36.7258 6.48321 36.72 6.51002L36.7063 6.58617L36.7019 6.62935L36.6998 6.69361L36.7019 12.3444V15.0219L36.6998 15.2753L36.699 16.9835V18.6383H35.7637L35.7674 18.5619V1.70759V0V6.70042C35.7674 6.22492 35.3783 5.83945 34.898 5.83945C34.4177 5.83945 34.0286 6.22492 34.0286 6.70042V0H5.24448H5.00395H1.48373C0.664344 0 0 0.65788 0 1.46939V16.362V16.6002ZM5.70524 25.4993C6.12327 23.084 8.26844 21.2447 10.8519 21.2447C13.4347 21.2447 15.5798 23.084 15.9979 25.4993L26.4238 25.4958H31.9595H32.8028H35.0045C35.2073 24.3165 35.8224 23.273 36.699 22.5123V20.3459L26.7179 20.3466H1.74454V25.4958H2.95369L5.70524 25.4993ZM34.0286 1.70759H1.72425V18.6385L26.6252 18.6383H34.0322L34.0286 18.5619V1.70759ZM47.7538 17.8376H42.0543C41.9971 17.826 41.937 17.8198 41.8761 17.8198C41.3857 17.8198 40.9865 17.4289 40.9865 16.9484V10.9422H46.2454L47.7538 17.8376ZM40.1664 29.769C38.2407 29.769 36.6751 28.2351 36.6751 26.3498C36.6751 24.4647 38.2407 22.931 40.1664 22.931C42.0913 22.931 43.6569 24.4646 43.6569 26.3498C43.6569 28.235 42.0913 29.769 40.1664 29.769ZM45.3275 25.4958C44.911 23.0739 42.7556 21.2227 40.1664 21.2227L40.0773 21.2235L39.9461 21.2273C39.7636 21.2347 39.5839 21.2515 39.4071 21.2769C39.2021 21.3064 39.0007 21.3476 38.8044 21.3997L38.6935 21.4305L38.5754 21.466L38.4436 21.5092V7.54772H43.6337C44.6146 7.54772 45.6021 8.30672 45.8665 9.23397H40.1142C39.6324 9.23397 39.2419 9.61643 39.2419 10.0881V16.9484C39.2419 18.2995 40.3084 19.4114 41.6602 19.5194C41.7291 19.5367 41.8015 19.5459 41.8761 19.5459H47.9603V20.3911H47.1112C46.6294 20.3911 46.2389 20.7736 46.2389 21.2453C46.2389 21.717 46.6294 22.0994 47.1112 22.0994H47.9603V25.4959L45.3275 25.4958ZM40.0606 27.8038C40.88 27.8038 41.5443 27.1459 41.5443 26.3344C41.5443 25.5229 40.88 24.865 40.0606 24.865C39.2412 24.865 38.5769 25.5229 38.5769 26.3344C38.5769 27.1459 39.2412 27.8038 40.0606 27.8038ZM10.8512 29.7418C12.7566 29.7418 14.3011 28.2282 14.3011 26.361C14.3011 24.4938 12.7566 22.9802 10.8512 22.9802C8.94655 22.9802 7.40197 24.4938 7.40197 26.361C7.40197 28.2282 8.94655 29.7418 10.8512 29.7418ZM10.8512 27.8247C11.6706 27.8247 12.3342 27.1693 12.3342 26.361C12.3342 25.5526 11.6706 24.8972 10.8512 24.8972C10.0325 24.8972 9.36892 25.5526 9.36892 26.361C9.36892 27.1693 10.0325 27.8247 10.8512 27.8247Z"/>
<path d="M4 3.74801C4 3.32168 4.34898 2.97607 4.77946 2.97607H31.1991C31.6296 2.97607 31.9786 3.32168 31.9786 3.74801C31.9786 4.17433 31.6296 4.51994 31.1991 4.51994H4.77946C4.34898 4.51994 4 4.17433 4 3.74801Z"/>
<path fill-rule="evenodd" clip-rule="evenodd" d="M34.0345 8H35.7588V1.46939C35.7588 0.65788 35.0944 0 34.2751 0H27.7588V1.70759H34.0345V8Z"/>
</svg>
