<svg width="8" height="17" viewBox="0 0 8 17" fill="none" xmlns="http://www.w3.org/2000/svg">
<path fill-rule="evenodd" clip-rule="evenodd" d="M3.45529 4.82785C3.45529 3.90925 2.38279 3.40856 1.67859 3.99841C1.4113 4.22226 1.01274 4.18733 0.788464 3.92048C0.56418 3.6538 0.598998 3.25582 0.866334 3.03217L3.64928 0.701104C3.65776 0.694 3.66556 0.686116 3.67257 0.677556C3.79968 0.526292 3.98287 0.449588 4.16642 0.452342C4.34995 0.449588 4.53316 0.526292 4.6603 0.677556C4.66731 0.686112 4.6751 0.693992 4.68358 0.701092L7.46654 3.03217C7.73388 3.25582 7.76869 3.6538 7.54441 3.92048C7.32018 4.18733 6.92162 4.22226 6.65434 3.99841C5.9501 3.40856 4.87759 3.90927 4.87759 4.82789V15.9996C4.87759 16.2767 4.66234 16.5013 4.39683 16.5013H3.93605C3.67054 16.5013 3.45529 16.2767 3.45529 15.9996V4.82785Z" fill="white"/>
</svg>
