<svg width="8" height="18" viewBox="0 0 8 18" fill="none" xmlns="http://www.w3.org/2000/svg">
<path fill-rule="evenodd" clip-rule="evenodd" d="M4.15881 0.952637H3.67809C3.40109 0.952637 3.17653 1.17724 3.17653 1.45424V14.9436L1.32295 13.4555C1.0441 13.2317 0.628295 13.2666 0.394314 13.5334C0.160325 13.8001 0.19665 14.198 0.475554 14.4218L3.39239 16.7636L3.40321 16.7763C3.53582 16.9276 3.72694 17.0043 3.91843 17.0016C4.10991 17.0043 4.30104 16.9276 4.43369 16.7763L4.4445 16.7636L7.36135 14.4218C7.64025 14.198 7.67657 13.8001 7.44258 13.5334C7.20866 13.2666 6.79285 13.2317 6.514 13.4555L4.66037 14.9436V1.45424C4.66037 1.17724 4.43581 0.952637 4.15881 0.952637Z" fill="#222222" fill-opacity="0.75"/>
</svg>
