<svg width="50" height="50" viewBox="0 0 50 50" fill="none" xmlns="http://www.w3.org/2000/svg">
<path fill-rule="evenodd" clip-rule="evenodd" d="M27.0899 6.25H22.9274C21.7778 6.25 20.7333 7.01464 20.5857 8.01532L20.2318 10.4166H10.4168C9.26626 10.4166 8.3335 11.3494 8.3335 12.5C8.3335 13.6506 9.26626 14.5833 10.4168 14.5833H10.6218L14.4997 42.2917C14.6135 43.1041 15.3604 43.75 16.1702 43.75H33.7666C34.5765 43.75 35.3246 43.1041 35.4397 42.2917L39.369 14.5833H39.5835C40.734 14.5833 41.6668 13.6506 41.6668 12.5C41.6668 11.3494 40.734 10.4166 39.5835 10.4166H29.7567L29.4192 8.01532C29.2786 7.01464 28.2393 6.25 27.0899 6.25ZM32.2923 39.5833H17.709L14.584 14.5834H35.4174L32.2923 39.5833ZM29.5078 17.7032L30.4176 17.7846C30.9201 17.83 31.2917 18.2848 31.2478 18.8004L29.8151 35.6111C29.7712 36.1272 29.3281 36.5085 28.8257 36.4635L27.916 36.3816C27.4136 36.3367 27.0417 35.8819 27.0859 35.3662L28.5185 18.5551C28.5625 18.0395 29.0054 17.6579 29.5078 17.7032ZM19.5827 17.7846L20.4924 17.7032C20.9948 17.6579 21.4379 18.0395 21.4818 18.5551L22.9145 35.3662C22.9584 35.8819 22.5867 36.3367 22.0843 36.3816L21.1744 36.4635C20.672 36.5085 20.2291 36.1272 20.1852 35.6111L18.7525 18.8004C18.7084 18.2848 19.0803 17.83 19.5827 17.7846Z" fill="white"/>
</svg>
