<svg width="22" height="17" viewBox="0 0 22 17" fill="none" xmlns="http://www.w3.org/2000/svg">
<path fill-rule="evenodd" clip-rule="evenodd" d="M21.2081 4.67635L17.8055 1.26945C17.4297 0.893256 16.8202 0.893256 16.4444 1.26945L10.3197 7.40188C10.1831 7.53866 10.0961 7.70635 10.0588 7.88248C9.90391 7.82475 9.77029 7.8875 9.75878 8.03655C9.73673 8.31877 9.50849 12.2919 9.49677 12.5373C9.48619 12.7574 9.73347 13.0089 9.95516 12.9963C10.2927 12.977 14.2434 12.7469 14.4401 12.7345C14.6121 12.7237 14.6566 12.5838 14.6004 12.4333C14.7774 12.3963 14.946 12.3091 15.0834 12.1714L21.2081 6.03924C21.584 5.66283 21.584 5.05277 21.2081 4.67635ZM12.5 14.4998H1.50004C0.947758 14.4998 0.500031 14.9475 0.500031 15.4998C0.500031 16.0521 0.947758 16.4998 1.50004 16.4998H12.5C13.0523 16.4998 13.5 16.0521 13.5 15.4998C13.5 14.9475 13.0523 14.4998 12.5 14.4998ZM17 2.99979L11.5 8.49982V10.9998H14L19.5 5.49981L17 2.99979Z" fill="#222222"/>
</svg>
