<svg width="44" height="44" viewBox="0 0 44 44" fill="none" xmlns="http://www.w3.org/2000/svg">
<g clip-path="url(#clip0)">
<path d="M23.6396 5.06156C22.7339 4.15591 21.2658 4.15591 20.3601 5.06156L5.05249 20.3696C4.14722 21.2752 4.14722 22.7434 5.05249 23.6494L20.3609 38.9574C21.2666 39.8627 22.7347 39.8627 23.6403 38.9574L38.9487 23.6494C39.854 22.7434 39.854 21.2752 38.9487 20.3696L23.6396 5.06156ZM37.854 22.552L22.5456 37.8604C22.2439 38.162 21.7543 38.162 21.4527 37.8604L6.14425 22.552C5.84262 22.2504 5.84262 21.7607 6.14425 21.4591L21.4527 6.15068C21.7543 5.84905 22.2439 5.84905 22.5456 6.15068L37.854 21.4591C38.1556 21.7607 38.1556 22.2504 37.854 22.552Z" fill="#FF3A52"/>
<path d="M23.6398 0.6847C22.7221 -0.191124 21.2781 -0.191124 20.3603 0.6847L0.679235 20.3696C-0.226412 21.2752 -0.226412 22.7434 0.679235 23.6494L20.3603 43.3264C21.266 44.232 22.7341 44.232 23.6398 43.3264L43.3209 23.6452C44.2265 22.7396 44.2265 21.2715 43.3209 20.3658L23.6398 0.6847ZM42.2276 22.552L22.5469 42.2331C22.2449 42.5351 21.7552 42.5351 21.4536 42.2331L1.7725 22.552C1.4705 22.2503 1.4705 21.7607 1.7725 21.4591L21.4536 1.77797C21.7552 1.47596 22.2449 1.47596 22.5469 1.77797L42.2276 21.4591C42.5296 21.7607 42.5296 22.2503 42.2276 22.552Z" fill="#FF3A52"/>
<path d="M21.8764 10.6279C21.0609 10.6279 20.281 10.9636 19.7204 11.5559C19.1598 12.1482 18.8676 12.9447 18.9122 13.7594L19.4788 24.1194C19.5464 25.3505 20.5653 26.3139 21.7982 26.312H21.9628C23.1961 26.3139 24.215 25.3505 24.2822 24.1194L24.8489 13.7594C24.8938 12.9432 24.6005 12.1452 24.038 11.5525C23.4755 10.9598 22.6933 10.6253 21.8764 10.6279ZM22.7314 24.0333C22.7088 24.4437 22.369 24.7646 21.9583 24.7642H21.7937C21.3826 24.7646 21.0432 24.4437 21.0206 24.0333L20.4539 13.6741C20.4263 13.1486 20.691 12.651 21.1421 12.38C21.5932 12.1089 22.1572 12.1089 22.608 12.38C23.0591 12.651 23.3241 13.1486 23.2966 13.6741L22.7314 24.0333Z" fill="#FF3A52"/>
<path d="M22.0001 27.8567C20.7188 27.8567 19.6807 28.8952 19.6807 30.1761C19.6807 31.457 20.7188 32.4956 22.0001 32.4956C23.281 32.4956 24.3195 31.457 24.3195 30.1761C24.3195 28.8952 23.281 27.8567 22.0001 27.8567ZM22.0001 30.9493C21.5727 30.9493 21.2269 30.6031 21.2269 30.1761C21.2269 29.7492 21.5727 29.403 22.0001 29.403C22.4271 29.403 22.7732 29.7492 22.7732 30.1761C22.7732 30.6031 22.4271 30.9493 22.0001 30.9493Z" fill="#FF3A52"/>
</g>
<defs>
<clipPath id="clip0">
<rect width="44" height="44" fill="white"/>
</clipPath>
</defs>
</svg>
