<svg width="34" height="35" viewBox="0 0 34 35" fill="none" xmlns="http://www.w3.org/2000/svg">
<path fill-rule="evenodd" clip-rule="evenodd" d="M2.83366 22.9166C2.05126 22.9166 1.41699 23.5509 1.41699 24.3333C1.41699 25.1157 2.05126 25.75 2.83366 25.75H18.417C19.1994 25.75 19.8337 25.1157 19.8337 24.3333C19.8337 23.5509 19.1994 22.9166 18.417 22.9166H2.83366ZM26.917 22.9166C26.1346 22.9166 25.5003 23.5509 25.5003 24.3333C25.5003 25.1157 26.1346 25.75 26.917 25.75H31.167C31.9494 25.75 32.5837 25.1157 32.5837 24.3333C32.5837 23.5509 31.9494 22.9166 31.167 22.9166H26.917Z" fill="#96ADFF"/>
<path fill-rule="evenodd" clip-rule="evenodd" d="M22.6667 30C25.7963 30 28.3333 27.4629 28.3333 24.3333C28.3333 21.2037 25.7963 18.6666 22.6667 18.6666C19.5371 18.6666 17 21.2037 17 24.3333C17 27.4629 19.5371 30 22.6667 30Z" fill="#81FEC6"/>
<path fill-rule="evenodd" clip-rule="evenodd" d="M2.83366 8.75C2.05126 8.75 1.41699 9.38426 1.41699 10.1667C1.41699 10.9491 2.05126 11.5833 2.83366 11.5833H7.08366C7.86606 11.5833 8.50032 10.9491 8.50032 10.1667C8.50032 9.38426 7.86606 8.75 7.08366 8.75H2.83366ZM15.5837 8.75C14.8013 8.75 14.167 9.38426 14.167 10.1667C14.167 10.9491 14.8013 11.5833 15.5837 11.5833H31.167C31.9494 11.5833 32.5837 10.9491 32.5837 10.1667C32.5837 9.38426 31.9494 8.75 31.167 8.75H15.5837Z" fill="#96ADFF"/>
<path d="M11.3337 15.8333C14.4633 15.8333 17.0003 13.2963 17.0003 10.1667C17.0003 7.03705 14.4633 4.5 11.3337 4.5C8.20405 4.5 5.66699 7.03705 5.66699 10.1667C5.66699 13.2963 8.20405 15.8333 11.3337 15.8333Z" fill="#81FEC6"/>
</svg>
