<?xml version="1.0" encoding="utf-8"?>
<!-- Generator: Adobe Illustrator 18.0.0, SVG Export Plug-In . SVG Version: 6.00 Build 0)  -->
<!DOCTYPE svg PUBLIC "-//W3C//DTD SVG 1.1//EN" "http://www.w3.org/Graphics/SVG/1.1/DTD/svg11.dtd">
<svg version="1.1" id="Capa_1" xmlns="http://www.w3.org/2000/svg" xmlns:xlink="http://www.w3.org/1999/xlink" x="0px" y="0px"
	 viewBox="0 0 512 512" enable-background="new 0 0 512 512" xml:space="preserve">
<path fill="#81FEC6" d="M103.4,499.9c-1.9,0-3.8-0.6-5.4-1.8c-2.8-2.1-4.2-5.5-3.6-9l28.3-165.1L2.8,207.1c-2.5-2.4-3.4-6.1-2.3-9.4
	c1.1-3.3,3.9-5.7,7.4-6.2l165.8-24.1l74.2-150.2c1.5-3.1,4.7-5.1,8.2-5.1l0,0c3.5,0,6.7,2,8.2,5.1l74.1,150.2l165.8,24.1
	c3.5,0.5,6.3,2.9,7.4,6.2c1.1,3.3,0.2,7-2.3,9.4l-120,116.9l28.3,165.1c0.6,3.4-0.8,6.9-3.6,9c-2.8,2.1-6.6,2.3-9.7,0.7l-148.3-78
	l-148.3,78C106.4,499.6,104.9,499.9,103.4,499.9z M28.9,207L139,314.3c2.2,2.1,3.1,5.1,2.6,8.1l-26,151.6l136.1-71.6
	c2.7-1.4,5.8-1.4,8.5,0L396.4,474l-26-151.6c-0.5-3,0.5-6,2.6-8.1L483.1,207L331,184.9c-3-0.4-5.6-2.3-6.9-5L256,42l-68.1,137.9
	c-1.3,2.7-3.9,4.6-6.9,5L28.9,207z"/>
</svg>
