<?xml version="1.0" encoding="UTF-8"?>
<svg width="118px" height="118px" viewBox="0 0 118 118" version="1.1" xmlns="http://www.w3.org/2000/svg" xmlns:xlink="http://www.w3.org/1999/xlink">
    <!-- Generator: Sketch 53 (72520) - https://sketchapp.com -->
    <title>material-icon</title>
    <desc>Created with Sketch.</desc>
    <defs>
        <linearGradient x1="0%" y1="0%" x2="100%" y2="100%" id="linearGradient-1">
            <stop stop-color="#2540E3" offset="0%"></stop>
            <stop stop-color="#3905CD" offset="100%"></stop>
        </linearGradient>
        <path d="M254.366197,448 L266,448 C265.630671,464.804466 259.906159,478.746423 248.826291,489.826291 C237.746423,500.906159 223.804466,506.630671 207,507 C190.195534,506.630671 176.253577,500.906159 165.173709,489.826291 C154.093841,478.746423 148.369329,464.804466 148,448 C148.369329,431.195534 154.093841,417.253577 165.173709,406.173709 C176.253577,395.093841 190.195534,389.369329 207,389 C214.940572,389 222.327039,390.384963 229.159624,393.15493 L220.018779,402.57277 C215.771497,401.280119 211.431947,400.633803 207,400.633803 C193.519494,401.003132 182.347462,405.619674 173.483568,414.483568 C164.619674,423.347462 160.003132,434.519494 159.633803,448 C160.003132,461.480506 164.619674,472.652538 173.483568,481.516432 C182.347462,490.380326 193.519494,494.996868 207,495.366197 C220.480506,494.996868 231.652538,490.380326 240.516432,481.516432 C249.380326,472.652538 253.996868,461.480506 254.366197,448 Z M183.349515,436.259259 L201.718447,454.45679 L252.650485,404 L261,412.271605 L201.718447,471 L175,444.530864 L183.349515,436.259259 Z" id="path-2"></path>
    </defs>
    <g id="Page-2" stroke="none" stroke-width="1" fill="none" fill-rule="evenodd">
        <g id="5" transform="translate(-148.000000, -389.000000)">
            <g id="material-icon">
                <use fill="#410ADF" xlink:href="#path-2"></use>
                <use fill="url(#linearGradient-1)" xlink:href="#path-2"></use>
            </g>
        </g>
    </g>
</svg>