<svg width="409" height="262" viewBox="0 0 409 262" fill="none" xmlns="http://www.w3.org/2000/svg">
<path fill-rule="evenodd" clip-rule="evenodd" d="M-48.7815 11.2924C-40.0642 -46.4085 23.8491 -75.0784 66.9977 -114.458C100.407 -144.949 136.268 -167.494 174.178 -192.192C229.317 -228.114 273.443 -296.998 339.078 -291.714C404.861 -286.419 445.373 -218.65 486.4 -167.058C529.255 -113.167 583.135 -57.4379 580.035 11.2924C576.964 79.3804 520.061 131.119 470.822 178.348C428.876 218.581 378.485 249.149 321.243 259.518C269.026 268.976 218.897 248.796 168.191 233.164C116.61 217.262 62.0342 206.541 24.3274 167.983C-17.0062 125.716 -57.6045 69.6925 -48.7815 11.2924Z" fill="#96ADFF"/>
</svg>
