<svg width="307" height="375" viewBox="0 0 307 375" fill="none" xmlns="http://www.w3.org/2000/svg">
<path fill-rule="evenodd" clip-rule="evenodd" d="M-143.665 134.291C-132.403 90.4863 -106.627 52.1872 -72.1625 22.8985C-37.9261 -6.19619 3.92085 -24.4295 48.6061 -29.1043C93.9608 -33.849 139.984 -26.0704 179.573 -3.43672C219.844 19.5871 256.419 53.3267 270.24 97.6083C283.506 140.116 261.515 183.197 251.354 226.552C241.203 269.865 248.777 326.828 211.009 350.337C172.524 374.293 124.29 339.922 79.4033 333.585C47.0715 329.02 16.3014 327.903 -14.9483 318.435C-57.5576 305.525 -109.804 305.023 -135.311 268.532C-161.641 230.864 -155.108 178.802 -143.665 134.291Z" fill="#81FEC6"/>
</svg>
