<svg width="18" height="23" viewBox="0 0 18 23" fill="none" xmlns="http://www.w3.org/2000/svg">
<path fill-rule="evenodd" clip-rule="evenodd" d="M14.2992 9.93243L9.14741 17.6602L3.84 13.6796L4.56 12.7196L8.85259 15.9391L13.3008 9.26679L14.2992 9.93243Z" fill="#075497"/>
<path fill-rule="evenodd" clip-rule="evenodd" d="M1.2 4.79961V20.3996C1.2 20.731 1.46863 20.9996 1.8 20.9996H16.2C16.5314 20.9996 16.8 20.731 16.8 20.3996V4.79961H18V20.3996C18 21.3937 17.1941 22.1996 16.2 22.1996H1.8C0.805888 22.1996 0 21.3937 0 20.3996V4.79961H1.2Z" fill="#075497"/>
<path fill-rule="evenodd" clip-rule="evenodd" d="M6.06001 2.99961C6.33797 1.63027 7.54863 0.599609 9 0.599609C10.4514 0.599609 11.662 1.63027 11.94 2.99961H12.6C13.5941 2.99961 14.4 3.8055 14.4 4.79961V6.59961H3.6V4.79961C3.6 3.8055 4.40589 2.99961 5.4 2.99961H6.06001ZM6.6 3.59961V4.19961H5.4C5.06863 4.19961 4.8 4.46824 4.8 4.79961V5.39961H13.2V4.79961C13.2 4.46824 12.9314 4.19961 12.6 4.19961H11.4V3.59961H10.8C10.8 2.6055 9.99411 1.79961 9 1.79961C8.00589 1.79961 7.2 2.6055 7.2 3.59961H6.6Z" fill="#075497"/>
</svg>
