<svg width="23" height="22" viewBox="0 0 23 22" fill="none" xmlns="http://www.w3.org/2000/svg">
<path fill-rule="evenodd" clip-rule="evenodd" d="M0.63623 1.40423L1.76398 0.994141L2.92945 4.19919H22.3686L19.6686 14.9992H5.57985L0.63623 1.40423ZM3.36582 5.39919L6.42036 13.7992H18.7316L20.8316 5.39919H3.36582Z" fill="#075497"/>
<path d="M7.80005 19.1992C7.13731 19.1992 6.60005 19.7364 6.60005 20.3992C6.60005 21.0619 7.13731 21.5992 7.80005 21.5992C8.46279 21.5992 9.00005 21.0619 9.00005 20.3992C9.00005 19.7364 8.46279 19.1992 7.80005 19.1992Z" fill="#075497"/>
<path d="M16.8 19.1992C16.1373 19.1992 15.6 19.7364 15.6 20.3992C15.6 21.0619 16.1373 21.5992 16.8 21.5992C17.4628 21.5992 18 21.0619 18 20.3992C18 19.7364 17.4628 19.1992 16.8 19.1992Z" fill="#075497"/>
</svg>
