<svg width="20" height="22" viewBox="0 0 20 22" fill="none" xmlns="http://www.w3.org/2000/svg">
<path fill-rule="evenodd" clip-rule="evenodd" d="M0.399902 1.99922C0.399902 1.00511 1.20579 0.199219 2.1999 0.199219H17.7999C18.794 0.199219 19.5999 1.00511 19.5999 1.99922V19.9992C19.5999 20.9933 18.794 21.7992 17.7999 21.7992H2.1999C1.20579 21.7992 0.399902 20.9933 0.399902 19.9992V1.99922ZM2.1999 1.39922C1.86853 1.39922 1.5999 1.66785 1.5999 1.99922V7.39922H18.3999V1.99922C18.3999 1.66785 18.1313 1.39922 17.7999 1.39922H2.1999ZM18.3999 8.59922H1.5999V19.9992C1.5999 20.3306 1.86853 20.5992 2.1999 20.5992H17.7999C18.1313 20.5992 18.3999 20.3306 18.3999 19.9992V8.59922Z" fill="#075497"/>
<path d="M6.3999 10.9992H3.9999V13.3992H6.3999V10.9992Z" fill="#075497"/>
<path d="M11.1999 10.9992H8.7999V13.3992H11.1999V10.9992Z" fill="#075497"/>
<path d="M15.9999 10.9992H13.5999V18.1992H15.9999V10.9992Z" fill="#075497"/>
<path d="M6.3999 15.7992H3.9999V18.1992H6.3999V15.7992Z" fill="#075497"/>
<path d="M11.1999 15.7992H8.7999V18.1992H11.1999V15.7992Z" fill="#075497"/>
</svg>
