<svg width="24" height="16" viewBox="0 0 24 16" fill="none" xmlns="http://www.w3.org/2000/svg">
<path fill-rule="evenodd" clip-rule="evenodd" d="M12 2.00078C8.97671 2.00078 6.05476 3.2911 3.84817 5.64727L1.64407 8.00076L3.84817 10.3543C6.05653 12.7123 8.853 14.0008 12 14.0008C15.147 14.0008 17.9435 12.7123 20.1518 10.3543L22.3559 8.00076L20.1518 5.64727C17.9452 3.29111 15.0233 2.00078 12 2.00078ZM24 8.00076L21.0277 4.827C18.6067 2.24191 15.373 0.800781 12 0.800781C8.62696 0.800781 5.39328 2.24191 2.97229 4.827L0 8.00076L2.97229 11.1745C5.38996 13.7561 8.49622 15.2008 12 15.2008C15.5037 15.2008 18.61 13.7561 21.0277 11.1745L24 8.00076Z" fill="#075497"/>
<path d="M12 6.20078C12 7.19489 11.1941 8.00078 10.2 8.00078C9.99041 8.00078 9.78918 7.96496 9.60212 7.8991C9.60071 7.93282 9.6 7.96672 9.6 8.00078C9.6 9.32627 10.6745 10.4008 12 10.4008C13.3255 10.4008 14.4 9.32627 14.4 8.00078C14.4 6.6753 13.3255 5.60078 12 5.60078C11.9659 5.60078 11.932 5.60149 11.8983 5.6029C11.9642 5.78997 12 5.99119 12 6.20078Z" fill="#075497"/>
</svg>
