<svg width="28" height="28" viewBox="0 0 28 28" fill="none" xmlns="http://www.w3.org/2000/svg">
<path d="M0.143112 3.11296C0 3.64706 0 4.29804 0 5.6C0 6.90196 0 7.55294 0.143112 8.08704C0.531474 9.53643 1.66357 10.6685 3.11296 11.0569C3.64706 11.2 4.29804 11.2 5.6 11.2C6.90196 11.2 7.55294 11.2 8.08704 11.0569C9.53643 10.6685 10.6685 9.53643 11.0569 8.08704C11.2 7.55294 11.2 6.90196 11.2 5.6C11.2 4.29804 11.2 3.64706 11.0569 3.11296C10.6685 1.66357 9.53643 0.531474 8.08704 0.143112C7.55294 0 6.90196 0 5.6 0C4.29804 0 3.64706 0 3.11296 0.143112C1.66357 0.531474 0.531474 1.66357 0.143112 3.11296Z" fill="#96ADFF"/>
<path d="M0.143112 19.913C0 20.4471 0 21.098 0 22.4C0 23.702 0 24.3529 0.143112 24.887C0.531474 26.3364 1.66357 27.4685 3.11296 27.8569C3.64706 28 4.29804 28 5.6 28C6.90196 28 7.55294 28 8.08704 27.8569C9.53643 27.4685 10.6685 26.3364 11.0569 24.887C11.2 24.3529 11.2 23.702 11.2 22.4C11.2 21.098 11.2 20.4471 11.0569 19.913C10.6685 18.4636 9.53643 17.3315 8.08704 16.9431C7.55294 16.8 6.90196 16.8 5.6 16.8C4.29804 16.8 3.64706 16.8 3.11296 16.9431C1.66357 17.3315 0.531474 18.4636 0.143112 19.913Z" fill="#96ADFF"/>
<path d="M16.8 5.6C16.8 4.29804 16.8 3.64706 16.9431 3.11296C17.3315 1.66357 18.4636 0.531474 19.913 0.143112C20.4471 0 21.098 0 22.4 0C23.702 0 24.3529 0 24.887 0.143112C26.3364 0.531474 27.4685 1.66357 27.8569 3.11296C28 3.64706 28 4.29804 28 5.6C28 6.90196 28 7.55294 27.8569 8.08704C27.4685 9.53643 26.3364 10.6685 24.887 11.0569C24.3529 11.2 23.702 11.2 22.4 11.2C21.098 11.2 20.4471 11.2 19.913 11.0569C18.4636 10.6685 17.3315 9.53643 16.9431 8.08704C16.8 7.55294 16.8 6.90196 16.8 5.6Z" fill="#96ADFF"/>
<path d="M16.9431 19.913C16.8 20.4471 16.8 21.098 16.8 22.4C16.8 23.702 16.8 24.3529 16.9431 24.887C17.3315 26.3364 18.4636 27.4685 19.913 27.8569C20.4471 28 21.098 28 22.4 28C23.702 28 24.3529 28 24.887 27.8569C26.3364 27.4685 27.4685 26.3364 27.8569 24.887C28 24.3529 28 23.702 28 22.4C28 21.098 28 20.4471 27.8569 19.913C27.4685 18.4636 26.3364 17.3315 24.887 16.9431C24.3529 16.8 23.702 16.8 22.4 16.8C21.098 16.8 20.4471 16.8 19.913 16.9431C18.4636 17.3315 17.3315 18.4636 16.9431 19.913Z" fill="#96ADFF"/>
</svg>
