<svg width="30" height="42" viewBox="0 0 30 42" fill="none" xmlns="http://www.w3.org/2000/svg">
<path d="M27.23 38.235C25.334 39.4463 23.1747 40.368 20.752 41C18.3293 41.632 15.9067 41.948 13.484 41.948C9.58667 41.948 6.47933 41 4.162 39.104C1.89733 37.1553 0.765 34.2587 0.765 30.414V14.219C0.765 9.953 2.08167 6.635 4.715 4.265C7.401 1.895 10.9297 0.709996 15.301 0.709996C19.6723 0.709996 23.0693 1.895 25.492 4.265C27.9673 6.58233 29.205 9.82133 29.205 13.982V25.358L8.033 26.543V29.624C8.033 31.4673 8.55967 32.8893 9.613 33.89C10.719 34.838 12.2463 35.312 14.195 35.312C17.0917 35.312 20.5413 34.2587 24.544 32.152L27.23 38.235ZM21.937 13.903C21.937 11.7437 21.2523 10.1637 19.883 9.163C18.5137 8.10967 16.96 7.583 15.222 7.583C12.9573 7.583 11.193 8.215 9.929 9.479C8.665 10.6903 8.033 12.2967 8.033 14.298V19.828L21.937 19.038V13.903Z" fill="#81FEC6"/>
</svg>
