<svg width="28" height="28" viewBox="0 0 28 28" fill="none" xmlns="http://www.w3.org/2000/svg">
<path d="M27.8716 27.2532L19.8155 19.1971C21.1761 17.6754 21.8895 15.683 21.8041 13.6435C21.7186 11.604 20.8411 9.67824 19.3579 8.27568C17.8748 6.87311 15.9031 6.10436 13.862 6.13284C11.8209 6.16133 9.8714 6.98482 8.42799 8.42824C6.98458 9.87165 6.16109 11.8211 6.1326 13.8622C6.10411 15.9033 6.87287 17.875 8.27543 19.3582C9.678 20.8413 11.6037 21.7189 13.6432 21.8043C15.6828 21.8898 17.6752 21.1764 19.1969 19.8157L27.253 27.8719C27.3355 27.9515 27.446 27.9956 27.5607 27.9946C27.6754 27.9937 27.7852 27.9476 27.8663 27.8665C27.9474 27.7854 27.9934 27.6757 27.9944 27.561C27.9954 27.4463 27.9513 27.3357 27.8716 27.2532Z" fill="#81FEC6"/>
<path d="M25.8125 0H18.375C17.7951 0.000694688 17.2391 0.231386 16.829 0.641471C16.4189 1.05156 16.1882 1.60755 16.1875 2.1875V9.625C16.1882 10.2049 16.4189 10.7609 16.829 11.171C17.2391 11.5811 17.7951 11.8118 18.375 11.8125H25.8125C26.3924 11.8118 26.9484 11.5811 27.3585 11.171C27.7686 10.7609 27.9993 10.2049 28 9.625V2.1875C27.9993 1.60755 27.7686 1.05156 27.3585 0.641471C26.9484 0.231386 26.3924 0.000694688 25.8125 0V0ZM27.125 9.625C27.125 9.9731 26.9867 10.3069 26.7406 10.5531C26.4944 10.7992 26.1606 10.9375 25.8125 10.9375H18.375C18.0269 10.9375 17.6931 10.7992 17.4469 10.5531C17.2008 10.3069 17.0625 9.9731 17.0625 9.625V2.1875C17.0625 1.8394 17.2008 1.50556 17.4469 1.25942C17.6931 1.01328 18.0269 0.875 18.375 0.875H25.8125C26.1606 0.875 26.4944 1.01328 26.7406 1.25942C26.9867 1.50556 27.125 1.8394 27.125 2.1875V9.625Z" fill="#96ADFF"/>
<path d="M24.3906 2.29688H19.7969C19.4488 2.29688 19.1149 2.43516 18.8688 2.6813C18.6227 2.92744 18.4844 3.26128 18.4844 3.60938V8.20312C18.4844 8.55122 18.6227 8.88506 18.8688 9.1312C19.1149 9.37734 19.4488 9.51562 19.7969 9.51562H24.3906C24.7387 9.51562 25.0726 9.37734 25.3187 9.1312C25.5648 8.88506 25.7031 8.55122 25.7031 8.20312V3.60938C25.7031 3.26128 25.5648 2.92744 25.3187 2.6813C25.0726 2.43516 24.7387 2.29688 24.3906 2.29688ZM24.8281 8.20312C24.8281 8.31916 24.782 8.43044 24.7 8.51248C24.6179 8.59453 24.5067 8.64062 24.3906 8.64062H19.7969C19.6808 8.64062 19.5696 8.59453 19.4875 8.51248C19.4055 8.43044 19.3594 8.31916 19.3594 8.20312V3.60938C19.3594 3.49334 19.4055 3.38206 19.4875 3.30002C19.5696 3.21797 19.6808 3.17188 19.7969 3.17188H24.3906C24.5067 3.17188 24.6179 3.21797 24.7 3.30002C24.782 3.38206 24.8281 3.49334 24.8281 3.60938V8.20312Z" fill="#96ADFF"/>
<path d="M22.9688 4.59375H21.2188C21.1027 4.59375 20.9914 4.63984 20.9094 4.72189C20.8273 4.80394 20.7812 4.91522 20.7812 5.03125V6.78125C20.7812 6.89728 20.8273 7.00856 20.9094 7.09061C20.9914 7.17266 21.1027 7.21875 21.2188 7.21875H22.9688C23.0848 7.21875 23.1961 7.17266 23.2781 7.09061C23.3602 7.00856 23.4062 6.89728 23.4062 6.78125V5.03125C23.4062 4.91522 23.3602 4.80394 23.2781 4.72189C23.1961 4.63984 23.0848 4.59375 22.9688 4.59375ZM22.5312 6.34375H21.6562V5.46875H22.5312V6.34375Z" fill="#96ADFF"/>
<path d="M9.625 0H2.1875C1.60755 0.000694688 1.05156 0.231386 0.641471 0.641471C0.231386 1.05156 0.000694688 1.60755 0 2.1875L0 9.625C0.000694688 10.2049 0.231386 10.7609 0.641471 11.171C1.05156 11.5811 1.60755 11.8118 2.1875 11.8125H9.625C10.2049 11.8118 10.7609 11.5811 11.171 11.171C11.5811 10.7609 11.8118 10.2049 11.8125 9.625V2.1875C11.8118 1.60755 11.5811 1.05156 11.171 0.641471C10.7609 0.231386 10.2049 0.000694688 9.625 0V0ZM10.9375 9.625C10.9375 9.9731 10.7992 10.3069 10.5531 10.5531C10.3069 10.7992 9.9731 10.9375 9.625 10.9375H2.1875C1.8394 10.9375 1.50556 10.7992 1.25942 10.5531C1.01328 10.3069 0.875 9.9731 0.875 9.625V2.1875C0.875 1.8394 1.01328 1.50556 1.25942 1.25942C1.50556 1.01328 1.8394 0.875 2.1875 0.875H9.625C9.9731 0.875 10.3069 1.01328 10.5531 1.25942C10.7992 1.50556 10.9375 1.8394 10.9375 2.1875V9.625Z" fill="#96ADFF"/>
<path d="M8.20312 2.29688H3.60938C3.26128 2.29688 2.92744 2.43516 2.6813 2.6813C2.43516 2.92744 2.29688 3.26128 2.29688 3.60938V8.20312C2.29688 8.55122 2.43516 8.88506 2.6813 9.1312C2.92744 9.37734 3.26128 9.51562 3.60938 9.51562H8.20312C8.55122 9.51562 8.88506 9.37734 9.1312 9.1312C9.37734 8.88506 9.51562 8.55122 9.51562 8.20312V3.60938C9.51562 3.26128 9.37734 2.92744 9.1312 2.6813C8.88506 2.43516 8.55122 2.29688 8.20312 2.29688ZM8.64062 8.20312C8.64062 8.31916 8.59453 8.43044 8.51248 8.51248C8.43044 8.59453 8.31916 8.64062 8.20312 8.64062H3.60938C3.49334 8.64062 3.38206 8.59453 3.30002 8.51248C3.21797 8.43044 3.17188 8.31916 3.17188 8.20312V3.60938C3.17188 3.49334 3.21797 3.38206 3.30002 3.30002C3.38206 3.21797 3.49334 3.17188 3.60938 3.17188H8.20312C8.31916 3.17188 8.43044 3.21797 8.51248 3.30002C8.59453 3.38206 8.64062 3.49334 8.64062 3.60938V8.20312Z" fill="#96ADFF"/>
<path d="M6.78125 4.59375H5.03125C4.91522 4.59375 4.80394 4.63984 4.72189 4.72189C4.63984 4.80394 4.59375 4.91522 4.59375 5.03125V6.78125C4.59375 6.89728 4.63984 7.00856 4.72189 7.09061C4.80394 7.17266 4.91522 7.21875 5.03125 7.21875H6.78125C6.89728 7.21875 7.00856 7.17266 7.09061 7.09061C7.17266 7.00856 7.21875 6.89728 7.21875 6.78125V5.03125C7.21875 4.91522 7.17266 4.80394 7.09061 4.72189C7.00856 4.63984 6.89728 4.59375 6.78125 4.59375ZM6.34375 6.34375H5.46875V5.46875H6.34375V6.34375Z" fill="#96ADFF"/>
<path d="M24.3906 18.4844H19.7969C19.4488 18.4844 19.1149 18.6227 18.8688 18.8688C18.6227 19.1149 18.4844 19.4488 18.4844 19.7969V24.3906C18.4844 24.7387 18.6227 25.0726 18.8688 25.3187C19.1149 25.5648 19.4488 25.7031 19.7969 25.7031H24.3906C24.7387 25.7031 25.0726 25.5648 25.3187 25.3187C25.5648 25.0726 25.7031 24.7387 25.7031 24.3906V19.7969C25.7031 19.4488 25.5648 19.1149 25.3187 18.8688C25.0726 18.6227 24.7387 18.4844 24.3906 18.4844ZM24.8281 24.3906C24.8281 24.5067 24.782 24.6179 24.7 24.7C24.6179 24.782 24.5067 24.8281 24.3906 24.8281H19.7969C19.6808 24.8281 19.5696 24.782 19.4875 24.7C19.4055 24.6179 19.3594 24.5067 19.3594 24.3906V19.7969C19.3594 19.6808 19.4055 19.5696 19.4875 19.4875C19.5696 19.4055 19.6808 19.3594 19.7969 19.3594H24.3906C24.5067 19.3594 24.6179 19.4055 24.7 19.4875C24.782 19.5696 24.8281 19.6808 24.8281 19.7969V24.3906Z" fill="#96ADFF"/>
<path d="M22.9688 20.7812H21.2188C21.1027 20.7812 20.9914 20.8273 20.9094 20.9094C20.8273 20.9914 20.7812 21.1027 20.7812 21.2188V22.9688C20.7812 23.0848 20.8273 23.1961 20.9094 23.2781C20.9914 23.3602 21.1027 23.4062 21.2188 23.4062H22.9688C23.0848 23.4062 23.1961 23.3602 23.2781 23.2781C23.3602 23.1961 23.4062 23.0848 23.4062 22.9688V21.2188C23.4062 21.1027 23.3602 20.9914 23.2781 20.9094C23.1961 20.8273 23.0848 20.7812 22.9688 20.7812ZM22.5312 22.5312H21.6562V21.6562H22.5312V22.5312Z" fill="#96ADFF"/>
<path d="M8.20312 25.7031C8.55122 25.7031 8.88506 25.5648 9.1312 25.3187C9.37734 25.0726 9.51562 24.7387 9.51562 24.3906V19.7969C9.51562 19.4488 9.37734 19.1149 9.1312 18.8688C8.88506 18.6227 8.55122 18.4844 8.20312 18.4844H3.60938C3.26128 18.4844 2.92744 18.6227 2.6813 18.8688C2.43516 19.1149 2.29688 19.4488 2.29688 19.7969V24.3906C2.29688 24.7387 2.43516 25.0726 2.6813 25.3187C2.92744 25.5648 3.26128 25.7031 3.60938 25.7031H8.20312ZM3.17188 24.3906V19.7969C3.17188 19.6808 3.21797 19.5696 3.30002 19.4875C3.38206 19.4055 3.49334 19.3594 3.60938 19.3594H8.20312C8.31916 19.3594 8.43044 19.4055 8.51248 19.4875C8.59453 19.5696 8.64062 19.6808 8.64062 19.7969V24.3906C8.64062 24.5067 8.59453 24.6179 8.51248 24.7C8.43044 24.782 8.31916 24.8281 8.20312 24.8281H3.60938C3.49334 24.8281 3.38206 24.782 3.30002 24.7C3.21797 24.6179 3.17188 24.5067 3.17188 24.3906Z" fill="#96ADFF"/>
<path d="M5.03125 23.4062H6.78125C6.89728 23.4062 7.00856 23.3602 7.09061 23.2781C7.17266 23.1961 7.21875 23.0848 7.21875 22.9688V21.2188C7.21875 21.1027 7.17266 20.9914 7.09061 20.9094C7.00856 20.8273 6.89728 20.7812 6.78125 20.7812H5.03125C4.91522 20.7812 4.80394 20.8273 4.72189 20.9094C4.63984 20.9914 4.59375 21.1027 4.59375 21.2188V22.9688C4.59375 23.0848 4.63984 23.1961 4.72189 23.2781C4.80394 23.3602 4.91522 23.4062 5.03125 23.4062ZM5.46875 21.6562H6.34375V22.5312H5.46875V21.6562Z" fill="#96ADFF"/>
<path d="M14 0C13.884 0 13.7727 0.0460936 13.6906 0.128141C13.6086 0.210188 13.5625 0.321468 13.5625 0.4375V14C13.5625 14.116 13.6086 14.2273 13.6906 14.3094C13.7727 14.3914 13.884 14.4375 14 14.4375C14.116 14.4375 14.2273 14.3914 14.3094 14.3094C14.3914 14.2273 14.4375 14.116 14.4375 14V0.4375C14.4375 0.321468 14.3914 0.210188 14.3094 0.128141C14.2273 0.0460936 14.116 0 14 0V0Z" fill="#96ADFF"/>
<path d="M10.5 13.5625H0.4375C0.321468 13.5625 0.210188 13.6086 0.128141 13.6906C0.0460936 13.7727 0 13.884 0 14C0 14.116 0.0460936 14.2273 0.128141 14.3094C0.210188 14.3914 0.321468 14.4375 0.4375 14.4375H10.5C10.616 14.4375 10.7273 14.4836 10.8094 14.5656C10.8914 14.6477 10.9375 14.759 10.9375 14.875V15.75C10.9375 15.866 10.8914 15.9773 10.8094 16.0594C10.7273 16.1414 10.616 16.1875 10.5 16.1875H2.73438C2.61834 16.1875 2.50706 16.2336 2.42502 16.3156C2.34297 16.3977 2.29688 16.509 2.29688 16.625C2.29688 16.741 2.34297 16.8523 2.42502 16.9344C2.50706 17.0164 2.61834 17.0625 2.73438 17.0625H10.5C10.8481 17.0625 11.1819 16.9242 11.4281 16.6781C11.6742 16.4319 11.8125 16.0981 11.8125 15.75V14.875C11.8125 14.5269 11.6742 14.1931 11.4281 13.9469C11.1819 13.7008 10.8481 13.5625 10.5 13.5625Z" fill="#96ADFF"/>
<path d="M11.375 18.4844C11.259 18.4844 11.1477 18.5305 11.0656 18.6125C10.9836 18.6946 10.9375 18.8058 10.9375 18.9219V25.8125C10.9375 26.1606 10.7992 26.4944 10.5531 26.7406C10.3069 26.9867 9.9731 27.125 9.625 27.125H2.1875C1.8394 27.125 1.50556 26.9867 1.25942 26.7406C1.01328 26.4944 0.875 26.1606 0.875 25.8125V16.625C0.875 16.509 0.828906 16.3977 0.746859 16.3156C0.664812 16.2336 0.553532 16.1875 0.4375 16.1875C0.321468 16.1875 0.210188 16.2336 0.128141 16.3156C0.0460936 16.3977 0 16.509 0 16.625L0 25.8125C0.000694688 26.3924 0.231386 26.9484 0.641471 27.3585C1.05156 27.7686 1.60755 27.9993 2.1875 28H9.625C10.2049 27.9993 10.7609 27.7686 11.171 27.3585C11.5811 26.9484 11.8118 26.3924 11.8125 25.8125V18.9219C11.8125 18.8058 11.7664 18.6946 11.6844 18.6125C11.6023 18.5305 11.491 18.4844 11.375 18.4844Z" fill="#96ADFF"/>
<path d="M14 16.1875C13.884 16.1875 13.7727 16.2336 13.6906 16.3156C13.6086 16.3977 13.5625 16.509 13.5625 16.625V27.5625C13.5625 27.6785 13.6086 27.7898 13.6906 27.8719C13.7727 27.9539 13.884 28 14 28C14.116 28 14.2273 27.9539 14.3094 27.8719C14.3914 27.7898 14.4375 27.6785 14.4375 27.5625V16.625C14.4375 16.509 14.3914 16.3977 14.3094 16.3156C14.2273 16.2336 14.116 16.1875 14 16.1875Z" fill="#96ADFF"/>
<path d="M25.2656 27.125H16.625C16.509 27.125 16.3977 27.1711 16.3156 27.2531C16.2336 27.3352 16.1875 27.4465 16.1875 27.5625C16.1875 27.6785 16.2336 27.7898 16.3156 27.8719C16.3977 27.9539 16.509 28 16.625 28H25.2656C25.3817 28 25.4929 27.9539 25.575 27.8719C25.657 27.7898 25.7031 27.6785 25.7031 27.5625C25.7031 27.4465 25.657 27.3352 25.575 27.2531C25.4929 27.1711 25.3817 27.125 25.2656 27.125Z" fill="#96ADFF"/>
<path d="M27.5625 13.5625H27.0156C26.4357 13.5632 25.8797 13.7939 25.4696 14.204C25.0595 14.6141 24.8288 15.1701 24.8281 15.75V16.625C24.8281 16.741 24.8742 16.8523 24.9563 16.9344C25.0383 17.0164 25.1496 17.0625 25.2656 17.0625C25.3817 17.0625 25.4929 17.0164 25.575 16.9344C25.657 16.8523 25.7031 16.741 25.7031 16.625V15.75C25.7031 15.4019 25.8414 15.0681 26.0875 14.8219C26.3337 14.5758 26.6675 14.4375 27.0156 14.4375H27.5625C27.6785 14.4375 27.7898 14.3914 27.8719 14.3094C27.9539 14.2273 28 14.116 28 14C28 13.884 27.9539 13.7727 27.8719 13.6906C27.7898 13.6086 27.6785 13.5625 27.5625 13.5625Z" fill="#96ADFF"/>
<path d="M16.625 25.7031C16.741 25.7031 16.8523 25.657 16.9344 25.575C17.0164 25.4929 17.0625 25.3817 17.0625 25.2656V18.375C17.0625 18.0269 17.2008 17.6931 17.4469 17.4469C17.6931 17.2008 18.0269 17.0625 18.375 17.0625H22.9688C23.0848 17.0625 23.1961 17.0164 23.2781 16.9344C23.3602 16.8523 23.4062 16.741 23.4062 16.625C23.4062 16.509 23.3602 16.3977 23.2781 16.3156C23.1961 16.2336 23.0848 16.1875 22.9688 16.1875H18.375C17.7951 16.1882 17.2391 16.4189 16.829 16.829C16.4189 17.2391 16.1882 17.7951 16.1875 18.375V25.2656C16.1875 25.3817 16.2336 25.4929 16.3156 25.575C16.3977 25.657 16.509 25.7031 16.625 25.7031Z" fill="#96ADFF"/>
<path d="M27.5625 16.1875C27.4465 16.1875 27.3352 16.2336 27.2531 16.3156C27.1711 16.3977 27.125 16.509 27.125 16.625V24.9375C27.125 25.0535 27.1711 25.1648 27.2531 25.2469C27.3352 25.3289 27.4465 25.375 27.5625 25.375C27.6785 25.375 27.7898 25.3289 27.8719 25.2469C27.9539 25.1648 28 25.0535 28 24.9375V16.625C28 16.509 27.9539 16.3977 27.8719 16.3156C27.7898 16.2336 27.6785 16.1875 27.5625 16.1875Z" fill="#96ADFF"/>
<path d="M22.9688 14.4375C23.0848 14.4375 23.1961 14.3914 23.2781 14.3094C23.3602 14.2273 23.4062 14.116 23.4062 14C23.4062 13.884 23.3602 13.7727 23.2781 13.6906C23.1961 13.6086 23.0848 13.5625 22.9688 13.5625H16.625C16.509 13.5625 16.3977 13.6086 16.3156 13.6906C16.2336 13.7727 16.1875 13.884 16.1875 14C16.1875 14.116 16.2336 14.2273 16.3156 14.3094C16.3977 14.3914 16.509 14.4375 16.625 14.4375H22.9688Z" fill="#96ADFF"/>
</svg>
