<svg width="21" height="13" viewBox="0 0 21 13" fill="none" xmlns="http://www.w3.org/2000/svg">
<path fill-rule="evenodd" clip-rule="evenodd" d="M13.7157 1.0349C13.7806 0.911192 13.8717 0.802927 13.9885 0.718482C14.4644 0.374499 15.1866 0.556147 15.6015 1.12442L19.7335 6.78316C20.1484 7.35127 20.099 8.09079 19.6231 8.43476C19.1472 8.77883 18.425 8.59711 18.0101 8.02892L14.7066 3.50481L10.1541 11.9038C9.86086 12.445 9.25464 12.691 8.7543 12.4928C8.27393 12.6426 7.74018 12.4334 7.49556 11.9707L4.47899 6.26345L1.91155 9.58672C1.54987 10.0549 0.878983 10.1398 0.413118 9.77638C-0.0527484 9.41303 -0.137299 8.73895 0.224408 8.27084L3.49854 4.03266C3.83017 3.60343 4.42187 3.49636 4.87704 3.76186C5.27843 3.74119 5.67461 3.95012 5.8756 4.33041L8.81392 9.88964L13.4077 1.41447C13.4892 1.26409 13.5949 1.1365 13.7157 1.0349Z" fill="#EEEEEE"/>
</svg>
