<svg width="28" height="20" viewBox="0 0 28 20" fill="none" xmlns="http://www.w3.org/2000/svg">
<path d="M13.7143 7C13.6137 7 13.5142 7.00379 13.4159 7.01121C13.6058 7.30283 13.7143 7.64033 13.7143 8C13.7143 9.10457 12.6909 10 11.4286 10C11.0175 10 10.6318 9.90506 10.2985 9.73887C10.29 9.82493 10.2857 9.91202 10.2857 10C10.2857 11.6569 11.8207 13 13.7143 13C15.6078 13 17.1429 11.6569 17.1429 10C17.1429 8.34315 15.6078 7 13.7143 7Z" fill="#96ADFF"/>
<path fill-rule="evenodd" clip-rule="evenodd" d="M13.7143 20C21.2885 20 27.4286 13 27.4286 10C27.4286 7 21.2885 0 13.7143 0C6.14009 0 0 7 0 10C0 13 6.14009 20 13.7143 20ZM8 10C8 7.23858 10.5584 5 13.7143 5C16.8702 5 19.4286 7.23858 19.4286 10C19.4286 12.7614 16.8702 15 13.7143 15C10.5584 15 8 12.7614 8 10Z" fill="#96ADFF"/>
</svg>
