<svg width="246" height="246" viewBox="0 0 246 246" fill="none" xmlns="http://www.w3.org/2000/svg">
<path d="M196.576 92.5652C200.651 96.0435 201.162 102.199 197.713 106.315C197.366 106.727 196.985 107.112 196.576 107.462H196.542C192.766 110.645 191.98 116.191 194.723 120.314C197.675 124.793 196.467 130.838 192.032 133.814C191.569 134.126 191.081 134.396 190.57 134.621C187.069 136.173 184.806 139.666 184.803 143.525C184.803 144.498 184.94 145.468 185.215 146.4V146.435C186.794 151.548 183.962 156.987 178.895 158.581C178.36 158.751 177.807 158.872 177.251 158.941H177.217C172.342 159.561 168.714 163.788 168.807 168.745V168.78C168.896 174.135 164.664 178.549 159.357 178.639C158.787 178.649 158.214 178.608 157.651 178.514C157.15 178.445 156.645 178.41 156.141 178.41C151.799 178.396 147.985 181.32 146.838 185.547C145.692 189.773 141.878 192.697 137.536 192.683C136.098 192.693 134.68 192.371 133.382 191.747C132.088 191.11 130.667 190.778 129.229 190.778C125.899 190.778 122.807 192.52 121.059 195.385V195.42C118.244 199.975 112.306 201.368 107.789 198.527C107.308 198.225 106.855 197.879 106.437 197.498C102.76 194.217 97.2404 194.217 93.5642 197.498C89.6029 201.091 83.5068 200.765 79.947 196.767C79.5727 196.348 79.2364 195.898 78.9411 195.42V195.385C76.3634 191.166 71.0426 189.593 66.618 191.747H66.5836C61.7953 194.058 56.0558 192.018 53.7664 187.185C53.516 186.658 53.3132 186.111 53.1621 185.547C52.0226 181.324 48.2292 178.393 43.894 178.376C43.3757 178.386 42.8608 178.434 42.3495 178.514C41.8382 178.594 41.3233 178.642 40.805 178.653C35.4842 178.639 31.1799 174.277 31.1936 168.905C31.1936 168.863 31.1936 168.821 31.1936 168.78V168.745C31.2862 163.788 27.658 159.561 22.7838 158.942H22.7494C17.4838 158.266 13.7595 153.409 14.4287 148.095C14.5009 147.534 14.6208 146.976 14.7857 146.436V146.401C16.2275 141.672 13.924 136.604 9.43098 134.623C4.55322 132.457 2.33563 126.713 4.47783 121.791C4.70087 121.278 4.96884 120.783 5.27744 120.315C8.04425 116.2 7.25479 110.632 3.45829 107.463H3.42352C-0.651106 103.984 -1.16244 97.8285 2.28719 93.7132C2.63407 93.3008 3.01493 92.9164 3.42352 92.5663L3.4579 92.5317C7.23722 89.3652 8.02316 83.8223 5.27705 79.7136V79.6789C2.33172 75.2206 3.52313 69.1995 7.94074 66.227C8.41105 65.9084 8.91222 65.6344 9.43059 65.4058C12.9388 63.8537 15.2111 60.3651 15.2318 56.5025C15.2353 55.5153 15.0841 54.5313 14.7857 53.5926C14.4869 52.654 14.3361 51.67 14.3396 50.6828C14.3396 45.7809 17.9611 41.6478 22.7838 41.0521C27.5791 40.4423 31.1799 36.334 31.1936 31.4562V31.0749C31.1834 25.7189 35.4776 21.3678 40.7843 21.354C41.3093 21.354 41.8347 21.3954 42.3495 21.4786C42.8608 21.5582 43.3757 21.6067 43.894 21.6169C48.2327 21.6134 52.0292 18.6724 53.1621 14.4459C54.3359 10.2229 58.1531 7.30594 62.4988 7.30949C63.9235 7.29924 65.334 7.62132 66.618 8.245V8.27969C71.0528 10.4034 76.3598 8.82373 78.9411 4.60742C80.695 1.73545 83.8017 -0.00705408 87.1451 4.20831e-05C89.5169 -0.00705408 91.8099 0.883515 93.5642 2.49434C97.2201 5.82363 102.781 5.82363 106.437 2.49434C108.19 0.883515 110.483 -0.00705408 112.855 4.20831e-05C116.199 -0.00705408 119.305 1.73584 121.059 4.60742C122.813 7.479 125.92 9.2219 129.263 9.21481C130.688 9.20771 132.092 8.88917 133.382 8.27929L133.417 8.2446C138.226 5.94071 143.975 8.0124 146.255 12.8658C146.495 13.3751 146.687 13.9014 146.838 14.4455C147.978 18.6685 151.771 21.5992 156.106 21.6165C156.625 21.6063 157.14 21.5578 157.651 21.4782C158.173 21.3985 158.701 21.35 159.23 21.3398C164.551 21.3709 168.841 25.7497 168.807 31.1195C168.807 31.1609 168.807 31.2027 168.807 31.2476V31.386C168.797 36.2843 172.401 40.4277 177.217 41.0513H177.251C182.517 41.7235 186.248 46.5733 185.585 51.8876C185.513 52.4663 185.39 53.0344 185.215 53.5919C184.944 54.5274 184.806 55.4936 184.803 56.4674C184.793 60.3371 187.058 63.8462 190.57 65.4054C195.448 67.5705 197.665 73.3145 195.523 78.2372C195.3 78.7501 195.032 79.2453 194.723 79.7128C191.957 83.818 192.746 89.3746 196.542 92.5309L196.576 92.5652Z" transform="translate(0.525391 52.2893) rotate(-15)" fill="#E84C3D"/>
<path d="M13.6641 4.9375V22H10.207V7.80859H7.04297L6.80859 13.8555C6.71484 15.8477 6.48828 17.4297 6.12891 18.6016C5.77734 19.7656 5.25781 20.6211 4.57031 21.168C3.89062 21.7148 2.97266 21.9922 1.81641 22H0.972656V19.1406L1.37109 19.1055C2.08984 19.0195 2.60547 18.5508 2.91797 17.6992C3.23828 16.8398 3.4375 15.3242 3.51562 13.1523L3.73828 4.9375H13.6641ZM21.832 12.5195L24.1289 4.9375H27.832L23.1562 18.6484C22.625 20.0078 22.0508 20.9414 21.4336 21.4492C20.8242 21.957 20.0898 22.2227 19.2305 22.2461H18.8555L18.0352 22.1992L17.9766 19.3398C18.0547 19.3711 18.3086 19.3867 18.7383 19.3867C19.1758 19.3867 19.5039 19.2891 19.7227 19.0938C19.9492 18.8984 20.1445 18.4609 20.3086 17.7812L20.4727 17.1602L15.5977 4.9375H19.2891L21.832 12.5195ZM41.5664 4.9375V22H38.1211V15.5664C37.207 15.7695 36.3477 15.8711 35.543 15.8711C33.6836 15.8711 32.2656 15.4023 31.2891 14.4648C30.3125 13.5273 29.8047 12.1758 29.7656 10.4102V4.9375H33.2227V10.2227C33.2227 11.2227 33.3906 11.9375 33.7266 12.3672C34.0703 12.7969 34.6758 13.0117 35.543 13.0117C36.3789 13.0117 37.2383 12.9102 38.1211 12.707V4.9375H41.5664ZM47.7891 4.9375V19.1406H51.2578V4.9375H54.7031V19.1406H58.125V4.9375H61.5703V22H44.332V4.9375H47.7891ZM72.6797 18.5078H67.9805L67.0664 22H63.4219L68.7539 4.9375H71.9062L77.2734 22H73.5938L72.6797 18.5078ZM68.7305 15.6367H71.918L70.3242 9.55469L68.7305 15.6367ZM85.2422 22V15.8594H83.4375L80.918 22H77.2031L80.2266 14.6172C78.8203 13.6406 78.1172 12.1719 78.1172 10.2109C78.1172 8.52344 78.5898 7.22266 79.5352 6.30859C80.4883 5.39453 81.8359 4.9375 83.5781 4.9375H88.6992V22H85.2422ZM81.5742 10.4805C81.5742 11.4258 81.7422 12.1133 82.0781 12.543C82.4141 12.9648 82.9375 13.1758 83.6484 13.1758H85.2422V7.80859H83.5312C82.2266 7.80859 81.5742 8.69922 81.5742 10.4805ZM96.7969 4.9375H100.242V19.1406H105.293V4.9375H108.75V19.1523H110.848L110.613 26.1133H107.402V22H96.7969V4.9375ZM121.77 14.6172H116.402V19.1406H122.754V22H112.957V4.9375H122.73V7.80859H116.402V11.8398H121.77V14.6172ZM136.711 22H133.277V14.6992H128.191V22H124.746V4.9375H128.191V11.8398H133.277V4.9375H136.711V22ZM147.844 18.5078H143.145L142.23 22H138.586L143.918 4.9375H147.07L152.438 22H148.758L147.844 18.5078ZM143.895 15.6367H147.082L145.488 9.55469L143.895 15.6367ZM36.3984 50H32.9648V42.6992H27.8789V50H24.4336V32.9375H27.8789V39.8398H32.9648V32.9375H36.3984V50ZM47.5312 46.5078H42.832L41.918 50H38.2734L43.6055 32.9375H46.7578L52.125 50H48.4453L47.5312 46.5078ZM43.582 43.6367H46.7695L45.1758 37.5547L43.582 43.6367ZM62.707 44V50H59.2617V32.9375H65.0742C66.7617 32.9375 68.1055 33.4609 69.1055 34.5078C70.1133 35.5547 70.6172 36.9141 70.6172 38.5859C70.6172 40.2578 70.1211 41.5781 69.1289 42.5469C68.1367 43.5156 66.7617 44 65.0039 44H62.707ZM62.707 41.1289H65.0742C65.7305 41.1289 66.2383 40.9141 66.5977 40.4844C66.957 40.0547 67.1367 39.4297 67.1367 38.6094C67.1367 37.7578 66.9531 37.082 66.5859 36.582C66.2188 36.0742 65.7266 35.8164 65.1094 35.8086H62.707V41.1289ZM76.418 39.0664H78.457C80.1836 39.0664 81.5586 39.5586 82.582 40.543C83.6055 41.5195 84.1172 42.8281 84.1172 44.4688C84.1172 46.1016 83.6172 47.4258 82.6172 48.4414C81.6172 49.4492 80.293 49.9688 78.6445 50H72.9609V32.9375H76.418V39.0664ZM88.4531 50H85.0078V32.9375H88.4531V50ZM76.418 41.9258V47.1406H78.5039C79.1758 47.1406 79.7031 46.8906 80.0859 46.3906C80.4766 45.8828 80.6719 45.2344 80.6719 44.4453C80.6719 43.7031 80.4805 43.1016 80.0977 42.6406C79.7227 42.1719 79.1992 41.9336 78.5273 41.9258H76.418ZM103.195 50H99.7617V42.6992H94.6758V50H91.2305V32.9375H94.6758V39.8398H99.7617V32.9375H103.195V50ZM110.941 43.0391H109.441V50H105.996V32.9375H109.441V39.7578H110.602L113.566 32.9375H117.762L113.59 40.8828L118.23 50H114.129L110.941 43.0391ZM128.332 42.6172H122.965V47.1406H129.316V50H119.52V32.9375H129.293V35.8086H122.965V39.8398H128.332V42.6172Z" transform="translate(48.2954 137.841) rotate(-15)" fill="white"/>
<path d="M35.736 0V2.3862L4.06091 9.14712V7.75517H0C0 12.3287 0 11.1356 0 21.4758H4.06091V20.0839L8.12183 20.8793V27.2425C8.12183 29.4299 9.94924 31.2195 12.1827 31.2195H23.9594C26.1929 31.2195 28.0203 29.4299 28.0203 27.2425V25.0552L35.9391 26.8448V29.231H40C40 2.7839 40 9.54482 40 0H35.736ZM23.9594 27.2425H11.9797V21.6747L23.9594 24.2597V27.2425ZM4.06091 15.908V13.1241L35.9391 6.16436V22.6689L4.06091 15.908Z" transform="translate(90.2227 77.9482) rotate(-15)" fill="white"/>
</svg>
