<svg width="65" height="49" viewBox="0 0 65 49" fill="none" xmlns="http://www.w3.org/2000/svg">
<path d="M5.41671 14.9722C5.76316 14.9722 6.10962 14.8392 6.37419 14.5734C6.9032 14.0417 6.9032 13.1804 6.37419 12.6488L2.70842 8.96419V1.36115C2.70842 0.608799 2.10272 0 1.35421 0C0.605693 0 0 0.608799 0 1.36115V9.52782C0 9.88932 0.142822 10.235 0.396729 10.4902L4.45923 14.5735C4.7238 14.8392 5.07025 14.9722 5.41671 14.9722Z" transform="translate(13.5415 5.44449)" fill="#034EA2"/>
<path d="M64.6033 24.8988L53.77 14.0099C53.5161 13.7547 53.1723 13.6112 52.8125 13.6112H43.3333V9.52782C43.3333 8.77547 42.7276 8.16667 41.9791 8.16667H28.147C25.6759 3.32639 20.6694 0 14.8958 0C6.68357 0 0 6.71644 0 14.9722C0 21.8107 4.59126 27.5802 10.8333 29.3639V38.111C10.8333 41.1137 13.2639 43.5555 16.25 43.5555H16.3869C17.016 46.6581 19.7501 49 23.0208 49C26.2915 49 29.0255 46.6581 29.6547 43.5555H46.1784C46.8077 46.6581 49.5418 49 52.8125 49C56.0832 49 58.8173 46.6581 59.4464 43.5555H63.6458C64.3943 43.5555 65 42.9467 65 42.1944V25.861C65 25.4995 64.8572 25.154 64.6033 24.8988ZM2.70829 14.9722C2.70829 8.21707 8.17527 2.72218 14.8958 2.72218C21.6163 2.72218 27.0833 8.2172 27.0833 14.9722C27.0833 21.7272 21.6163 27.2222 14.8958 27.2222C8.17527 27.2222 2.70829 21.7273 2.70829 14.9722ZM23.0208 46.2778C20.7806 46.2778 18.9583 44.4462 18.9583 42.1945C18.9583 39.9428 20.7806 38.1112 23.0208 38.1112C25.261 38.1112 27.0833 39.9428 27.0833 42.1945C27.0833 44.4462 25.261 46.2778 23.0208 46.2778ZM40.625 40.8333H29.6549C29.0257 37.7308 26.2916 35.3888 23.0209 35.3888C19.7502 35.3888 17.0162 37.7308 16.387 40.8333H16.25C14.7556 40.8333 13.5417 39.6118 13.5417 38.1112V29.8756C13.9883 29.9163 14.4388 29.9445 14.8959 29.9445C23.1083 29.9445 29.7917 23.228 29.7917 14.9723C29.7917 13.5554 29.5817 12.1891 29.2142 10.889H40.625V40.8333ZM52.8125 46.2778C50.5723 46.2778 48.75 44.4462 48.75 42.1945C48.75 39.9428 50.5723 38.1112 52.8125 38.1112C55.0527 38.1112 56.875 39.9428 56.875 42.1945C56.875 44.4462 55.0527 46.2778 52.8125 46.2778ZM62.2917 40.8333H59.4466C58.8174 37.7308 56.0833 35.3888 52.8126 35.3888C49.5419 35.3888 46.8079 37.7308 46.1787 40.8333H43.3335V16.3333H52.252L62.2918 26.4247V40.8333H62.2917Z" fill="#034EA2"/>
<path d="M2.70842 1.36115C2.70842 0.6088 2.10273 0 1.35421 0C0.605696 0 0 0.6088 0 1.36115V9.52782C0 10.2802 0.605696 10.889 1.35421 10.889H12.1875C12.936 10.889 13.5417 10.2802 13.5417 9.52782C13.5417 8.77547 12.936 8.16667 12.1875 8.16667H2.70842V1.36115Z" transform="translate(46.0415 19.0555)" fill="#034EA2"/>
</svg>
