<svg width="60" height="45" viewBox="0 0 60 45" fill="none" xmlns="http://www.w3.org/2000/svg">
<path d="M59.6338 15.3662L44.6338 0.366211C44.3994 0.131836 44.0821 0 43.7499 0H16.2501C15.9181 0 15.6006 0.131836 15.3662 0.366211L0.366244 15.3662C0.129409 15.6042 -0.00242709 15.9278 3.38443e-05 16.2634C0.00495571 16.6003 0.144057 16.9214 0.385815 17.1533L29.1357 44.6534C29.3775 44.8841 29.6899 45 30 45C30.3101 45 30.6226 44.884 30.8643 44.6534L59.6142 17.1533C59.8559 16.9214 59.995 16.6003 60 16.2634C60.0024 15.9278 59.8706 15.6043 59.6338 15.3662ZM42.0322 2.50008L38.5158 13.3689L32.1757 2.50008H42.0322ZM36.5743 15H23.4258L30 3.72973L36.5743 15ZM27.8243 2.50008L21.4842 13.3689L17.9678 2.50008H27.8243ZM15.6898 3.57797L19.3853 15H4.26765L15.6898 3.57797ZM4.36433 17.5001H20.1939L27.2876 39.4261L4.36433 17.5001ZM30 39.6906L22.8208 17.5001H37.1792L30 39.6906ZM32.7124 39.426L39.8061 17.5H55.6357L32.7124 39.426ZM40.6148 15L44.3103 3.57785L55.7325 15H40.6148Z" fill="#034EA2"/>
</svg>
