<svg width="47" height="42" viewBox="0 0 47 42" fill="none" xmlns="http://www.w3.org/2000/svg">
<path d="M35.736 0V2.3862L4.06091 9.14712V7.75517H0C0 12.3287 0 11.1356 0 21.4758H4.06091V20.0839L8.12183 20.8793V27.2425C8.12183 29.4299 9.94924 31.2195 12.1827 31.2195H23.9594C26.1929 31.2195 28.0203 29.4299 28.0203 27.2425V25.0552L35.9391 26.8448V29.231H40C40 2.7839 40 9.54482 40 0H35.736ZM23.9594 27.2425H11.9797V21.6747L23.9594 24.2597V27.2425ZM4.06091 15.908V13.1241L35.9391 6.16436V22.6689L4.06091 15.908Z" transform="translate(0.222656 10.9482) rotate(-15)" fill="white"/>
</svg>
