<svg width="54" height="72" viewBox="0 0 54 72" fill="none" xmlns="http://www.w3.org/2000/svg">
<path d="M3.80293 10.8529H2.40433V1.78676L0 2.79412V1.55882L3.58293 0.0955882H3.80293V10.8529Z" transform="translate(11 40)" fill="#034EA2"/>
<path d="M12.8781 7.25735H14.151V8.36765H12.8781V10.8529H11.4874V8.36765H7.16585V7.56618L11.4166 0.147059H12.8781V7.25735ZM8.70588 7.25735H11.4874V2.16912L8.70588 7.25735Z" transform="translate(11 40)" fill="#034EA2"/>
<path d="M21.6783 6.28676C21.6783 7.8652 21.4321 9.04657 20.9397 9.83088C20.4473 10.6103 19.6747 11 18.6218 11C17.6003 11 16.8382 10.625 16.3353 9.875C15.8324 9.125 15.5705 7.99755 15.5496 6.49265V4.65441C15.5496 3.09069 15.7958 1.92402 16.2882 1.15441C16.7858 0.384804 17.5584 0 18.6061 0C19.638 0 20.4002 0.365196 20.8925 1.09559C21.3902 1.82598 21.6521 2.93137 21.6783 4.41176V6.28676ZM20.2875 4.42647C20.2875 3.29412 20.154 2.46078 19.8868 1.92647C19.6197 1.38725 19.1927 1.11765 18.6061 1.11765C18.0351 1.11765 17.6161 1.38235 17.3489 1.91176C17.0818 2.43627 16.9429 3.23039 16.9325 4.29412V6.5C16.9325 7.62745 17.0713 8.47549 17.3489 9.04412C17.6265 9.60784 18.0508 9.88971 18.6218 9.88971C19.1875 9.88971 19.6039 9.62255 19.8711 9.08823C20.1382 8.55392 20.2771 7.73775 20.2875 6.63971V4.42647Z" transform="translate(11 40)" fill="#034EA2"/>
<path d="M28.899 9.05556H27.0063V10.8529H25.7351V9.05556H24.5129V8.02288H25.7351V7.12745H24.5129V6.10131H25.7351V1.3366H28.9758C29.907 1.3366 30.6427 1.59804 31.1828 2.12091C31.7276 2.64379 32 3.34314 32 4.21895C32 5.13399 31.7416 5.84641 31.2247 6.35621C30.7079 6.86166 29.9746 7.11874 29.0247 7.12745H27.0063V8.02288H28.899V9.05556ZM27.0063 6.10131H28.9758C29.5485 6.10131 29.9815 5.94009 30.2749 5.61765C30.5729 5.29521 30.7219 4.83333 30.7219 4.23203C30.7219 3.68736 30.5706 3.24292 30.2679 2.89869C29.9653 2.55447 29.5485 2.378 29.0177 2.36928H27.0063V6.10131Z" transform="translate(11 40)" fill="#034EA2"/>
<path d="M6.14453 18.624H3.88477V2.9707L0 4.70996V2.57715L5.78906 0.0507812H6.14453V18.624Z" transform="translate(10 16)" fill="#034EA2"/>
<path d="M18.9602 15.5137L22.6418 4.8877H25.4348V18.624H23.2004V9.15332L19.7346 18.624H18.1985L14.6565 8.9248V18.624H12.4221V4.8877H15.3166L18.9602 15.5137Z" transform="translate(10 16)" fill="#034EA2"/>
<path d="M34.9563 10.1562H28.4563V8.78516L31.7063 5.12891C32.4003 4.30794 32.7473 3.6097 32.7473 3.03418C32.7473 2.61947 32.6457 2.28516 32.4426 2.03125C32.2395 1.76888 31.9475 1.6377 31.5666 1.6377C31.0758 1.6377 30.7161 1.7985 30.4875 2.12012C30.2675 2.44173 30.1575 2.84375 30.1575 3.32617H28.2659C28.2659 2.36133 28.5663 1.56576 29.1672 0.939453C29.7766 0.313151 30.5595 0 31.5159 0C32.4976 0 33.2636 0.270833 33.8137 0.8125C34.3638 1.3457 34.6389 2.0778 34.6389 3.00879C34.6389 3.91439 34.2284 4.84115 33.4075 5.78906L30.8557 8.53125H34.9563V10.1562Z" transform="translate(10 16)" fill="#034EA2"/>
<path d="M52.9924 9.08353L27.4965 0.0856406C27.1744 -0.0285469 26.8169 -0.0285469 26.4947 0.0856406L0.998859 9.08353C0.395437 9.29588 0 9.86555 0 10.5055V28.5013C0 51.7942 3.4477 60.3073 26.316 71.8374C26.5299 71.9459 26.7642 72 26.9956 72C27.2271 72 27.4614 71.9459 27.6753 71.8374C50.5436 60.3075 53.9913 51.7943 53.9913 28.5013L54 10.5055C54 9.86555 53.5957 9.29588 52.9924 9.08353ZM51.0083 28.5015C51.0083 50.8015 48.1504 58.2112 27.0045 68.9913C5.85844 58.211 3.00052 50.8013 3.00052 28.5015V11.5718L26.9956 3.10697L51.0083 11.5718V28.5015Z" fill="#034EA2"/>
</svg>
