<svg width="207" height="54" viewBox="0 0 207 54" fill="none" xmlns="http://www.w3.org/2000/svg">
<path d="M0 0.0093626C0.00428 0.00841278 0.00875172 0.00841046 0.0131268 0.00698572C0.0189286 0.00461116 0.0233959 0.00118728 0.0276759 0L0 0.0104931" transform="translate(31.8081 26.233)" fill="#034EA2"/>
<path d="M0 2.50753C0 3.8847 1.13259 4.99261 2.51733 4.99261C3.90207 4.99261 5.01494 3.8847 5.01494 2.50753C5.01494 1.12754 3.90207 0 2.51733 0C1.13259 0 0 1.12754 0 2.50753Z" transform="translate(13.6289 19.0939)" fill="#034EA2"/>
<path d="M3.86822 12.4944C5.24029 12.4898 8.90711 12.5462 9.97912 14.4171L10.0045 14.4633L10.0369 14.5041C10.4891 15.079 11.6907 16.6063 9.92137 20.0338C8.11965 23.5314 8.20417 27.0319 8.53803 28.5493L8.54648 28.5827C9.66358 32.682 12.8134 35.9595 16.7704 37.1375L16.9564 37.1922L17.1423 37.1458C21.636 36.0393 24.4168 31.9555 25.1789 28.392C25.3803 27.4033 25.9945 24.3923 23.9547 19.9803C22.37 16.5135 23.2025 15.306 23.8096 14.4253L23.8322 14.3919L23.8519 14.3552C24.9042 12.3722 27.7765 12.4143 30.8151 12.4802C31.6194 12.4984 33.8931 12.4927 33.8931 12.4927L33.8889 0L30.2616 0.000922388L30.2771 8.84037C29.7418 8.85291 29.1304 8.85159 28.6373 8.84495C27.154 8.8253 25.8707 8.81128 24.5056 9.35822C22.1841 10.1856 20.5092 12.1659 19.7922 14.9343C19.0906 17.6157 19.9739 19.7277 20.829 21.7696C21.3178 22.9407 21.7812 24.0486 21.9517 25.2504C22.1743 28.699 20.2444 31.954 17.1058 33.4939L16.9607 33.5612C16.9607 33.5612 16.9184 33.5534 16.8241 33.4911C14.0067 32.1405 11.4555 29.1562 11.8246 25.2715C11.9035 24.4651 12.3317 23.4525 12.7853 22.3811C13.6658 20.3027 14.7603 17.7167 14.118 14.8543L14.1137 14.8387L14.1095 14.8246C13.2643 11.6944 11.4767 9.83473 8.63392 9.13914C6.87024 8.73524 3.78943 8.77451 3.78943 8.77451L3.78098 0.000978291L0.00709757 0.0177769L0 12.4825C0 12.4825 2.80048 12.495 3.86826 12.4937" transform="translate(7.31543 16.8078)" fill="#034EA2"/>
<path d="M6.08272 12.5054V0.0112084L0.0436692 0L4.99099 6.23934L0 12.4983L6.08272 12.5051" transform="translate(0 16.7968)" fill="#034EA2"/>
<path d="M33.8649 7.54782C33.8959 2.6099 36.2386 1.28601 39.132 0.0266375H15.3111C12.1274 0.0421162 9.28468 2.33362 8.72402 5.63912V0L0 0.00559023V15.5836H33.8649V7.54779" transform="translate(7.3252)" fill="#00AB4E"/>
<path d="M7.93797 27.2532H14.8716V6.10613H22.5489V0H0V6.10613H7.93797V27.2532Z" transform="translate(51.4736 16.8402)" fill="#231F20"/>
<path d="M20.333 21.1457H6.93357V15.9539H18.7314V10.4578H6.93357V5.68541H19.9611V0H0V27.2532H20.333V21.1457Z" transform="translate(76.3735 16.8402)" fill="#231F20"/>
<path d="M18.213 27.2434L7.65623 13.5404L18.2228 0H9.39596L0 13.5488L9.52133 27.2434H18.213Z" transform="translate(108.485 16.8444)" fill="#231F20"/>
<path d="M7.56466 18.8569V0H0V27.2546H7.56466V18.8569Z" transform="translate(100.216 16.8332)" fill="#231F20"/>
<path d="M6.91519 11.152H6.98844L17.0155 27.2546H24.5266V0H17.6128V16.1068H17.5382L7.51113 0H0V27.2546H6.91525V11.152" transform="translate(128.673 16.8332)" fill="#231F20"/>
<path d="M13.4488 28.399C22.0446 28.399 26.8961 22.0993 26.8961 14.1981C26.8961 6.29686 22.0446 0 13.4488 0C4.85294 0 0 6.29686 0 14.1981C0 22.0993 4.85294 28.399 13.4488 28.399ZM13.4488 6.10752C18.0326 6.10752 19.7907 10.1521 19.7907 14.1981C19.7907 18.2455 18.0326 22.2914 13.4488 22.2914C8.86348 22.2914 7.10685 18.2455 7.10685 14.1981C7.10685 10.1521 8.86348 6.10752 13.4488 6.10752Z" transform="translate(156.162 16.261)" fill="#231F20"/>
<path d="M13.8404 20.2958C13.8404 22.499 11.4921 22.9702 9.01703 22.9702C5.78831 22.9702 2.97797 22.1848 0.96495 21.1611L0.294407 27.2181C2.89485 28.0049 6.29121 28.3989 9.01703 28.3989C15.5181 28.3989 21.8925 26.472 21.8925 19.3506C21.8925 9.43967 8.05348 12.4296 8.05348 7.98394C8.05348 5.58441 11.3245 5.42733 13.2952 5.42733C15.5181 5.42733 17.7833 5.82144 19.7963 6.68673L20.2992 1.02234C18.3285 0.392653 15.5604 0 12.75 0C6.87863 0 0 1.80911 0 8.4159C0 18.4067 13.8404 15.1825 13.8404 20.2958Z" transform="translate(185.107 16.2653)" fill="#231F20"/>
</svg>
