<svg width="64" height="64" viewBox="0 0 64 64" fill="none" xmlns="http://www.w3.org/2000/svg">
<path d="M1.33337 2.66675C2.06978 2.66675 2.66675 2.06978 2.66675 1.33337C2.66675 0.596972 2.06978 0 1.33337 0C0.596971 0 0 0.596972 0 1.33337C0 2.06978 0.596971 2.66675 1.33337 2.66675Z" transform="translate(40 10.6666)" fill="#034EA2"/>
<path d="M1.33337 2.66675C2.06978 2.66675 2.66675 2.06978 2.66675 1.33337C2.66675 0.596972 2.06978 0 1.33337 0C0.596971 0 0 0.596972 0 1.33337C0 2.06978 0.596971 2.66675 1.33337 2.66675Z" transform="translate(48 10.6666)" fill="#034EA2"/>
<path d="M12.6094 0.157037C11.9688 -0.181463 11.1616 0.0736604 10.8152 0.71691C10.7736 0.796285 9.7318 2.66354 6.66668 2.66354C3.62505 2.66354 2.57556 0.823662 2.51818 0.718162C2.18218 0.0722866 1.39318 -0.18159 0.736931 0.13741C0.0780557 0.466785 -0.187569 1.26766 0.140556 1.92654C0.210931 2.06591 1.89843 5.33016 6.66656 5.33016C11.4348 5.33016 13.1223 2.06579 13.1926 1.92654C13.5183 1.27554 13.2553 0.491662 12.6094 0.157037Z" transform="translate(38.6665 16.0031)" fill="#034EA2"/>
<path d="M9.33337 18.6667C14.4792 18.6667 18.6667 14.4793 18.6667 9.33338C18.6667 4.1875 14.4792 0 9.33337 0C4.1875 0 0 4.1875 0 9.33338C0 14.4793 4.18762 18.6667 9.33337 18.6667ZM9.33337 2.66675C13.0105 2.66675 16 5.65763 16 9.33338C16 13.0091 13.0104 16 9.33337 16C5.65637 16 2.66675 13.0091 2.66675 9.33338C2.66675 5.65763 5.65637 2.66675 9.33337 2.66675Z" transform="translate(9.3335 26.6666)" fill="#034EA2"/>
<path d="M33 3.81638C29.6432 2.0755 24.4322 0 18.6666 0C12.901 0 7.69 2.0755 4.33325 3.81638C1.6615 5.20188 0 7.93362 0 10.9466V12.1666C0 14.28 1.70837 16 3.80988 16H33.5234C35.625 16 37.3332 14.28 37.3332 12.1666V10.9466C37.3334 7.93362 35.6719 5.20188 33 3.81638ZM34.6666 12.1666C34.6666 12.8099 34.1536 13.3332 33.5234 13.3332H3.80988C3.17963 13.3332 2.66663 12.8098 2.66663 12.1666V10.9466C2.66663 8.93362 3.776 7.10937 5.5625 6.18362C8.65363 4.5795 13.4401 2.66675 18.6666 2.66675C23.8931 2.66675 28.6796 4.5795 31.7708 6.18362C33.5573 7.10937 34.6666 8.93362 34.6666 10.9466V12.1666Z" transform="translate(0 48)" fill="#034EA2"/>
<path d="M18.6666 0C8.375 0 0 6.57938 0 14.6666C0 17.9114 1.35938 21.0339 3.85938 23.5885L0.390625 27.0573C0.010375 27.4388 -0.104125 28.0116 0.1015 28.5104C0.30725 29.0091 0.79425 29.3333 1.33325 29.3333H18.6666C28.9582 29.3334 37.3333 22.7539 37.3333 14.6666C37.3333 6.57938 28.9582 0 18.6666 0ZM18.6666 26.6666H4.552L6.71863 24.5C6.98163 24.237 7.12225 23.8776 7.10925 23.5065C7.09363 23.1354 6.92438 22.7865 6.64313 22.5455C4.078 20.3463 2.6665 17.5481 2.6665 14.6666C2.6665 8.04938 9.84362 2.66663 18.6665 2.66663C27.4894 2.66663 34.6665 8.0495 34.6665 14.6666C34.6665 21.2838 27.4895 26.6666 18.6666 26.6666Z" transform="translate(26.6665)" fill="#034EA2"/>
</svg>
