<svg width="151" height="37" viewBox="0 0 151 37" version="1.1" xmlns="http://www.w3.org/2000/svg" xmlns:xlink="http://www.w3.org/1999/xlink">
<title>isolux_logo</title>
<desc>Created using Figma</desc>
<g id="Canvas" transform="translate(2625 -450)">
<g id="isolux_logo">
<g id="Group">
<g id="Vector">
<use xlink:href="#path0_fill" transform="translate(-2625 481.86)" fill="#1C2227"/>
</g>
<g id="Vector">
<use xlink:href="#path1_fill" transform="translate(-2620.18 481.939)" fill="#1C2227"/>
</g>
<g id="Vector">
<use xlink:href="#path2_fill" transform="translate(-2616.62 481.939)" fill="#1C2227"/>
</g>
<g id="Vector">
<use xlink:href="#path3_fill" transform="translate(-2611.88 481.86)" fill="#1C2227"/>
</g>
<g id="Vector">
<use xlink:href="#path4_fill" transform="translate(-2606.97 481.978)" fill="#1C2227"/>
</g>
<g id="Vector">
<use xlink:href="#path5_fill" transform="translate(-2601.76 481.939)" fill="#1C2227"/>
</g>
<g id="Vector">
<use xlink:href="#path6_fill" transform="translate(-2598.08 481.978)" fill="#1C2227"/>
</g>
<g id="Vector">
<use xlink:href="#path7_fill" transform="translate(-2594.09 481.939)" fill="#1C2227"/>
</g>
<g id="Vector">
<use xlink:href="#path8_fill" transform="translate(-2588.99 481.978)" fill="#1C2227"/>
</g>
<g id="Vector">
<use xlink:href="#path9_fill" transform="translate(-2584.6 481.978)" fill="#1C2227"/>
</g>
<g id="Vector">
<use xlink:href="#path10_fill" transform="translate(-2579.7 481.978)" fill="#1C2227"/>
</g>
<g id="Vector">
<use xlink:href="#path11_fill" transform="translate(-2573.65 480.644)" fill="#1C2227"/>
</g>
<g id="Vector">
<use xlink:href="#path12_fill" transform="translate(-2566.97 481.978)" fill="#1C2227"/>
</g>
<g id="Vector">
<use xlink:href="#path13_fill" transform="translate(-2563.18 481.978)" fill="#1C2227"/>
</g>
<g id="Vector">
<use xlink:href="#path14_fill" transform="translate(-2558.28 481.978)" fill="#1C2227"/>
</g>
<g id="Vector">
<use xlink:href="#path15_fill" transform="translate(-2553.37 481.978)" fill="#1C2227"/>
</g>
<g id="Vector">
<use xlink:href="#path16_fill" transform="translate(-2549.07 481.939)" fill="#1C2227"/>
</g>
<g id="Vector">
<use xlink:href="#path17_fill" transform="translate(-2544.56 481.978)" fill="#1C2227"/>
</g>
<g id="Vector">
<use xlink:href="#path18_fill" transform="translate(-2539.14 481.978)" fill="#1C2227"/>
</g>
<g id="Vector">
<use xlink:href="#path19_fill" transform="translate(-2534.16 481.939)" fill="#1C2227"/>
</g>
<g id="Vector">
<use xlink:href="#path20_fill" transform="translate(-2529.74 482.017)" fill="#1C2227"/>
</g>
<g id="Vector">
<use xlink:href="#path21_fill" transform="translate(-2524.91 481.978)" fill="#1C2227"/>
</g>
<g id="Vector">
<use xlink:href="#path22_fill" transform="translate(-2612.55 456.906)" fill="#1C2227"/>
</g>
<g id="Vector">
<use xlink:href="#path23_fill" transform="translate(-2591.2 456.984)" fill="#1C2227"/>
</g>
<g id="Vector">
<use xlink:href="#path24_fill" transform="translate(-2514.71 457.376)" fill="#FFE600"/>
</g>
<g id="Vector">
<use xlink:href="#path25_fill" transform="translate(-2520.17 481.978)" fill="#1C2227"/>
</g>
<g id="Vector">
<use xlink:href="#path26_fill" transform="translate(-2557.09 457.337)" fill="#1C2227"/>
</g>
<g id="Group">
<g id="Vector">
<use xlink:href="#path27_fill" transform="translate(-2536.26 457.376)" fill="#1C2227"/>
</g>
<g id="Vector">
<use xlink:href="#path28_fill" transform="translate(-2523.89 469.854)" fill="#1C2227"/>
</g>
</g>
<g id="Vector">
<use xlink:href="#path29_fill" transform="translate(-2623.42 457.376)" fill="#1C2227"/>
</g>
<g id="Vector">
<use xlink:href="#path30_fill" transform="translate(-2618.71 450)" fill="#1C2227"/>
</g>
<g id="Vector">
<use xlink:href="#path31_fill" transform="translate(-2569.19 450)" fill="#1C2227"/>
</g>
<g id="Group">
<g id="Vector">
<use xlink:href="#path32_fill" transform="translate(-2506.93 474.052)" fill="#1C2227"/>
</g>
<g id="Vector">
<use xlink:href="#path33_fill" transform="translate(-2501.91 466.911)" fill="#1C2227"/>
</g>
<g id="Vector">
<use xlink:href="#path34_fill" transform="translate(-2494.28 467.225)" fill="#1C2227"/>
</g>
</g>
</g>
</g>
</g>
<defs>
<path id="path0_fill" d="M 2.01597 5.13998C 0.751045 5.13998 -4.82529e-06 4.35525 -4.82529e-06 2.98197C -4.82529e-06 1.37328 0.948689 -2.39481e-06 2.6089 -2.39481e-06C 3.75523 -2.39481e-06 4.50629 0.667016 4.50629 1.7264L 4.50629 1.84412L 3.51807 1.84412C 3.47854 1.21633 3.20183 0.902444 2.56937 0.902444C 1.54162 0.902444 1.06728 2.07953 1.06728 2.98197C 1.06728 3.80594 1.46257 4.27677 2.13456 4.27677C 2.72749 4.27677 3.12278 3.92365 3.28089 3.25663L 4.30864 3.25663C 4.111 4.43373 3.20183 5.13998 2.01597 5.13998Z"/>
<path id="path1_fill" d="M 3.95288 0.902437L 2.49031 0.902437L 1.66021 4.9438L 0.632463 4.9438L 1.46257 0.902437L 0 0.902437L 0.197644 2.3948e-06L 4.19005 2.3948e-06L 3.95288 0.902437Z"/>
<path id="path2_fill" d="M 2.84608 0.0392413C 3.20184 0.0392413 3.47853 0.0784706 3.67617 0.117707C 4.19005 0.274653 4.54581 0.784734 4.54581 1.41252C 4.54581 2.00107 4.26911 2.5896 3.79477 2.86426C 3.39948 3.09968 2.8856 3.13892 2.41126 3.13892L 1.38351 3.13892L 1.02775 4.90456L 0 4.90456L 1.02775 2.3948e-06L 2.84608 2.3948e-06L 2.84608 0.0392413ZM 1.58115 2.31495L 2.64843 2.31495C 3.16231 2.31495 3.51806 2.07953 3.51806 1.53022C 3.51806 0.941675 3.08325 0.902436 2.6089 0.902436L 1.81833 0.902436L 1.58115 2.31495Z"/>
<path id="path3_fill" d="M 4.70392 2.07954C 4.70392 3.72747 3.75524 5.13998 2.0555 5.13998C 0.751052 5.13998 0 4.31601 0 2.94273C 0 1.25557 1.10681 -2.39481e-06 2.56937 -2.39481e-06C 3.91335 -2.39481e-06 4.70392 0.784735 4.70392 2.07954ZM 1.02775 2.98197C 1.02775 3.80594 1.46256 4.27677 2.13455 4.27677C 3.20183 4.27677 3.67617 3.06044 3.67617 2.11877C 3.67617 1.33404 3.28089 0.863205 2.56937 0.863205C 1.50209 0.863205 1.02775 2.0403 1.02775 2.98197Z"/>
<path id="path4_fill" d="M 3.95288 4.90457L 2.92513 4.90457L 3.63665 1.49099L 1.22539 4.90457L -2.41265e-06 4.90457L 0.988217 4.78961e-06L 2.01597 4.78961e-06L 1.30446 3.41357L 3.7157 4.78961e-06L 4.9411 4.78961e-06L 3.95288 4.90457Z"/>
<path id="path5_fill" d="M 3.99241 0.902437L 2.52984 0.902437L 1.69974 4.9438L 0.671985 4.9438L 1.50209 0.902437L 2.41265e-06 0.902437L 0.197646 2.3948e-06L 4.19006 2.3948e-06L 3.99241 0.902437Z"/>
<path id="path6_fill" d="M 4.42723 0.8632L 1.85786 0.8632L 1.62068 1.96183L 4.03194 1.96183L 3.87383 2.78579L 1.46257 2.78579L 1.22539 4.00212L 3.87383 4.00212L 3.67618 4.90457L -2.41265e-06 4.90457L 1.02775 4.78961e-06L 4.6644 4.78961e-06L 4.42723 0.8632Z"/>
<path id="path7_fill" d="M 4.2691 4.9438L 3.24137 4.9438L 4.07146 0.902437L 2.84608 0.902437L 2.3322 3.0212C 1.97644 4.59066 1.42303 5.02227 0.553401 5.02227C 0.355757 5.02227 0.118586 4.9438 0 4.9438L 0.158113 4.11983C 0.23717 4.11983 0.395293 4.15907 0.47435 4.15907C 0.751052 4.15907 1.02775 4.00213 1.26493 2.98198L 1.97644 2.39481e-06L 5.29686 2.39481e-06L 4.2691 4.9438Z"/>
<path id="path8_fill" d="M 3.43901 4.62991C 3.04372 4.86532 2.52985 4.90457 2.0555 4.90457L -2.41265e-06 4.90457L 1.02775 4.78961e-06L 2.0555 4.78961e-06L 1.69974 1.76565L 2.49032 1.76565C 2.84608 1.76565 3.12277 1.80488 3.32041 1.84411C 3.83429 2.00106 4.19005 2.51114 4.19005 3.13892C 4.19005 3.76671 3.91335 4.31601 3.43901 4.62991ZM 2.29268 2.5896L 1.54162 2.5896L 1.22539 4.04136L 2.29268 4.04136C 2.80655 4.04136 3.20183 3.80594 3.20183 3.25663C 3.20183 2.66808 2.76702 2.5896 2.29268 2.5896Z"/>
<path id="path9_fill" d="M 4.03194 4.90457L 3.00419 4.90457L 3.43901 2.78579L 1.50209 2.78579L 1.06728 4.90457L 0 4.90457L 0.98822 4.78961e-06L 2.01597 4.78961e-06L 1.62068 1.88335L 3.55759 1.88335L 3.95288 4.78961e-06L 4.98063 4.78961e-06L 4.03194 4.90457Z"/>
<path id="path10_fill" d="M 3.20183 4.62991C 2.80655 4.86532 2.29267 4.90457 1.81833 4.90457L -2.41265e-06 4.90457L 0.988218 4.78961e-06L 2.01597 4.78961e-06L 1.66021 1.76565L 2.25314 1.76565C 2.6089 1.76565 2.88561 1.80488 3.08325 1.84411C 3.59713 2.00106 3.91335 2.51114 3.91335 3.13892C 3.95288 3.76671 3.67618 4.31601 3.20183 4.62991ZM 2.0555 2.5896L 1.5021 2.5896L 1.22539 4.00212L 2.0555 4.00212C 2.56938 4.00212 2.92513 3.7667 2.92513 3.21739C 2.96466 2.66808 2.52985 2.5896 2.0555 2.5896ZM 6.16649 4.78961e-06L 5.17827 4.90457L 4.15052 4.90457L 5.17827 4.78961e-06L 6.16649 4.78961e-06Z"/>
<path id="path11_fill" d="M 3.9924 6.23861L 2.96466 6.23861L 3.67618 2.82503L 1.26492 6.23861L 4.82529e-06 6.23861L 1.02774 1.33405L 2.0555 1.33405L 1.34398 4.74761L 3.75524 1.33405L 4.98062 1.33405L 3.9924 6.23861ZM 4.19005 -4.78961e-06C 4.11099 0.706252 3.63664 0.980908 3.00418 0.980908C 2.41125 0.980908 1.97644 0.745489 1.97644 0.196178C 1.97644 0.117705 1.97644 0.0784682 1.97644 -4.78961e-06L 2.3322 -4.78961e-06C 2.3322 0.313887 2.6089 0.470838 3.00418 0.470838C 3.39947 0.470838 3.7157 0.353124 3.79476 -4.78961e-06L 4.19005 -4.78961e-06Z"/>
<path id="path12_fill" d="M 4.15052 0.8632L 1.85785 0.8632L 1.02775 4.90457L 2.41265e-06 4.90457L 1.02775 4.78961e-06L 4.34817 4.78961e-06L 4.15052 0.8632Z"/>
<path id="path13_fill" d="M 3.9924 4.90457L 2.96466 4.90457L 3.67618 1.49099L 1.26492 4.90457L 4.82529e-06 4.90457L 1.02774 4.78961e-06L 2.0555 4.78961e-06L 1.34398 3.41357L 3.75524 4.78961e-06L 4.98062 4.78961e-06L 3.9924 4.90457Z"/>
<path id="path14_fill" d="M 3.99241 4.90457L 2.96466 4.90457L 3.79477 0.8632L 1.85785 0.8632L 1.02775 4.90457L 2.41265e-06 4.90457L 1.02775 4.78961e-06L 5.05968 4.78961e-06L 3.99241 4.90457Z"/>
<path id="path15_fill" d="M 4.42723 0.8632L 1.85786 0.8632L 1.62068 1.96183L 4.03195 1.96183L 3.87382 2.78579L 1.46257 2.78579L 1.2254 4.00212L 3.87382 4.00212L 3.67618 4.90457L 0 4.90457L 1.02775 4.78961e-06L 4.6644 4.78961e-06L 4.42723 0.8632Z"/>
<path id="path16_fill" d="M 2.84607 0.0392413C 3.20183 0.0392413 3.47853 0.0784706 3.67618 0.117707C 4.19005 0.274653 4.5458 0.784734 4.5458 1.41252C 4.5458 2.00107 4.2691 2.5896 3.79476 2.86426C 3.39947 3.09968 2.8856 3.13892 2.41125 3.13892L 1.3835 3.13892L 1.02775 4.90456L -2.41264e-06 4.90456L 1.02775 2.3948e-06L 2.84607 2.3948e-06L 2.84607 0.0392413ZM 1.54162 2.31495L 2.6089 2.31495C 3.12277 2.31495 3.47853 2.07953 3.47853 1.53022C 3.47853 0.941675 3.04371 0.902436 2.56936 0.902436L 1.77879 0.902436L 1.54162 2.31495Z"/>
<path id="path17_fill" d="M 0.948696 4.78961e-06L 2.41125 4.78961e-06L 2.76701 3.57052L 4.62487 4.78961e-06L 6.12696 4.78961e-06L 5.09922 4.90457L 4.111 4.90457L 4.98062 0.980917L 2.96465 4.90457L 2.17408 4.90457L 1.69974 0.980917L 0.988215 4.90457L -4.82529e-06 4.90457L 0.948696 4.78961e-06Z"/>
<path id="path18_fill" d="M 4.70394 4.90457L 3.67617 4.90457L 3.51807 3.80594L 1.73926 3.80594L 1.14633 4.90457L 0 4.90457L 2.80654 4.78961e-06L 3.87382 4.78961e-06L 4.70394 4.90457ZM 3.43901 3.02121L 3.1623 1.1771L 2.13456 3.02121L 3.43901 3.02121Z"/>
<path id="path19_fill" d="M 2.84607 0.0392413C 3.20183 0.0392413 3.47854 0.0784706 3.67619 0.117707C 4.19006 0.274653 4.5458 0.784734 4.5458 1.41252C 4.5458 2.00107 4.26911 2.5896 3.79477 2.86426C 3.39948 3.09968 2.88561 3.13892 2.41126 3.13892L 1.3835 3.13892L 1.02775 4.90456L -9.65058e-06 4.90456L 1.02775 2.3948e-06L 2.84607 2.3948e-06L 2.84607 0.0392413ZM 1.54162 2.31495L 2.6089 2.31495C 3.12278 2.31495 3.47854 2.07953 3.47854 1.53022C 3.47854 0.941675 3.04371 0.902436 2.56936 0.902436L 1.81833 0.902436L 1.54162 2.31495Z"/>
<path id="path20_fill" d="M 2.92514 1.96182L 4.38771 4.86533L 3.20184 4.86533L 2.09502 2.66808L 1.34398 3.3351L 1.02776 4.90456L -4.82529e-06 4.90456L 0.988215 -4.78961e-06L 2.01598 -4.78961e-06L 1.62069 2.00106L 3.79478 -4.78961e-06L 5.17828 -4.78961e-06L 2.92514 1.96182Z"/>
<path id="path21_fill" d="M 4.42723 0.8632L 1.85786 0.8632L 1.62067 1.96183L 4.03194 1.96183L 3.87382 2.78579L 1.46257 2.78579L 1.22538 4.00212L 3.87382 4.00212L 3.67617 4.90457L -4.4939e-14 4.90457L 1.02774 4.78961e-06L 4.66439 4.78961e-06L 4.42723 0.8632Z"/>
<path id="path22_fill" d="M 13.8351 6.31707C 13.8746 6.19936 13.8746 6.08166 13.8746 6.00318C 13.8746 4.82609 13.1236 4.27678 11.5819 4.27678C 10.2775 4.27678 9.44739 4.90456 9.44739 5.807C 9.44739 7.06257 10.989 7.18028 11.8982 7.33722C 15.7325 7.96501 19.6458 8.59279 19.6458 13.4189C 19.6458 18.9512 14.1513 20.6776 9.40786 20.6776C 5.2178 20.6776 -4.82529e-06 19.5005 -4.82529e-06 14.2821C -4.82529e-06 14.0859 0.0395264 13.9682 0.0395264 13.6151L 6.9966 13.6151L 6.9966 13.8505C 6.9966 15.3415 7.8267 15.9692 9.72408 15.9692C 11.3052 15.9692 12.2144 15.3807 12.2144 14.3998C 12.2144 12.948 10.238 12.8303 7.15471 12.2418C 3.59712 11.5748 1.81832 9.84835 1.81832 6.90562C 1.81832 1.49098 6.99659 1.1974e-06 11.7005 1.1974e-06C 17.7089 1.1974e-06 20.7131 1.88335 20.7131 5.68928L 20.7131 6.27783L 13.8351 6.27783L 13.8351 6.31707Z"/>
<path id="path23_fill" d="M 9.8822 20.6384C 4.22958 20.6384 -4.82529e-06 18.0488 -4.82529e-06 11.8494C -4.82529e-06 4.86533 4.62487 -2.23034e-14 11.8982 -2.23034e-14C 17.4717 -2.23034e-14 21.7804 2.74656 21.7804 8.7105C 21.7804 15.6946 17.1555 20.6384 9.8822 20.6384ZM 7.47095 12.1633C 7.47095 14.2821 8.38011 15.3807 10.1589 15.3807C 13.3212 15.3807 14.2699 10.7116 14.2699 8.35737C 14.2699 6.63096 13.5584 5.13998 11.5819 5.13998C 8.45917 5.17922 7.47095 9.84836 7.47095 12.1633Z"/>
<path id="path24_fill" d="M 40.7147 0L 6.28508 0L -4.82529e-06 29.5058L 34.39 29.5058L 40.7147 0Z"/>
<path id="path25_fill" d="M 4.15053 4.78961e-06L 0.158125 4.78961e-06L 0 0.8632L 1.46257 0.8632L 0.632452 4.90457L 1.69974 4.90457L 2.52986 0.8632L 3.95289 0.8632L 4.15053 4.78961e-06Z"/>
<path id="path26_fill" d="M 19.2505 19.6967L 11.8982 19.6967L 12.4911 17.0286C 10.91 19.2259 8.89397 20.246 6.00837 20.246C 2.33219 20.246 2.41265e-06 18.2057 2.41265e-06 15.0276C 2.41265e-06 14.2428 0.158115 12.7911 0.355759 11.8887L 2.8856 -2.39481e-06L 10.5147 -2.39481e-06L 8.18246 11.0647C 8.1034 11.4963 8.02434 12.0848 8.02434 12.438C 8.02434 13.6543 8.81492 14.3998 10.1589 14.3998C 11.8982 14.3998 13.084 13.105 13.5979 10.6723L 15.8906 0.0392365L 23.4406 0.0392365L 19.2505 19.6967Z"/>
<path id="path27_fill" d="M 24.8636 0L 16.444 0L 13.4003 3.64899L 12.0958 0L 4.38771 0L 8.89397 9.02439L -4.82529e-06 19.6575L 8.38011 19.6575L 24.8636 0Z"/>
<path id="path28_fill" d="M 8.93352 7.18028L 5.33638 -4.78961e-06L -9.65059e-06 3.60976L 1.26492 7.18028L 8.93352 7.18028Z"/>
<path id="path29_fill" d="M 4.19005 0L -4.82529e-06 19.6575L 7.58953 19.6575L 11.7796 0L 4.19005 0Z"/>
<path id="path30_fill" d="M 1.06728 -1.1974e-06L 4.82529e-06 4.9438L 7.62906 4.9438L 8.65681 -1.1974e-06L 1.06728 -1.1974e-06Z"/>
<path id="path31_fill" d="M 5.85026 -1.1974e-06L 0 27.0339L 7.62905 27.0339L 13.4003 -1.1974e-06L 5.85026 -1.1974e-06Z"/>
<path id="path32_fill" d="M 3.12278 2.98197L 0 2.98197L 0.671994 0L 3.79475 0L 3.12278 2.98197Z"/>
<path id="path33_fill" d="M 7.98482 2.62884C 7.55001 2.51113 7.23377 2.4719 6.91754 2.4719C 4.86204 2.4719 4.03194 4.04135 3.63666 5.72852L 2.68796 10.0838L 4.82529e-06 10.0838L 2.09503 0.274655L 4.6644 0.274655L 4.22959 2.07954C 5.05969 0.863205 6.04791 -4.78961e-06 7.58953 -4.78961e-06C 7.90576 -4.78961e-06 8.06386 0.0392365 8.45915 0.0784729L 7.98482 2.62884Z"/>
<path id="path34_fill" d="M 8.57775 9.80912L 5.96884 9.80912L 6.28509 8.39661C 5.45498 9.5737 4.3877 10.123 2.96466 10.123C 1.10681 10.123 0 9.1421 0 7.5334C 0 7.14104 0.0790576 6.63096 0.197644 5.96394L 1.46257 0.0392413L 4.19004 0.0392413L 3.04372 5.33617C 2.88561 6.04242 2.80653 6.51325 2.80653 6.74867C 2.80653 7.5334 3.28088 7.965 4.19004 7.965C 5.73167 7.965 6.48271 6.55249 6.75941 5.25769L 7.90576 2.39481e-06L 10.5937 2.39481e-06L 8.57775 9.80912Z"/>
</defs>
</svg>
