<svg width="37" height="12" viewBox="0 0 37 12" version="1.1" xmlns="http://www.w3.org/2000/svg" xmlns:xlink="http://www.w3.org/1999/xlink">
<title>Visa_Inc._logo</title>
<desc>Created using Figma</desc>
<g id="Canvas" transform="translate(1999 -707)">
<g id="Visa_Inc._logo">
<g id="g4158">
<g id="polygon9">
<use xlink:href="#path0_fill" transform="matrix(4.42996 0 0 4.42996 -1986.01 707.211)" fill="#00579F"/>
</g>
<g id="path11">
<use xlink:href="#path1_fill" transform="matrix(4.42996 0 0 4.42996 -1981.16 707)" fill="#00579F"/>
</g>
<g id="path13">
<use xlink:href="#path2_fill" transform="matrix(4.42996 0 0 4.42996 -1972.86 707.211)" fill="#00579F"/>
</g>
<g id="path15">
<use xlink:href="#path3_fill" transform="matrix(4.42996 0 0 4.42996 -1995.88 707.211)" fill="#00579F"/>
</g>
<g id="path17">
<use xlink:href="#path4_fill" transform="matrix(4.42996 0 0 4.42996 -1999 707.211)" fill="#FAA61A"/>
</g>
</g>
</g>
</g>
<defs>
<path id="path0_fill" d="M 0.673975 2.62221L 6.29854e-08 2.62221L 0.421552 3.1116e-08L 1.09549 3.1116e-08L 0.673975 2.62221Z"/>
<path id="path1_fill" d="M 2.02174 0.111638C 1.8888 0.0585813 1.67795 -2.43271e-08 1.41724 -2.43271e-08C 0.751667 -2.43271e-08 0.282976 0.357049 0.280101 0.867522C 0.274573 1.24415 0.61567 1.45333 0.870783 1.57891C 1.13154 1.70724 1.22017 1.79099 1.22017 1.90537C 1.21752 2.08104 1.00947 2.16202 0.815426 2.16202C 0.546345 2.16202 0.402167 2.12027 0.183061 2.02254L 0.094313 1.98064L 4.7239e-08 2.56927C 0.158073 2.64172 0.449304 2.70601 0.751666 2.70883C 1.45885 2.70883 1.91925 2.3573 1.9247 1.81331C 1.92739 1.51481 1.74728 1.28608 1.35897 1.09918C 1.12324 0.979197 0.97888 0.898295 0.97888 0.775534C 0.981645 0.663933 1.10098 0.549626 1.36708 0.549626C 1.58618 0.544027 1.74717 0.59701 1.86912 0.650029L 1.93008 0.677874L 2.02174 0.111638Z"/>
<path id="path2_fill" d="M 1.04275 1.69326C 1.09826 1.54261 1.31183 0.959583 1.31183 0.959583C 1.30903 0.965181 1.36723 0.806159 1.40051 0.708536L 1.44761 0.934482C 1.44761 0.934482 1.57524 1.56215 1.60295 1.69326C 1.49762 1.69326 1.17587 1.69326 1.04275 1.69326ZM 1.87469 3.1116e-08L 1.35337 3.1116e-08C 1.1926 3.1116e-08 1.07047 0.0473841 1.0011 0.217566L 1.88956e-07 2.62218L 0.707182 2.62218C 0.707182 2.62218 0.823609 2.29853 0.848633 2.22883C 0.926214 2.22883 1.61416 2.22883 1.71396 2.22883C 1.73331 2.32089 1.79438 2.62218 1.79438 2.62218L 2.41842 2.62218L 1.87469 3.1116e-08Z"/>
<path id="path3_fill" d="M 1.66399 3.1116e-08L 1.00394 1.7881L 0.931816 1.42545C 0.809787 1.007 0.427081 0.552369 5.06132e-08 0.326312L 0.604576 2.61943L 1.31729 2.61943L 2.37666 3.1116e-08L 1.66399 3.1116e-08Z"/>
<path id="path4_fill" d="M 1.09545 3.1116e-08L 0.0110935 3.1116e-08L 1.85582e-08 0.0529826C 0.845869 0.270586 1.40607 0.795111 1.63623 1.42556L 1.40051 0.220421C 1.3617 0.0529456 1.24243 0.00552446 1.09545 3.1116e-08Z"/>
</defs>
</svg>
